G04*
G04 #@! TF.GenerationSoftware,Altium Limited,Altium Designer,19.0.15 (446)*
G04*
G04 Layer_Color=2752767*
%FSTAX24Y24*%
%MOIN*%
G70*
G01*
G75*
%ADD12C,0.0100*%
%ADD83C,0.0020*%
%ADD84C,0.0027*%
%ADD85C,0.0013*%
D12*
X01035Y0492D02*
X0487D01*
X0463Y0142D02*
X0466D01*
X0487Y0163D02*
Y0166D01*
X0466Y0142D02*
X0487D01*
Y0163D01*
X0487Y0142D02*
X0487Y0492D01*
X0345Y0159D02*
Y0165D01*
X0342Y0159D02*
X0345D01*
X0342D02*
Y0165D01*
X0344Y01685D02*
X03515D01*
Y01655D02*
Y01685D01*
X0345Y01655D02*
X03515D01*
X0342Y01685D02*
X0344D01*
X0342Y01655D02*
Y01685D01*
Y0165D02*
Y01665D01*
X0345Y0165D02*
Y01655D01*
X036496Y016575D02*
X036546D01*
X036496Y016875D02*
X036646D01*
X036546D02*
X036846D01*
Y016675D02*
Y016875D01*
X036546Y0159D02*
Y016575D01*
Y0159D02*
X036846D01*
Y016675D01*
X035878Y016875D02*
X036496D01*
X035878Y016575D02*
Y016875D01*
Y016575D02*
X036496D01*
X036464Y0151D02*
X036942D01*
X034585Y0142D02*
X036464D01*
Y0151D01*
X036942Y0142D02*
X0487D01*
X036942D02*
Y0151D01*
X034585Y0142D02*
Y015093D01*
X034107Y0142D02*
Y015093D01*
X034585D01*
X01035Y0142D02*
Y0492D01*
Y0142D02*
X034107D01*
D83*
X01492Y04213D02*
Y04229D01*
X01508D01*
Y04213D01*
X01492D01*
X01252Y04212D02*
Y04228D01*
X01268D01*
Y04212D01*
X01252D01*
X01373Y04015D02*
Y04031D01*
X01389D01*
Y04015D01*
X01373D01*
X02103Y02292D02*
X02095Y02308D01*
X02111D01*
X02103Y02292D01*
Y02192D02*
X02095Y02208D01*
X02111D01*
X02103Y02192D01*
Y02092D02*
X02095Y02108D01*
X02111D01*
X02103Y02092D01*
Y01992D02*
X02095Y02008D01*
X02111D01*
X02103Y01992D01*
Y01892D02*
X02095Y01908D01*
X02111D01*
X02103Y01892D01*
Y01792D02*
X02095Y01808D01*
X02111D01*
X02103Y01792D01*
X02975Y045094D02*
X02979Y045134D01*
X02983D01*
X02979Y045174D01*
X02983Y045214D01*
X02979D01*
X02975Y045254D01*
X02971Y045214D01*
X02967D01*
X02971Y045174D01*
X02967Y045134D01*
X02971D01*
X02975Y045094D01*
Y048421D02*
X02979Y048461D01*
X02983D01*
X02979Y048501D01*
X02983Y048541D01*
X02979D01*
X02975Y048581D01*
X02971Y048541D01*
X02967D01*
X02971Y048501D01*
X02967Y048461D01*
X02971D01*
X02975Y048421D01*
X04352Y043732D02*
X04356Y043812D01*
X04352Y043892D01*
X0436Y043852D01*
X04368Y043892D01*
X04364Y043812D01*
X04368Y043732D01*
X0436Y043772D01*
X04352Y043732D01*
Y035732D02*
X04356Y035812D01*
X04352Y035892D01*
X0436Y035852D01*
X04368Y035892D01*
X04364Y035812D01*
X04368Y035732D01*
X0436Y035772D01*
X04352Y035732D01*
X03407Y03647D02*
X03411Y03655D01*
X03407Y03663D01*
X03415Y03659D01*
X03423Y03663D01*
X03419Y03655D01*
X03423Y03647D01*
X03415Y03651D01*
X03407Y03647D01*
Y04447D02*
X03411Y04455D01*
X03407Y04463D01*
X03415Y04459D01*
X03423Y04463D01*
X03419Y04455D01*
X03423Y04447D01*
X03415Y04451D01*
X03407Y04447D01*
X0198Y01477D02*
X01972Y01493D01*
X01988D01*
X0198Y01477D01*
Y01577D02*
X01972Y01593D01*
X01988D01*
X0198Y01577D01*
X0208Y01477D02*
X02072Y01493D01*
X02088D01*
X0208Y01477D01*
Y01577D02*
X02072Y01593D01*
X02088D01*
X0208Y01577D01*
X0218Y01477D02*
X02172Y01493D01*
X02188D01*
X0218Y01477D01*
Y01577D02*
X02172Y01593D01*
X02188D01*
X0218Y01577D01*
X04731Y01526D02*
Y01522D01*
X04739D01*
Y01526D01*
X04743D01*
Y01534D01*
X04739D01*
Y01538D01*
X04731D01*
Y01534D01*
X04727D01*
Y01526D01*
X04731D01*
Y04451D02*
Y04447D01*
X04739D01*
Y04451D01*
X04743D01*
Y04459D01*
X04739D01*
Y04463D01*
X04731D01*
Y04459D01*
X04727D01*
Y04451D01*
X04731D01*
X01151Y01526D02*
Y01522D01*
X01159D01*
Y01526D01*
X01163D01*
Y01534D01*
X01159D01*
Y01538D01*
X01151D01*
Y01534D01*
X01147D01*
Y01526D01*
X01151D01*
X035328Y029126D02*
X035368Y029166D01*
X035408D01*
X035368Y029206D01*
X035408Y029246D01*
X035368D01*
X035328Y029286D01*
X035288Y029246D01*
X035248D01*
X035288Y029206D01*
X035248Y029166D01*
X035288D01*
X035328Y029126D01*
X0371Y02637D02*
X03714Y02641D01*
X03718D01*
X03714Y02645D01*
X03718Y02649D01*
X03714D01*
X0371Y02653D01*
X03706Y02649D01*
X03702D01*
X03706Y02645D01*
X03702Y02641D01*
X03706D01*
X0371Y02637D01*
X035328D02*
X035368Y02641D01*
X035408D01*
X035368Y02645D01*
X035408Y02649D01*
X035368D01*
X035328Y02653D01*
X035288Y02649D01*
X035248D01*
X035288Y02645D01*
X035248Y02641D01*
X035288D01*
X035328Y02637D01*
X0371Y029126D02*
X03714Y029166D01*
X03718D01*
X03714Y029206D01*
X03718Y029246D01*
X03714D01*
X0371Y029286D01*
X03706Y029246D01*
X03702D01*
X03706Y029206D01*
X03702Y029166D01*
X03706D01*
X0371Y029126D01*
X04585Y023776D02*
X04589Y023816D01*
X04593D01*
X04589Y023856D01*
X04593Y023896D01*
X04589D01*
X04585Y023936D01*
X04581Y023896D01*
X04577D01*
X04581Y023856D01*
X04577Y023816D01*
X04581D01*
X04585Y023776D01*
X047622Y02102D02*
X047662Y02106D01*
X047702D01*
X047662Y0211D01*
X047702Y02114D01*
X047662D01*
X047622Y02118D01*
X047582Y02114D01*
X047542D01*
X047582Y0211D01*
X047542Y02106D01*
X047582D01*
X047622Y02102D01*
X04585D02*
X04589Y02106D01*
X04593D01*
X04589Y0211D01*
X04593Y02114D01*
X04589D01*
X04585Y02118D01*
X04581Y02114D01*
X04577D01*
X04581Y0211D01*
X04577Y02106D01*
X04581D01*
X04585Y02102D01*
X047622Y023776D02*
X047662Y023816D01*
X047702D01*
X047662Y023856D01*
X047702Y023896D01*
X047662D01*
X047622Y023936D01*
X047582Y023896D01*
X047542D01*
X047582Y023856D01*
X047542Y023816D01*
X047582D01*
X047622Y023776D01*
X0346D02*
X03464Y023816D01*
X03468D01*
X03464Y023856D01*
X03468Y023896D01*
X03464D01*
X0346Y023936D01*
X03456Y023896D01*
X03452D01*
X03456Y023856D01*
X03452Y023816D01*
X03456D01*
X0346Y023776D01*
X036372Y02102D02*
X036412Y02106D01*
X036452D01*
X036412Y0211D01*
X036452Y02114D01*
X036412D01*
X036372Y02118D01*
X036332Y02114D01*
X036292D01*
X036332Y0211D01*
X036292Y02106D01*
X036332D01*
X036372Y02102D01*
X0346D02*
X03464Y02106D01*
X03468D01*
X03464Y0211D01*
X03468Y02114D01*
X03464D01*
X0346Y02118D01*
X03456Y02114D01*
X03452D01*
X03456Y0211D01*
X03452Y02106D01*
X03456D01*
X0346Y02102D01*
X036372Y023776D02*
X036412Y023816D01*
X036452D01*
X036412Y023856D01*
X036452Y023896D01*
X036412D01*
X036372Y023936D01*
X036332Y023896D01*
X036292D01*
X036332Y023856D01*
X036292Y023816D01*
X036332D01*
X036372Y023776D01*
X04035D02*
X04039Y023816D01*
X04043D01*
X04039Y023856D01*
X04043Y023896D01*
X04039D01*
X04035Y023936D01*
X04031Y023896D01*
X04027D01*
X04031Y023856D01*
X04027Y023816D01*
X04031D01*
X04035Y023776D01*
X042122Y02102D02*
X042162Y02106D01*
X042202D01*
X042162Y0211D01*
X042202Y02114D01*
X042162D01*
X042122Y02118D01*
X042082Y02114D01*
X042042D01*
X042082Y0211D01*
X042042Y02106D01*
X042082D01*
X042122Y02102D01*
X04035D02*
X04039Y02106D01*
X04043D01*
X04039Y0211D01*
X04043Y02114D01*
X04039D01*
X04035Y02118D01*
X04031Y02114D01*
X04027D01*
X04031Y0211D01*
X04027Y02106D01*
X04031D01*
X04035Y02102D01*
X042122Y023776D02*
X042162Y023816D01*
X042202D01*
X042162Y023856D01*
X042202Y023896D01*
X042162D01*
X042122Y023936D01*
X042082Y023896D01*
X042042D01*
X042082Y023856D01*
X042042Y023816D01*
X042082D01*
X042122Y023776D01*
X0479Y02692D02*
X04794Y02696D01*
X04798D01*
X04794Y027D01*
X04798Y02704D01*
X04794D01*
X0479Y02708D01*
X04786Y02704D01*
X04782D01*
X04786Y027D01*
X04782Y02696D01*
X04786D01*
X0479Y02692D01*
X0469Y02892D02*
X04694Y02896D01*
X04698D01*
X04694Y029D01*
X04698Y02904D01*
X04694D01*
X0469Y02908D01*
X04686Y02904D01*
X04682D01*
X04686Y029D01*
X04682Y02896D01*
X04686D01*
X0469Y02892D01*
X0459D02*
X04594Y02896D01*
X04598D01*
X04594Y029D01*
X04598Y02904D01*
X04594D01*
X0459Y02908D01*
X04586Y02904D01*
X04582D01*
X04586Y029D01*
X04582Y02896D01*
X04586D01*
X0459Y02892D01*
X0479D02*
X04794Y02896D01*
X04798D01*
X04794Y029D01*
X04798Y02904D01*
X04794D01*
X0479Y02908D01*
X04786Y02904D01*
X04782D01*
X04786Y029D01*
X04782Y02896D01*
X04786D01*
X0479Y02892D01*
X0469Y02692D02*
X04694Y02696D01*
X04698D01*
X04694Y027D01*
X04698Y02704D01*
X04694D01*
X0469Y02708D01*
X04686Y02704D01*
X04682D01*
X04686Y027D01*
X04682Y02696D01*
X04686D01*
X0469Y02692D01*
X0459D02*
X04594Y02696D01*
X04598D01*
X04594Y027D01*
X04598Y02704D01*
X04594D01*
X0459Y02708D01*
X04586Y02704D01*
X04582D01*
X04586Y027D01*
X04582Y02696D01*
X04586D01*
X0459Y02692D01*
X02105Y041149D02*
X02097Y041309D01*
X02113D01*
X02105Y041149D01*
Y040149D02*
X02097Y040309D01*
X02113D01*
X02105Y040149D01*
X02005Y041149D02*
X01997Y041309D01*
X02013D01*
X02005Y041149D01*
Y040149D02*
X01997Y040309D01*
X02013D01*
X02005Y040149D01*
X01905Y041149D02*
X01897Y041309D01*
X01913D01*
X01905Y041149D01*
Y040149D02*
X01897Y040309D01*
X01913D01*
X01905Y040149D01*
X044Y03257D02*
X04392Y03273D01*
X04408D01*
X044Y03257D01*
X043D02*
X04292Y03273D01*
X04308D01*
X043Y03257D01*
X042D02*
X04192Y03273D01*
X04208D01*
X042Y03257D01*
X041D02*
X04092Y03273D01*
X04108D01*
X041Y03257D01*
X04D02*
X03992Y03273D01*
X04008D01*
X04Y03257D01*
X039D02*
X03892Y03273D01*
X03908D01*
X039Y03257D01*
X038D02*
X03792Y03273D01*
X03808D01*
X038Y03257D01*
X037D02*
X03692Y03273D01*
X03708D01*
X037Y03257D01*
X03381Y03201D02*
Y03197D01*
X03389D01*
Y03201D01*
X03393D01*
Y03209D01*
X03389D01*
Y03213D01*
X03381D01*
Y03209D01*
X03377D01*
Y03201D01*
X03381D01*
X04706D02*
Y03197D01*
X04714D01*
Y03201D01*
X04718D01*
Y03209D01*
X04714D01*
Y03213D01*
X04706D01*
Y03209D01*
X04702D01*
Y03201D01*
X04706D01*
Y04791D02*
Y04787D01*
X04714D01*
Y04791D01*
X04718D01*
Y04799D01*
X04714D01*
Y04803D01*
X04706D01*
Y04799D01*
X04702D01*
Y04791D01*
X04706D01*
X03381D02*
Y04787D01*
X03389D01*
Y04791D01*
X03393D01*
Y04799D01*
X03389D01*
Y04803D01*
X03381D01*
Y04799D01*
X03377D01*
Y04791D01*
X03381D01*
X028081Y03047D02*
X028121D01*
X028161Y03051D01*
X028201Y03047D01*
X028241D01*
Y03051D01*
X028201Y03055D01*
X028241Y03059D01*
Y03063D01*
X028201D01*
X028161Y03059D01*
X028121Y03063D01*
X028081D01*
Y03059D01*
X028121Y03055D01*
X028081Y03051D01*
Y03047D01*
X026159D02*
X026199D01*
X026239Y03051D01*
X026279Y03047D01*
X026319D01*
Y03051D01*
X026279Y03055D01*
X026319Y03059D01*
Y03063D01*
X026279D01*
X026239Y03059D01*
X026199Y03063D01*
X026159D01*
Y03059D01*
X026199Y03055D01*
X026159Y03051D01*
Y03047D01*
X01151Y04791D02*
Y04787D01*
X01159D01*
Y04791D01*
X01163D01*
Y04799D01*
X01159D01*
Y04803D01*
X01151D01*
Y04799D01*
X01147D01*
Y04791D01*
X01151D01*
X02312Y02745D02*
X0232Y02753D01*
X02328Y02745D01*
X0232Y02737D01*
X02312Y02745D01*
X02607Y03325D02*
X02615Y03333D01*
X02623Y03325D01*
X02615Y03317D01*
X02607Y03325D01*
X01071Y04209D02*
Y04225D01*
X01087D01*
Y04209D01*
X01071D01*
X01075Y04213D02*
Y04221D01*
X01083D01*
Y04213D01*
X01075D01*
X02762Y023615D02*
X0277Y023695D01*
X02778Y023615D01*
X0277Y023535D01*
X02762Y023615D01*
X02462Y025565D02*
X0247Y025645D01*
X02478Y025565D01*
X0247Y025485D01*
X02462Y025565D01*
X02477Y026115D02*
X02485Y026195D01*
X02493Y026115D01*
X02485Y026035D01*
X02477Y026115D01*
X02772Y0266D02*
X0278Y02668D01*
X02788Y0266D01*
X0278Y02652D01*
X02772Y0266D01*
X02782Y02835D02*
X0279Y02843D01*
X02798Y02835D01*
X0279Y02827D01*
X02782Y02835D01*
X02757Y02865D02*
X02765Y02873D01*
X02773Y02865D01*
X02765Y02857D01*
X02757Y02865D01*
X037742Y025003D02*
X037822Y025083D01*
X037902Y025003D01*
X037822Y024923D01*
X037742Y025003D01*
X03222Y02515D02*
X0323Y02523D01*
X03238Y02515D01*
X0323Y02507D01*
X03222Y02515D01*
X03682Y02543D02*
X0369Y02551D01*
X03698Y02543D01*
X0369Y02535D01*
X03682Y02543D01*
X03182Y02715D02*
X0319Y02723D01*
X03198Y02715D01*
X0319Y02707D01*
X03182Y02715D01*
X02007Y02392D02*
X02015Y024D01*
X02023Y02392D01*
X02015Y02384D01*
X02007Y02392D01*
X0186Y01662D02*
X01852Y01678D01*
X01868D01*
X0186Y01662D01*
Y01666D02*
X01856Y01674D01*
X01864D01*
X0186Y01666D01*
X0174Y01697D02*
X01732Y01713D01*
X01748D01*
X0174Y01697D01*
Y01701D02*
X01736Y01709D01*
X01744D01*
X0174Y01701D01*
X02975Y01737D02*
X02967Y01753D01*
X02983D01*
X02975Y01737D01*
Y01741D02*
X02971Y01749D01*
X02979D01*
X02975Y01741D01*
X0302Y01827D02*
X03012Y01843D01*
X03028D01*
X0302Y01827D01*
Y01831D02*
X03016Y01839D01*
X03024D01*
X0302Y01831D01*
X02682Y026415D02*
X0269Y026495D01*
X02698Y026415D01*
X0269Y026335D01*
X02682Y026415D01*
X02667Y025965D02*
X02675Y026045D01*
X02683Y025965D01*
X02675Y025885D01*
X02667Y025965D01*
X02627Y04155D02*
X02635Y04163D01*
X02643Y04155D01*
X02635Y04147D01*
X02627Y04155D01*
X02637Y04221D02*
X02645Y04229D01*
X02653Y04221D01*
X02645Y04213D01*
X02637Y04221D01*
X0286Y02292D02*
X02852Y02308D01*
X02868D01*
X0286Y02292D01*
Y02296D02*
X02856Y02304D01*
X02864D01*
X0286Y02296D01*
X0238Y02317D02*
X02372Y02333D01*
X02388D01*
X0238Y02317D01*
Y02321D02*
X02376Y02329D01*
X02384D01*
X0238Y02321D01*
X02652Y026815D02*
X0266Y026895D01*
X02668Y026815D01*
X0266Y026735D01*
X02652Y026815D01*
X02622Y025747D02*
X0263Y025827D01*
X02638Y025747D01*
X0263Y025667D01*
X02622Y025747D01*
X02395Y02792D02*
X02387Y02808D01*
X02403D01*
X02395Y02792D01*
Y02796D02*
X02391Y02804D01*
X02399D01*
X02395Y02796D01*
X02592Y0336D02*
X026Y03368D01*
X02608Y0336D01*
X026Y03352D01*
X02592Y0336D01*
X0218Y01692D02*
X02172Y01708D01*
X02188D01*
X0218Y01692D01*
Y01696D02*
X02176Y01704D01*
X02184D01*
X0218Y01696D01*
X0239Y02637D02*
X02382Y02653D01*
X02398D01*
X0239Y02637D01*
Y02641D02*
X02386Y02649D01*
X02394D01*
X0239Y02641D01*
X0309Y02307D02*
X03082Y02323D01*
X03098D01*
X0309Y02307D01*
Y02311D02*
X03086Y02319D01*
X03094D01*
X0309Y02311D01*
Y01842D02*
X03082Y01858D01*
X03098D01*
X0309Y01842D01*
Y01846D02*
X03086Y01854D01*
X03094D01*
X0309Y01846D01*
X0306Y01527D02*
X03052Y01543D01*
X03068D01*
X0306Y01527D01*
Y01531D02*
X03056Y01539D01*
X03064D01*
X0306Y01531D01*
D84*
X019765Y027956D02*
G03*
X019765Y027956I-00008J0D01*
G01*
X018977D02*
G03*
X018977Y027956I-00008J0D01*
G01*
X01819D02*
G03*
X01819Y027956I-00008J0D01*
G01*
X017403D02*
G03*
X017403Y027956I-00008J0D01*
G01*
X016615D02*
G03*
X016615Y027956I-00008J0D01*
G01*
X015828D02*
G03*
X015828Y027956I-00008J0D01*
G01*
X01504D02*
G03*
X01504Y027956I-00008J0D01*
G01*
X014253D02*
G03*
X014253Y027956I-00008J0D01*
G01*
X013466D02*
G03*
X013466Y027956I-00008J0D01*
G01*
X019765Y028744D02*
G03*
X019765Y028744I-00008J0D01*
G01*
X018977D02*
G03*
X018977Y028744I-00008J0D01*
G01*
X01819D02*
G03*
X01819Y028744I-00008J0D01*
G01*
X017403D02*
G03*
X017403Y028744I-00008J0D01*
G01*
X016615D02*
G03*
X016615Y028744I-00008J0D01*
G01*
X015828D02*
G03*
X015828Y028744I-00008J0D01*
G01*
X01504D02*
G03*
X01504Y028744I-00008J0D01*
G01*
X014253D02*
G03*
X014253Y028744I-00008J0D01*
G01*
X013466D02*
G03*
X013466Y028744I-00008J0D01*
G01*
Y036618D02*
G03*
X013466Y036618I-00008J0D01*
G01*
X014253D02*
G03*
X014253Y036618I-00008J0D01*
G01*
X01504D02*
G03*
X01504Y036618I-00008J0D01*
G01*
X015828D02*
G03*
X015828Y036618I-00008J0D01*
G01*
X016615D02*
G03*
X016615Y036618I-00008J0D01*
G01*
X017403D02*
G03*
X017403Y036618I-00008J0D01*
G01*
X01819D02*
G03*
X01819Y036618I-00008J0D01*
G01*
X018977D02*
G03*
X018977Y036618I-00008J0D01*
G01*
X019765D02*
G03*
X019765Y036618I-00008J0D01*
G01*
X013466Y03583D02*
G03*
X013466Y03583I-00008J0D01*
G01*
X014253D02*
G03*
X014253Y03583I-00008J0D01*
G01*
X01504D02*
G03*
X01504Y03583I-00008J0D01*
G01*
X015828D02*
G03*
X015828Y03583I-00008J0D01*
G01*
X016615D02*
G03*
X016615Y03583I-00008J0D01*
G01*
X017403D02*
G03*
X017403Y03583I-00008J0D01*
G01*
X01819D02*
G03*
X01819Y03583I-00008J0D01*
G01*
X018977D02*
G03*
X018977Y03583I-00008J0D01*
G01*
X019765D02*
G03*
X019765Y03583I-00008J0D01*
G01*
X025097Y046686D02*
G03*
X025097Y046686I-00008J0D01*
G01*
Y045899D02*
G03*
X025097Y045899I-00008J0D01*
G01*
X02431D02*
G03*
X02431Y045899I-00008J0D01*
G01*
X025884D02*
G03*
X025884Y045899I-00008J0D01*
G01*
X02431Y046686D02*
G03*
X02431Y046686I-00008J0D01*
G01*
X025884D02*
G03*
X025884Y046686I-00008J0D01*
G01*
X026672D02*
G03*
X026672Y046686I-00008J0D01*
G01*
Y045899D02*
G03*
X026672Y045899I-00008J0D01*
G01*
X027459D02*
G03*
X027459Y045899I-00008J0D01*
G01*
Y046686D02*
G03*
X027459Y046686I-00008J0D01*
G01*
X027935Y03905D02*
G03*
X027935Y03905I-00008J0D01*
G01*
X02793Y04205D02*
G03*
X02793Y04205I-00008J0D01*
G01*
X02363Y0387D02*
G03*
X02363Y0387I-00008J0D01*
G01*
X02443D02*
G03*
X02443Y0387I-00008J0D01*
G01*
X02363Y038D02*
G03*
X02363Y038I-00008J0D01*
G01*
X02443D02*
G03*
X02443Y038I-00008J0D01*
G01*
X03998Y02835D02*
G03*
X03998Y02835I-00008J0D01*
G01*
X04078D02*
G03*
X04078Y02835I-00008J0D01*
G01*
X03998Y02765D02*
G03*
X03998Y02765I-00008J0D01*
G01*
X04078D02*
G03*
X04078Y02765I-00008J0D01*
G01*
X04073Y0179D02*
G03*
X04073Y0179I-00008J0D01*
G01*
X04153D02*
G03*
X04153Y0179I-00008J0D01*
G01*
X04073Y0172D02*
G03*
X04073Y0172I-00008J0D01*
G01*
X04153D02*
G03*
X04153Y0172I-00008J0D01*
G01*
X02748Y016178D02*
G03*
X02748Y016178I-00008J0D01*
G01*
X02828D02*
G03*
X02828Y016178I-00008J0D01*
G01*
X02748Y015479D02*
G03*
X02748Y015479I-00008J0D01*
G01*
X02828D02*
G03*
X02828Y015479I-00008J0D01*
G01*
X01743Y02165D02*
G03*
X01743Y02165I-00008J0D01*
G01*
X01663D02*
G03*
X01663Y02165I-00008J0D01*
G01*
X01743Y02235D02*
G03*
X01743Y02235I-00008J0D01*
G01*
X01663D02*
G03*
X01663Y02235I-00008J0D01*
G01*
X01478Y0476D02*
G03*
X01478Y0476I-00008J0D01*
G01*
X01638Y04435D02*
G03*
X01638Y04435I-00008J0D01*
G01*
X02318Y047D02*
G03*
X02318Y047I-00008J0D01*
G01*
X02373Y0486D02*
G03*
X02373Y0486I-00008J0D01*
G01*
D85*
X02359Y0387D02*
G03*
X02359Y0387I-00004J0D01*
G01*
X02439D02*
G03*
X02439Y0387I-00004J0D01*
G01*
X02359Y038D02*
G03*
X02359Y038I-00004J0D01*
G01*
X02439D02*
G03*
X02439Y038I-00004J0D01*
G01*
X03994Y02835D02*
G03*
X03994Y02835I-00004J0D01*
G01*
X04074D02*
G03*
X04074Y02835I-00004J0D01*
G01*
X03994Y02765D02*
G03*
X03994Y02765I-00004J0D01*
G01*
X04074D02*
G03*
X04074Y02765I-00004J0D01*
G01*
X04069Y0179D02*
G03*
X04069Y0179I-00004J0D01*
G01*
X04149D02*
G03*
X04149Y0179I-00004J0D01*
G01*
X04069Y0172D02*
G03*
X04069Y0172I-00004J0D01*
G01*
X04149D02*
G03*
X04149Y0172I-00004J0D01*
G01*
X02744Y016178D02*
G03*
X02744Y016178I-00004J0D01*
G01*
X02824D02*
G03*
X02824Y016178I-00004J0D01*
G01*
X02744Y015479D02*
G03*
X02744Y015479I-00004J0D01*
G01*
X02824D02*
G03*
X02824Y015479I-00004J0D01*
G01*
X01739Y02165D02*
G03*
X01739Y02165I-00004J0D01*
G01*
X01659D02*
G03*
X01659Y02165I-00004J0D01*
G01*
X01739Y02235D02*
G03*
X01739Y02235I-00004J0D01*
G01*
X01659D02*
G03*
X01659Y02235I-00004J0D01*
G01*
X01474Y0476D02*
G03*
X01474Y0476I-00004J0D01*
G01*
X01634Y04435D02*
G03*
X01634Y04435I-00004J0D01*
G01*
X02314Y047D02*
G03*
X02314Y047I-00004J0D01*
G01*
X02369Y0486D02*
G03*
X02369Y0486I-00004J0D01*
G01*
M02*
