G04*
G04 #@! TF.GenerationSoftware,Altium Limited,Altium Designer,19.0.15 (446)*
G04*
G04 Layer_Physical_Order=1*
G04 Layer_Color=255*
%FSTAX24Y24*%
%MOIN*%
G70*
G01*
G75*
%ADD12C,0.0100*%
%ADD13C,0.0080*%
%ADD24R,0.0433X0.0550*%
%ADD25R,0.0550X0.0433*%
%ADD26R,0.0550X0.0394*%
%ADD27R,0.1299X0.0531*%
%ADD28R,0.0374X0.0531*%
%ADD29R,0.0500X0.0550*%
%ADD30R,0.0394X0.0550*%
%ADD31O,0.0689X0.0118*%
%ADD32O,0.0118X0.0689*%
%ADD33R,0.0098X0.0217*%
%ADD61C,0.0150*%
%ADD62C,0.0500*%
%ADD63C,0.0300*%
%ADD64C,0.0250*%
%ADD65C,0.0350*%
%ADD66R,0.1000X0.1600*%
%ADD67R,0.1600X0.1000*%
%ADD68C,0.0600*%
%ADD69C,0.0591*%
%ADD70R,0.0591X0.0591*%
%ADD71C,0.0787*%
%ADD72C,0.1000*%
%ADD73R,0.1000X0.1000*%
%ADD74R,0.0591X0.0591*%
%ADD75P,0.1705X8X22.5*%
%ADD76C,0.0669*%
%ADD77C,0.0551*%
%ADD78C,0.0200*%
%ADD79C,0.0945*%
%ADD80C,0.0500*%
%ADD81C,0.0300*%
%ADD82C,0.0320*%
G36*
X04855Y024655D02*
X0485Y02464D01*
X048488Y024657D01*
X048488Y024657D01*
X047698Y025448D01*
X04763Y025493D01*
X04755Y025509D01*
X04755Y025509D01*
X046087D01*
X045309Y026287D01*
Y028113D01*
X045792Y028596D01*
X045792Y028596D01*
X0459Y028582D01*
X046008Y028596D01*
X046109Y028638D01*
X046196Y028704D01*
X046262Y028791D01*
X046304Y028892D01*
X046318Y029D01*
X046304Y029108D01*
X046262Y029209D01*
X046196Y029296D01*
X046109Y029362D01*
X046008Y029404D01*
X0459Y029418D01*
X045792Y029404D01*
X045691Y029362D01*
X045604Y029296D01*
X045538Y029209D01*
X045496Y029108D01*
X045482Y029D01*
X045496Y028892D01*
X045496Y028892D01*
X044952Y028348D01*
X044907Y02828D01*
X044891Y0282D01*
X044891Y0282D01*
Y0262D01*
X044891Y0262D01*
X044907Y02612D01*
X044952Y026052D01*
X045852Y025152D01*
X045852Y025152D01*
X04592Y025107D01*
X046Y025091D01*
X047463D01*
X048131Y024423D01*
Y024046D01*
X048081Y024036D01*
X048053Y024105D01*
X047974Y024208D01*
X047871Y024287D01*
X047751Y024337D01*
X047672Y024347D01*
Y023856D01*
Y023365D01*
X047751Y023375D01*
X047871Y023425D01*
X047974Y023504D01*
X048053Y023607D01*
X048081Y023676D01*
X048131Y023666D01*
Y02129D01*
X048081Y02128D01*
X048053Y021349D01*
X047974Y021452D01*
X047871Y021531D01*
X047751Y021581D01*
X047672Y021591D01*
Y0211D01*
Y020609D01*
X047751Y020619D01*
X047871Y020669D01*
X047974Y020748D01*
X048053Y020851D01*
X048081Y02092D01*
X048131Y02091D01*
Y020323D01*
X047717Y019909D01*
X045009D01*
X043905Y021013D01*
Y021271D01*
X043904D01*
Y021617D01*
X043905D01*
Y021652D01*
X044295D01*
Y021531D01*
X044296D01*
Y021357D01*
X044275D01*
Y02109D01*
X04465D01*
X045025D01*
Y021357D01*
X045004D01*
Y021527D01*
X045127D01*
X045401Y021254D01*
X045388Y021224D01*
X045372Y0211D01*
X045388Y020976D01*
X045436Y020861D01*
X045512Y020762D01*
X045611Y020686D01*
X045726Y020638D01*
X04585Y020622D01*
X045974Y020638D01*
X046089Y020686D01*
X046188Y020762D01*
X046264Y020861D01*
X046312Y020976D01*
X046328Y0211D01*
X046312Y021224D01*
X046264Y021339D01*
X046188Y021438D01*
X046089Y021514D01*
X045974Y021562D01*
X04585Y021578D01*
X045726Y021562D01*
X045696Y021549D01*
X045362Y021884D01*
X045294Y021929D01*
X045214Y021945D01*
X045214Y021945D01*
X045005D01*
Y022124D01*
X044295D01*
Y02207D01*
X043905D01*
Y022171D01*
X043382D01*
X042644Y022909D01*
X042601Y022937D01*
X042551Y022948D01*
X042307D01*
X041892Y023362D01*
X041921Y023405D01*
X041993Y023375D01*
X042072Y023365D01*
Y023806D01*
X04163D01*
X041641Y023727D01*
X041671Y023655D01*
X041628Y023626D01*
X04119Y024064D01*
X041182Y024108D01*
X041153Y024151D01*
X040207Y025097D01*
X040164Y025126D01*
X040113Y025136D01*
X037986D01*
X037973Y025155D01*
X037904Y025201D01*
X037822Y025217D01*
X03774Y025201D01*
X03767Y025155D01*
X037624Y025085D01*
X037608Y025003D01*
X037613Y024975D01*
X037567Y02495D01*
X03711Y025408D01*
X037114Y02543D01*
X037098Y025512D01*
X037051Y025581D01*
X036982Y025628D01*
X0369Y025644D01*
X036818Y025628D01*
X036749Y025581D01*
X036702Y025512D01*
X036686Y02543D01*
X036702Y025348D01*
X036749Y025279D01*
X036818Y025232D01*
X0369Y025216D01*
X036922Y02522D01*
X037542Y0246D01*
Y022041D01*
X037545Y022028D01*
Y021617D01*
X037546D01*
Y021271D01*
X037545D01*
Y021171D01*
X03725D01*
X03717Y021155D01*
X037102Y02111D01*
X036867Y020874D01*
X036824Y020902D01*
X036853Y020971D01*
X036863Y02105D01*
X036422D01*
Y020609D01*
X036501Y020619D01*
X036569Y020647D01*
X036598Y020605D01*
X035951Y019959D01*
X033759D01*
X032705Y021013D01*
Y021271D01*
X032704D01*
Y021617D01*
X032705D01*
Y021652D01*
X033104D01*
Y021531D01*
X033105D01*
Y021357D01*
X033084D01*
Y02109D01*
X033459D01*
X033834D01*
Y021357D01*
X033813D01*
Y021527D01*
X033877D01*
X034151Y021254D01*
X034138Y021224D01*
X034122Y0211D01*
X034138Y020976D01*
X034186Y020861D01*
X034262Y020762D01*
X034361Y020686D01*
X034476Y020638D01*
X0346Y020622D01*
X034724Y020638D01*
X034839Y020686D01*
X034938Y020762D01*
X035014Y020861D01*
X035062Y020976D01*
X035078Y0211D01*
X035062Y021224D01*
X035014Y021339D01*
X034938Y021438D01*
X034839Y021514D01*
X034724Y021562D01*
X0346Y021578D01*
X034476Y021562D01*
X034446Y021549D01*
X034112Y021884D01*
X034044Y021929D01*
X033964Y021945D01*
X033964Y021945D01*
X033814D01*
Y022124D01*
X033104D01*
Y02207D01*
X032705D01*
Y022171D01*
X032433D01*
Y024986D01*
X032451Y024999D01*
X032498Y025068D01*
X032514Y02515D01*
X032498Y025232D01*
X032451Y025301D01*
X032382Y025348D01*
X0323Y025364D01*
X032218Y025348D01*
X032149Y025301D01*
X032102Y025232D01*
X032086Y02515D01*
X032102Y025068D01*
X032149Y024999D01*
X032167Y024986D01*
Y022171D01*
X031995D01*
Y021637D01*
X031946Y021616D01*
X031809Y021752D01*
Y025385D01*
X032491Y026067D01*
X032905D01*
Y026621D01*
X032904D01*
Y026967D01*
X032905D01*
Y027002D01*
X033445D01*
Y026881D01*
X033446D01*
Y026707D01*
X033425D01*
Y02644D01*
X0338D01*
X034175D01*
Y026707D01*
X034154D01*
Y026881D01*
X034155D01*
Y026969D01*
X034514D01*
X034879Y026604D01*
X034867Y026574D01*
X034851Y02645D01*
X034867Y026326D01*
X034915Y026211D01*
X03499Y026112D01*
X035089Y026036D01*
X035205Y025988D01*
X035328Y025972D01*
X035452Y025988D01*
X035567Y026036D01*
X035666Y026112D01*
X035742Y026211D01*
X03579Y026326D01*
X035806Y02645D01*
X03579Y026574D01*
X035742Y026689D01*
X035666Y026788D01*
X035567Y026864D01*
X035452Y026912D01*
X035328Y026928D01*
X035205Y026912D01*
X035175Y026899D01*
X034748Y027326D01*
X034681Y027371D01*
X034601Y027387D01*
X034601Y027387D01*
X034155D01*
Y027474D01*
X033445D01*
Y02742D01*
X032905D01*
Y027521D01*
X032195D01*
Y027283D01*
X032064D01*
X032051Y027301D01*
X031982Y027348D01*
X0319Y027364D01*
X031818Y027348D01*
X031749Y027301D01*
X031702Y027232D01*
X031686Y02715D01*
X031702Y027068D01*
X031749Y026999D01*
X031818Y026952D01*
X0319Y026936D01*
X031982Y026952D01*
X032051Y026999D01*
X032064Y027017D01*
X032195D01*
Y026967D01*
X032196D01*
Y026621D01*
X032195D01*
Y026363D01*
X031452Y02562D01*
X031407Y025552D01*
X031391Y025472D01*
X031391Y025472D01*
Y022236D01*
X031345Y022217D01*
X031109Y022452D01*
Y023013D01*
X031135Y023052D01*
X031155Y02315D01*
X031135Y023248D01*
X031109Y023287D01*
Y0273D01*
X031093Y02738D01*
X031048Y027448D01*
X030857Y027638D01*
X03079Y027683D01*
X03071Y027699D01*
X03071Y027699D01*
X030555D01*
Y027878D01*
X029845D01*
Y027714D01*
X029704D01*
X029654Y027704D01*
X029611Y027676D01*
X029061Y027126D01*
X029044Y027129D01*
X028474D01*
X028419Y027118D01*
X028373Y027087D01*
X028343Y027041D01*
X028332Y026987D01*
X028343Y026933D01*
X028361Y026906D01*
X028359Y026905D01*
X028324Y026852D01*
X028321Y02684D01*
X028759D01*
Y02674D01*
X028321D01*
X028324Y026728D01*
X028359Y026675D01*
X028361Y026674D01*
X028343Y026648D01*
X028332Y026593D01*
X028343Y026539D01*
X028372Y026495D01*
X028343Y026451D01*
X028332Y026396D01*
X028343Y026342D01*
X028361Y026315D01*
X028359Y026314D01*
X028324Y026262D01*
X028321Y02625D01*
X028759D01*
X029197D01*
X029194Y026262D01*
X029159Y026314D01*
X029158Y026315D01*
X029175Y026342D01*
X029186Y026396D01*
X029175Y026451D01*
X029146Y026495D01*
X029175Y026539D01*
X029186Y026593D01*
X029175Y026648D01*
X029158Y026674D01*
X029159Y026675D01*
X029194Y026728D01*
X029207Y02679D01*
X029194Y026852D01*
X02918Y026873D01*
X029188Y026878D01*
X029759Y027449D01*
X029845D01*
Y027285D01*
X029846D01*
Y027111D01*
X029825D01*
Y026844D01*
X0302D01*
X030575D01*
Y027111D01*
X030554D01*
Y027281D01*
X030623D01*
X030691Y027213D01*
Y023287D01*
X030665Y023248D01*
X030645Y02315D01*
X030665Y023052D01*
X030691Y023013D01*
Y022366D01*
X030691Y022366D01*
X030691Y022366D01*
Y018637D01*
X030665Y018598D01*
X030645Y0185D01*
X030665Y018402D01*
X03072Y01832D01*
X030802Y018264D01*
X0309Y018245D01*
X030998Y018264D01*
X03108Y01832D01*
X031135Y018402D01*
X031155Y0185D01*
X031135Y018598D01*
X031109Y018637D01*
Y021796D01*
X031155Y021815D01*
X031452Y021518D01*
X031452Y021518D01*
X031995Y020975D01*
Y020717D01*
X032409D01*
X033524Y019602D01*
X033524Y019602D01*
X033592Y019557D01*
X033672Y019541D01*
X036038D01*
X036038Y019541D01*
X036118Y019557D01*
X036186Y019602D01*
X037337Y020753D01*
X037545D01*
Y020717D01*
X037959D01*
X038974Y019702D01*
X039042Y019657D01*
X039122Y019641D01*
X042328D01*
X042328Y019641D01*
X042408Y019657D01*
X042476Y019702D01*
X043491Y020717D01*
X043609D01*
X044774Y019552D01*
X044842Y019507D01*
X044922Y019491D01*
X047804D01*
X047804Y019491D01*
X047884Y019507D01*
X047951Y019552D01*
X048488Y020089D01*
X048488Y020089D01*
X0485Y020107D01*
X04855Y020092D01*
Y0142D01*
X01035D01*
Y041667D01*
X010395Y041689D01*
X010443Y04165D01*
X010551Y041592D01*
X010668Y041557D01*
X01079Y041545D01*
X010912Y041557D01*
X011029Y041592D01*
X011137Y04165D01*
X011232Y041728D01*
X01131Y041823D01*
X011368Y041931D01*
X011403Y042048D01*
X011415Y04217D01*
X011403Y042292D01*
X011368Y042409D01*
X01131Y042517D01*
X011232Y042612D01*
X011137Y04269D01*
X011029Y042748D01*
X010912Y042783D01*
X01079Y042795D01*
X010668Y042783D01*
X010551Y042748D01*
X010443Y04269D01*
X010395Y042651D01*
X01035Y042673D01*
Y048884D01*
X01039Y048924D01*
X01065Y04885D01*
X0109Y0491D01*
X04855D01*
Y024655D01*
D02*
G37*
G36*
X04062Y024309D02*
X040589Y02427D01*
X040474Y024317D01*
X04035Y024334D01*
X040226Y024317D01*
X040111Y02427D01*
X040012Y024194D01*
X039936Y024095D01*
X039888Y02398D01*
X039872Y023856D01*
X039888Y023732D01*
X039936Y023617D01*
X040012Y023518D01*
X040111Y023442D01*
X040226Y023394D01*
X04035Y023378D01*
X040474Y023394D01*
X040589Y023442D01*
X040688Y023518D01*
X040764Y023617D01*
X040812Y023732D01*
X040828Y023856D01*
X040812Y02398D01*
X040764Y024095D01*
X040803Y024126D01*
X040928Y024001D01*
X040937Y023957D01*
X040966Y023914D01*
X042159Y022721D01*
X042202Y022693D01*
X042252Y022682D01*
X042496D01*
X043195Y021983D01*
Y021617D01*
X043196D01*
Y021271D01*
X043195D01*
Y021013D01*
X042241Y020059D01*
X039209D01*
X038255Y021013D01*
Y021271D01*
X038254D01*
Y021617D01*
X038255D01*
Y021652D01*
X038695D01*
Y021531D01*
X038696D01*
Y021357D01*
X038675D01*
Y02109D01*
X03905D01*
X039425D01*
Y021357D01*
X039404D01*
Y021531D01*
X039405D01*
Y021541D01*
X039613D01*
X039901Y021254D01*
X039888Y021224D01*
X039872Y0211D01*
X039888Y020976D01*
X039936Y020861D01*
X040012Y020762D01*
X040111Y020686D01*
X040226Y020638D01*
X04035Y020622D01*
X040474Y020638D01*
X040589Y020686D01*
X040688Y020762D01*
X040764Y020861D01*
X040812Y020976D01*
X040828Y0211D01*
X040812Y021224D01*
X040764Y021339D01*
X040688Y021438D01*
X040589Y021514D01*
X040474Y021562D01*
X04035Y021578D01*
X040226Y021562D01*
X040196Y021549D01*
X039848Y021898D01*
X03978Y021943D01*
X0397Y021959D01*
X0397Y021959D01*
X039405D01*
Y022124D01*
X038695D01*
Y02207D01*
X038255D01*
Y022171D01*
X037808D01*
Y024655D01*
X037808Y024655D01*
X037797Y024706D01*
X037769Y024749D01*
X037769Y024749D01*
X037794Y024795D01*
X037822Y024789D01*
X037904Y024805D01*
X037973Y024852D01*
X037986Y024871D01*
X040058D01*
X04062Y024309D01*
D02*
G37*
%LPC*%
G36*
X0298Y048992D02*
Y048551D01*
X030241D01*
X030231Y04863D01*
X030181Y04875D01*
X030102Y048853D01*
X029999Y048932D01*
X029879Y048982D01*
X0298Y048992D01*
D02*
G37*
G36*
X0297D02*
X029621Y048982D01*
X029501Y048932D01*
X029398Y048853D01*
X029319Y04875D01*
X029269Y04863D01*
X029259Y048551D01*
X0297D01*
Y048992D01*
D02*
G37*
G36*
X030241Y048451D02*
X0298D01*
Y048009D01*
X029879Y04802D01*
X029999Y04807D01*
X030102Y048149D01*
X030181Y048252D01*
X030231Y048372D01*
X030241Y048451D01*
D02*
G37*
G36*
X0297D02*
X029259D01*
X029269Y048372D01*
X029319Y048252D01*
X029398Y048149D01*
X029501Y04807D01*
X029621Y04802D01*
X0297Y048009D01*
Y048451D01*
D02*
G37*
G36*
X047534Y048817D02*
X046666D01*
X046233Y048384D01*
Y047516D01*
X046666Y047083D01*
X047534D01*
X047967Y047516D01*
Y048384D01*
X047534Y048817D01*
D02*
G37*
G36*
X034284D02*
X033416D01*
X032983Y048384D01*
Y047516D01*
X033416Y047083D01*
X034284D01*
X034717Y047516D01*
Y048384D01*
X034284Y048817D01*
D02*
G37*
G36*
X011984D02*
X011116D01*
X010683Y048384D01*
Y047516D01*
X011116Y047083D01*
X011984D01*
X012417Y047516D01*
Y048384D01*
X011984Y048817D01*
D02*
G37*
G36*
X02365Y048933D02*
X023564Y048922D01*
X023484Y048888D01*
X023415Y048835D01*
X023414Y048835D01*
X0144D01*
X01431Y048817D01*
X014234Y048766D01*
X014234Y048766D01*
X013684Y048216D01*
X013633Y04814D01*
X013615Y04805D01*
Y046748D01*
X013497D01*
Y046747D01*
X013323D01*
Y046768D01*
X013056D01*
Y046393D01*
Y046018D01*
X013323D01*
Y046038D01*
X013497D01*
Y046038D01*
X013559D01*
Y045615D01*
X013497D01*
Y045614D01*
X013323D01*
Y045635D01*
X013056D01*
Y04526D01*
Y044885D01*
X013323D01*
Y044906D01*
X013497D01*
Y044905D01*
X013559D01*
Y043716D01*
X013577Y043627D01*
X013628Y04355D01*
X01442Y042758D01*
Y04133D01*
X015548D01*
X01756Y039318D01*
X017636Y039267D01*
X017726Y03925D01*
X019532D01*
X019621Y039267D01*
X019697Y039318D01*
X019961Y039582D01*
X020012Y039658D01*
X02003Y039748D01*
Y039803D01*
X02005Y039851D01*
X020148Y039864D01*
X020239Y039902D01*
X020318Y039962D01*
X020378Y04004D01*
X020416Y040131D01*
X020429Y040229D01*
X020416Y040327D01*
X020378Y040419D01*
X020318Y040497D01*
X020239Y040557D01*
X020148Y040595D01*
X02005Y040608D01*
X019952Y040595D01*
X019861Y040557D01*
X019782Y040497D01*
X019722Y040419D01*
X019684Y040327D01*
X019671Y040229D01*
X01968Y040166D01*
X019629Y040116D01*
X019579Y04004D01*
X019561Y03995D01*
Y039845D01*
X019435Y039719D01*
X017823D01*
X015716Y041826D01*
X01564Y041877D01*
X01558Y041889D01*
Y04309D01*
X014752D01*
X014028Y043813D01*
Y044905D01*
X01409D01*
Y045615D01*
X014028D01*
Y046038D01*
X01409D01*
Y046158D01*
X01626D01*
X016554Y045864D01*
Y045285D01*
X016572Y045196D01*
X016585Y045177D01*
Y044924D01*
X017119D01*
Y045615D01*
X017023D01*
Y045961D01*
X017005Y046051D01*
X016954Y046127D01*
X016523Y046558D01*
X016447Y046609D01*
X016357Y046627D01*
X01409D01*
Y046748D01*
X014085D01*
Y047953D01*
X014497Y048365D01*
X023414D01*
X023415Y048365D01*
X023484Y048312D01*
X023564Y048278D01*
X02365Y048267D01*
X023736Y048278D01*
X023816Y048312D01*
X023885Y048365D01*
X023886Y048365D01*
X026003D01*
X027145Y047224D01*
Y046979D01*
X027111Y046954D01*
X027051Y046875D01*
X027014Y046784D01*
X027011Y046762D01*
X02696D01*
X026957Y046784D01*
X02692Y046875D01*
X026859Y046954D01*
X026826Y046979D01*
Y047058D01*
X026808Y047148D01*
X026758Y047224D01*
X025941Y048041D01*
X025865Y048092D01*
X025775Y04811D01*
X02164D01*
X02155Y048092D01*
X021474Y048041D01*
X020673Y04724D01*
X020295D01*
Y047178D01*
X019855D01*
Y04724D01*
X019145D01*
Y047178D01*
X018705D01*
Y04724D01*
X018394D01*
X017738Y047896D01*
X017662Y047947D01*
X017572Y047965D01*
X01668D01*
Y048076D01*
X01522D01*
Y047949D01*
X014815D01*
X014725Y047931D01*
X014723Y04793D01*
X0147Y047933D01*
X014614Y047922D01*
X014534Y047888D01*
X014465Y047835D01*
X014412Y047766D01*
X014378Y047686D01*
X014367Y0476D01*
X014378Y047514D01*
X014412Y047434D01*
X014465Y047365D01*
X014534Y047312D01*
X014614Y047278D01*
X0147Y047267D01*
X014786Y047278D01*
X014866Y047312D01*
X014935Y047365D01*
X014988Y047434D01*
X015008Y04748D01*
X01522D01*
Y047385D01*
X01668D01*
Y047496D01*
X017475D01*
X017995Y046976D01*
Y046647D01*
X017996D01*
Y046473D01*
X017975D01*
Y046206D01*
X01835D01*
X018725D01*
Y046473D01*
X018704D01*
Y046647D01*
X018705D01*
Y046709D01*
X019145D01*
Y046647D01*
X019146D01*
Y046473D01*
X019125D01*
Y046206D01*
X0195D01*
X019875D01*
Y046473D01*
X019854D01*
Y046647D01*
X019855D01*
Y046709D01*
X020295D01*
Y046647D01*
X020296D01*
Y046473D01*
X020275D01*
Y046206D01*
X02065D01*
X021025D01*
Y046473D01*
X021004D01*
Y046618D01*
X021165D01*
Y04505D01*
X021073D01*
Y04505D01*
X020727D01*
Y04505D01*
X020173D01*
Y044914D01*
X019884D01*
Y045069D01*
X019224D01*
Y044359D01*
X019884D01*
Y044496D01*
X020173D01*
Y04434D01*
X020727D01*
Y044341D01*
X021073D01*
Y04434D01*
X021627D01*
Y044707D01*
X021635Y044745D01*
X021635Y044745D01*
Y04675D01*
X021617Y04684D01*
X021566Y046916D01*
X021464Y047018D01*
X021388Y047069D01*
X021298Y047087D01*
X021248D01*
X021229Y047133D01*
X021737Y04764D01*
X025678D01*
X026327Y046992D01*
X026324Y046954D01*
X026264Y046875D01*
X026236Y046807D01*
X026182Y046808D01*
X02615Y046886D01*
X026086Y046968D01*
X026004Y047031D01*
X025908Y047071D01*
X025854Y047078D01*
Y046686D01*
X025754D01*
Y047078D01*
X025701Y047071D01*
X025605Y047031D01*
X025522Y046968D01*
X025459Y046886D01*
X025427Y046808D01*
X025373Y046807D01*
X025345Y046875D01*
X025285Y046954D01*
X025206Y047014D01*
X025115Y047052D01*
X025017Y047065D01*
X024919Y047052D01*
X024862Y047028D01*
X024547Y047344D01*
X024504Y047372D01*
X024453Y047383D01*
X0239D01*
X023849Y047372D01*
X023806Y047344D01*
X023531Y047069D01*
X023503Y047026D01*
X023492Y046975D01*
Y04678D01*
X023255Y046543D01*
X023226Y0465D01*
X023216Y046449D01*
Y044551D01*
X023226Y0445D01*
X023255Y044457D01*
X02614Y041572D01*
X026136Y04155D01*
X026152Y041468D01*
X026199Y041399D01*
X026268Y041352D01*
X02635Y041336D01*
X026432Y041352D01*
X026501Y041399D01*
X026548Y041468D01*
X026564Y04155D01*
X026548Y041632D01*
X026501Y041701D01*
X026432Y041748D01*
X02635Y041764D01*
X026328Y04176D01*
X023481Y044606D01*
Y046394D01*
X023719Y046631D01*
X023747Y046674D01*
X023758Y046725D01*
Y04692D01*
X023955Y047117D01*
X024398D01*
X024504Y047012D01*
X024471Y046974D01*
X024419Y047014D01*
X024328Y047052D01*
X02423Y047065D01*
X024132Y047052D01*
X02404Y047014D01*
X023962Y046954D01*
X023902Y046875D01*
X023864Y046784D01*
X023851Y046686D01*
X023864Y046588D01*
X023887Y046532D01*
X023591Y046235D01*
X023562Y046192D01*
X023552Y046141D01*
Y044976D01*
X023562Y044925D01*
X023591Y044882D01*
X02624Y042232D01*
X026236Y04221D01*
X026252Y042128D01*
X026299Y042059D01*
X026368Y042012D01*
X02645Y041996D01*
X026532Y042012D01*
X026601Y042059D01*
X026648Y042128D01*
X026664Y04221D01*
X026648Y042292D01*
X026601Y042361D01*
X026532Y042408D01*
X02645Y042424D01*
X026428Y04242D01*
X023817Y045031D01*
Y04579D01*
X023864Y045801D01*
X023902Y04571D01*
X023962Y045631D01*
X02404Y045571D01*
X024132Y045533D01*
X02423Y04552D01*
X024328Y045533D01*
X024419Y045571D01*
X024497Y045631D01*
X024557Y04571D01*
X024595Y045801D01*
X024598Y045823D01*
X024648D01*
X024651Y045801D01*
X024689Y04571D01*
X024749Y045631D01*
X024828Y045571D01*
X024919Y045533D01*
X025017Y04552D01*
X025115Y045533D01*
X025206Y045571D01*
X025285Y045631D01*
X025345Y04571D01*
X025373Y045778D01*
X025427Y045777D01*
X025459Y045699D01*
X025522Y045617D01*
X025605Y045554D01*
X025701Y045514D01*
X025754Y045507D01*
Y045899D01*
X025854D01*
Y045507D01*
X025908Y045514D01*
X026004Y045554D01*
X026086Y045617D01*
X02615Y045699D01*
X026182Y045777D01*
X026236Y045778D01*
X026264Y04571D01*
X026324Y045631D01*
X026357Y045606D01*
Y045428D01*
X026375Y045338D01*
X026426Y045262D01*
X028915Y042773D01*
Y041997D01*
X027689Y040771D01*
X027638Y040695D01*
X02762Y040605D01*
Y039425D01*
X02748D01*
Y038675D01*
X02823D01*
Y039425D01*
X02809D01*
Y040508D01*
X029316Y041734D01*
X029316Y041734D01*
X029367Y04181D01*
X029385Y0419D01*
X029385Y0419D01*
Y04287D01*
X029367Y042959D01*
X029316Y043036D01*
X026826Y045525D01*
Y045606D01*
X026859Y045631D01*
X02692Y04571D01*
X026957Y045801D01*
X02696Y045823D01*
X027011D01*
X027014Y045801D01*
X027051Y04571D01*
X027111Y045631D01*
X02719Y045571D01*
X027281Y045533D01*
X027301Y045531D01*
X027893Y044939D01*
X027962Y044886D01*
X028042Y044853D01*
X028128Y044841D01*
X029408D01*
X029412Y044836D01*
X029511Y04476D01*
X029626Y044713D01*
X02975Y044696D01*
X029874Y044713D01*
X029989Y04476D01*
X030088Y044836D01*
X030092Y044841D01*
X030756D01*
X031282Y044315D01*
X031351Y044262D01*
X031432Y044228D01*
X031518Y044217D01*
X03357D01*
Y04397D01*
X03473D01*
Y04513D01*
X03357D01*
Y044883D01*
X031656D01*
X031129Y045409D01*
X03106Y045462D01*
X031027Y045476D01*
X03098Y045496D01*
X030894Y045507D01*
X030092D01*
X030088Y045512D01*
X029989Y045588D01*
X029874Y045636D01*
X02975Y045652D01*
X029626Y045636D01*
X029511Y045588D01*
X029412Y045512D01*
X029408Y045507D01*
X028266D01*
X027722Y046051D01*
X027707Y046088D01*
X027647Y046166D01*
X027614Y046192D01*
Y046393D01*
X027647Y046419D01*
X027707Y046497D01*
X027745Y046588D01*
X027758Y046686D01*
X027745Y046784D01*
X027707Y046875D01*
X027647Y046954D01*
X027614Y046979D01*
Y047321D01*
X027596Y047411D01*
X027545Y047487D01*
X026266Y048766D01*
X02619Y048817D01*
X0261Y048835D01*
X023886D01*
X023885Y048835D01*
X023816Y048888D01*
X023736Y048922D01*
X02365Y048933D01*
D02*
G37*
G36*
X0231Y047333D02*
X023014Y047322D01*
X022934Y047288D01*
X022897Y04726D01*
X022855Y04724D01*
X022145D01*
Y046647D01*
X022146D01*
Y046473D01*
X022125D01*
Y046206D01*
X0225D01*
X022875D01*
Y046473D01*
X022854D01*
Y046647D01*
X022855D01*
Y046709D01*
X022905Y046734D01*
X022934Y046712D01*
X023014Y046678D01*
X0231Y046667D01*
X023186Y046678D01*
X023266Y046712D01*
X023335Y046765D01*
X023388Y046834D01*
X023422Y046914D01*
X023433Y047D01*
X023422Y047086D01*
X023388Y047166D01*
X023335Y047235D01*
X023266Y047288D01*
X023186Y047322D01*
X0231Y047333D01*
D02*
G37*
G36*
X012956Y046768D02*
X01269D01*
Y046443D01*
X012956D01*
Y046768D01*
D02*
G37*
G36*
Y046343D02*
X01269D01*
Y046018D01*
X012956D01*
Y046343D01*
D02*
G37*
G36*
X022875Y046106D02*
X02255D01*
Y04584D01*
X022875D01*
Y046106D01*
D02*
G37*
G36*
X02245D02*
X022125D01*
Y04584D01*
X02245D01*
Y046106D01*
D02*
G37*
G36*
X021025D02*
X0207D01*
Y04584D01*
X021025D01*
Y046106D01*
D02*
G37*
G36*
X0206D02*
X020275D01*
Y04584D01*
X0206D01*
Y046106D01*
D02*
G37*
G36*
X019875D02*
X01955D01*
Y04584D01*
X019875D01*
Y046106D01*
D02*
G37*
G36*
X01945D02*
X019125D01*
Y04584D01*
X01945D01*
Y046106D01*
D02*
G37*
G36*
X018725D02*
X0184D01*
Y04584D01*
X018725D01*
Y046106D01*
D02*
G37*
G36*
X0183D02*
X017975D01*
Y04584D01*
X0183D01*
Y046106D01*
D02*
G37*
G36*
X015335Y045635D02*
X015098D01*
Y04532D01*
X015335D01*
Y045635D01*
D02*
G37*
G36*
X014998D02*
X014761D01*
Y04532D01*
X014998D01*
Y045635D01*
D02*
G37*
G36*
X012956Y045635D02*
X01269D01*
Y04531D01*
X012956D01*
Y045635D01*
D02*
G37*
G36*
X015335Y04522D02*
X015098D01*
Y044904D01*
X015335D01*
Y04522D01*
D02*
G37*
G36*
X014998D02*
X014761D01*
Y044904D01*
X014998D01*
Y04522D01*
D02*
G37*
G36*
X012956Y04521D02*
X01269D01*
Y044885D01*
X012956D01*
Y04521D01*
D02*
G37*
G36*
X019004Y045089D02*
X018704D01*
Y044764D01*
X019004D01*
Y045089D01*
D02*
G37*
G36*
X018604D02*
X018304D01*
Y044764D01*
X018604D01*
Y045089D01*
D02*
G37*
G36*
X019004Y044664D02*
X018704D01*
Y044339D01*
X019004D01*
Y044664D01*
D02*
G37*
G36*
X018604D02*
X018304D01*
Y044339D01*
X018604D01*
Y044664D01*
D02*
G37*
G36*
X016217Y045615D02*
X015683D01*
Y045464D01*
X015662Y045436D01*
X015628Y045356D01*
X015617Y04527D01*
X015628Y045184D01*
X015662Y045103D01*
X01568Y045079D01*
Y044637D01*
X015691Y04455D01*
X015711Y044503D01*
X015725Y04447D01*
X015778Y044401D01*
X016064Y044115D01*
X016133Y044062D01*
X016213Y044028D01*
X0163Y044017D01*
X016386Y044028D01*
X016466Y044062D01*
X016535Y044115D01*
X016588Y044184D01*
X016621Y044264D01*
X016632Y04435D01*
X016621Y044436D01*
X016588Y044516D01*
X016535Y044585D01*
X016346Y044774D01*
Y045254D01*
X016335Y04534D01*
X016301Y04542D01*
X016248Y045489D01*
X016233Y045505D01*
X016217Y045517D01*
Y045615D01*
D02*
G37*
G36*
X04365Y04441D02*
Y043862D01*
X044198D01*
X044191Y04393D01*
X044157Y044043D01*
X044101Y044147D01*
X044026Y044239D01*
X043935Y044314D01*
X043831Y044369D01*
X043718Y044404D01*
X04365Y04441D01*
D02*
G37*
G36*
X04355D02*
X043482Y044404D01*
X043369Y044369D01*
X043265Y044314D01*
X043174Y044239D01*
X043099Y044147D01*
X043043Y044043D01*
X043009Y04393D01*
X043002Y043862D01*
X04355D01*
Y04441D01*
D02*
G37*
G36*
X047784Y045417D02*
X046916D01*
X046483Y044984D01*
Y044116D01*
X046916Y043683D01*
X047784D01*
X048217Y044116D01*
Y044984D01*
X047784Y045417D01*
D02*
G37*
G36*
X044198Y043762D02*
X04365D01*
Y043215D01*
X043718Y043221D01*
X043831Y043255D01*
X043935Y043311D01*
X044026Y043386D01*
X044101Y043478D01*
X044157Y043582D01*
X044191Y043695D01*
X044198Y043762D01*
D02*
G37*
G36*
X04355D02*
X043002D01*
X043009Y043695D01*
X043043Y043582D01*
X043099Y043478D01*
X043174Y043386D01*
X043265Y043311D01*
X043369Y043255D01*
X043482Y043221D01*
X04355Y043215D01*
Y043762D01*
D02*
G37*
G36*
X0132Y0431D02*
X01265D01*
Y04225D01*
X0132D01*
Y0431D01*
D02*
G37*
G36*
X01255D02*
X012D01*
Y04225D01*
X01255D01*
Y0431D01*
D02*
G37*
G36*
X02785Y042429D02*
X027752Y042416D01*
X027661Y042378D01*
X027582Y042318D01*
X027522Y042239D01*
X027484Y042148D01*
X027471Y04205D01*
X027477Y042009D01*
X026984Y041516D01*
X026933Y04144D01*
X026915Y04135D01*
Y0383D01*
X026933Y03821D01*
X026984Y038134D01*
X027818Y037301D01*
X027799Y037254D01*
X027677D01*
Y037255D01*
X027123D01*
Y036841D01*
X023802Y03352D01*
X023757Y033452D01*
X023741Y033372D01*
X023741Y033372D01*
Y028137D01*
X023714Y028098D01*
X023695Y028D01*
X023714Y027902D01*
X02377Y02782D01*
X023825Y027783D01*
X02381Y027733D01*
X02365D01*
X023599Y027722D01*
X023556Y027694D01*
X023445Y027583D01*
X023364D01*
X023351Y027601D01*
X023282Y027648D01*
X0232Y027664D01*
X023118Y027648D01*
X023049Y027601D01*
X023002Y027532D01*
X022986Y02745D01*
X023002Y027368D01*
X023049Y027299D01*
X023118Y027252D01*
X0232Y027236D01*
X023282Y027252D01*
X023351Y027299D01*
X023364Y027317D01*
X0235D01*
X023551Y027328D01*
X023594Y027356D01*
X023705Y027467D01*
X023768D01*
X023774Y027449D01*
X023776Y027417D01*
X023741Y027394D01*
X02043Y024083D01*
X020285D01*
X020232Y024118D01*
X02015Y024134D01*
X020068Y024118D01*
X019999Y024071D01*
X019952Y024002D01*
X019936Y02392D01*
X019952Y023838D01*
X019999Y023769D01*
X020068Y023722D01*
X02015Y023706D01*
X020232Y023722D01*
X020301Y023769D01*
X020334Y023817D01*
X020485D01*
X020535Y023828D01*
X020578Y023856D01*
X022077Y025355D01*
X022124Y025331D01*
X022117Y0253D01*
Y021275D01*
X021185Y020342D01*
X021128Y020366D01*
X02103Y020379D01*
X020932Y020366D01*
X020841Y020328D01*
X020762Y020268D01*
X020702Y020189D01*
X020664Y020098D01*
X020651Y02D01*
X020664Y019902D01*
X020702Y019811D01*
X020762Y019732D01*
X020841Y019672D01*
X020932Y019634D01*
X02103Y019621D01*
X021128Y019634D01*
X021219Y019672D01*
X021298Y019732D01*
X021358Y019811D01*
X021396Y019902D01*
X021409Y02D01*
X021396Y020098D01*
X021372Y020155D01*
X022344Y021126D01*
X022372Y021169D01*
X022383Y02122D01*
Y025245D01*
X023601Y026463D01*
X023647Y026439D01*
X023665Y026352D01*
X02372Y02627D01*
X023802Y026214D01*
X0239Y026195D01*
X023998Y026214D01*
X02408Y02627D01*
X024112Y026317D01*
X024485D01*
X024536Y026328D01*
X024579Y026356D01*
X02488Y026658D01*
X025085D01*
X025126Y026608D01*
X025123Y026593D01*
X025134Y026539D01*
X025163Y026495D01*
X025134Y026451D01*
X025123Y026396D01*
X025134Y026342D01*
X025163Y026298D01*
X025134Y026254D01*
X025124Y026205D01*
X025114Y026192D01*
X025083Y026167D01*
X025053Y026175D01*
X025048Y026197D01*
X025002Y026267D01*
X024932Y026313D01*
X02485Y026329D01*
X024768Y026313D01*
X024699Y026267D01*
X024653Y026197D01*
X024636Y026115D01*
X024653Y026033D01*
X024699Y025964D01*
X024768Y025918D01*
X02485Y025901D01*
X024879Y025907D01*
X024901Y025865D01*
X024902Y025859D01*
X024796Y025754D01*
X024782Y025763D01*
X0247Y025779D01*
X024618Y025763D01*
X024549Y025717D01*
X024503Y025647D01*
X024486Y025565D01*
X024503Y025483D01*
X024549Y025414D01*
X024618Y025368D01*
X0247Y025351D01*
X024782Y025368D01*
X024852Y025414D01*
X024893Y025475D01*
X025058Y025641D01*
X025104Y025616D01*
X025103Y025609D01*
X025115Y025547D01*
X02515Y025494D01*
X025152Y025493D01*
X025134Y025466D01*
X025123Y025412D01*
X025134Y025358D01*
X025163Y025314D01*
X025134Y02527D01*
X025123Y025215D01*
X025134Y025161D01*
X025152Y025134D01*
X02515Y025133D01*
X025115Y025081D01*
X025113Y025069D01*
X02555D01*
X025988D01*
X025986Y025081D01*
X025951Y025133D01*
X025949Y025134D01*
X025967Y025161D01*
X025978Y025215D01*
X025967Y02527D01*
X025937Y025314D01*
X025967Y025358D01*
X025978Y025412D01*
X025967Y025466D01*
X025949Y025493D01*
X025951Y025494D01*
X025986Y025547D01*
X025988Y025559D01*
X02555D01*
Y025659D01*
X025988D01*
X025986Y025671D01*
X025951Y025724D01*
X025949Y025725D01*
X025967Y025752D01*
X025978Y025806D01*
X025967Y02586D01*
X025937Y025904D01*
X025967Y025949D01*
X025978Y026003D01*
X025975Y026017D01*
X026016Y026067D01*
X026461D01*
X026541Y025988D01*
X026536Y025965D01*
X026553Y025883D01*
X026599Y025814D01*
X026668Y025768D01*
X02675Y025751D01*
X026832Y025768D01*
X026902Y025814D01*
X026948Y025883D01*
X026965Y025965D01*
X026948Y026047D01*
X026902Y026117D01*
X026832Y026163D01*
X02675Y026179D01*
X026728Y026175D01*
X026682Y026221D01*
X0267Y026265D01*
X026747Y026266D01*
X026749Y026264D01*
X026818Y026218D01*
X0269Y026201D01*
X026982Y026218D01*
X027052Y026264D01*
X027098Y026333D01*
X027115Y026415D01*
X027098Y026497D01*
X027052Y026567D01*
X026982Y026613D01*
X0269Y026629D01*
X026818Y026613D01*
X026749Y026567D01*
X026726Y026532D01*
X026294D01*
X026275Y026579D01*
X026379Y026683D01*
X026436D01*
X026449Y026664D01*
X026518Y026618D01*
X0266Y026601D01*
X026682Y026618D01*
X026752Y026664D01*
X026798Y026733D01*
X026815Y026815D01*
X026798Y026897D01*
X026752Y026967D01*
X026682Y027013D01*
X0266Y027029D01*
X026518Y027013D01*
X026449Y026967D01*
X026436Y026948D01*
X026324D01*
X026273Y026938D01*
X02623Y026909D01*
X02606Y026739D01*
X026007Y026741D01*
X025976Y02678D01*
X025978Y02679D01*
X025967Y026844D01*
X025937Y026889D01*
X025967Y026933D01*
X025978Y026987D01*
X025967Y027041D01*
X025936Y027087D01*
X025923Y027096D01*
X02592Y027139D01*
X025965Y027134D01*
X025972Y027123D01*
X026018Y027092D01*
X026072Y027081D01*
X026126Y027092D01*
X02617Y027122D01*
X026215Y027092D01*
X026269Y027081D01*
X026323Y027092D01*
X026367Y027122D01*
X026411Y027092D01*
X026466Y027081D01*
X02652Y027092D01*
X026564Y027122D01*
X026608Y027092D01*
X026663Y027081D01*
X026717Y027092D01*
X026744Y02711D01*
X026745Y027109D01*
X026797Y027073D01*
X026809Y027071D01*
Y027509D01*
Y027978D01*
X026792Y027991D01*
X026791Y027994D01*
X026782Y028042D01*
X026753Y028085D01*
X026694Y028144D01*
X026651Y028172D01*
X0266Y028183D01*
X025655D01*
Y028296D01*
X025827D01*
Y028275D01*
X026094D01*
Y02865D01*
Y029025D01*
X025827D01*
Y029004D01*
X025653D01*
Y029005D01*
X02506D01*
Y028534D01*
X025038Y028519D01*
X024251Y027733D01*
X02409D01*
X024075Y027783D01*
X02413Y02782D01*
X024186Y027902D01*
X024205Y028D01*
X024186Y028098D01*
X024159Y028137D01*
Y033285D01*
X027419Y036545D01*
X027677D01*
Y036546D01*
X028023D01*
Y036545D01*
X028577D01*
Y037255D01*
X028506D01*
X028466Y037316D01*
X028466Y037316D01*
X027385Y038397D01*
Y041253D01*
X027809Y041677D01*
X02785Y041671D01*
X027948Y041684D01*
X028039Y041722D01*
X028118Y041782D01*
X028178Y041861D01*
X028216Y041952D01*
X028229Y04205D01*
X028216Y042148D01*
X028178Y042239D01*
X028118Y042318D01*
X028039Y042378D01*
X027948Y042416D01*
X02785Y042429D01*
D02*
G37*
G36*
X0132Y04215D02*
X01265D01*
Y0413D01*
X0132D01*
Y04215D01*
D02*
G37*
G36*
X01255D02*
X012D01*
Y0413D01*
X01255D01*
Y04215D01*
D02*
G37*
G36*
X0211Y041621D02*
Y041279D01*
X021442D01*
X021435Y041333D01*
X021395Y041429D01*
X021332Y041511D01*
X021249Y041575D01*
X021153Y041614D01*
X0211Y041621D01*
D02*
G37*
G36*
X021D02*
X020947Y041614D01*
X020851Y041575D01*
X020768Y041511D01*
X020705Y041429D01*
X020665Y041333D01*
X020658Y041279D01*
X021D01*
Y041621D01*
D02*
G37*
G36*
X02005Y041608D02*
X019952Y041595D01*
X019861Y041557D01*
X019782Y041497D01*
X019722Y041419D01*
X019684Y041327D01*
X019671Y041229D01*
X019684Y041131D01*
X019722Y04104D01*
X019782Y040962D01*
X019861Y040902D01*
X019952Y040864D01*
X02005Y040851D01*
X020148Y040864D01*
X020239Y040902D01*
X020318Y040962D01*
X020378Y04104D01*
X020416Y041131D01*
X020429Y041229D01*
X020416Y041327D01*
X020378Y041419D01*
X020318Y041497D01*
X020239Y041557D01*
X020148Y041595D01*
X02005Y041608D01*
D02*
G37*
G36*
X01905D02*
X018952Y041595D01*
X018861Y041557D01*
X018782Y041497D01*
X018722Y041419D01*
X018684Y041327D01*
X018671Y041229D01*
X018684Y041131D01*
X018722Y04104D01*
X018782Y040962D01*
X018861Y040902D01*
X018952Y040864D01*
X01905Y040851D01*
X019148Y040864D01*
X019239Y040902D01*
X019318Y040962D01*
X019378Y04104D01*
X019416Y041131D01*
X019429Y041229D01*
X019416Y041327D01*
X019378Y041419D01*
X019318Y041497D01*
X019239Y041557D01*
X019148Y041595D01*
X01905Y041608D01*
D02*
G37*
G36*
X021442Y041179D02*
X0211D01*
Y040837D01*
X021153Y040844D01*
X021249Y040884D01*
X021332Y040947D01*
X021395Y04103D01*
X021435Y041126D01*
X021442Y041179D01*
D02*
G37*
G36*
X021D02*
X020658D01*
X020665Y041126D01*
X020705Y04103D01*
X020768Y040947D01*
X020851Y040884D01*
X020947Y040844D01*
X021Y040837D01*
Y041179D01*
D02*
G37*
G36*
X01471Y04083D02*
X01386D01*
Y04028D01*
X01471D01*
Y04083D01*
D02*
G37*
G36*
X01376D02*
X01291D01*
Y04028D01*
X01376D01*
Y04083D01*
D02*
G37*
G36*
X0211Y040621D02*
Y040279D01*
X021442D01*
X021435Y040333D01*
X021395Y040429D01*
X021332Y040511D01*
X021249Y040575D01*
X021153Y040614D01*
X0211Y040621D01*
D02*
G37*
G36*
X021D02*
X020947Y040614D01*
X020851Y040575D01*
X020768Y040511D01*
X020705Y040429D01*
X020665Y040333D01*
X020658Y040279D01*
X021D01*
Y040621D01*
D02*
G37*
G36*
X019425Y040605D02*
X018675D01*
Y039854D01*
X019425D01*
Y040605D01*
D02*
G37*
G36*
X021442Y040179D02*
X0211D01*
Y039837D01*
X021153Y039844D01*
X021249Y039884D01*
X021332Y039947D01*
X021395Y04003D01*
X021435Y040126D01*
X021442Y040179D01*
D02*
G37*
G36*
X021D02*
X020658D01*
X020665Y040126D01*
X020705Y04003D01*
X020768Y039947D01*
X020851Y039884D01*
X020947Y039844D01*
X021Y039837D01*
Y040179D01*
D02*
G37*
G36*
X01471Y04018D02*
X01386D01*
Y03963D01*
X01471D01*
Y04018D01*
D02*
G37*
G36*
X01376D02*
X01291D01*
Y03963D01*
X01376D01*
Y04018D01*
D02*
G37*
G36*
X0244Y039046D02*
Y03875D01*
X024696D01*
X024691Y038791D01*
X024656Y038877D01*
X0246Y03895D01*
X024527Y039006D01*
X024441Y039041D01*
X0244Y039046D01*
D02*
G37*
G36*
X0243D02*
X024259Y039041D01*
X024173Y039006D01*
X0241Y03895D01*
X024044Y038877D01*
X024009Y038791D01*
X024004Y03875D01*
X0243D01*
Y039046D01*
D02*
G37*
G36*
X0236D02*
Y03875D01*
X023896D01*
X023891Y038791D01*
X023856Y038877D01*
X0238Y03895D01*
X023727Y039006D01*
X023641Y039041D01*
X0236Y039046D01*
D02*
G37*
G36*
X0235D02*
X023459Y039041D01*
X023373Y039006D01*
X0233Y03895D01*
X023244Y038877D01*
X023209Y038791D01*
X023204Y03875D01*
X0235D01*
Y039046D01*
D02*
G37*
G36*
X024696Y03865D02*
X024004D01*
X024009Y038609D01*
X024044Y038523D01*
X0241Y03845D01*
X024173Y038394D01*
X024215Y038377D01*
Y038323D01*
X024173Y038306D01*
X0241Y03825D01*
X024044Y038177D01*
X024009Y038091D01*
X024004Y03805D01*
X024696D01*
X024691Y038091D01*
X024656Y038177D01*
X0246Y03825D01*
X024527Y038306D01*
X024485Y038323D01*
Y038377D01*
X024527Y038394D01*
X0246Y03845D01*
X024656Y038523D01*
X024691Y038609D01*
X024696Y03865D01*
D02*
G37*
G36*
X023896D02*
X023204D01*
X023209Y038609D01*
X023244Y038523D01*
X0233Y03845D01*
X023373Y038394D01*
X023415Y038377D01*
Y038323D01*
X023373Y038306D01*
X0233Y03825D01*
X023244Y038177D01*
X023209Y038091D01*
X023204Y03805D01*
X023896D01*
X023891Y038091D01*
X023856Y038177D01*
X0238Y03825D01*
X023727Y038306D01*
X023685Y038323D01*
Y038377D01*
X023727Y038394D01*
X0238Y03845D01*
X023856Y038523D01*
X023891Y038609D01*
X023896Y03865D01*
D02*
G37*
G36*
X024696Y03795D02*
X0244D01*
Y037654D01*
X024441Y037659D01*
X024527Y037694D01*
X0246Y03775D01*
X024656Y037823D01*
X024691Y037909D01*
X024696Y03795D01*
D02*
G37*
G36*
X0243D02*
X024004D01*
X024009Y037909D01*
X024044Y037823D01*
X0241Y03775D01*
X024173Y037694D01*
X024259Y037659D01*
X0243Y037654D01*
Y03795D01*
D02*
G37*
G36*
X023896D02*
X0236D01*
Y037654D01*
X023641Y037659D01*
X023727Y037694D01*
X0238Y03775D01*
X023856Y037823D01*
X023891Y037909D01*
X023896Y03795D01*
D02*
G37*
G36*
X0235D02*
X023204D01*
X023209Y037909D01*
X023244Y037823D01*
X0233Y03775D01*
X023373Y037694D01*
X023459Y037659D01*
X0235Y037654D01*
Y03795D01*
D02*
G37*
G36*
X019685Y037001D02*
X019586Y036988D01*
X019493Y03695D01*
X019414Y036889D01*
X019353Y036809D01*
X019317Y036723D01*
X019292Y036717D01*
X01929D01*
X019265Y036723D01*
X019229Y036809D01*
X019168Y036889D01*
X019089Y03695D01*
X018997Y036988D01*
X018897Y037001D01*
X018798Y036988D01*
X018706Y03695D01*
X018626Y036889D01*
X018565Y036809D01*
X01853Y036723D01*
X018504Y036717D01*
X018503D01*
X018478Y036723D01*
X018442Y036809D01*
X018381Y036889D01*
X018302Y03695D01*
X018209Y036988D01*
X01811Y037001D01*
X018011Y036988D01*
X017918Y03695D01*
X017839Y036889D01*
X017778Y036809D01*
X017742Y036723D01*
X017717Y036717D01*
X017716D01*
X01769Y036723D01*
X017655Y036809D01*
X017594Y036889D01*
X017514Y03695D01*
X017422Y036988D01*
X017323Y037001D01*
X017223Y036988D01*
X017131Y03695D01*
X017052Y036889D01*
X016991Y036809D01*
X016955Y036723D01*
X01693Y036717D01*
X016928D01*
X016903Y036723D01*
X016867Y036809D01*
X016806Y036889D01*
X016727Y03695D01*
X016634Y036988D01*
X016535Y037001D01*
X016436Y036988D01*
X016344Y03695D01*
X016264Y036889D01*
X016203Y036809D01*
X016168Y036723D01*
X016142Y036717D01*
X016141D01*
X016115Y036723D01*
X01608Y036809D01*
X016019Y036889D01*
X015939Y03695D01*
X015847Y036988D01*
X015748Y037001D01*
X015649Y036988D01*
X015556Y03695D01*
X015477Y036889D01*
X015416Y036809D01*
X01538Y036723D01*
X015355Y036717D01*
X015353D01*
X015328Y036723D01*
X015292Y036809D01*
X015231Y036889D01*
X015152Y03695D01*
X01506Y036988D01*
X01496Y037001D01*
X014861Y036988D01*
X014769Y03695D01*
X014689Y036889D01*
X014628Y036809D01*
X014593Y036723D01*
X014567Y036717D01*
X014566D01*
X014541Y036723D01*
X014505Y036809D01*
X014444Y036889D01*
X014365Y03695D01*
X014272Y036988D01*
X014173Y037001D01*
X014074Y036988D01*
X013981Y03695D01*
X013902Y036889D01*
X013841Y036809D01*
X013805Y036723D01*
X01378Y036717D01*
X013779D01*
X013753Y036723D01*
X013718Y036809D01*
X013657Y036889D01*
X013577Y03695D01*
X013485Y036988D01*
X013386Y037001D01*
X013286Y036988D01*
X013194Y03695D01*
X013115Y036889D01*
X013054Y036809D01*
X013015Y036717D01*
X013002Y036618D01*
X013015Y036519D01*
X013054Y036426D01*
X013115Y036347D01*
X013194Y036286D01*
X01328Y03625D01*
X013286Y036225D01*
Y036223D01*
X01328Y036198D01*
X013194Y036162D01*
X013115Y036101D01*
X013054Y036022D01*
X013015Y03593D01*
X013002Y03583D01*
X013015Y035731D01*
X013054Y035639D01*
X013115Y035559D01*
X013194Y035498D01*
X013286Y03546D01*
X013386Y035447D01*
X013485Y03546D01*
X013577Y035498D01*
X013657Y035559D01*
X013718Y035639D01*
X013753Y035725D01*
X013779Y035731D01*
X01378D01*
X013805Y035725D01*
X013841Y035639D01*
X013902Y035559D01*
X013981Y035498D01*
X014074Y03546D01*
X014173Y035447D01*
X014272Y03546D01*
X014365Y035498D01*
X014444Y035559D01*
X014505Y035639D01*
X014541Y035725D01*
X014566Y035731D01*
X014567D01*
X014593Y035725D01*
X014628Y035639D01*
X014689Y035559D01*
X014769Y035498D01*
X014861Y03546D01*
X01496Y035447D01*
X01506Y03546D01*
X015152Y035498D01*
X015231Y035559D01*
X015292Y035639D01*
X015328Y035725D01*
X015353Y035731D01*
X015355D01*
X01538Y035725D01*
X015416Y035639D01*
X015477Y035559D01*
X015556Y035498D01*
X015649Y03546D01*
X015748Y035447D01*
X015847Y03546D01*
X015939Y035498D01*
X016019Y035559D01*
X01608Y035639D01*
X016115Y035725D01*
X016141Y035731D01*
X016142D01*
X016168Y035725D01*
X016203Y035639D01*
X016264Y035559D01*
X016344Y035498D01*
X016436Y03546D01*
X016535Y035447D01*
X016634Y03546D01*
X016727Y035498D01*
X016806Y035559D01*
X016867Y035639D01*
X016903Y035725D01*
X016928Y035731D01*
X01693D01*
X016955Y035725D01*
X016991Y035639D01*
X017052Y035559D01*
X017131Y035498D01*
X017223Y03546D01*
X017323Y035447D01*
X017422Y03546D01*
X017514Y035498D01*
X017594Y035559D01*
X017655Y035639D01*
X01769Y035725D01*
X017716Y035731D01*
X017717D01*
X017742Y035725D01*
X017778Y035639D01*
X017839Y035559D01*
X017918Y035498D01*
X018011Y03546D01*
X01811Y035447D01*
X018209Y03546D01*
X018302Y035498D01*
X018381Y035559D01*
X018442Y035639D01*
X018478Y035725D01*
X018503Y035731D01*
X018504D01*
X01853Y035725D01*
X018565Y035639D01*
X018626Y035559D01*
X018706Y035498D01*
X018798Y03546D01*
X018897Y035447D01*
X018997Y03546D01*
X019089Y035498D01*
X019168Y035559D01*
X019229Y035639D01*
X019265Y035725D01*
X01929Y035731D01*
X019292D01*
X019317Y035725D01*
X019353Y035639D01*
X019414Y035559D01*
X019493Y035498D01*
X019586Y03546D01*
X019685Y035447D01*
X019784Y03546D01*
X019876Y035498D01*
X019956Y035559D01*
X020017Y035639D01*
X020055Y035731D01*
X020068Y03583D01*
X020055Y03593D01*
X020017Y036022D01*
X019956Y036101D01*
X019876Y036162D01*
X01979Y036198D01*
X019784Y036223D01*
Y036225D01*
X01979Y03625D01*
X019876Y036286D01*
X019956Y036347D01*
X020017Y036426D01*
X020055Y036519D01*
X020068Y036618D01*
X020055Y036717D01*
X020017Y036809D01*
X019956Y036889D01*
X019876Y03695D01*
X019784Y036988D01*
X019685Y037001D01*
D02*
G37*
G36*
X03415Y037133D02*
X034036Y037122D01*
X033927Y037088D01*
X033826Y037035D01*
X033738Y036962D01*
X033665Y036874D01*
X033612Y036773D01*
X033578Y036664D01*
X033567Y03655D01*
X033578Y036436D01*
X033612Y036327D01*
X033665Y036226D01*
X033738Y036138D01*
X033826Y036065D01*
X033927Y036012D01*
X034036Y035978D01*
X03415Y035967D01*
X034264Y035978D01*
X034373Y036012D01*
X034474Y036065D01*
X034562Y036138D01*
X034627Y036217D01*
X042725D01*
X04302Y035922D01*
Y035232D01*
X04418D01*
Y036392D01*
X043491D01*
X043098Y036785D01*
X043029Y036838D01*
X042996Y036852D01*
X042949Y036872D01*
X042862Y036883D01*
X034627D01*
X034562Y036962D01*
X034474Y037035D01*
X034373Y037088D01*
X034264Y037122D01*
X03415Y037133D01*
D02*
G37*
G36*
X04405Y033042D02*
Y0327D01*
X044392D01*
X044385Y032753D01*
X044345Y032849D01*
X044282Y032932D01*
X044199Y032995D01*
X044103Y033035D01*
X04405Y033042D01*
D02*
G37*
G36*
X04395D02*
X043897Y033035D01*
X043801Y032995D01*
X043718Y032932D01*
X043655Y032849D01*
X043615Y032753D01*
X043608Y0327D01*
X04395D01*
Y033042D01*
D02*
G37*
G36*
X026367Y032775D02*
X0261D01*
Y03245D01*
X026367D01*
Y032775D01*
D02*
G37*
G36*
X028306D02*
X02804D01*
Y03245D01*
X028306D01*
Y032775D01*
D02*
G37*
G36*
X043Y033029D02*
X042902Y033016D01*
X042811Y032978D01*
X042732Y032918D01*
X042672Y032839D01*
X042634Y032748D01*
X042621Y03265D01*
X042634Y032552D01*
X042672Y032461D01*
X042732Y032382D01*
X042811Y032322D01*
X042902Y032284D01*
X043Y032271D01*
X043098Y032284D01*
X043189Y032322D01*
X043268Y032382D01*
X043328Y032461D01*
X043366Y032552D01*
X043379Y03265D01*
X043366Y032748D01*
X043328Y032839D01*
X043268Y032918D01*
X043189Y032978D01*
X043098Y033016D01*
X043Y033029D01*
D02*
G37*
G36*
X042D02*
X041902Y033016D01*
X041811Y032978D01*
X041732Y032918D01*
X041672Y032839D01*
X041634Y032748D01*
X041621Y03265D01*
X041634Y032552D01*
X041672Y032461D01*
X041732Y032382D01*
X041811Y032322D01*
X041902Y032284D01*
X042Y032271D01*
X042098Y032284D01*
X042189Y032322D01*
X042268Y032382D01*
X042328Y032461D01*
X042366Y032552D01*
X042379Y03265D01*
X042366Y032748D01*
X042328Y032839D01*
X042268Y032918D01*
X042189Y032978D01*
X042098Y033016D01*
X042Y033029D01*
D02*
G37*
G36*
X041D02*
X040902Y033016D01*
X040811Y032978D01*
X040732Y032918D01*
X040672Y032839D01*
X040634Y032748D01*
X040621Y03265D01*
X040634Y032552D01*
X040672Y032461D01*
X040732Y032382D01*
X040811Y032322D01*
X040902Y032284D01*
X041Y032271D01*
X041098Y032284D01*
X041189Y032322D01*
X041268Y032382D01*
X041328Y032461D01*
X041366Y032552D01*
X041379Y03265D01*
X041366Y032748D01*
X041328Y032839D01*
X041268Y032918D01*
X041189Y032978D01*
X041098Y033016D01*
X041Y033029D01*
D02*
G37*
G36*
X04D02*
X039902Y033016D01*
X039811Y032978D01*
X039732Y032918D01*
X039672Y032839D01*
X039634Y032748D01*
X039621Y03265D01*
X039634Y032552D01*
X039672Y032461D01*
X039732Y032382D01*
X039811Y032322D01*
X039902Y032284D01*
X04Y032271D01*
X040098Y032284D01*
X040189Y032322D01*
X040268Y032382D01*
X040328Y032461D01*
X040366Y032552D01*
X040379Y03265D01*
X040366Y032748D01*
X040328Y032839D01*
X040268Y032918D01*
X040189Y032978D01*
X040098Y033016D01*
X04Y033029D01*
D02*
G37*
G36*
X026Y033814D02*
X025918Y033798D01*
X025849Y033751D01*
X025802Y033682D01*
X025786Y0336D01*
X025802Y033518D01*
X025849Y033449D01*
X025918Y033402D01*
X025945Y033397D01*
X025965Y033351D01*
X025952Y033332D01*
X025936Y03325D01*
X025952Y033168D01*
X025999Y033099D01*
X026068Y033052D01*
X02615Y033036D01*
X026232Y033052D01*
X026301Y033099D01*
X026314Y033117D01*
X036345D01*
X036625Y032838D01*
Y032275D01*
X037375D01*
Y032976D01*
X037375Y032991D01*
X037419Y033031D01*
X037432Y033031D01*
X037658Y032805D01*
X037634Y032748D01*
X037621Y03265D01*
X037634Y032552D01*
X037672Y032461D01*
X037732Y032382D01*
X037811Y032322D01*
X037902Y032284D01*
X038Y032271D01*
X038098Y032284D01*
X038189Y032322D01*
X038268Y032382D01*
X038328Y032461D01*
X038366Y032552D01*
X038379Y03265D01*
X038366Y032748D01*
X038328Y032839D01*
X038268Y032918D01*
X038189Y032978D01*
X038098Y033016D01*
X038Y033029D01*
X037902Y033016D01*
X037845Y032992D01*
X037144Y033694D01*
X037101Y033722D01*
X03705Y033733D01*
X026164D01*
X026151Y033751D01*
X026082Y033798D01*
X026Y033814D01*
D02*
G37*
G36*
X044392Y0326D02*
X04405D01*
Y032258D01*
X044103Y032265D01*
X044199Y032305D01*
X044282Y032368D01*
X044345Y032451D01*
X044385Y032547D01*
X044392Y0326D01*
D02*
G37*
G36*
X04395D02*
X043608D01*
X043615Y032547D01*
X043655Y032451D01*
X043718Y032368D01*
X043801Y032305D01*
X043897Y032265D01*
X04395Y032258D01*
Y0326D01*
D02*
G37*
G36*
X028306Y03235D02*
X02804D01*
Y032025D01*
X028306D01*
Y03235D01*
D02*
G37*
G36*
X026367D02*
X0261D01*
Y032025D01*
X026367D01*
Y03235D01*
D02*
G37*
G36*
X047534Y032917D02*
X046666D01*
X046233Y032484D01*
Y031616D01*
X046666Y031183D01*
X047534D01*
X047967Y031616D01*
Y032484D01*
X047534Y032917D01*
D02*
G37*
G36*
X034284D02*
X033416D01*
X032983Y032484D01*
Y031616D01*
X033416Y031183D01*
X034284D01*
X034717Y031616D01*
Y032484D01*
X034284Y032917D01*
D02*
G37*
G36*
X039Y033029D02*
X038902Y033016D01*
X038811Y032978D01*
X038732Y032918D01*
X038672Y032839D01*
X038634Y032748D01*
X038621Y03265D01*
X038634Y032552D01*
X038647Y032521D01*
X037185Y031058D01*
X03035D01*
X03029Y031046D01*
X030238Y031012D01*
X028488Y029262D01*
X028454Y02921D01*
X028442Y02915D01*
X028454Y02909D01*
X028467Y029069D01*
Y02866D01*
X028162Y028355D01*
X02811Y028373D01*
X028098Y028432D01*
X028051Y028501D01*
X027982Y028548D01*
X0279Y028564D01*
X027898Y028564D01*
X027855Y028606D01*
X027864Y02865D01*
X027848Y028732D01*
X027801Y028801D01*
X027732Y028848D01*
X02765Y028864D01*
X027568Y028848D01*
X027499Y028801D01*
X027483Y028777D01*
X027433Y028793D01*
Y029634D01*
X028021Y030223D01*
X028068Y030204D01*
X028161Y030191D01*
X028253Y030204D01*
X02834Y030239D01*
X028414Y030296D01*
X028471Y030371D01*
X028507Y030457D01*
X028519Y03055D01*
X028507Y030643D01*
X028488Y03069D01*
X029237Y031439D01*
X029266Y031482D01*
X029276Y031533D01*
Y032045D01*
X02944D01*
Y032755D01*
X028847D01*
Y032754D01*
X028673D01*
Y032775D01*
X028406D01*
Y0324D01*
Y032025D01*
X028673D01*
Y032046D01*
X028847D01*
Y032045D01*
X029011D01*
Y031588D01*
X0283Y030877D01*
X028253Y030896D01*
X028161Y030909D01*
X028068Y030896D01*
X027981Y030861D01*
X027907Y030804D01*
X02785Y030729D01*
X027814Y030643D01*
X027802Y03055D01*
X027814Y030457D01*
X027834Y03041D01*
X027206Y029783D01*
X027178Y02974D01*
X027167Y029689D01*
Y028891D01*
X027117Y02887D01*
X026372Y029616D01*
Y03022D01*
X026419Y030239D01*
X026493Y030296D01*
X02655Y030371D01*
X026586Y030457D01*
X026598Y03055D01*
X026586Y030643D01*
X02655Y030729D01*
X026493Y030804D01*
X026419Y030861D01*
X026332Y030896D01*
X026239Y030909D01*
X026147Y030896D01*
X0261Y030877D01*
X025395Y031582D01*
Y032045D01*
X025559D01*
Y032046D01*
X025733D01*
Y032025D01*
X026D01*
Y0324D01*
Y032775D01*
X025733D01*
Y032754D01*
X025559D01*
Y032755D01*
X024966D01*
Y032045D01*
X02513D01*
Y031527D01*
X02514Y031476D01*
X025169Y031433D01*
X025912Y03069D01*
X025893Y030643D01*
X025881Y03055D01*
X025893Y030457D01*
X025929Y030371D01*
X025986Y030296D01*
X02606Y030239D01*
X026107Y03022D01*
Y029561D01*
X026117Y02951D01*
X026146Y029467D01*
X026924Y028689D01*
Y0281D01*
X026934Y028049D01*
X026963Y028006D01*
X026969Y028D01*
X026957Y027941D01*
X026938Y027933D01*
X026922Y027944D01*
X026909Y027946D01*
Y027509D01*
Y027045D01*
X026935Y027027D01*
X026937Y027015D01*
X026966Y026972D01*
X027432Y026506D01*
X027475Y026478D01*
X027525Y026467D01*
X027636D01*
X027649Y026449D01*
X027718Y026402D01*
X0278Y026386D01*
X027882Y026402D01*
X027951Y026449D01*
X027998Y026518D01*
X028014Y0266D01*
X027998Y026682D01*
X027951Y026751D01*
X027882Y026798D01*
X0278Y026814D01*
X027718Y026798D01*
X027649Y026751D01*
X027636Y026733D01*
X02758D01*
X027277Y027035D01*
X027294Y02709D01*
X027307Y027092D01*
X027352Y027122D01*
X027396Y027092D01*
X02745Y027081D01*
X027504Y027092D01*
X027548Y027122D01*
X027593Y027092D01*
X027647Y027081D01*
X027701Y027092D01*
X027745Y027122D01*
X027789Y027092D01*
X027844Y027081D01*
X027898Y027092D01*
X027942Y027122D01*
X027986Y027092D01*
X028041Y027081D01*
X028095Y027092D01*
X028139Y027122D01*
X028183Y027092D01*
X028237Y027081D01*
X028292Y027092D01*
X028338Y027123D01*
X028368Y027169D01*
X028379Y027223D01*
Y027794D01*
X028368Y027848D01*
X028338Y027894D01*
X028292Y027925D01*
X028237Y027936D01*
X028199Y027973D01*
X028197Y028015D01*
X028694Y028511D01*
X028722Y028554D01*
X028733Y028605D01*
Y029059D01*
X030415Y030742D01*
X03725D01*
X03731Y030754D01*
X037362Y030788D01*
X038871Y032297D01*
X038902Y032284D01*
X039Y032271D01*
X039098Y032284D01*
X039189Y032322D01*
X039268Y032382D01*
X039328Y032461D01*
X039366Y032552D01*
X039379Y03265D01*
X039366Y032748D01*
X039328Y032839D01*
X039268Y032918D01*
X039189Y032978D01*
X039098Y033016D01*
X039Y033029D01*
D02*
G37*
G36*
X03715Y029697D02*
Y029256D01*
X037591D01*
X037581Y029335D01*
X037531Y029455D01*
X037452Y029558D01*
X037349Y029637D01*
X037229Y029687D01*
X03715Y029697D01*
D02*
G37*
G36*
X03705D02*
X036971Y029687D01*
X036851Y029637D01*
X036748Y029558D01*
X036669Y029455D01*
X036619Y029335D01*
X036609Y029256D01*
X03705D01*
Y029697D01*
D02*
G37*
G36*
X04795Y029432D02*
Y02905D01*
X048332D01*
X048323Y029113D01*
X04828Y029219D01*
X04821Y02931D01*
X048119Y02938D01*
X048013Y029423D01*
X04795Y029432D01*
D02*
G37*
G36*
X04785D02*
X047787Y029423D01*
X047681Y02938D01*
X04759Y02931D01*
X04752Y029219D01*
X047477Y029113D01*
X047468Y02905D01*
X04785D01*
Y029432D01*
D02*
G37*
G36*
X035328Y029684D02*
X035205Y029667D01*
X035089Y02962D01*
X03499Y029544D01*
X034915Y029445D01*
X034867Y02933D01*
X034851Y029206D01*
X034867Y029082D01*
X034915Y028967D01*
X03499Y028868D01*
X035089Y028792D01*
X035205Y028744D01*
X035328Y028728D01*
X035452Y028744D01*
X035567Y028792D01*
X035666Y028868D01*
X035742Y028967D01*
X03579Y029082D01*
X035806Y029206D01*
X03579Y02933D01*
X035742Y029445D01*
X035666Y029544D01*
X035567Y02962D01*
X035452Y029667D01*
X035328Y029684D01*
D02*
G37*
G36*
X037591Y029156D02*
X03715D01*
Y028715D01*
X037229Y028725D01*
X037349Y028775D01*
X037452Y028854D01*
X037531Y028957D01*
X037581Y029077D01*
X037591Y029156D01*
D02*
G37*
G36*
X03705D02*
X036609D01*
X036619Y029077D01*
X036669Y028957D01*
X036748Y028854D01*
X036851Y028775D01*
X036971Y028725D01*
X03705Y028715D01*
Y029156D01*
D02*
G37*
G36*
X02646Y029025D02*
X026194D01*
Y0287D01*
X02646D01*
Y029025D01*
D02*
G37*
G36*
X0469Y029418D02*
X046792Y029404D01*
X046691Y029362D01*
X046604Y029296D01*
X046538Y029209D01*
X046496Y029108D01*
X046482Y029D01*
X046496Y028892D01*
X046538Y028791D01*
X046604Y028704D01*
X046691Y028638D01*
X046792Y028596D01*
X0469Y028582D01*
X047008Y028596D01*
X047109Y028638D01*
X047196Y028704D01*
X047262Y028791D01*
X047304Y028892D01*
X047318Y029D01*
X047304Y029108D01*
X047262Y029209D01*
X047196Y029296D01*
X047109Y029362D01*
X047008Y029404D01*
X0469Y029418D01*
D02*
G37*
G36*
X048332Y02895D02*
X04795D01*
Y028568D01*
X048013Y028577D01*
X048119Y02862D01*
X04821Y02869D01*
X04828Y028781D01*
X048323Y028887D01*
X048332Y02895D01*
D02*
G37*
G36*
X04785D02*
X047468D01*
X047477Y028887D01*
X04752Y028781D01*
X04759Y02869D01*
X047681Y02862D01*
X047787Y028577D01*
X04785Y028568D01*
Y02895D01*
D02*
G37*
G36*
X04075Y028696D02*
Y0284D01*
X041046D01*
X041041Y028441D01*
X041006Y028527D01*
X04095Y0286D01*
X040877Y028656D01*
X040791Y028691D01*
X04075Y028696D01*
D02*
G37*
G36*
X04065D02*
X040609Y028691D01*
X040523Y028656D01*
X04045Y0286D01*
X040394Y028527D01*
X040359Y028441D01*
X040354Y0284D01*
X04065D01*
Y028696D01*
D02*
G37*
G36*
X03995D02*
Y0284D01*
X040246D01*
X040241Y028441D01*
X040206Y028527D01*
X04015Y0286D01*
X040077Y028656D01*
X039991Y028691D01*
X03995Y028696D01*
D02*
G37*
G36*
X03985D02*
X039809Y028691D01*
X039723Y028656D01*
X03965Y0286D01*
X039594Y028527D01*
X039559Y028441D01*
X039554Y0284D01*
X03985D01*
Y028696D01*
D02*
G37*
G36*
X02646Y0286D02*
X026194D01*
Y028275D01*
X02646D01*
Y0286D01*
D02*
G37*
G36*
X041046Y0283D02*
X040354D01*
X040359Y028259D01*
X040394Y028173D01*
X04045Y0281D01*
X040523Y028044D01*
X040565Y028027D01*
Y027973D01*
X040523Y027956D01*
X04045Y0279D01*
X040394Y027827D01*
X040359Y027741D01*
X040354Y0277D01*
X041046D01*
X041041Y027741D01*
X041006Y027827D01*
X04095Y0279D01*
X040877Y027956D01*
X040835Y027973D01*
Y028027D01*
X040877Y028044D01*
X04095Y0281D01*
X041006Y028173D01*
X041041Y028259D01*
X041046Y0283D01*
D02*
G37*
G36*
X040246D02*
X039554D01*
X039559Y028259D01*
X039594Y028173D01*
X03965Y0281D01*
X039723Y028044D01*
X039765Y028027D01*
Y027973D01*
X039723Y027956D01*
X03965Y0279D01*
X039594Y027827D01*
X039559Y027741D01*
X039554Y0277D01*
X040246D01*
X040241Y027741D01*
X040206Y027827D01*
X04015Y0279D01*
X040077Y027956D01*
X040035Y027973D01*
Y028027D01*
X040077Y028044D01*
X04015Y0281D01*
X040206Y028173D01*
X040241Y028259D01*
X040246Y0283D01*
D02*
G37*
G36*
X0143Y029808D02*
X0126D01*
X01254Y029796D01*
X012488Y029762D01*
X012138Y029412D01*
X012104Y02936D01*
X012092Y0293D01*
Y0222D01*
X012104Y02214D01*
X012138Y022088D01*
X01715Y017076D01*
X017145Y01705D01*
X017164Y016952D01*
X01722Y01687D01*
X017302Y016815D01*
X0174Y016795D01*
X017498Y016815D01*
X01758Y01687D01*
X017636Y016952D01*
X017655Y01705D01*
X017636Y017148D01*
X01758Y01723D01*
X017498Y017285D01*
X0174Y017305D01*
X017374Y0173D01*
X012408Y022265D01*
Y029235D01*
X012665Y029492D01*
X013038D01*
X013053Y029442D01*
X013036Y02943D01*
X012699Y029094D01*
X012665Y029042D01*
X012653Y028982D01*
Y022439D01*
X012665Y022379D01*
X012699Y022328D01*
X01835Y016677D01*
X018364Y016602D01*
X01842Y01652D01*
X018502Y016465D01*
X0186Y016445D01*
X018698Y016465D01*
X01878Y01652D01*
X018795Y016542D01*
X019885D01*
X020447Y015979D01*
X020434Y015948D01*
X020421Y01585D01*
X020434Y015752D01*
X020472Y015661D01*
X020532Y015582D01*
X020611Y015522D01*
X020702Y015484D01*
X0208Y015471D01*
X020898Y015484D01*
X020955Y015508D01*
X021458Y015005D01*
X021434Y014948D01*
X021421Y01485D01*
X021434Y014752D01*
X021472Y014661D01*
X021532Y014582D01*
X021611Y014522D01*
X021702Y014484D01*
X0218Y014471D01*
X021898Y014484D01*
X021989Y014522D01*
X022068Y014582D01*
X022128Y014661D01*
X022151Y014717D01*
X0223D01*
X022351Y014728D01*
X022394Y014756D01*
X027347Y019709D01*
X027376Y019752D01*
X027386Y019803D01*
Y023835D01*
X027436Y023876D01*
X02745Y023873D01*
X027504Y023884D01*
X027548Y023913D01*
X027593Y023884D01*
X027615Y023879D01*
X027653Y023829D01*
X027654Y023824D01*
X027653Y02382D01*
X027618Y023813D01*
X027549Y023767D01*
X027503Y023697D01*
X027486Y023615D01*
X027503Y023533D01*
X027549Y023464D01*
X027618Y023418D01*
X0277Y023401D01*
X027782Y023418D01*
X027852Y023464D01*
X027898Y023533D01*
X027915Y023615D01*
X027906Y02366D01*
X027937Y023692D01*
X027966Y023735D01*
X027976Y023786D01*
Y023814D01*
X027991Y023826D01*
Y0243D01*
X028091D01*
Y023862D01*
X028103Y023865D01*
X028155Y0239D01*
X028156Y023902D01*
X028183Y023884D01*
X028223Y023876D01*
X02862Y023479D01*
Y023276D01*
X0286Y02326D01*
X0285Y02324D01*
X028416Y023184D01*
X02836Y0231D01*
X02834Y023D01*
X02836Y022901D01*
X028416Y022816D01*
X028492Y02274D01*
Y022654D01*
X028323D01*
Y022675D01*
X028056D01*
Y0223D01*
Y021925D01*
X028323D01*
Y021946D01*
X028497D01*
Y021945D01*
X02909D01*
Y022655D01*
X029012D01*
Y022848D01*
X028992Y022947D01*
X028936Y023032D01*
X028885Y023083D01*
Y023534D01*
X028875Y023585D01*
X028846Y023628D01*
X02842Y024054D01*
Y024285D01*
X028409Y024335D01*
X028381Y024378D01*
X028379Y024379D01*
Y024585D01*
X028368Y02464D01*
X028396Y024689D01*
X028427D01*
X028474Y02468D01*
X029044D01*
X029099Y024691D01*
X029145Y024721D01*
X029175Y024767D01*
X029186Y024822D01*
X029175Y024876D01*
X029146Y02492D01*
X029175Y024964D01*
X029186Y025018D01*
X029175Y025073D01*
X029146Y025117D01*
X029175Y025161D01*
X029186Y025215D01*
X029175Y02527D01*
X029146Y025314D01*
X029175Y025358D01*
X029186Y025412D01*
X029175Y025466D01*
X029146Y025511D01*
X029175Y025555D01*
X029186Y025609D01*
X029184Y025619D01*
X029216Y025658D01*
X029348D01*
X029617Y025389D01*
Y017662D01*
X02957Y01763D01*
X029515Y017548D01*
X029495Y01745D01*
X029515Y017352D01*
X02957Y01727D01*
X029652Y017214D01*
X02975Y017195D01*
X029806Y017206D01*
X031092Y01592D01*
Y015897D01*
X031095Y015884D01*
Y015473D01*
X031096D01*
Y015379D01*
X031049Y01536D01*
X030979Y01543D01*
X030936Y015459D01*
X030885Y015469D01*
X030821D01*
X03078Y01553D01*
X030698Y015586D01*
X0306Y015605D01*
X030502Y015586D01*
X03042Y01553D01*
X030364Y015448D01*
X030345Y01535D01*
X030364Y015252D01*
X03042Y01517D01*
X030502Y015115D01*
X0306Y015095D01*
X030698Y015115D01*
X03078Y01517D01*
X030789Y015183D01*
X030847Y015187D01*
X031095Y014939D01*
Y014573D01*
X031805D01*
Y014717D01*
X032445D01*
Y014573D01*
X033155D01*
Y014717D01*
X033741D01*
X033792Y014728D01*
X033835Y014756D01*
X033894Y014815D01*
X033922Y014858D01*
X033933Y014909D01*
Y01503D01*
X03407Y015167D01*
X03462D01*
X034667Y01512D01*
Y01475D01*
X034678Y014699D01*
X034706Y014656D01*
X035006Y014356D01*
X035049Y014328D01*
X0351Y014317D01*
X03605D01*
X036101Y014328D01*
X036144Y014356D01*
X036344Y014556D01*
X036372Y014599D01*
X036383Y01465D01*
Y015089D01*
X036455Y015161D01*
X037051D01*
X037406Y014806D01*
X037449Y014778D01*
X0375Y014767D01*
X037795D01*
Y014603D01*
X038505D01*
Y015197D01*
X038504D01*
Y015371D01*
X038525D01*
Y015637D01*
X03815D01*
X037775D01*
Y015371D01*
X037796D01*
Y015197D01*
X037795D01*
Y015033D01*
X037555D01*
X0372Y015387D01*
X037157Y015416D01*
X037106Y015426D01*
X0364D01*
X036349Y015416D01*
X036306Y015387D01*
X036156Y015237D01*
X036128Y015194D01*
X036117Y015144D01*
Y014705D01*
X036049Y014637D01*
X035999Y014657D01*
Y014763D01*
X03585D01*
Y014863D01*
X035999D01*
Y015021D01*
X035986D01*
X035973Y015037D01*
X035955Y015071D01*
X035959Y015093D01*
Y015368D01*
X035953Y015399D01*
X035935Y015426D01*
X035935Y015426D01*
X035849Y015512D01*
X03587Y015562D01*
X035979D01*
Y015791D01*
X035983Y015808D01*
Y016191D01*
X035972Y016242D01*
X035944Y016285D01*
X035829Y0164D01*
X035852Y016446D01*
X035868Y016443D01*
X036415D01*
Y01589D01*
X036421Y015859D01*
X036428Y01584D01*
X036446Y015814D01*
X03646Y0158D01*
X036487Y015782D01*
X036487Y015782D01*
X036505Y015774D01*
X036536Y015768D01*
X036856D01*
X036888Y015774D01*
X036906Y015782D01*
X036932Y0158D01*
X036947Y015814D01*
X036964Y01584D01*
X036972Y015859D01*
X036978Y01589D01*
Y016885D01*
X036972Y016916D01*
X036964Y016935D01*
X036947Y016961D01*
X036932Y016975D01*
X036906Y016993D01*
X036888Y017001D01*
X036856Y017007D01*
X035868D01*
X035836Y017001D01*
X035818Y016993D01*
X035791Y016975D01*
X035777Y016961D01*
X03576Y016935D01*
X03576Y016935D01*
X035752Y016916D01*
X035746Y016885D01*
Y016565D01*
X035749Y016551D01*
X035703Y016526D01*
X035533Y016696D01*
Y017024D01*
X035523Y017075D01*
X035494Y017118D01*
X035318Y017294D01*
X035275Y017322D01*
X035224Y017333D01*
X034126D01*
X034075Y017322D01*
X034032Y017294D01*
X033856Y017118D01*
X033827Y017075D01*
X033817Y017024D01*
Y016441D01*
X033406Y016029D01*
X032947D01*
X032934Y016027D01*
X032697D01*
X032669Y016069D01*
X030444Y018294D01*
X030455Y01835D01*
X030436Y018448D01*
X03038Y01853D01*
X030333Y018562D01*
Y02545D01*
X030322Y025501D01*
X030294Y025544D01*
X029756Y026081D01*
X029713Y02611D01*
X029663Y02612D01*
X029238D01*
X029216Y02615D01*
X028759D01*
X028321D01*
X028324Y026138D01*
X028359Y026085D01*
X028361Y026084D01*
X028343Y026057D01*
X028332Y026003D01*
X028343Y025949D01*
X028372Y025904D01*
X028343Y02586D01*
X028332Y025806D01*
X028343Y025752D01*
X028372Y025707D01*
X028343Y025663D01*
X028332Y025609D01*
X028343Y025555D01*
X028372Y025511D01*
X028343Y025466D01*
X028332Y025412D01*
X028343Y025358D01*
X028372Y025314D01*
X028343Y02527D01*
X028332Y025215D01*
X028343Y025161D01*
X028372Y025117D01*
X028343Y025073D01*
X028332Y025018D01*
X028335Y025004D01*
X028294Y024954D01*
X027249D01*
X026505Y025698D01*
X026515Y025747D01*
X026498Y025829D01*
X026452Y025898D01*
X026382Y025944D01*
X0263Y025961D01*
X026218Y025944D01*
X026149Y025898D01*
X026103Y025829D01*
X026086Y025747D01*
X026103Y025665D01*
X026149Y025595D01*
X026218Y025549D01*
X026295Y025534D01*
X027053Y024775D01*
X027035Y024723D01*
X027002Y024716D01*
X026958Y024687D01*
X026914Y024716D01*
X026859Y024727D01*
X026805Y024716D01*
X026761Y024687D01*
X026717Y024716D01*
X026663Y024727D01*
X026608Y024716D01*
X026564Y024687D01*
X02652Y024716D01*
X026466Y024727D01*
X026411Y024716D01*
X026367Y024687D01*
X026323Y024716D01*
X026269Y024727D01*
X026215Y024716D01*
X02617Y024687D01*
X026126Y024716D01*
X026072Y024727D01*
X026018Y024716D01*
X025972Y024686D01*
X025941Y02464D01*
X02593Y024585D01*
Y024015D01*
X025941Y02396D01*
X025972Y023914D01*
X026018Y023884D01*
X026072Y023873D01*
X026126Y023884D01*
X02617Y023913D01*
X026215Y023884D01*
X026269Y023873D01*
X026323Y023884D01*
X026367Y023913D01*
X026411Y023884D01*
X026466Y023873D01*
X02652Y023884D01*
X026564Y023913D01*
X026608Y023884D01*
X026663Y023873D01*
X026717Y023884D01*
X026761Y023913D01*
X026805Y023884D01*
X026859Y023873D01*
X026874Y023876D01*
X026924Y023835D01*
Y023755D01*
X026569Y0234D01*
X02654Y023357D01*
X02653Y023306D01*
Y019896D01*
X022617Y015983D01*
X022175D01*
Y016225D01*
X021425D01*
Y015483D01*
X021383Y015454D01*
X021142Y015695D01*
X021166Y015752D01*
X021179Y01585D01*
X021166Y015948D01*
X021128Y016039D01*
X021068Y016118D01*
X020989Y016178D01*
X020898Y016216D01*
X0208Y016229D01*
X020702Y016216D01*
X020671Y016203D01*
X020062Y016812D01*
X02001Y016846D01*
X01995Y016858D01*
X018795D01*
X01878Y01688D01*
X018698Y016935D01*
X0186Y016955D01*
X018532Y016941D01*
X012969Y022505D01*
Y027787D01*
X013019Y027797D01*
X013036Y027755D01*
X0131Y027671D01*
X013184Y027607D01*
X013281Y027567D01*
X013336Y027559D01*
Y027956D01*
X013436D01*
Y027559D01*
X01349Y027567D01*
X013587Y027607D01*
X013671Y027671D01*
X013735Y027755D01*
X013763Y027822D01*
X013817D01*
X013841Y027765D01*
X013902Y027685D01*
X013981Y027624D01*
X014074Y027586D01*
X014173Y027573D01*
X014272Y027586D01*
X014365Y027624D01*
X014444Y027685D01*
X014505Y027765D01*
X014541Y027851D01*
X014566Y027857D01*
X014567D01*
X014593Y027851D01*
X014628Y027765D01*
X014689Y027685D01*
X014769Y027624D01*
X014861Y027586D01*
X01496Y027573D01*
X01506Y027586D01*
X015152Y027624D01*
X015231Y027685D01*
X015292Y027765D01*
X015328Y027851D01*
X015353Y027857D01*
X015355D01*
X01538Y027851D01*
X015416Y027765D01*
X015477Y027685D01*
X015556Y027624D01*
X015649Y027586D01*
X015748Y027573D01*
X015847Y027586D01*
X015939Y027624D01*
X016019Y027685D01*
X01608Y027765D01*
X016115Y027851D01*
X016141Y027857D01*
X016142D01*
X016168Y027851D01*
X016203Y027765D01*
X016264Y027685D01*
X016344Y027624D01*
X016436Y027586D01*
X016535Y027573D01*
X016634Y027586D01*
X016727Y027624D01*
X016806Y027685D01*
X016867Y027765D01*
X016903Y027851D01*
X016928Y027857D01*
X01693D01*
X016955Y027851D01*
X016991Y027765D01*
X017052Y027685D01*
X017114Y027638D01*
Y025707D01*
X017114Y025707D01*
X01713Y025627D01*
X017175Y02556D01*
X020661Y022073D01*
X020651Y022D01*
X020664Y021902D01*
X020702Y021811D01*
X020762Y021732D01*
X020841Y021672D01*
X020932Y021634D01*
X02103Y021621D01*
X021128Y021634D01*
X021219Y021672D01*
X021298Y021732D01*
X021358Y021811D01*
X021396Y021902D01*
X021409Y022D01*
X021396Y022098D01*
X021358Y022189D01*
X021298Y022268D01*
X021219Y022328D01*
X021128Y022366D01*
X02103Y022379D01*
X020957Y022369D01*
X017532Y025794D01*
Y027638D01*
X017594Y027685D01*
X017655Y027765D01*
X01769Y027851D01*
X017716Y027857D01*
X017717D01*
X017742Y027851D01*
X017778Y027765D01*
X017839Y027685D01*
X017918Y027624D01*
X018011Y027586D01*
X01811Y027573D01*
X018209Y027586D01*
X018302Y027624D01*
X018381Y027685D01*
X018442Y027765D01*
X018478Y027851D01*
X018503Y027857D01*
X018504D01*
X01853Y027851D01*
X018565Y027765D01*
X018626Y027685D01*
X018706Y027624D01*
X018798Y027586D01*
X018897Y027573D01*
X018997Y027586D01*
X019089Y027624D01*
X019168Y027685D01*
X019229Y027765D01*
X019265Y027851D01*
X01929Y027857D01*
X019292D01*
X019317Y027851D01*
X019353Y027765D01*
X019414Y027685D01*
X019493Y027624D01*
X019586Y027586D01*
X019685Y027573D01*
X019784Y027586D01*
X019876Y027624D01*
X019956Y027685D01*
X020017Y027765D01*
X020055Y027857D01*
X020068Y027956D01*
X020055Y028055D01*
X020017Y028148D01*
X019956Y028227D01*
X019876Y028288D01*
X01979Y028324D01*
X019784Y028349D01*
Y028351D01*
X01979Y028376D01*
X019876Y028412D01*
X019956Y028473D01*
X020017Y028552D01*
X020055Y028644D01*
X020068Y028744D01*
X020055Y028843D01*
X020017Y028935D01*
X019956Y029015D01*
X019876Y029076D01*
X019784Y029114D01*
X019685Y029127D01*
X019586Y029114D01*
X019493Y029076D01*
X019414Y029015D01*
X019353Y028935D01*
X019317Y028849D01*
X019292Y028843D01*
X01929D01*
X019265Y028849D01*
X019229Y028935D01*
X019168Y029015D01*
X019089Y029076D01*
X018997Y029114D01*
X018897Y029127D01*
X018798Y029114D01*
X018706Y029076D01*
X018626Y029015D01*
X018565Y028935D01*
X01853Y028849D01*
X018504Y028843D01*
X018503D01*
X018478Y028849D01*
X018442Y028935D01*
X018381Y029015D01*
X018302Y029076D01*
X018209Y029114D01*
X01811Y029127D01*
X018011Y029114D01*
X017918Y029076D01*
X017839Y029015D01*
X017778Y028935D01*
X017754Y028878D01*
X0177D01*
X017672Y028945D01*
X017608Y029029D01*
X017524Y029093D01*
X017427Y029133D01*
X017373Y029141D01*
Y028744D01*
X017273D01*
Y029141D01*
X017218Y029133D01*
X017121Y029093D01*
X017037Y029029D01*
X016973Y028945D01*
X016945Y028878D01*
X016891D01*
X016867Y028935D01*
X016806Y029015D01*
X016727Y029076D01*
X016634Y029114D01*
X016535Y029127D01*
X016436Y029114D01*
X016344Y029076D01*
X016264Y029015D01*
X016203Y028935D01*
X016168Y028849D01*
X016142Y028843D01*
X016141D01*
X016115Y028849D01*
X01608Y028935D01*
X016019Y029015D01*
X015939Y029076D01*
X015847Y029114D01*
X015748Y029127D01*
X015649Y029114D01*
X015556Y029076D01*
X015477Y029015D01*
X015416Y028935D01*
X01538Y028849D01*
X015355Y028843D01*
X015353D01*
X015328Y028849D01*
X015292Y028935D01*
X015231Y029015D01*
X015152Y029076D01*
X01506Y029114D01*
X01506Y029114D01*
X014412Y029762D01*
X01436Y029796D01*
X0143Y029808D01*
D02*
G37*
G36*
X041046Y0276D02*
X04075D01*
Y027304D01*
X040791Y027309D01*
X040877Y027344D01*
X04095Y0274D01*
X041006Y027473D01*
X041041Y027559D01*
X041046Y0276D01*
D02*
G37*
G36*
X04065D02*
X040354D01*
X040359Y027559D01*
X040394Y027473D01*
X04045Y0274D01*
X040523Y027344D01*
X040609Y027309D01*
X04065Y027304D01*
Y0276D01*
D02*
G37*
G36*
X040246D02*
X03995D01*
Y027304D01*
X039991Y027309D01*
X040077Y027344D01*
X04015Y0274D01*
X040206Y027473D01*
X040241Y027559D01*
X040246Y0276D01*
D02*
G37*
G36*
X03985D02*
X039554D01*
X039559Y027559D01*
X039594Y027473D01*
X03965Y0274D01*
X039723Y027344D01*
X039809Y027309D01*
X03985Y027304D01*
Y0276D01*
D02*
G37*
G36*
X0479Y027418D02*
X047792Y027404D01*
X047691Y027362D01*
X047604Y027296D01*
X047538Y027209D01*
X047496Y027108D01*
X047482Y027D01*
X047496Y026892D01*
X047538Y026791D01*
X047604Y026704D01*
X047691Y026638D01*
X047792Y026596D01*
X0479Y026582D01*
X048008Y026596D01*
X048109Y026638D01*
X048196Y026704D01*
X048262Y026791D01*
X048304Y026892D01*
X048318Y027D01*
X048304Y027108D01*
X048262Y027209D01*
X048196Y027296D01*
X048109Y027362D01*
X048008Y027404D01*
X0479Y027418D01*
D02*
G37*
G36*
X0469D02*
X046792Y027404D01*
X046691Y027362D01*
X046604Y027296D01*
X046538Y027209D01*
X046496Y027108D01*
X046482Y027D01*
X046496Y026892D01*
X046538Y026791D01*
X046604Y026704D01*
X046691Y026638D01*
X046792Y026596D01*
X0469Y026582D01*
X047008Y026596D01*
X047109Y026638D01*
X047196Y026704D01*
X047262Y026791D01*
X047304Y026892D01*
X047318Y027D01*
X047304Y027108D01*
X047262Y027209D01*
X047196Y027296D01*
X047109Y027362D01*
X047008Y027404D01*
X0469Y027418D01*
D02*
G37*
G36*
X0459D02*
X045792Y027404D01*
X045691Y027362D01*
X045604Y027296D01*
X045538Y027209D01*
X045496Y027108D01*
X045482Y027D01*
X045496Y026892D01*
X045538Y026791D01*
X045604Y026704D01*
X045691Y026638D01*
X045792Y026596D01*
X0459Y026582D01*
X046008Y026596D01*
X046109Y026638D01*
X046196Y026704D01*
X046262Y026791D01*
X046304Y026892D01*
X046318Y027D01*
X046304Y027108D01*
X046262Y027209D01*
X046196Y027296D01*
X046109Y027362D01*
X046008Y027404D01*
X0459Y027418D01*
D02*
G37*
G36*
X03715Y026941D02*
Y0265D01*
X037591D01*
X037581Y026579D01*
X037531Y026699D01*
X037452Y026802D01*
X037349Y026881D01*
X037229Y026931D01*
X03715Y026941D01*
D02*
G37*
G36*
X03705D02*
X036971Y026931D01*
X036851Y026881D01*
X036748Y026802D01*
X036669Y026699D01*
X036619Y026579D01*
X036609Y0265D01*
X03705D01*
Y026941D01*
D02*
G37*
G36*
X030575Y026744D02*
X03025D01*
Y026478D01*
X030575D01*
Y026744D01*
D02*
G37*
G36*
X03015D02*
X029825D01*
Y026478D01*
X03015D01*
Y026744D01*
D02*
G37*
G36*
X034175Y02634D02*
X03385D01*
Y026074D01*
X034175D01*
Y02634D01*
D02*
G37*
G36*
X03375D02*
X033425D01*
Y026074D01*
X03375D01*
Y02634D01*
D02*
G37*
G36*
X037591Y0264D02*
X03715D01*
Y025959D01*
X037229Y025969D01*
X037349Y026019D01*
X037452Y026098D01*
X037531Y026201D01*
X037581Y026321D01*
X037591Y0264D01*
D02*
G37*
G36*
X03705D02*
X036609D01*
X036619Y026321D01*
X036669Y026201D01*
X036748Y026098D01*
X036851Y026019D01*
X036971Y025969D01*
X03705Y025959D01*
Y0264D01*
D02*
G37*
G36*
X024475Y02526D02*
X02415D01*
Y024994D01*
X024475D01*
Y02526D01*
D02*
G37*
G36*
X02405D02*
X023725D01*
Y024994D01*
X02405D01*
Y02526D01*
D02*
G37*
G36*
X025988Y024969D02*
X02555D01*
X025113D01*
X025115Y024956D01*
X02515Y024904D01*
X025152Y024903D01*
X025134Y024876D01*
X025123Y024822D01*
X025126Y024806D01*
X02461Y024289D01*
X024455D01*
Y024453D01*
X024454D01*
Y024627D01*
X024475D01*
Y024894D01*
X0241D01*
X023725D01*
Y024627D01*
X023746D01*
Y024453D01*
X023745D01*
Y02414D01*
X02374Y024115D01*
Y024092D01*
X023652Y024004D01*
X023607Y023936D01*
X023591Y023856D01*
X023591Y023856D01*
Y023387D01*
X023565Y023348D01*
X023545Y02325D01*
X023565Y023152D01*
X023591Y023113D01*
Y020487D01*
X021652Y018548D01*
X021607Y01848D01*
X021591Y0184D01*
X021591Y0184D01*
Y017137D01*
X021565Y017098D01*
X021545Y017D01*
X021565Y016902D01*
X02162Y01682D01*
X021702Y016765D01*
X0218Y016745D01*
X021898Y016765D01*
X02198Y01682D01*
X022036Y016902D01*
X022055Y017D01*
X022036Y017098D01*
X022009Y017137D01*
Y018313D01*
X023948Y020252D01*
X023993Y02032D01*
X024009Y0204D01*
Y023113D01*
X024035Y023152D01*
X024055Y02325D01*
X024035Y023348D01*
X024009Y023387D01*
Y02377D01*
X024044Y023805D01*
X0241Y023816D01*
X024165Y02386D01*
X024455D01*
Y024024D01*
X024665D01*
X024715Y024034D01*
X024758Y024063D01*
X025369Y024674D01*
X0256D01*
X025631Y02468D01*
X025836D01*
X02589Y024691D01*
X025936Y024721D01*
X025967Y024767D01*
X025978Y024822D01*
X025967Y024876D01*
X025949Y024903D01*
X025951Y024904D01*
X025986Y024956D01*
X025988Y024969D01*
D02*
G37*
G36*
X042172Y024347D02*
Y023906D01*
X042613D01*
X042603Y023985D01*
X042553Y024105D01*
X042474Y024208D01*
X042371Y024287D01*
X042251Y024337D01*
X042172Y024347D01*
D02*
G37*
G36*
X036422D02*
Y023906D01*
X036863D01*
X036853Y023985D01*
X036803Y024105D01*
X036724Y024208D01*
X036621Y024287D01*
X036501Y024337D01*
X036422Y024347D01*
D02*
G37*
G36*
X047572D02*
X047493Y024337D01*
X047373Y024287D01*
X04727Y024208D01*
X04719Y024105D01*
X047141Y023985D01*
X04713Y023906D01*
X047572D01*
Y024347D01*
D02*
G37*
G36*
X042072D02*
X041993Y024337D01*
X041873Y024287D01*
X04177Y024208D01*
X04169Y024105D01*
X041641Y023985D01*
X04163Y023906D01*
X042072D01*
Y024347D01*
D02*
G37*
G36*
X036322D02*
X036243Y024337D01*
X036123Y024287D01*
X03602Y024208D01*
X03594Y024105D01*
X035891Y023985D01*
X03588Y023906D01*
X036322D01*
Y024347D01*
D02*
G37*
G36*
X04585Y024334D02*
X045726Y024317D01*
X045611Y02427D01*
X045512Y024194D01*
X045436Y024095D01*
X045388Y02398D01*
X045372Y023856D01*
X045388Y023732D01*
X045436Y023617D01*
X045512Y023518D01*
X045611Y023442D01*
X045726Y023394D01*
X04585Y023378D01*
X045974Y023394D01*
X046089Y023442D01*
X046188Y023518D01*
X046264Y023617D01*
X046312Y023732D01*
X046328Y023856D01*
X046312Y02398D01*
X046264Y024095D01*
X046188Y024194D01*
X046089Y02427D01*
X045974Y024317D01*
X04585Y024334D01*
D02*
G37*
G36*
X0346D02*
X034476Y024317D01*
X034361Y02427D01*
X034262Y024194D01*
X034186Y024095D01*
X034138Y02398D01*
X034122Y023856D01*
X034138Y023732D01*
X034186Y023617D01*
X034262Y023518D01*
X034361Y023442D01*
X034476Y023394D01*
X0346Y023378D01*
X034724Y023394D01*
X034839Y023442D01*
X034938Y023518D01*
X035014Y023617D01*
X035062Y023732D01*
X035078Y023856D01*
X035062Y02398D01*
X035014Y024095D01*
X034938Y024194D01*
X034839Y02427D01*
X034724Y024317D01*
X0346Y024334D01*
D02*
G37*
G36*
X042613Y023806D02*
X042172D01*
Y023365D01*
X042251Y023375D01*
X042371Y023425D01*
X042474Y023504D01*
X042553Y023607D01*
X042603Y023727D01*
X042613Y023806D01*
D02*
G37*
G36*
X036863D02*
X036422D01*
Y023365D01*
X036501Y023375D01*
X036621Y023425D01*
X036724Y023504D01*
X036803Y023607D01*
X036853Y023727D01*
X036863Y023806D01*
D02*
G37*
G36*
X047572D02*
X04713D01*
X047141Y023727D01*
X04719Y023607D01*
X04727Y023504D01*
X047373Y023425D01*
X047493Y023375D01*
X047572Y023365D01*
Y023806D01*
D02*
G37*
G36*
X036322D02*
X03588D01*
X035891Y023727D01*
X03594Y023607D01*
X03602Y023504D01*
X036123Y023425D01*
X036243Y023375D01*
X036322Y023365D01*
Y023806D01*
D02*
G37*
G36*
X02103Y023379D02*
X020932Y023366D01*
X020841Y023328D01*
X020762Y023268D01*
X020702Y023189D01*
X020664Y023098D01*
X020651Y023D01*
X020664Y022902D01*
X020702Y022811D01*
X020762Y022732D01*
X020841Y022672D01*
X020932Y022634D01*
X02103Y022621D01*
X021128Y022634D01*
X021219Y022672D01*
X021298Y022732D01*
X021358Y022811D01*
X021396Y022902D01*
X021409Y023D01*
X021396Y023098D01*
X021358Y023189D01*
X021298Y023268D01*
X021219Y023328D01*
X021128Y023366D01*
X02103Y023379D01*
D02*
G37*
G36*
X0174Y022696D02*
Y0224D01*
X017696D01*
X017691Y022441D01*
X017656Y022527D01*
X0176Y0226D01*
X017527Y022656D01*
X017441Y022691D01*
X0174Y022696D01*
D02*
G37*
G36*
X0173D02*
X017259Y022691D01*
X017173Y022656D01*
X0171Y0226D01*
X017044Y022527D01*
X017009Y022441D01*
X017004Y0224D01*
X0173D01*
Y022696D01*
D02*
G37*
G36*
X027956Y022675D02*
X02769D01*
Y02235D01*
X027956D01*
Y022675D01*
D02*
G37*
G36*
Y02225D02*
X02769D01*
Y021925D01*
X027956D01*
Y02225D01*
D02*
G37*
G36*
X017696Y0223D02*
X017004D01*
X017009Y022259D01*
X017044Y022173D01*
X0171Y0221D01*
X017173Y022044D01*
X017215Y022027D01*
Y021973D01*
X017173Y021956D01*
X0171Y0219D01*
X017044Y021827D01*
X017009Y021741D01*
X017004Y0217D01*
X017696D01*
X017691Y021741D01*
X017656Y021827D01*
X0176Y0219D01*
X017527Y021956D01*
X017485Y021973D01*
Y022027D01*
X017527Y022044D01*
X0176Y0221D01*
X017656Y022173D01*
X017691Y022259D01*
X017696Y0223D01*
D02*
G37*
G36*
X01655Y022683D02*
X016464Y022672D01*
X016384Y022638D01*
X016315Y022585D01*
X016262Y022516D01*
X016228Y022436D01*
X016217Y02235D01*
X016228Y022264D01*
X016262Y022184D01*
X016315Y022115D01*
X016384Y022062D01*
X016443Y022037D01*
X016441Y021984D01*
X016373Y021956D01*
X0163Y0219D01*
X016244Y021827D01*
X016209Y021741D01*
X016204Y0217D01*
X016896D01*
X016891Y021741D01*
X016856Y021827D01*
X0168Y0219D01*
X016727Y021956D01*
X016659Y021984D01*
X016657Y022037D01*
X016716Y022062D01*
X016785Y022115D01*
X016838Y022184D01*
X016872Y022264D01*
X016883Y02235D01*
X016872Y022436D01*
X016838Y022516D01*
X016785Y022585D01*
X016716Y022638D01*
X016636Y022672D01*
X01655Y022683D01*
D02*
G37*
G36*
X017696Y0216D02*
X0174D01*
Y021304D01*
X017441Y021309D01*
X017527Y021344D01*
X0176Y0214D01*
X017656Y021473D01*
X017691Y021559D01*
X017696Y0216D01*
D02*
G37*
G36*
X0173D02*
X017004D01*
X017009Y021559D01*
X017044Y021473D01*
X0171Y0214D01*
X017173Y021344D01*
X017259Y021309D01*
X0173Y021304D01*
Y0216D01*
D02*
G37*
G36*
X016896D02*
X0166D01*
Y021304D01*
X016641Y021309D01*
X016727Y021344D01*
X0168Y0214D01*
X016856Y021473D01*
X016891Y021559D01*
X016896Y0216D01*
D02*
G37*
G36*
X0165D02*
X016204D01*
X016209Y021559D01*
X016244Y021473D01*
X0163Y0214D01*
X016373Y021344D01*
X016459Y021309D01*
X0165Y021304D01*
Y0216D01*
D02*
G37*
G36*
X036422Y021591D02*
Y02115D01*
X036863D01*
X036853Y021229D01*
X036803Y021349D01*
X036724Y021452D01*
X036621Y021531D01*
X036501Y021581D01*
X036422Y021591D01*
D02*
G37*
G36*
X036322D02*
X036243Y021581D01*
X036123Y021531D01*
X03602Y021452D01*
X03594Y021349D01*
X035891Y021229D01*
X03588Y02115D01*
X036322D01*
Y021591D01*
D02*
G37*
G36*
X047572D02*
X047493Y021581D01*
X047373Y021531D01*
X04727Y021452D01*
X04719Y021349D01*
X047141Y021229D01*
X04713Y02115D01*
X047572D01*
Y021591D01*
D02*
G37*
G36*
X02108Y021392D02*
Y02105D01*
X021422D01*
X021415Y021103D01*
X021375Y021199D01*
X021312Y021282D01*
X021229Y021345D01*
X021133Y021385D01*
X02108Y021392D01*
D02*
G37*
G36*
X02098D02*
X020927Y021385D01*
X020831Y021345D01*
X020748Y021282D01*
X020685Y021199D01*
X020645Y021103D01*
X020638Y02105D01*
X02098D01*
Y021392D01*
D02*
G37*
G36*
X045025Y02099D02*
X0447D01*
Y020724D01*
X045025D01*
Y02099D01*
D02*
G37*
G36*
X0446D02*
X044275D01*
Y020724D01*
X0446D01*
Y02099D01*
D02*
G37*
G36*
X033834D02*
X033509D01*
Y020724D01*
X033834D01*
Y02099D01*
D02*
G37*
G36*
X033409D02*
X033084D01*
Y020724D01*
X033409D01*
Y02099D01*
D02*
G37*
G36*
X047572Y02105D02*
X04713D01*
X047141Y020971D01*
X04719Y020851D01*
X04727Y020748D01*
X047373Y020669D01*
X047493Y020619D01*
X047572Y020609D01*
Y02105D01*
D02*
G37*
G36*
X036322D02*
X03588D01*
X035891Y020971D01*
X03594Y020851D01*
X03602Y020748D01*
X036123Y020669D01*
X036243Y020619D01*
X036322Y020609D01*
Y02105D01*
D02*
G37*
G36*
X021422Y02095D02*
X02108D01*
Y020608D01*
X021133Y020615D01*
X021229Y020655D01*
X021312Y020718D01*
X021375Y020801D01*
X021415Y020897D01*
X021422Y02095D01*
D02*
G37*
G36*
X02098D02*
X020638D01*
X020645Y020897D01*
X020685Y020801D01*
X020748Y020718D01*
X020831Y020655D01*
X020927Y020615D01*
X02098Y020608D01*
Y02095D01*
D02*
G37*
G36*
X02103Y019379D02*
X020932Y019366D01*
X020841Y019328D01*
X020762Y019268D01*
X020702Y019189D01*
X020664Y019098D01*
X020651Y019D01*
X020664Y018902D01*
X020702Y018811D01*
X020762Y018732D01*
X020841Y018672D01*
X020932Y018634D01*
X02103Y018621D01*
X021128Y018634D01*
X021219Y018672D01*
X021298Y018732D01*
X021358Y018811D01*
X021396Y018902D01*
X021409Y019D01*
X021396Y019098D01*
X021358Y019189D01*
X021298Y019268D01*
X021219Y019328D01*
X021128Y019366D01*
X02103Y019379D01*
D02*
G37*
G36*
X0415Y018246D02*
Y01795D01*
X041796D01*
X041791Y017991D01*
X041756Y018077D01*
X0417Y01815D01*
X041627Y018206D01*
X041541Y018241D01*
X0415Y018246D01*
D02*
G37*
G36*
X0414D02*
X041359Y018241D01*
X041273Y018206D01*
X0412Y01815D01*
X041144Y018077D01*
X041109Y017991D01*
X041104Y01795D01*
X0414D01*
Y018246D01*
D02*
G37*
G36*
X0407D02*
Y01795D01*
X040996D01*
X040991Y017991D01*
X040956Y018077D01*
X0409Y01815D01*
X040827Y018206D01*
X040741Y018241D01*
X0407Y018246D01*
D02*
G37*
G36*
X0406D02*
X040559Y018241D01*
X040473Y018206D01*
X0404Y01815D01*
X040344Y018077D01*
X040309Y017991D01*
X040304Y01795D01*
X0406D01*
Y018246D01*
D02*
G37*
G36*
X021405Y018375D02*
X020655D01*
Y017625D01*
X021405D01*
Y018375D01*
D02*
G37*
G36*
X041796Y01785D02*
X041104D01*
X041109Y017809D01*
X041144Y017723D01*
X0412Y01765D01*
X041273Y017594D01*
X041315Y017577D01*
Y017523D01*
X041273Y017506D01*
X0412Y01745D01*
X041144Y017377D01*
X041109Y017291D01*
X041104Y01725D01*
X041796D01*
X041791Y017291D01*
X041756Y017377D01*
X0417Y01745D01*
X041627Y017506D01*
X041585Y017523D01*
Y017577D01*
X041627Y017594D01*
X0417Y01765D01*
X041756Y017723D01*
X041791Y017809D01*
X041796Y01785D01*
D02*
G37*
G36*
X040996D02*
X040304D01*
X040309Y017809D01*
X040344Y017723D01*
X0404Y01765D01*
X040473Y017594D01*
X040515Y017577D01*
Y017523D01*
X040473Y017506D01*
X0404Y01745D01*
X040344Y017377D01*
X040309Y017291D01*
X040304Y01725D01*
X040996D01*
X040991Y017291D01*
X040956Y017377D01*
X0409Y01745D01*
X040827Y017506D01*
X040785Y017523D01*
Y017577D01*
X040827Y017594D01*
X0409Y01765D01*
X040956Y017723D01*
X040991Y017809D01*
X040996Y01785D01*
D02*
G37*
G36*
X041796Y01715D02*
X0415D01*
Y016854D01*
X041541Y016859D01*
X041627Y016894D01*
X0417Y01695D01*
X041756Y017023D01*
X041791Y017109D01*
X041796Y01715D01*
D02*
G37*
G36*
X0414D02*
X041104D01*
X041109Y017109D01*
X041144Y017023D01*
X0412Y01695D01*
X041273Y016894D01*
X041359Y016859D01*
X0414Y016854D01*
Y01715D01*
D02*
G37*
G36*
X040996D02*
X0407D01*
Y016854D01*
X040741Y016859D01*
X040827Y016894D01*
X0409Y01695D01*
X040956Y017023D01*
X040991Y017109D01*
X040996Y01715D01*
D02*
G37*
G36*
X0406D02*
X040304D01*
X040309Y017109D01*
X040344Y017023D01*
X0404Y01695D01*
X040473Y016894D01*
X040559Y016859D01*
X0406Y016854D01*
Y01715D01*
D02*
G37*
G36*
X02825Y016525D02*
Y016228D01*
X028546D01*
X028541Y01627D01*
X028506Y016355D01*
X02845Y016428D01*
X028377Y016484D01*
X028291Y016519D01*
X02825Y016525D01*
D02*
G37*
G36*
X02815D02*
X028109Y016519D01*
X028023Y016484D01*
X02795Y016428D01*
X027894Y016355D01*
X027859Y01627D01*
X027854Y016228D01*
X02815D01*
Y016525D01*
D02*
G37*
G36*
X02745D02*
Y016228D01*
X027746D01*
X027741Y01627D01*
X027706Y016355D01*
X02765Y016428D01*
X027577Y016484D01*
X027491Y016519D01*
X02745Y016525D01*
D02*
G37*
G36*
X02735D02*
X027309Y016519D01*
X027223Y016484D01*
X02715Y016428D01*
X027094Y016355D01*
X027059Y01627D01*
X027054Y016228D01*
X02735D01*
Y016525D01*
D02*
G37*
G36*
X01985Y016242D02*
Y0159D01*
X020192D01*
X020185Y015953D01*
X020145Y016049D01*
X020082Y016132D01*
X019999Y016195D01*
X019903Y016235D01*
X01985Y016242D01*
D02*
G37*
G36*
X01975D02*
X019697Y016235D01*
X019601Y016195D01*
X019518Y016132D01*
X019455Y016049D01*
X019415Y015953D01*
X019408Y0159D01*
X01975D01*
Y016242D01*
D02*
G37*
G36*
X038525Y016004D02*
X0382D01*
Y015737D01*
X038525D01*
Y016004D01*
D02*
G37*
G36*
X0381D02*
X037775D01*
Y015737D01*
X0381D01*
Y016004D01*
D02*
G37*
G36*
X028546Y016128D02*
X027854D01*
X027859Y016087D01*
X027894Y016002D01*
X02795Y015929D01*
X028023Y015873D01*
X028065Y015856D01*
Y015801D01*
X028023Y015784D01*
X02795Y015728D01*
X027894Y015655D01*
X027859Y01557D01*
X027854Y015529D01*
X028546D01*
X028541Y01557D01*
X028506Y015655D01*
X02845Y015728D01*
X028377Y015784D01*
X028335Y015801D01*
Y015856D01*
X028377Y015873D01*
X02845Y015929D01*
X028506Y016002D01*
X028541Y016087D01*
X028546Y016128D01*
D02*
G37*
G36*
X027746D02*
X027054D01*
X027059Y016087D01*
X027094Y016002D01*
X02715Y015929D01*
X027223Y015873D01*
X027265Y015856D01*
Y015801D01*
X027223Y015784D01*
X02715Y015728D01*
X027094Y015655D01*
X027059Y01557D01*
X027054Y015529D01*
X027746D01*
X027741Y01557D01*
X027706Y015655D01*
X02765Y015728D01*
X027577Y015784D01*
X027535Y015801D01*
Y015856D01*
X027577Y015873D01*
X02765Y015929D01*
X027706Y016002D01*
X027741Y016087D01*
X027746Y016128D01*
D02*
G37*
G36*
X020192Y0158D02*
X01985D01*
Y015458D01*
X019903Y015465D01*
X019999Y015505D01*
X020082Y015568D01*
X020145Y015651D01*
X020185Y015747D01*
X020192Y0158D01*
D02*
G37*
G36*
X01975D02*
X019408D01*
X019415Y015747D01*
X019455Y015651D01*
X019518Y015568D01*
X019601Y015505D01*
X019697Y015465D01*
X01975Y015458D01*
Y0158D01*
D02*
G37*
G36*
X028546Y015429D02*
X02825D01*
Y015132D01*
X028291Y015138D01*
X028377Y015173D01*
X02845Y015229D01*
X028506Y015302D01*
X028541Y015387D01*
X028546Y015429D01*
D02*
G37*
G36*
X02815D02*
X027854D01*
X027859Y015387D01*
X027894Y015302D01*
X02795Y015229D01*
X028023Y015173D01*
X028109Y015138D01*
X02815Y015132D01*
Y015429D01*
D02*
G37*
G36*
X027746D02*
X02745D01*
Y015132D01*
X027491Y015138D01*
X027577Y015173D01*
X02765Y015229D01*
X027706Y015302D01*
X027741Y015387D01*
X027746Y015429D01*
D02*
G37*
G36*
X02735D02*
X027054D01*
X027059Y015387D01*
X027094Y015302D01*
X02715Y015229D01*
X027223Y015173D01*
X027309Y015138D01*
X02735Y015132D01*
Y015429D01*
D02*
G37*
G36*
X01985Y015242D02*
Y0149D01*
X020192D01*
X020185Y014953D01*
X020145Y015049D01*
X020082Y015132D01*
X019999Y015195D01*
X019903Y015235D01*
X01985Y015242D01*
D02*
G37*
G36*
X01975D02*
X019697Y015235D01*
X019601Y015195D01*
X019518Y015132D01*
X019455Y015049D01*
X019415Y014953D01*
X019408Y0149D01*
X01975D01*
Y015242D01*
D02*
G37*
G36*
X0208Y015229D02*
X020702Y015216D01*
X020611Y015178D01*
X020532Y015118D01*
X020472Y015039D01*
X020434Y014948D01*
X020421Y01485D01*
X020434Y014752D01*
X020472Y014661D01*
X020532Y014582D01*
X020611Y014522D01*
X020702Y014484D01*
X0208Y014471D01*
X020898Y014484D01*
X020989Y014522D01*
X021068Y014582D01*
X021128Y014661D01*
X021166Y014752D01*
X021179Y01485D01*
X021166Y014948D01*
X021128Y015039D01*
X021068Y015118D01*
X020989Y015178D01*
X020898Y015216D01*
X0208Y015229D01*
D02*
G37*
G36*
X020192Y0148D02*
X01985D01*
Y014458D01*
X019903Y014465D01*
X019999Y014505D01*
X020082Y014568D01*
X020145Y014651D01*
X020185Y014747D01*
X020192Y0148D01*
D02*
G37*
G36*
X01975D02*
X019408D01*
X019415Y014747D01*
X019455Y014651D01*
X019518Y014568D01*
X019601Y014505D01*
X019697Y014465D01*
X01975Y014458D01*
Y0148D01*
D02*
G37*
G36*
X047784Y016167D02*
X046916D01*
X046483Y015734D01*
Y014866D01*
X046916Y014433D01*
X047784D01*
X048217Y014866D01*
Y015734D01*
X047784Y016167D01*
D02*
G37*
G36*
X011984D02*
X011116D01*
X010683Y015734D01*
Y014866D01*
X011116Y014433D01*
X011984D01*
X012417Y014866D01*
Y015734D01*
X011984Y016167D01*
D02*
G37*
%LPD*%
G36*
X02539Y028124D02*
X0254Y028073D01*
X025429Y02803D01*
X025503Y027956D01*
X025546Y027928D01*
X025597Y027917D01*
X025927D01*
X025954Y027867D01*
X025941Y027848D01*
X02593Y027794D01*
Y027554D01*
X025808Y027433D01*
X024373D01*
X024366Y027451D01*
X024365Y027483D01*
X0244Y027506D01*
X025186Y028292D01*
X02519D01*
X025203Y028295D01*
X02539D01*
Y028124D01*
D02*
G37*
G36*
X037381Y033082D02*
X037381Y033069D01*
X037341Y033025D01*
X037329Y033025D01*
X036812D01*
X036494Y033344D01*
X036451Y033372D01*
X0364Y033383D01*
X026314D01*
X026301Y033401D01*
X026277Y033417D01*
X026293Y033467D01*
X036995D01*
X037381Y033082D01*
D02*
G37*
G36*
X014691Y029036D02*
X014689Y029015D01*
X014628Y028935D01*
X014593Y028849D01*
X014567Y028843D01*
X014566D01*
X014541Y028849D01*
X014505Y028935D01*
X014444Y029015D01*
X014365Y029076D01*
X014272Y029114D01*
X014173Y029127D01*
X014074Y029114D01*
X014058Y029108D01*
X013736Y02943D01*
X013718Y029442D01*
X013733Y029492D01*
X014235D01*
X014691Y029036D01*
D02*
G37*
G36*
X035717Y016136D02*
Y015958D01*
X035703D01*
Y01575D01*
X035603D01*
Y015958D01*
X035504D01*
Y015938D01*
X03513D01*
Y015882D01*
X034774D01*
X034774Y015882D01*
X034723Y015872D01*
X03468Y015843D01*
X034668Y015831D01*
X034626Y015859D01*
X034632Y01589D01*
Y016418D01*
X03516D01*
X035191Y016424D01*
X03521Y016432D01*
X035236Y01645D01*
X03525Y016464D01*
X035268Y01649D01*
X035276Y016509D01*
X03533Y016524D01*
X035717Y016136D01*
D02*
G37*
G36*
X034068Y016246D02*
Y01589D01*
X034074Y015859D01*
X034082Y01584D01*
X034088Y015831D01*
X034065Y015784D01*
X034063Y015782D01*
X0339D01*
X033849Y015772D01*
X033806Y015744D01*
X033498Y015436D01*
X033185D01*
X033155Y015473D01*
Y015764D01*
X033461D01*
X033512Y015774D01*
X033555Y015803D01*
X034018Y016267D01*
X034068Y016246D01*
D02*
G37*
G36*
X030067Y025395D02*
Y018562D01*
X03002Y01853D01*
X029964Y018448D01*
X029945Y01835D01*
X029964Y018252D01*
X03002Y01817D01*
X030102Y018115D01*
X0302Y018095D01*
X030256Y018106D01*
X032442Y01592D01*
Y015897D01*
X032445Y015884D01*
Y015473D01*
X032415Y015436D01*
X03203D01*
X031805Y015661D01*
Y016027D01*
X031347D01*
X031319Y016069D01*
X029994Y017394D01*
X030005Y01745D01*
X029985Y017548D01*
X02993Y01763D01*
X029883Y017662D01*
Y025444D01*
X029872Y025494D01*
X029844Y025537D01*
X029609Y025772D01*
X029626Y025826D01*
X029635Y025828D01*
X030067Y025395D01*
D02*
G37*
G36*
X035878Y015368D02*
Y015093D01*
X035206D01*
Y015476D01*
X035212Y015482D01*
X035763D01*
X035878Y015368D01*
D02*
G37*
G36*
X027121Y023512D02*
Y019858D01*
X022245Y014983D01*
X022151D01*
X022128Y015039D01*
X022068Y015118D01*
X021989Y015178D01*
X021898Y015216D01*
X0218Y015229D01*
X021702Y015216D01*
X021645Y015192D01*
X021404Y015433D01*
X021433Y015475D01*
X022175D01*
Y015717D01*
X022672D01*
X022722Y015728D01*
X022765Y015756D01*
X026756Y019747D01*
X026785Y01979D01*
X026795Y019841D01*
Y023251D01*
X027074Y023531D01*
X027121Y023512D01*
D02*
G37*
G36*
X03513Y015562D02*
X03513Y015562D01*
X03513D01*
X035134Y015512D01*
X035131Y015508D01*
X035125Y015476D01*
X035125Y015476D01*
Y015093D01*
X035131Y015061D01*
X035138Y015051D01*
X03513Y015001D01*
X03513D01*
X03513Y015001D01*
Y014833D01*
X035126Y014812D01*
Y014677D01*
X03508Y014658D01*
X034933Y014805D01*
Y015175D01*
X034922Y015226D01*
X034894Y015269D01*
X034769Y015394D01*
X034726Y015422D01*
X034675Y015432D01*
X034015D01*
X033965Y015422D01*
X033922Y015394D01*
X033706Y015178D01*
X033678Y015135D01*
X033667Y015084D01*
Y014983D01*
X033155D01*
Y015127D01*
X033155Y015127D01*
X033155D01*
X033155Y015127D01*
X03317Y015171D01*
X033553D01*
X033604Y015181D01*
X033647Y015209D01*
X033955Y015517D01*
X034674D01*
X034725Y015527D01*
X034768Y015556D01*
X034829Y015617D01*
X03513D01*
Y015562D01*
D02*
G37*
%LPC*%
G36*
X042172Y021591D02*
Y02115D01*
X042613D01*
X042603Y021229D01*
X042553Y021349D01*
X042474Y021452D01*
X042371Y021531D01*
X042251Y021581D01*
X042172Y021591D01*
D02*
G37*
G36*
X042072D02*
X041993Y021581D01*
X041873Y021531D01*
X04177Y021452D01*
X04169Y021349D01*
X041641Y021229D01*
X04163Y02115D01*
X042072D01*
Y021591D01*
D02*
G37*
G36*
X039425Y02099D02*
X0391D01*
Y020724D01*
X039425D01*
Y02099D01*
D02*
G37*
G36*
X039D02*
X038675D01*
Y020724D01*
X039D01*
Y02099D01*
D02*
G37*
G36*
X042613Y02105D02*
X042172D01*
Y020609D01*
X042251Y020619D01*
X042371Y020669D01*
X042474Y020748D01*
X042553Y020851D01*
X042603Y020971D01*
X042613Y02105D01*
D02*
G37*
G36*
X042072D02*
X04163D01*
X041641Y020971D01*
X04169Y020851D01*
X04177Y020748D01*
X041873Y020669D01*
X041993Y020619D01*
X042072Y020609D01*
Y02105D01*
D02*
G37*
%LPD*%
D12*
X02365Y0276D02*
X024306D01*
X025131Y028425D01*
X02519D01*
X025356Y028592D01*
Y02865D01*
X0235Y02745D02*
X02365Y0276D01*
X0232Y02745D02*
X0235D01*
X02015Y02395D02*
X020485D01*
X023835Y0273D02*
X025863D01*
X020485Y02395D02*
X023835Y0273D01*
X025863D02*
X026072Y027509D01*
X02395Y027D02*
X025572D01*
X02225Y0253D02*
X02395Y027D01*
X02225Y02122D02*
Y0253D01*
X0364Y03325D02*
X037Y03265D01*
X02615Y03325D02*
X0364D01*
X0277Y023615D02*
Y023642D01*
X027253Y019803D02*
Y0243D01*
X0247Y025565D02*
X024795D01*
X02485Y026115D02*
X024877D01*
X024795Y025565D02*
X025032Y025802D01*
X025547D01*
X0339Y01565D02*
X034674D01*
X033553Y015303D02*
X0339Y01565D01*
X031975Y015303D02*
X033553D01*
X03625Y015144D02*
X0364Y015294D01*
X03625Y01465D02*
Y015144D01*
X035409Y01445D02*
X03605D01*
X0351D02*
X035409D01*
X035259Y0146D02*
Y014812D01*
X035259Y014813D01*
X035259Y0146D02*
X035409Y01445D01*
X0354Y016641D02*
Y017024D01*
Y016641D02*
X03585Y016191D01*
Y015808D02*
Y016191D01*
X0348Y01475D02*
X0351Y01445D01*
X028752Y022848D02*
Y023534D01*
X025315Y024806D02*
X0256D01*
X03605Y01445D02*
X03625Y01465D01*
X037106Y015294D02*
X0375Y0149D01*
X038092D01*
X0364Y015294D02*
X037106D01*
X036091Y01565D02*
X038112D01*
X03815Y015687D01*
X035985Y015544D02*
X036091Y01565D01*
X034674D02*
X034774Y015749D01*
X03395Y017024D02*
X034126Y0172D01*
X03395Y016386D02*
Y017024D01*
X033461Y015897D02*
X03395Y016386D01*
X035224Y0172D02*
X0354Y017024D01*
X02706Y027066D02*
X027525Y0266D01*
X02706Y027066D02*
Y027505D01*
X027056Y027509D02*
X02706Y027505D01*
X0276Y028226D02*
Y028474D01*
X027631Y028505D01*
Y028631D01*
X02765Y02865D01*
X0279Y028323D02*
Y02835D01*
X027844Y028267D02*
X0279Y028323D01*
X027844Y027509D02*
Y028267D01*
X027525Y0266D02*
X0278D01*
X0276Y028226D02*
X027647Y028179D01*
Y027509D02*
Y028179D01*
X034015Y0153D02*
X034675D01*
X0338Y015084D02*
X034015Y0153D01*
X034675D02*
X0348Y015175D01*
X02635Y025665D02*
X027194Y024822D01*
X02635Y025665D02*
Y02567D01*
X027194Y024822D02*
X028759D01*
X0241Y024944D02*
X024175Y025018D01*
X02555D01*
X029144Y031533D02*
Y0324D01*
X028161Y03055D02*
X029144Y031533D01*
X025263Y031527D02*
Y0324D01*
Y031527D02*
X026239Y03055D01*
X0273Y0282D02*
Y029689D01*
Y0282D02*
X02745Y02805D01*
Y027509D02*
Y02805D01*
X0273Y029689D02*
X028161Y03055D01*
X027253Y027509D02*
Y027903D01*
X027056Y0281D02*
X027253Y027903D01*
X027056Y0281D02*
Y028744D01*
X026239Y029561D02*
X027056Y028744D01*
X026239Y029561D02*
Y03055D01*
X026859Y027509D02*
Y028291D01*
X02655Y0286D02*
X026859Y028291D01*
X026194Y0286D02*
X02655D01*
X026144Y02865D02*
X026194Y0286D01*
X025523Y028124D02*
X025597Y02805D01*
X025523Y028124D02*
Y028483D01*
X025356Y02865D02*
X025523Y028483D01*
X025597Y02805D02*
X0266D01*
X026659Y027991D01*
Y027512D02*
Y027991D01*
Y027512D02*
X026663Y027509D01*
X0286Y028605D02*
Y02915D01*
X028041Y028046D02*
X0286Y028605D01*
X028041Y027509D02*
Y028046D01*
X028759Y02679D02*
X030196D01*
X0302Y026794D01*
X028041Y022334D02*
Y0243D01*
X028006Y0223D02*
X028041Y022334D01*
X034126Y0172D02*
X035224D01*
X03145Y01485D02*
X0328D01*
X033741D01*
X0338Y014909D01*
X035259Y015749D02*
X035259Y01575D01*
X03145D02*
X031528D01*
X031975Y015303D01*
X0328Y01575D02*
X032947Y015897D01*
X033461D01*
X0338Y014909D02*
Y015084D01*
X034774Y015749D02*
X035259D01*
X028287Y023999D02*
Y024285D01*
X0241Y024156D02*
X024665D01*
X025315Y024806D01*
X0208Y01585D02*
X0218Y01485D01*
X0223D01*
X031372Y01575D02*
X03145D01*
X031225Y015897D02*
X031372Y01575D01*
X031225Y015897D02*
Y015975D01*
X032722Y01575D02*
X0328D01*
X032575Y015897D02*
X032722Y01575D01*
X032575Y015897D02*
Y015975D01*
X028809Y025987D02*
X029663D01*
X028809Y026972D02*
X029094D01*
X029704Y027582D01*
X0302D01*
X037822Y021894D02*
X0379D01*
X037675Y022041D02*
X037822Y021894D01*
X043472D02*
X04355D01*
X042551Y022815D02*
X043472Y021894D01*
X042252Y022815D02*
X042551D01*
X041059Y024008D02*
X042252Y022815D01*
X041059Y024008D02*
Y024057D01*
X037675Y022041D02*
Y024655D01*
X0369Y02543D02*
X037675Y024655D01*
X037822Y025003D02*
X040113D01*
X041059Y024057D01*
X02555Y026396D02*
X025554Y0264D01*
X026885D01*
X0323Y021944D02*
Y02515D01*
Y021944D02*
X03235Y021894D01*
X032456Y02715D02*
X03255Y027244D01*
X0319Y02715D02*
X032456D01*
X024825Y02679D02*
X02555D01*
X01855Y0167D02*
X0186D01*
X028809Y025791D02*
X029403D01*
X02975Y01745D02*
X031225Y015975D01*
X029403Y025791D02*
X02975Y025444D01*
Y01745D02*
Y025444D01*
X0302Y01835D02*
X032575Y015975D01*
X026885Y0264D02*
X0269Y026415D01*
X0263Y02572D02*
X02635Y02567D01*
X026516Y0262D02*
X02675Y025965D01*
X023684Y046141D02*
X02423Y046686D01*
X023684Y044976D02*
Y046141D01*
X024453Y04725D02*
X025017Y046686D01*
X0239Y04725D02*
X024453D01*
X023625Y046975D02*
X0239Y04725D01*
X023625Y046725D02*
Y046975D01*
X023349Y046449D02*
X023625Y046725D01*
X023349Y044551D02*
Y046449D01*
Y044551D02*
X02635Y04155D01*
X027844Y023786D02*
Y0243D01*
X0277Y023642D02*
X027844Y023786D01*
X023684Y044976D02*
X02645Y04221D01*
X028287Y023999D02*
X028752Y023534D01*
X0302Y01835D02*
Y02545D01*
X026324Y026815D02*
X0266D01*
X0263Y02572D02*
Y025747D01*
X02555Y026593D02*
X026102D01*
X026324Y026815D01*
X02555Y0262D02*
X026516D01*
X025547Y025802D02*
X02555Y025806D01*
X024877Y026115D02*
X02499Y026003D01*
X02555D01*
X02103Y02D02*
X02225Y02122D01*
X026Y0336D02*
X03705D01*
X038Y03265D01*
X0239Y02645D02*
X024485D01*
X024825Y02679D01*
X025572Y027D02*
X0256Y026972D01*
X031372Y01485D02*
X03145D01*
X030885Y015337D02*
X031372Y01485D01*
X030613Y015337D02*
X030885D01*
X0306Y01535D02*
X030613Y015337D01*
X029663Y025987D02*
X0302Y02545D01*
X0223Y01485D02*
X027253Y019803D01*
X027056Y0237D02*
Y0243D01*
X026663Y023306D02*
X027056Y0237D01*
X026663Y019841D02*
Y023306D01*
X022672Y01585D02*
X026663Y019841D01*
X0218Y01585D02*
X022672D01*
X0348Y01475D02*
Y015175D01*
D13*
X035712Y01555D02*
X035962D01*
X035653Y015609D02*
X035712Y01555D01*
X035962D02*
X036038Y015474D01*
Y015059D02*
Y015474D01*
X03585Y01487D02*
X036038Y015059D01*
X03585Y014813D02*
Y01487D01*
X035653Y015609D02*
Y01575D01*
Y014813D02*
X03585D01*
D24*
X025356Y02865D02*
D03*
X026144D02*
D03*
X013006Y04526D02*
D03*
X013794D02*
D03*
X013006Y046393D02*
D03*
X013794D02*
D03*
X028006Y0223D02*
D03*
X028794D02*
D03*
X02605Y0324D02*
D03*
X025263D02*
D03*
X028356D02*
D03*
X029144D02*
D03*
D25*
X03815Y015687D02*
D03*
Y0149D02*
D03*
X0338Y02639D02*
D03*
Y027178D02*
D03*
X04465Y02104D02*
D03*
Y021828D02*
D03*
X033459Y02104D02*
D03*
Y021828D02*
D03*
X03905Y02104D02*
D03*
Y021828D02*
D03*
X0195Y046944D02*
D03*
Y046156D02*
D03*
X02065D02*
D03*
Y046944D02*
D03*
X01835Y046156D02*
D03*
Y046944D02*
D03*
X0225Y046156D02*
D03*
Y046944D02*
D03*
X0302Y026794D02*
D03*
Y027582D02*
D03*
X0241Y024944D02*
D03*
Y024156D02*
D03*
D26*
X03145Y01485D02*
D03*
Y01575D02*
D03*
X0328Y01485D02*
D03*
Y01575D02*
D03*
X03255Y026344D02*
D03*
Y027244D02*
D03*
X04355Y020994D02*
D03*
Y021894D02*
D03*
X03235Y020994D02*
D03*
Y021894D02*
D03*
X0379Y020994D02*
D03*
Y021894D02*
D03*
D27*
X01595Y04773D02*
D03*
D28*
X016852Y04527D02*
D03*
X01595D02*
D03*
X015048D02*
D03*
D29*
X018654Y044714D02*
D03*
X019554D02*
D03*
D30*
X02135Y044695D02*
D03*
X02045D02*
D03*
X0283Y0369D02*
D03*
X0274D02*
D03*
D31*
X028759Y026987D02*
D03*
Y02679D02*
D03*
Y026593D02*
D03*
Y026396D02*
D03*
Y0262D02*
D03*
Y026003D02*
D03*
Y025806D02*
D03*
Y025609D02*
D03*
Y025412D02*
D03*
Y025215D02*
D03*
Y025018D02*
D03*
Y024822D02*
D03*
X02555D02*
D03*
Y025018D02*
D03*
Y025215D02*
D03*
Y025412D02*
D03*
Y025609D02*
D03*
Y025806D02*
D03*
Y026003D02*
D03*
Y0262D02*
D03*
Y026396D02*
D03*
Y026593D02*
D03*
Y02679D02*
D03*
Y026987D02*
D03*
D32*
X028237Y0243D02*
D03*
X028041D02*
D03*
X027844D02*
D03*
X027647D02*
D03*
X02745D02*
D03*
X027253D02*
D03*
X027056D02*
D03*
X026859D02*
D03*
X026663D02*
D03*
X026466D02*
D03*
X026269D02*
D03*
X026072D02*
D03*
Y027509D02*
D03*
X026269D02*
D03*
X026466D02*
D03*
X026663D02*
D03*
X026859D02*
D03*
X027056D02*
D03*
X027253D02*
D03*
X02745D02*
D03*
X027647D02*
D03*
X027844D02*
D03*
X028041D02*
D03*
X028237D02*
D03*
D33*
X03585Y01575D02*
D03*
X035653D02*
D03*
X035456D02*
D03*
X035259D02*
D03*
Y014813D02*
D03*
X035456D02*
D03*
X035653D02*
D03*
X03585D02*
D03*
D61*
X01995Y0167D02*
X0208Y01585D01*
X0186Y0167D02*
X01995D01*
X014173Y028744D02*
Y028769D01*
X013624Y029319D02*
X014173Y028769D01*
X013147Y029319D02*
X013624D01*
X012811Y028982D02*
X013147Y029319D01*
X012811Y022439D02*
Y028982D01*
Y022439D02*
X01855Y0167D01*
X01225Y0222D02*
X0174Y01705D01*
X0143Y02965D02*
X01496Y02899D01*
Y028744D02*
Y02899D01*
X01225Y0222D02*
Y0293D01*
X0126Y02965D01*
X0143D01*
X03725Y0309D02*
X039Y03265D01*
X03035Y0309D02*
X03725D01*
X0286Y02915D02*
X03035Y0309D01*
D62*
X032661Y046156D02*
X041256D01*
X030317Y048501D02*
X032661Y046156D01*
X02975Y048501D02*
X030317D01*
X041256Y046156D02*
X0436Y043812D01*
X027379Y045899D02*
X027404D01*
X028128Y045174D01*
X02975D01*
X030894D02*
X031518Y04455D01*
X03415D01*
X02975Y045174D02*
X030894D01*
X042862Y03655D02*
X0436Y035812D01*
X03415Y03655D02*
X042862D01*
X01595Y04527D02*
X015997D01*
X016013Y045254D01*
Y044637D02*
Y045254D01*
Y044637D02*
X0163Y04435D01*
D63*
X026592Y045428D02*
X02915Y04287D01*
Y0419D02*
Y04287D01*
X027855Y040605D02*
X02915Y0419D01*
X027855Y03905D02*
Y040605D01*
X0283Y0369D02*
Y03715D01*
X02715Y0383D02*
X0283Y03715D01*
X02715Y0383D02*
Y04135D01*
X02785Y04205D01*
X013794Y043716D02*
Y04526D01*
X015Y04221D02*
Y04251D01*
X013794Y043716D02*
X015Y04251D01*
X013794Y04526D02*
Y046393D01*
X013794Y046393D02*
X013794Y046393D01*
X016804Y04527D02*
X016852D01*
X016789Y045285D02*
X016804Y04527D01*
X016789Y045285D02*
Y045961D01*
X016357Y046393D02*
X016789Y045961D01*
X013794Y046393D02*
X016357D01*
X015934Y047715D02*
X01595Y04773D01*
X014815Y047715D02*
X015934D01*
X0147Y0476D02*
X014815Y047715D01*
X01835Y046944D02*
Y046952D01*
X017572Y04773D02*
X01835Y046952D01*
X01595Y04773D02*
X017572D01*
X01835Y046944D02*
X0195D01*
X02065D01*
X02135Y044695D02*
X0214Y044745D01*
X015Y04191D02*
Y04221D01*
Y04191D02*
X01525Y04166D01*
X02005Y040205D02*
Y040229D01*
X019795Y03995D02*
X02005Y040205D01*
X019795Y039748D02*
Y03995D01*
X017726Y039484D02*
X019532D01*
X019795Y039748D01*
X01525Y04166D02*
X01555D01*
X017726Y039484D01*
X02065Y046944D02*
X020708D01*
X027379Y045899D02*
Y046686D01*
X013794Y046393D02*
X01385Y046449D01*
Y04805D01*
X02065Y046944D02*
X020742Y046852D01*
X026592Y045899D02*
Y046686D01*
X027379D02*
Y047321D01*
X026592Y046686D02*
Y047058D01*
X0214Y044745D02*
Y04675D01*
X021298Y046852D02*
X0214Y04675D01*
X020742Y046852D02*
X021298D01*
X025775Y047875D02*
X026592Y047058D01*
X020708Y046944D02*
X02164Y047875D01*
X025775D01*
X01385Y04805D02*
X0144Y0486D01*
X0261D02*
X027379Y047321D01*
X026592Y045428D02*
Y045899D01*
X02365Y0486D02*
X0261D01*
X0144D02*
X02365D01*
D64*
X020441Y044705D02*
X02045Y044695D01*
X019563Y044705D02*
X020441D01*
X019554Y044714D02*
X019563Y044705D01*
X03235Y021894D02*
X032383Y021861D01*
X033426D01*
X033964Y021736D02*
X0346Y0211D01*
X033551Y021736D02*
X033964D01*
X033426Y021861D02*
X033459Y021828D01*
X033551Y021736D01*
X0379Y021894D02*
X037933Y021861D01*
X039017D01*
X03905Y021828D01*
X039128Y02175D01*
X0397D01*
X04035Y0211D01*
X04355Y021894D02*
X043583Y021861D01*
X044617D01*
X04465Y021828D01*
X044742Y021736D01*
X045214D01*
X04585Y0211D01*
X043472Y020994D02*
X04355D01*
X042328Y01985D02*
X043472Y020994D01*
X039122Y01985D02*
X042328D01*
X0379Y020994D02*
X037978D01*
X039122Y01985D01*
X037868Y020962D02*
X0379Y020994D01*
X03725Y020962D02*
X037868D01*
X036038Y01975D02*
X03725Y020962D01*
X03235Y020994D02*
X032428D01*
X033672Y01975D01*
X036038D01*
X03255Y027244D02*
X032583Y027211D01*
X033767D01*
X0338Y027178D01*
X034601D01*
X035328Y02645D01*
X0316Y025472D02*
X032472Y026344D01*
X03255D01*
X0316Y021666D02*
Y025472D01*
Y021666D02*
X032272Y020994D01*
X03235D01*
X0225Y046944D02*
X022528Y046972D01*
X023072D01*
X0231Y047D01*
X017323Y025707D02*
X02103Y022D01*
X017323Y025707D02*
Y027956D01*
X0274Y036822D02*
Y0369D01*
X0302Y027582D02*
X030292Y02749D01*
X03071D01*
X0309Y0273D01*
X0238Y023856D02*
X024Y024056D01*
X0238Y02325D02*
Y023856D01*
X04355Y020994D02*
X043628D01*
X044922Y0197D01*
X047804D01*
X04834Y020237D01*
Y02451D01*
X04755Y0253D02*
X04834Y02451D01*
X046Y0253D02*
X04755D01*
X0451Y0262D02*
X046Y0253D01*
X0451Y0262D02*
Y0282D01*
X0459Y029D01*
X02395Y028D02*
Y033372D01*
X0274Y036822D01*
X0218Y017D02*
Y0184D01*
X0238Y0204D01*
Y02325D01*
X0309Y022366D02*
X0316Y021666D01*
X0309Y022366D02*
Y02315D01*
Y0273D01*
Y0185D02*
Y022366D01*
D65*
X024042Y024156D02*
X0241D01*
X024Y024115D02*
X024042Y024156D01*
X024Y024056D02*
Y024115D01*
X028752Y022342D02*
X028794Y0223D01*
X028752Y022342D02*
Y022848D01*
X0286Y023D02*
X028752Y022848D01*
D66*
X015Y04221D02*
D03*
X0126Y0422D02*
D03*
D67*
X01381Y04023D02*
D03*
D68*
X019685Y027956D02*
D03*
X018897D02*
D03*
X01811D02*
D03*
X017323D02*
D03*
X016535D02*
D03*
X015748D02*
D03*
X01496D02*
D03*
X014173D02*
D03*
X013386D02*
D03*
X019685Y028744D02*
D03*
X018897D02*
D03*
X01811D02*
D03*
X017323D02*
D03*
X016535D02*
D03*
X015748D02*
D03*
X01496D02*
D03*
X014173D02*
D03*
X013386D02*
D03*
Y036618D02*
D03*
X014173D02*
D03*
X01496D02*
D03*
X015748D02*
D03*
X016535D02*
D03*
X017323D02*
D03*
X01811D02*
D03*
X018897D02*
D03*
X019685D02*
D03*
X013386Y03583D02*
D03*
X014173D02*
D03*
X01496D02*
D03*
X015748D02*
D03*
X016535D02*
D03*
X017323D02*
D03*
X01811D02*
D03*
X018897D02*
D03*
X019685D02*
D03*
D69*
X02103Y023D02*
D03*
Y022D02*
D03*
Y021D02*
D03*
Y02D02*
D03*
Y019D02*
D03*
X0198Y01485D02*
D03*
Y01585D02*
D03*
X0208Y01485D02*
D03*
Y01585D02*
D03*
X0218Y01485D02*
D03*
X025017Y046686D02*
D03*
Y045899D02*
D03*
X02423D02*
D03*
X025804D02*
D03*
X02423Y046686D02*
D03*
X025804D02*
D03*
X026592D02*
D03*
Y045899D02*
D03*
X027379D02*
D03*
Y046686D02*
D03*
X02105Y041229D02*
D03*
Y040229D02*
D03*
X02005Y041229D02*
D03*
Y040229D02*
D03*
X01905Y041229D02*
D03*
X02785Y04205D02*
D03*
X044Y03265D02*
D03*
X043D02*
D03*
X042D02*
D03*
X041D02*
D03*
X04D02*
D03*
X039D02*
D03*
X038D02*
D03*
D70*
X02103Y018D02*
D03*
X027855Y03905D02*
D03*
D71*
X02975Y045174D02*
D03*
Y048501D02*
D03*
X035328Y029206D02*
D03*
X0371Y02645D02*
D03*
X035328D02*
D03*
X0371Y029206D02*
D03*
X04585Y023856D02*
D03*
X047622Y0211D02*
D03*
X04585D02*
D03*
X047622Y023856D02*
D03*
X0346D02*
D03*
X036372Y0211D02*
D03*
X0346D02*
D03*
X036372Y023856D02*
D03*
X04035D02*
D03*
X042122Y0211D02*
D03*
X04035D02*
D03*
X042122Y023856D02*
D03*
D72*
X0436Y043812D02*
D03*
X03415Y03655D02*
D03*
D73*
X0436Y035812D02*
D03*
X03415Y04455D02*
D03*
D74*
X0218Y01585D02*
D03*
X01905Y040229D02*
D03*
X037Y03265D02*
D03*
D75*
X04735Y0153D02*
D03*
Y04455D02*
D03*
X01155Y0153D02*
D03*
X03385Y03205D02*
D03*
X0471D02*
D03*
Y04795D02*
D03*
X03385D02*
D03*
X01155D02*
D03*
D76*
X0479Y027D02*
D03*
X0469Y029D02*
D03*
X0459D02*
D03*
X0479D02*
D03*
X0469Y027D02*
D03*
X0459D02*
D03*
D77*
X028161Y03055D02*
D03*
X026239D02*
D03*
D78*
X0232Y02745D02*
D03*
X02615Y03325D02*
D03*
X0277Y023615D02*
D03*
X0247Y025565D02*
D03*
X02485Y026115D02*
D03*
X0278Y0266D02*
D03*
X0279Y02835D02*
D03*
X02765Y02865D02*
D03*
X037822Y025003D02*
D03*
X0323Y02515D02*
D03*
X0369Y02543D02*
D03*
X0319Y02715D02*
D03*
X02015Y02392D02*
D03*
X0269Y026415D02*
D03*
X02675Y025965D02*
D03*
X02635Y04155D02*
D03*
X02645Y04221D02*
D03*
X0266Y026815D02*
D03*
X0263Y025747D02*
D03*
X026Y0336D02*
D03*
D79*
X01079Y04217D02*
D03*
D80*
X02355Y0387D02*
D03*
X02435D02*
D03*
X02355Y038D02*
D03*
X02435D02*
D03*
X0399Y02835D02*
D03*
X0407D02*
D03*
X0399Y02765D02*
D03*
X0407D02*
D03*
X04065Y0179D02*
D03*
X04145D02*
D03*
X04065Y0172D02*
D03*
X04145D02*
D03*
X0274Y016178D02*
D03*
X0282D02*
D03*
X0274Y015479D02*
D03*
X0282D02*
D03*
X01735Y02165D02*
D03*
X01655D02*
D03*
X01735Y02235D02*
D03*
X01655D02*
D03*
X0147Y0476D02*
D03*
X0163Y04435D02*
D03*
X0231Y047D02*
D03*
X02365Y0486D02*
D03*
D81*
X0186Y0167D02*
D03*
X0174Y01705D02*
D03*
X02975Y01745D02*
D03*
X0302Y01835D02*
D03*
X02395Y028D02*
D03*
X0239Y02645D02*
D03*
D82*
X0286Y023D02*
D03*
X0238Y02325D02*
D03*
X0218Y017D02*
D03*
X0309Y02315D02*
D03*
Y0185D02*
D03*
X0306Y01535D02*
D03*
M02*
