G04*
G04 #@! TF.GenerationSoftware,Altium Limited,Altium Designer,19.0.15 (446)*
G04*
G04 Layer_Physical_Order=2*
G04 Layer_Color=16711680*
%FSTAX24Y24*%
%MOIN*%
G70*
G01*
G75*
%ADD12C,0.0100*%
%ADD62C,0.0500*%
%ADD64C,0.0250*%
%ADD66R,0.1000X0.1600*%
%ADD67R,0.1600X0.1000*%
%ADD68C,0.0600*%
%ADD69C,0.0591*%
%ADD70R,0.0591X0.0591*%
%ADD71C,0.0787*%
%ADD72C,0.1000*%
%ADD73R,0.1000X0.1000*%
%ADD74R,0.0591X0.0591*%
%ADD75P,0.1705X8X22.5*%
%ADD76C,0.0669*%
%ADD77C,0.0551*%
%ADD78C,0.0200*%
%ADD79C,0.0945*%
%ADD80C,0.0500*%
%ADD81C,0.0300*%
%ADD82C,0.0320*%
G36*
X03655Y0492D02*
Y03835D01*
X04455D01*
X04865Y03425D01*
Y0185D01*
X04435Y0142D01*
X04425Y0143D01*
X01735D01*
X0102Y02145D01*
Y041847D01*
X01025Y04186D01*
X01027Y041823D01*
X010348Y041728D01*
X010443Y04165D01*
X010551Y041592D01*
X010668Y041557D01*
X01079Y041545D01*
X010912Y041557D01*
X011029Y041592D01*
X011137Y04165D01*
X011232Y041728D01*
X01131Y041823D01*
X011368Y041931D01*
X011403Y042048D01*
X011415Y04217D01*
X011403Y042292D01*
X011368Y042409D01*
X01131Y042517D01*
X011232Y042612D01*
X011137Y04269D01*
X011029Y042748D01*
X010912Y042783D01*
X01079Y042795D01*
X010668Y042783D01*
X010551Y042748D01*
X010443Y04269D01*
X010348Y042612D01*
X01027Y042517D01*
X01025Y04248D01*
X0102Y042493D01*
Y04925D01*
X0365D01*
X03655Y0492D01*
D02*
G37*
%LPC*%
G36*
X0298Y048992D02*
Y048551D01*
X030241D01*
X030231Y04863D01*
X030181Y04875D01*
X030102Y048853D01*
X029999Y048932D01*
X029879Y048982D01*
X0298Y048992D01*
D02*
G37*
G36*
X0297D02*
X029621Y048982D01*
X029501Y048932D01*
X029398Y048853D01*
X029319Y04875D01*
X029269Y04863D01*
X029259Y048551D01*
X0297D01*
Y048992D01*
D02*
G37*
G36*
X030241Y048451D02*
X0298D01*
Y048009D01*
X029879Y04802D01*
X029999Y04807D01*
X030102Y048149D01*
X030181Y048252D01*
X030231Y048372D01*
X030241Y048451D01*
D02*
G37*
G36*
X0297D02*
X029259D01*
X029269Y048372D01*
X029319Y048252D01*
X029398Y048149D01*
X029501Y04807D01*
X029621Y04802D01*
X0297Y048009D01*
Y048451D01*
D02*
G37*
G36*
X034319Y048887D02*
X033381D01*
X032913Y048419D01*
Y047481D01*
X033381Y047013D01*
X034319D01*
X034787Y047481D01*
Y048419D01*
X034319Y048887D01*
D02*
G37*
G36*
X012019D02*
X011081D01*
X010613Y048419D01*
Y047481D01*
X011081Y047013D01*
X012019D01*
X012487Y047481D01*
Y048419D01*
X012019Y048887D01*
D02*
G37*
G36*
X027379Y047135D02*
X027263Y04712D01*
X027155Y047075D01*
X027062Y047004D01*
X027017Y046946D01*
X026954D01*
X026909Y047004D01*
X026816Y047075D01*
X026708Y04712D01*
X026592Y047135D01*
X026476Y04712D01*
X026367Y047075D01*
X026274Y047004D01*
X026203Y046911D01*
X026195Y046893D01*
X026142Y046895D01*
X026086Y046968D01*
X026004Y047031D01*
X025908Y047071D01*
X025854Y047078D01*
Y046686D01*
X025754D01*
Y047078D01*
X025701Y047071D01*
X025605Y047031D01*
X025522Y046968D01*
X025466Y046895D01*
X025413Y046893D01*
X025406Y046911D01*
X025335Y047004D01*
X025242Y047075D01*
X025133Y04712D01*
X025017Y047135D01*
X024901Y04712D01*
X024792Y047075D01*
X024699Y047004D01*
X024655Y046946D01*
X024592Y046946D01*
X024547Y047004D01*
X024454Y047075D01*
X024346Y04712D01*
X02423Y047135D01*
X024113Y04712D01*
X024005Y047075D01*
X023912Y047004D01*
X023841Y046911D01*
X023796Y046802D01*
X02378Y046686D01*
X023796Y04657D01*
X023841Y046462D01*
X023912Y046369D01*
X02397Y046324D01*
Y046261D01*
X023912Y046216D01*
X023841Y046123D01*
X023796Y046015D01*
X02378Y045899D01*
X023796Y045783D01*
X023841Y045674D01*
X023912Y045581D01*
X024005Y04551D01*
X024113Y045465D01*
X02423Y04545D01*
X024346Y045465D01*
X024454Y04551D01*
X024547Y045581D01*
X024592Y045639D01*
X024655D01*
X024699Y045581D01*
X024792Y04551D01*
X024901Y045465D01*
X025017Y04545D01*
X025133Y045465D01*
X025241Y04551D01*
X025335Y045581D01*
X025406Y045674D01*
X025413Y045692D01*
X025466Y04569D01*
X025522Y045617D01*
X025605Y045554D01*
X025701Y045514D01*
X025754Y045507D01*
Y045899D01*
X025854D01*
Y045507D01*
X025908Y045514D01*
X026004Y045554D01*
X026086Y045617D01*
X026142Y04569D01*
X026195Y045692D01*
X026203Y045674D01*
X026274Y045581D01*
X026367Y04551D01*
X026476Y045465D01*
X026592Y04545D01*
X026708Y045465D01*
X026816Y04551D01*
X026909Y045581D01*
X026954Y045639D01*
X027017D01*
X027062Y045581D01*
X027155Y04551D01*
X027263Y045465D01*
X027379Y04545D01*
X027495Y045465D01*
X027604Y04551D01*
X027697Y045581D01*
X027768Y045674D01*
X027813Y045783D01*
X027828Y045899D01*
X027813Y046015D01*
X027768Y046123D01*
X027697Y046216D01*
X027639Y046261D01*
X027639Y046324D01*
X027697Y046369D01*
X027768Y046462D01*
X027813Y04657D01*
X027828Y046686D01*
X027813Y046802D01*
X027768Y046911D01*
X027697Y047004D01*
X027604Y047075D01*
X027495Y04712D01*
X027379Y047135D01*
D02*
G37*
G36*
X02365Y049003D02*
X023546Y04899D01*
X023448Y048949D01*
X023365Y048885D01*
X023301Y048802D01*
X02326Y048704D01*
X023247Y0486D01*
X02325Y048575D01*
X022904Y048228D01*
X02286Y048171D01*
X022832Y048104D01*
X022823Y048032D01*
Y047291D01*
X022815Y047285D01*
X022751Y047202D01*
X02271Y047104D01*
X022697Y047D01*
X02271Y046896D01*
X022751Y046798D01*
X022815Y046715D01*
X022898Y046651D01*
X022996Y04661D01*
X0231Y046597D01*
X023204Y04661D01*
X023302Y046651D01*
X023385Y046715D01*
X023449Y046798D01*
X02349Y046896D01*
X023503Y047D01*
X02349Y047104D01*
X023449Y047202D01*
X023385Y047285D01*
X023377Y047291D01*
Y047917D01*
X023657Y048198D01*
X023754Y04821D01*
X023852Y048251D01*
X023935Y048315D01*
X023999Y048398D01*
X02404Y048496D01*
X024053Y0486D01*
X02404Y048704D01*
X023999Y048802D01*
X023935Y048885D01*
X023852Y048949D01*
X023754Y04899D01*
X02365Y049003D01*
D02*
G37*
G36*
X02975Y045722D02*
X029608Y045704D01*
X029476Y045649D01*
X029362Y045562D01*
X029275Y045448D01*
X02922Y045316D01*
X029202Y045174D01*
X02922Y045032D01*
X029275Y0449D01*
X029362Y044786D01*
X029476Y044699D01*
X029608Y044644D01*
X02975Y044626D01*
X029892Y044644D01*
X030024Y044699D01*
X030138Y044786D01*
X030225Y0449D01*
X03028Y045032D01*
X030298Y045174D01*
X03028Y045316D01*
X030225Y045448D01*
X030138Y045562D01*
X030024Y045649D01*
X029892Y045704D01*
X02975Y045722D01*
D02*
G37*
G36*
X0348Y0452D02*
X0335D01*
Y0439D01*
X0348D01*
Y0452D01*
D02*
G37*
G36*
X0132Y0431D02*
X01265D01*
Y04225D01*
X0132D01*
Y0431D01*
D02*
G37*
G36*
X01255D02*
X012D01*
Y04225D01*
X01255D01*
Y0431D01*
D02*
G37*
G36*
X02645Y042465D02*
X026352Y042446D01*
X02627Y04239D01*
X026214Y042308D01*
X026195Y04221D01*
X026214Y042112D01*
X02627Y04203D01*
X026352Y041975D01*
X026408Y041963D01*
X026558Y041813D01*
X026554Y041764D01*
X026511Y041743D01*
X026448Y041785D01*
X02635Y041805D01*
X026252Y041785D01*
X02617Y04173D01*
X026114Y041648D01*
X026095Y04155D01*
X026114Y041452D01*
X026146Y041405D01*
Y033862D01*
X026105Y033834D01*
X026096Y033836D01*
X026Y033855D01*
X025902Y033835D01*
X025836Y033791D01*
X025822Y033788D01*
X025756Y033744D01*
X024406Y032394D01*
X024362Y032328D01*
X024346Y03225D01*
Y02575D01*
X024362Y025672D01*
X024406Y025606D01*
X024446Y025566D01*
X024446Y025565D01*
X024465Y025468D01*
X02452Y025385D01*
X024603Y02533D01*
X0247Y02531D01*
X024798Y02533D01*
X024881Y025385D01*
X024936Y025468D01*
X024936Y025468D01*
X024938Y025472D01*
X024954Y02555D01*
X024953Y025554D01*
X024955Y025565D01*
X024936Y025663D01*
X024881Y025746D01*
X024798Y025801D01*
X024783Y025823D01*
X024784Y025826D01*
X024836Y025863D01*
X02485Y02586D01*
X024948Y02588D01*
X025031Y025935D01*
X025086Y026018D01*
X025086Y026018D01*
X025088Y026022D01*
X025104Y0261D01*
Y026108D01*
X025105Y026115D01*
X025104Y026122D01*
Y031866D01*
X025464Y032225D01*
X02551Y032206D01*
Y024601D01*
X025525Y024523D01*
X02557Y024457D01*
X026579Y023447D01*
X026646Y023403D01*
X026724Y023387D01*
X026806D01*
X02685Y023396D01*
X027579D01*
X027603Y02338D01*
X0277Y02336D01*
X027798Y02338D01*
X027881Y023435D01*
X027936Y023518D01*
X027955Y023615D01*
X027936Y023713D01*
X027881Y023796D01*
X027798Y023851D01*
X0277Y02387D01*
X027603Y023851D01*
X027533Y023804D01*
X026815D01*
X026815Y023804D01*
X026802Y023801D01*
X025918Y024686D01*
Y030197D01*
X025968Y030222D01*
X026025Y030178D01*
X026128Y030135D01*
X026239Y030121D01*
X02635Y030135D01*
X026454Y030178D01*
X026511Y030222D01*
X026561Y030197D01*
Y029717D01*
X026156Y029312D01*
X026112Y029245D01*
X026096Y029167D01*
Y026377D01*
X026112Y026299D01*
X026146Y026247D01*
Y025944D01*
X02612Y025927D01*
X026065Y025844D01*
X026045Y025747D01*
X026065Y025649D01*
X02612Y025566D01*
X026203Y025511D01*
X0263Y025492D01*
X026398Y025511D01*
X026481Y025566D01*
X026536Y025649D01*
X026536Y02565D01*
X026538Y025653D01*
X026554Y025731D01*
Y025736D01*
X026565Y025746D01*
X02658Y025755D01*
X026598Y025762D01*
X026604Y025763D01*
X026653Y02573D01*
X02675Y02571D01*
X026751Y025711D01*
X027156Y025306D01*
X027222Y025262D01*
X0273Y025246D01*
X031916D01*
X032053Y025108D01*
X032064Y025052D01*
X03212Y02497D01*
X032202Y024915D01*
X0323Y024895D01*
X032398Y024915D01*
X03248Y02497D01*
X032536Y025052D01*
X032555Y02515D01*
X032536Y025248D01*
X03248Y02533D01*
X032398Y025385D01*
X032342Y025397D01*
X032239Y0255D01*
X032258Y025546D01*
X034616D01*
X035312Y02485D01*
X035378Y024805D01*
X035456Y02479D01*
X037691D01*
X037724Y024768D01*
X037822Y024748D01*
X037919Y024768D01*
X038002Y024823D01*
X038057Y024906D01*
X038077Y025003D01*
X038057Y025101D01*
X038002Y025183D01*
X037919Y025239D01*
X037822Y025258D01*
X037724Y025239D01*
X037663Y025198D01*
X037088D01*
X037074Y025245D01*
X03708Y02525D01*
X037136Y025332D01*
X037155Y02543D01*
X037136Y025528D01*
X03708Y02561D01*
X036998Y025666D01*
X036943Y025676D01*
X036775Y025844D01*
X036709Y025888D01*
X036631Y025904D01*
X035561D01*
X035551Y025954D01*
X035603Y025975D01*
X035716Y026062D01*
X035803Y026176D01*
X035858Y026308D01*
X035877Y02645D01*
X035858Y026592D01*
X035803Y026724D01*
X035716Y026838D01*
X035603Y026925D01*
X03547Y02698D01*
X035328Y026998D01*
X035186Y02698D01*
X035054Y026925D01*
X034941Y026838D01*
X034853Y026724D01*
X034799Y026592D01*
X03478Y02645D01*
X034794Y026346D01*
X03475Y026304D01*
X02788D01*
X027877Y026309D01*
X027898Y026365D01*
X027945Y026396D01*
X03125D01*
X031328Y026412D01*
X031394Y026456D01*
X031845Y026906D01*
X0319Y026895D01*
X031998Y026915D01*
X03208Y02697D01*
X032136Y027052D01*
X032155Y02715D01*
X032136Y027248D01*
X03208Y02733D01*
X031998Y027385D01*
X0319Y027405D01*
X031802Y027385D01*
X031736Y027341D01*
X031722Y027338D01*
X031656Y027294D01*
X031656Y027294D01*
X031166Y026804D01*
X027945D01*
X027898Y026835D01*
X0278Y026855D01*
X027702Y026835D01*
X02762Y02678D01*
X027564Y026698D01*
X027556Y026653D01*
X027501Y026637D01*
X027194Y026944D01*
X027128Y026988D01*
X02705Y027004D01*
X026768D01*
X026698Y027051D01*
X0266Y02707D01*
X026543Y027059D01*
X026504Y02709D01*
Y029083D01*
X026909Y029488D01*
X026953Y029554D01*
X026969Y029632D01*
Y041895D01*
X026953Y041973D01*
X026909Y042039D01*
X026697Y042252D01*
X026686Y042308D01*
X02663Y04239D01*
X026548Y042446D01*
X02645Y042465D01*
D02*
G37*
G36*
X02785Y042499D02*
X027734Y042484D01*
X027625Y042439D01*
X027532Y042368D01*
X027461Y042275D01*
X027416Y042166D01*
X027401Y04205D01*
X027416Y041934D01*
X027461Y041825D01*
X027532Y041732D01*
X027625Y041661D01*
X027734Y041616D01*
X02785Y041601D01*
X027966Y041616D01*
X028075Y041661D01*
X028168Y041732D01*
X028239Y041825D01*
X028284Y041934D01*
X028299Y04205D01*
X028284Y042166D01*
X028239Y042275D01*
X028168Y042368D01*
X028075Y042439D01*
X027966Y042484D01*
X02785Y042499D01*
D02*
G37*
G36*
X0132Y04215D02*
X01265D01*
Y0413D01*
X0132D01*
Y04215D01*
D02*
G37*
G36*
X01255D02*
X012D01*
Y0413D01*
X01255D01*
Y04215D01*
D02*
G37*
G36*
X0211Y041621D02*
Y041279D01*
X021442D01*
X021435Y041333D01*
X021395Y041429D01*
X021332Y041511D01*
X021249Y041575D01*
X021153Y041614D01*
X0211Y041621D01*
D02*
G37*
G36*
X021D02*
X020947Y041614D01*
X020851Y041575D01*
X020768Y041511D01*
X020705Y041429D01*
X020665Y041333D01*
X020658Y041279D01*
X021D01*
Y041621D01*
D02*
G37*
G36*
X01565Y04316D02*
X01435D01*
Y04126D01*
X01565D01*
Y04316D01*
D02*
G37*
G36*
X021442Y041179D02*
X0211D01*
Y040837D01*
X021153Y040844D01*
X021249Y040884D01*
X021332Y040947D01*
X021395Y04103D01*
X021435Y041126D01*
X021442Y041179D01*
D02*
G37*
G36*
X021D02*
X020658D01*
X020665Y041126D01*
X020705Y04103D01*
X020768Y040947D01*
X020851Y040884D01*
X020947Y040844D01*
X021Y040837D01*
Y041179D01*
D02*
G37*
G36*
X01471Y04083D02*
X01386D01*
Y04028D01*
X01471D01*
Y04083D01*
D02*
G37*
G36*
X01376D02*
X01291D01*
Y04028D01*
X01376D01*
Y04083D01*
D02*
G37*
G36*
X0211Y040621D02*
Y040279D01*
X021442D01*
X021435Y040333D01*
X021395Y040429D01*
X021332Y040511D01*
X021249Y040575D01*
X021153Y040614D01*
X0211Y040621D01*
D02*
G37*
G36*
X021D02*
X020947Y040614D01*
X020851Y040575D01*
X020768Y040511D01*
X020705Y040429D01*
X020665Y040333D01*
X020658Y040279D01*
X021D01*
Y040621D01*
D02*
G37*
G36*
X021442Y040179D02*
X0211D01*
Y039837D01*
X021153Y039844D01*
X021249Y039884D01*
X021332Y039947D01*
X021395Y04003D01*
X021435Y040126D01*
X021442Y040179D01*
D02*
G37*
G36*
X021D02*
X020658D01*
X020665Y040126D01*
X020705Y04003D01*
X020768Y039947D01*
X020851Y039884D01*
X020947Y039844D01*
X021Y039837D01*
Y040179D01*
D02*
G37*
G36*
X0147Y048003D02*
X014596Y04799D01*
X014498Y047949D01*
X014415Y047885D01*
X014351Y047802D01*
X01431Y047704D01*
X014297Y0476D01*
X01431Y047496D01*
X014351Y047398D01*
X014373Y04737D01*
Y046D01*
X014382Y045928D01*
X01441Y045861D01*
X014454Y045803D01*
X015897Y04436D01*
X015896Y04435D01*
X01591Y044246D01*
X01595Y044148D01*
X016014Y044065D01*
X016022Y044059D01*
Y04398D01*
X016032Y043908D01*
X016059Y043841D01*
X016103Y043784D01*
X018607Y04128D01*
X018601Y041229D01*
X018616Y041113D01*
X018661Y041005D01*
X018732Y040912D01*
X018773Y040881D01*
Y040675D01*
X018605D01*
Y039784D01*
X019103D01*
X022923Y035964D01*
Y032017D01*
X022873Y032002D01*
X022844Y032044D01*
X019889Y035D01*
Y035428D01*
X019912Y035437D01*
X020006Y035509D01*
X020078Y035603D01*
X020123Y035713D01*
X020139Y03583D01*
X020123Y035948D01*
X020078Y036057D01*
X020006Y036151D01*
X019952Y036193D01*
Y036256D01*
X020006Y036297D01*
X020078Y036391D01*
X020123Y0365D01*
X020139Y036618D01*
X020123Y036735D01*
X020078Y036845D01*
X020006Y036939D01*
X019912Y037011D01*
X019802Y037056D01*
X019685Y037072D01*
X019567Y037056D01*
X019458Y037011D01*
X019364Y036939D01*
X019323Y036885D01*
X01926D01*
X019218Y036939D01*
X019124Y037011D01*
X019015Y037056D01*
X018897Y037072D01*
X01878Y037056D01*
X01867Y037011D01*
X018576Y036939D01*
X018535Y036885D01*
X018472D01*
X018431Y036939D01*
X018337Y037011D01*
X018227Y037056D01*
X01811Y037072D01*
X017993Y037056D01*
X017883Y037011D01*
X017789Y036939D01*
X017748Y036885D01*
X017685D01*
X017644Y036939D01*
X01755Y037011D01*
X01744Y037056D01*
X017323Y037072D01*
X017205Y037056D01*
X017096Y037011D01*
X017002Y036939D01*
X01696Y036885D01*
X016897D01*
X016856Y036939D01*
X016762Y037011D01*
X016653Y037056D01*
X016535Y037072D01*
X016418Y037056D01*
X016308Y037011D01*
X016214Y036939D01*
X016173Y036885D01*
X01611D01*
X016069Y036939D01*
X015975Y037011D01*
X015865Y037056D01*
X015748Y037072D01*
X01563Y037056D01*
X015521Y037011D01*
X015427Y036939D01*
X015386Y036885D01*
X015323D01*
X015281Y036939D01*
X015187Y037011D01*
X015078Y037056D01*
X01496Y037072D01*
X014843Y037056D01*
X014733Y037011D01*
X014639Y036939D01*
X014598Y036885D01*
X014535D01*
X014494Y036939D01*
X0144Y037011D01*
X01429Y037056D01*
X014173Y037072D01*
X014056Y037056D01*
X013946Y037011D01*
X013852Y036939D01*
X013811Y036885D01*
X013748D01*
X013707Y036939D01*
X013613Y037011D01*
X013503Y037056D01*
X013386Y037072D01*
X013268Y037056D01*
X013159Y037011D01*
X013065Y036939D01*
X012993Y036845D01*
X012947Y036735D01*
X012932Y036618D01*
X012947Y0365D01*
X012993Y036391D01*
X013065Y036297D01*
X013118Y036256D01*
Y036193D01*
X013065Y036151D01*
X012993Y036057D01*
X012947Y035948D01*
X012932Y03583D01*
X012947Y035713D01*
X012993Y035603D01*
X013065Y035509D01*
X013159Y035437D01*
X013268Y035392D01*
X013386Y035376D01*
X013503Y035392D01*
X013613Y035437D01*
X013707Y035509D01*
X013748Y035563D01*
X013811D01*
X013852Y035509D01*
X013946Y035437D01*
X014056Y035392D01*
X014173Y035376D01*
X01429Y035392D01*
X0144Y035437D01*
X014494Y035509D01*
X014535Y035563D01*
X014598D01*
X014639Y035509D01*
X014733Y035437D01*
X014843Y035392D01*
X01496Y035376D01*
X015078Y035392D01*
X015187Y035437D01*
X015281Y035509D01*
X015323Y035563D01*
X015386D01*
X015427Y035509D01*
X015521Y035437D01*
X01563Y035392D01*
X015748Y035376D01*
X015865Y035392D01*
X015975Y035437D01*
X016069Y035509D01*
X01611Y035563D01*
X016173D01*
X016214Y035509D01*
X016308Y035437D01*
X016418Y035392D01*
X016535Y035376D01*
X016653Y035392D01*
X016762Y035437D01*
X016856Y035509D01*
X016897Y035563D01*
X01696D01*
X017002Y035509D01*
X017096Y035437D01*
X017205Y035392D01*
X017323Y035376D01*
X01744Y035392D01*
X01755Y035437D01*
X017644Y035509D01*
X017685Y035563D01*
X017748D01*
X017789Y035509D01*
X017883Y035437D01*
X017993Y035392D01*
X01811Y035376D01*
X018227Y035392D01*
X018337Y035437D01*
X018431Y035509D01*
X018472Y035563D01*
X018535D01*
X018576Y035509D01*
X01867Y035437D01*
X018693Y035428D01*
Y035053D01*
X018709Y034975D01*
X018753Y034908D01*
X022046Y031616D01*
Y021443D01*
X021996Y021426D01*
X021996Y021426D01*
X021472Y02195D01*
X021479Y022D01*
X021464Y022116D01*
X021419Y022225D01*
X021348Y022318D01*
X021255Y022389D01*
X021146Y022434D01*
X02103Y022449D01*
X020914Y022434D01*
X020805Y022389D01*
X020712Y022318D01*
X020641Y022225D01*
X020596Y022116D01*
X020581Y022D01*
X020596Y021884D01*
X020641Y021775D01*
X020712Y021682D01*
X020805Y021611D01*
X020914Y021566D01*
X02103Y021551D01*
X02108Y021558D01*
X021245Y021393D01*
X021216Y021351D01*
X021133Y021385D01*
X02108Y021392D01*
Y02105D01*
X021422D01*
X021415Y021103D01*
X021381Y021186D01*
X021423Y021215D01*
X021523Y021115D01*
Y020053D01*
X021473Y020049D01*
X021464Y020116D01*
X021419Y020225D01*
X021348Y020318D01*
X021255Y020389D01*
X021146Y020434D01*
X02103Y020449D01*
X020914Y020434D01*
X020805Y020389D01*
X020712Y020318D01*
X020641Y020225D01*
X020596Y020116D01*
X020581Y02D01*
X020596Y019884D01*
X020641Y019775D01*
X020712Y019682D01*
X020805Y019611D01*
X020914Y019566D01*
X02103Y019551D01*
X021146Y019566D01*
X021255Y019611D01*
X021348Y019682D01*
X021419Y019775D01*
X021464Y019884D01*
X021473Y019951D01*
X021523Y019947D01*
Y019053D01*
X021473Y019049D01*
X021464Y019116D01*
X021419Y019225D01*
X021348Y019318D01*
X021255Y019389D01*
X021146Y019434D01*
X02103Y019449D01*
X020914Y019434D01*
X020893Y019425D01*
X020354Y019964D01*
Y023775D01*
X020385Y023822D01*
X020405Y02392D01*
X020385Y024018D01*
X02033Y0241D01*
X020248Y024155D01*
X02015Y024175D01*
X020052Y024155D01*
X01997Y0241D01*
X019914Y024018D01*
X019895Y02392D01*
X019914Y023822D01*
X019946Y023775D01*
Y01988D01*
X019962Y019802D01*
X020006Y019736D01*
X020605Y019137D01*
X020596Y019116D01*
X020581Y019D01*
X020596Y018884D01*
X020641Y018775D01*
X020712Y018682D01*
X020805Y018611D01*
X020914Y018566D01*
X02103Y018551D01*
X021146Y018566D01*
X021255Y018611D01*
X021348Y018682D01*
X021419Y018775D01*
X021464Y018884D01*
X021473Y018951D01*
X021523Y018947D01*
Y018452D01*
X021475Y018445D01*
X021473Y018445D01*
X020585D01*
Y017555D01*
X021473D01*
X021475Y017555D01*
X021523Y017548D01*
Y01714D01*
X021498Y017081D01*
X021487Y017D01*
X021498Y016919D01*
X021529Y016844D01*
X021579Y016779D01*
X021644Y016729D01*
X021719Y016698D01*
X0218Y016687D01*
X021881Y016698D01*
X021956Y016729D01*
X022021Y016779D01*
X022071Y016844D01*
X022102Y016919D01*
X022113Y017D01*
X022102Y017081D01*
X022077Y01714D01*
Y019514D01*
X022127Y019534D01*
X023656Y018006D01*
X023722Y017962D01*
X0238Y017946D01*
X028966D01*
X029449Y017463D01*
X029447Y01745D01*
X029458Y017372D01*
X029488Y017299D01*
X029536Y017236D01*
X029599Y017188D01*
X029672Y017158D01*
X02975Y017147D01*
X029828Y017158D01*
X029901Y017188D01*
X029964Y017236D01*
X030012Y017299D01*
X030042Y017372D01*
X030053Y01745D01*
X030042Y017528D01*
X030012Y017601D01*
X029964Y017664D01*
X029901Y017712D01*
X029828Y017742D01*
X02975Y017753D01*
X029737Y017751D01*
X029194Y018294D01*
X029128Y018338D01*
X029089Y018346D01*
X029094Y018396D01*
X029865D01*
X029899Y01836D01*
X029897Y01835D01*
X029908Y018272D01*
X029938Y018199D01*
X029986Y018136D01*
X030049Y018088D01*
X030122Y018058D01*
X0302Y018047D01*
X030278Y018058D01*
X030351Y018088D01*
X030414Y018136D01*
X030462Y018199D01*
X030492Y018272D01*
X030503Y01835D01*
X030492Y018428D01*
X030462Y018501D01*
X030414Y018564D01*
X030351Y018612D01*
X030278Y018642D01*
X0302Y018653D01*
X030187Y018651D01*
X030094Y018744D01*
X030028Y018788D01*
X02995Y018804D01*
X024034D01*
X022904Y019934D01*
Y023716D01*
X022954Y023725D01*
X02296Y023711D01*
X023004Y023654D01*
X023505Y023153D01*
X023529Y023094D01*
X023579Y023029D01*
X023644Y022979D01*
X023703Y022955D01*
X023854Y022804D01*
X023911Y02276D01*
X023978Y022732D01*
X02405Y022723D01*
X02846D01*
X028519Y022698D01*
X0286Y022687D01*
X028681Y022698D01*
X028756Y022729D01*
X028821Y022779D01*
X028871Y022844D01*
X028882Y022871D01*
X029284Y023273D01*
X030385D01*
X030605Y023053D01*
X030629Y022994D01*
X030679Y022929D01*
X030744Y022879D01*
X030819Y022848D01*
X0309Y022837D01*
X030981Y022848D01*
X031056Y022879D01*
X031121Y022929D01*
X031171Y022994D01*
X031202Y023069D01*
X031213Y02315D01*
X031202Y023231D01*
X031171Y023306D01*
X031121Y023371D01*
X031056Y023421D01*
X030997Y023445D01*
X030696Y023746D01*
X030639Y02379D01*
X030572Y023818D01*
X0305Y023827D01*
X029169D01*
X029097Y023818D01*
X02903Y02379D01*
X028973Y023746D01*
X02853Y023303D01*
X028519Y023302D01*
X02846Y023277D01*
X024165D01*
X024095Y023347D01*
X024071Y023406D01*
X024021Y023471D01*
X023956Y023521D01*
X023897Y023545D01*
X023477Y023965D01*
Y036079D01*
X023468Y036151D01*
X02344Y036218D01*
X023396Y036275D01*
X019923Y039748D01*
X019949Y039794D01*
X02005Y03978D01*
X020166Y039796D01*
X020275Y03984D01*
X020368Y039912D01*
X020439Y040005D01*
X020484Y040113D01*
X020499Y040229D01*
X020484Y040346D01*
X020453Y040419D01*
Y04104D01*
X020484Y041113D01*
X020499Y041229D01*
X020484Y041346D01*
X020439Y041454D01*
X020368Y041547D01*
X020275Y041618D01*
X020166Y041663D01*
X02005Y041678D01*
X019934Y041663D01*
X019825Y041618D01*
X019732Y041547D01*
X019661Y041454D01*
X019616Y041346D01*
X019601Y041229D01*
X019616Y041113D01*
X019647Y04104D01*
Y040419D01*
X019616Y040346D01*
X019601Y040229D01*
X019614Y040128D01*
X019569Y040103D01*
X019495Y040176D01*
Y040675D01*
X019327D01*
Y040881D01*
X019368Y040912D01*
X019439Y041005D01*
X019484Y041113D01*
X019499Y041229D01*
X019484Y041346D01*
X019439Y041454D01*
X019368Y041547D01*
X019275Y041618D01*
X019166Y041663D01*
X01905Y041678D01*
X019Y041672D01*
X016594Y044077D01*
X016649Y044148D01*
X016689Y044246D01*
X016703Y04435D01*
X016689Y044454D01*
X016649Y044552D01*
X016585Y044635D01*
X016501Y044699D01*
X016404Y04474D01*
X0163Y044753D01*
X01629Y044752D01*
X014927Y046115D01*
Y04727D01*
X014985Y047315D01*
X015049Y047398D01*
X01509Y047496D01*
X015103Y0476D01*
X01509Y047704D01*
X015049Y047802D01*
X014985Y047885D01*
X014902Y047949D01*
X014804Y04799D01*
X0147Y048003D01*
D02*
G37*
G36*
X01471Y04018D02*
X01386D01*
Y03963D01*
X01471D01*
Y04018D01*
D02*
G37*
G36*
X01376D02*
X01291D01*
Y03963D01*
X01376D01*
Y04018D01*
D02*
G37*
G36*
X0283Y039495D02*
X02741D01*
Y038605D01*
X0283D01*
Y039495D01*
D02*
G37*
G36*
X03415Y037203D02*
X034023Y037191D01*
X0339Y037153D01*
X033787Y037093D01*
X033688Y037012D01*
X033607Y036913D01*
X033547Y0368D01*
X033509Y036677D01*
X033497Y03655D01*
X033509Y036423D01*
X033547Y0363D01*
X033607Y036187D01*
X033688Y036088D01*
X033787Y036007D01*
X0339Y035947D01*
X034023Y035909D01*
X03415Y035897D01*
X034277Y035909D01*
X0344Y035947D01*
X034513Y036007D01*
X034612Y036088D01*
X034693Y036187D01*
X034753Y0363D01*
X034791Y036423D01*
X034803Y03655D01*
X034791Y036677D01*
X034753Y0368D01*
X034693Y036913D01*
X034612Y037012D01*
X034513Y037093D01*
X0344Y037153D01*
X034277Y037191D01*
X03415Y037203D01*
D02*
G37*
G36*
X04425Y036462D02*
X04295D01*
Y035162D01*
X04425D01*
Y036462D01*
D02*
G37*
G36*
X043Y033099D02*
X042884Y033084D01*
X042775Y033039D01*
X042682Y032968D01*
X042652Y032927D01*
X042348D01*
X042318Y032968D01*
X042225Y033039D01*
X042116Y033084D01*
X042Y033099D01*
X041884Y033084D01*
X041775Y033039D01*
X041682Y032968D01*
X041611Y032875D01*
X041566Y032766D01*
X041551Y03265D01*
X041566Y032534D01*
X041611Y032425D01*
X041682Y032332D01*
X041775Y032261D01*
X041884Y032216D01*
X042Y032201D01*
X042116Y032216D01*
X042225Y032261D01*
X042318Y032332D01*
X042348Y032373D01*
X042652D01*
X042682Y032332D01*
X042723Y032302D01*
Y03205D01*
X042732Y031978D01*
X04276Y031911D01*
X042804Y031854D01*
X04401Y030648D01*
X044067Y030604D01*
X044134Y030576D01*
X044206Y030567D01*
X044941D01*
X045979Y029529D01*
X045956Y029482D01*
X0459Y029489D01*
X045773Y029472D01*
X045656Y029423D01*
X045554Y029346D01*
X045477Y029244D01*
X045428Y029127D01*
X045411Y029D01*
X045428Y028873D01*
X045477Y028756D01*
X045554Y028654D01*
X045656Y028577D01*
X045773Y028528D01*
X0459Y028511D01*
X046027Y028528D01*
X046144Y028577D01*
X046246Y028654D01*
X046323Y028756D01*
X046372Y028873D01*
X046375Y028893D01*
X046425D01*
X046428Y028873D01*
X046477Y028756D01*
X046554Y028654D01*
X046656Y028577D01*
X046773Y028528D01*
X0469Y028511D01*
X047027Y028528D01*
X047144Y028577D01*
X047246Y028654D01*
X047323Y028756D01*
X047372Y028873D01*
X047389Y029D01*
X047372Y029127D01*
X047323Y029244D01*
X047246Y029346D01*
X047144Y029423D01*
X047027Y029472D01*
X0469Y029489D01*
X046815Y029478D01*
X045252Y03104D01*
X045195Y031084D01*
X045128Y031112D01*
X045056Y031121D01*
X044321D01*
X043277Y032165D01*
Y032302D01*
X043318Y032332D01*
X043389Y032425D01*
X043434Y032534D01*
X043449Y03265D01*
X043434Y032766D01*
X043389Y032875D01*
X043318Y032968D01*
X043225Y033039D01*
X043116Y033084D01*
X043Y033099D01*
D02*
G37*
G36*
X04405Y033042D02*
Y0327D01*
X044392D01*
X044385Y032753D01*
X044345Y032849D01*
X044282Y032932D01*
X044199Y032995D01*
X044103Y033035D01*
X04405Y033042D01*
D02*
G37*
G36*
X04395D02*
X043897Y033035D01*
X043801Y032995D01*
X043718Y032932D01*
X043655Y032849D01*
X043615Y032753D01*
X043608Y0327D01*
X04395D01*
Y033042D01*
D02*
G37*
G36*
X044392Y0326D02*
X04405D01*
Y032258D01*
X044103Y032265D01*
X044199Y032305D01*
X044282Y032368D01*
X044345Y032451D01*
X044385Y032547D01*
X044392Y0326D01*
D02*
G37*
G36*
X04395D02*
X043608D01*
X043615Y032547D01*
X043655Y032451D01*
X043718Y032368D01*
X043801Y032305D01*
X043897Y032265D01*
X04395Y032258D01*
Y0326D01*
D02*
G37*
G36*
X037445Y033095D02*
X036555D01*
Y032205D01*
X037445D01*
Y033095D01*
D02*
G37*
G36*
X0399Y033954D02*
X03275D01*
X032672Y033938D01*
X032606Y033894D01*
X027608Y028897D01*
X027552Y028886D01*
X02747Y02883D01*
X027415Y028748D01*
X027395Y02865D01*
X027415Y028552D01*
X02747Y02847D01*
X027552Y028414D01*
X027605Y028404D01*
X027645Y02835D01*
X027664Y028252D01*
X02772Y02817D01*
X027802Y028115D01*
X0279Y028095D01*
X027998Y028115D01*
X02808Y02817D01*
X028135Y028252D01*
X028147Y028308D01*
X032984Y033146D01*
X037933D01*
X037975Y033127D01*
Y033127D01*
D01*
X037977Y033096D01*
X037974Y033096D01*
X037884Y033084D01*
X037775Y033039D01*
X037682Y032968D01*
X037611Y032875D01*
X037566Y032766D01*
X037551Y03265D01*
X037566Y032534D01*
X037611Y032425D01*
X037682Y032332D01*
X037775Y032261D01*
X037884Y032216D01*
X038Y032201D01*
X038116Y032216D01*
X038225Y032261D01*
X038318Y032332D01*
X038389Y032425D01*
X038434Y032534D01*
X038449Y03265D01*
X038434Y032766D01*
X038389Y032875D01*
X038318Y032968D01*
X038225Y033039D01*
X038116Y033084D01*
X038026Y033096D01*
X038023Y033096D01*
X038025Y033127D01*
X038067Y033146D01*
X038933D01*
X038975Y033127D01*
Y033127D01*
D01*
X038977Y033096D01*
X038974Y033096D01*
X038884Y033084D01*
X038775Y033039D01*
X038682Y032968D01*
X038611Y032875D01*
X038566Y032766D01*
X038551Y03265D01*
X038566Y032534D01*
X038611Y032425D01*
X038682Y032332D01*
X038775Y032261D01*
X038884Y032216D01*
X039Y032201D01*
X039116Y032216D01*
X039225Y032261D01*
X039318Y032332D01*
X039389Y032425D01*
X039434Y032534D01*
X039449Y03265D01*
X039434Y032766D01*
X039389Y032875D01*
X039318Y032968D01*
X039225Y033039D01*
X039116Y033084D01*
X039026Y033096D01*
X039023Y033096D01*
X039025Y033127D01*
X039067Y033146D01*
X039216D01*
X039575Y032787D01*
X039566Y032766D01*
X039551Y03265D01*
X039566Y032534D01*
X039611Y032425D01*
X039682Y032332D01*
X039775Y032261D01*
X039884Y032216D01*
X04Y032201D01*
X040116Y032216D01*
X040225Y032261D01*
X040318Y032332D01*
X040389Y032425D01*
X040434Y032534D01*
X040449Y03265D01*
X040434Y032766D01*
X040389Y032875D01*
X040318Y032968D01*
X040225Y033039D01*
X040116Y033084D01*
X04Y033099D01*
X039884Y033084D01*
X039863Y033075D01*
X039444Y033494D01*
X039441Y033496D01*
X039457Y033546D01*
X039816D01*
X040575Y032787D01*
X040566Y032766D01*
X040551Y03265D01*
X040566Y032534D01*
X040611Y032425D01*
X040682Y032332D01*
X040775Y032261D01*
X040884Y032216D01*
X041Y032201D01*
X041116Y032216D01*
X041225Y032261D01*
X041318Y032332D01*
X041389Y032425D01*
X041434Y032534D01*
X041449Y03265D01*
X041434Y032766D01*
X041389Y032875D01*
X041318Y032968D01*
X041225Y033039D01*
X041116Y033084D01*
X041Y033099D01*
X040884Y033084D01*
X040863Y033075D01*
X040044Y033894D01*
X039978Y033938D01*
X0399Y033954D01*
D02*
G37*
G36*
X047569Y032987D02*
X046631D01*
X046163Y032519D01*
Y031581D01*
X046631Y031113D01*
X047569D01*
X048037Y031581D01*
Y032519D01*
X047569Y032987D01*
D02*
G37*
G36*
X034319D02*
X033381D01*
X032913Y032519D01*
Y031581D01*
X033381Y031113D01*
X034319D01*
X034787Y031581D01*
Y032519D01*
X034319Y032987D01*
D02*
G37*
G36*
X028161Y030979D02*
X02805Y030965D01*
X027946Y030922D01*
X027857Y030854D01*
X027789Y030765D01*
X027746Y030661D01*
X027731Y03055D01*
X027746Y030439D01*
X027789Y030335D01*
X027857Y030246D01*
X027946Y030178D01*
X02805Y030135D01*
X028161Y030121D01*
X028272Y030135D01*
X028375Y030178D01*
X028464Y030246D01*
X028532Y030335D01*
X028575Y030439D01*
X02859Y03055D01*
X028575Y030661D01*
X028532Y030765D01*
X028464Y030854D01*
X028375Y030922D01*
X028272Y030965D01*
X028161Y030979D01*
D02*
G37*
G36*
X03715Y029697D02*
Y029256D01*
X037591D01*
X037581Y029335D01*
X037531Y029455D01*
X037452Y029558D01*
X037349Y029637D01*
X037229Y029687D01*
X03715Y029697D01*
D02*
G37*
G36*
X03705D02*
X036971Y029687D01*
X036851Y029637D01*
X036748Y029558D01*
X036669Y029455D01*
X036619Y029335D01*
X036609Y029256D01*
X03705D01*
Y029697D01*
D02*
G37*
G36*
X04795Y029432D02*
Y02905D01*
X048332D01*
X048323Y029113D01*
X04828Y029219D01*
X04821Y02931D01*
X048119Y02938D01*
X048013Y029423D01*
X04795Y029432D01*
D02*
G37*
G36*
X04785D02*
X047787Y029423D01*
X047681Y02938D01*
X04759Y02931D01*
X04752Y029219D01*
X047477Y029113D01*
X047468Y02905D01*
X04785D01*
Y029432D01*
D02*
G37*
G36*
X019685Y029198D02*
X019567Y029182D01*
X019458Y029137D01*
X019364Y029065D01*
X019323Y029011D01*
X01926D01*
X019218Y029065D01*
X019124Y029137D01*
X019015Y029182D01*
X018897Y029198D01*
X01878Y029182D01*
X01867Y029137D01*
X018576Y029065D01*
X018535Y029011D01*
X018472D01*
X018431Y029065D01*
X018337Y029137D01*
X018227Y029182D01*
X01811Y029198D01*
X017993Y029182D01*
X017883Y029137D01*
X017789Y029065D01*
X017717Y028971D01*
X017715Y028965D01*
X017659Y028962D01*
X017608Y029029D01*
X017524Y029093D01*
X017427Y029133D01*
X017373Y029141D01*
Y028744D01*
X017273D01*
Y029141D01*
X017218Y029133D01*
X017121Y029093D01*
X017037Y029029D01*
X016986Y028962D01*
X016931Y028965D01*
X016928Y028971D01*
X016856Y029065D01*
X016762Y029137D01*
X016653Y029182D01*
X016535Y029198D01*
X016418Y029182D01*
X016308Y029137D01*
X016214Y029065D01*
X016173Y029011D01*
X01611D01*
X016069Y029065D01*
X015975Y029137D01*
X015865Y029182D01*
X015748Y029198D01*
X01563Y029182D01*
X015521Y029137D01*
X015427Y029065D01*
X015386Y029011D01*
X015323D01*
X015281Y029065D01*
X015187Y029137D01*
X015078Y029182D01*
X01496Y029198D01*
X014843Y029182D01*
X014733Y029137D01*
X014639Y029065D01*
X014598Y029011D01*
X014535D01*
X014494Y029065D01*
X0144Y029137D01*
X01429Y029182D01*
X014173Y029198D01*
X014056Y029182D01*
X013946Y029137D01*
X013852Y029065D01*
X013811Y029011D01*
X013748D01*
X013707Y029065D01*
X013613Y029137D01*
X013503Y029182D01*
X013386Y029198D01*
X013268Y029182D01*
X013159Y029137D01*
X013065Y029065D01*
X012993Y028971D01*
X012947Y028861D01*
X012932Y028744D01*
X012947Y028626D01*
X012993Y028517D01*
X013065Y028423D01*
X013159Y028351D01*
X013164Y028348D01*
X013167Y028293D01*
X0131Y028242D01*
X013036Y028158D01*
X012996Y028061D01*
X012989Y028006D01*
X013386D01*
Y027956D01*
X013436D01*
Y027559D01*
X01349Y027567D01*
X013587Y027607D01*
X013671Y027671D01*
X013722Y027738D01*
X013778Y027735D01*
X01378Y027729D01*
X013852Y027635D01*
X013946Y027563D01*
X014056Y027518D01*
X014173Y027502D01*
X01429Y027518D01*
X0144Y027563D01*
X014494Y027635D01*
X014535Y027689D01*
X014598D01*
X014639Y027635D01*
X014733Y027563D01*
X014843Y027518D01*
X01496Y027502D01*
X015078Y027518D01*
X015187Y027563D01*
X015281Y027635D01*
X015323Y027689D01*
X015386D01*
X015427Y027635D01*
X015521Y027563D01*
X01563Y027518D01*
X015748Y027502D01*
X015865Y027518D01*
X015975Y027563D01*
X016069Y027635D01*
X01611Y027689D01*
X016173D01*
X016214Y027635D01*
X016308Y027563D01*
X016418Y027518D01*
X016535Y027502D01*
X016653Y027518D01*
X016762Y027563D01*
X016856Y027635D01*
X016897Y027689D01*
X01696D01*
X017002Y027635D01*
X017096Y027563D01*
X017205Y027518D01*
X017323Y027502D01*
X01744Y027518D01*
X01755Y027563D01*
X017644Y027635D01*
X017685Y027689D01*
X017748D01*
X017789Y027635D01*
X017883Y027563D01*
X017993Y027518D01*
X01811Y027502D01*
X018227Y027518D01*
X018337Y027563D01*
X018431Y027635D01*
X018472Y027689D01*
X018535D01*
X018576Y027635D01*
X01867Y027563D01*
X01878Y027518D01*
X018897Y027502D01*
X019015Y027518D01*
X019124Y027563D01*
X019218Y027635D01*
X01926Y027689D01*
X019323D01*
X019364Y027635D01*
X019458Y027563D01*
X019567Y027518D01*
X019685Y027502D01*
X019802Y027518D01*
X019912Y027563D01*
X020006Y027635D01*
X020078Y027729D01*
X020123Y027839D01*
X020139Y027956D01*
X020123Y028074D01*
X020078Y028183D01*
X020006Y028277D01*
X019952Y028318D01*
Y028382D01*
X020006Y028423D01*
X020078Y028517D01*
X020123Y028626D01*
X020139Y028744D01*
X020123Y028861D01*
X020078Y028971D01*
X020006Y029065D01*
X019912Y029137D01*
X019802Y029182D01*
X019685Y029198D01*
D02*
G37*
G36*
X037591Y029156D02*
X03715D01*
Y028715D01*
X037229Y028725D01*
X037349Y028775D01*
X037452Y028854D01*
X037531Y028957D01*
X037581Y029077D01*
X037591Y029156D01*
D02*
G37*
G36*
X03705D02*
X036609D01*
X036619Y029077D01*
X036669Y028957D01*
X036748Y028854D01*
X036851Y028775D01*
X036971Y028725D01*
X03705Y028715D01*
Y029156D01*
D02*
G37*
G36*
X035328Y029754D02*
X035186Y029736D01*
X035054Y029681D01*
X034941Y029594D01*
X034853Y02948D01*
X034799Y029348D01*
X03478Y029206D01*
X034799Y029064D01*
X034853Y028932D01*
X034941Y028818D01*
X035054Y028731D01*
X035186Y028676D01*
X035328Y028658D01*
X03547Y028676D01*
X035603Y028731D01*
X035716Y028818D01*
X035803Y028932D01*
X035858Y029064D01*
X035877Y029206D01*
X035858Y029348D01*
X035803Y02948D01*
X035716Y029594D01*
X035603Y029681D01*
X03547Y029736D01*
X035328Y029754D01*
D02*
G37*
G36*
X048332Y02895D02*
X04795D01*
Y028568D01*
X048013Y028577D01*
X048119Y02862D01*
X04821Y02869D01*
X04828Y028781D01*
X048323Y028887D01*
X048332Y02895D01*
D02*
G37*
G36*
X04785D02*
X047468D01*
X047477Y028887D01*
X04752Y028781D01*
X04759Y02869D01*
X047681Y02862D01*
X047787Y028577D01*
X04785Y028568D01*
Y02895D01*
D02*
G37*
G36*
X013336Y027906D02*
X012989D01*
X012996Y027852D01*
X013036Y027755D01*
X0131Y027671D01*
X013184Y027607D01*
X013281Y027567D01*
X013336Y027559D01*
Y027906D01*
D02*
G37*
G36*
X0479Y027489D02*
X047773Y027472D01*
X047656Y027423D01*
X047554Y027346D01*
X047477Y027244D01*
X047428Y027127D01*
X047425Y027107D01*
X047375D01*
X047372Y027127D01*
X047323Y027244D01*
X047246Y027346D01*
X047144Y027423D01*
X047027Y027472D01*
X0469Y027489D01*
X046773Y027472D01*
X046656Y027423D01*
X046554Y027346D01*
X046477Y027244D01*
X046428Y027127D01*
X046425Y027107D01*
X046375D01*
X046372Y027127D01*
X046323Y027244D01*
X046246Y027346D01*
X046144Y027423D01*
X046027Y027472D01*
X0459Y027489D01*
X045773Y027472D01*
X045656Y027423D01*
X045554Y027346D01*
X045477Y027244D01*
X045428Y027127D01*
X045411Y027D01*
X045428Y026873D01*
X045477Y026756D01*
X045554Y026654D01*
X045656Y026577D01*
X045773Y026528D01*
X0459Y026511D01*
X046027Y026528D01*
X046144Y026577D01*
X046246Y026654D01*
X046323Y026756D01*
X046372Y026873D01*
X046375Y026893D01*
X046425D01*
X046428Y026873D01*
X046477Y026756D01*
X046554Y026654D01*
X046656Y026577D01*
X046773Y026528D01*
X0469Y026511D01*
X047027Y026528D01*
X047144Y026577D01*
X047246Y026654D01*
X047323Y026756D01*
X047372Y026873D01*
X047375Y026893D01*
X047425D01*
X047428Y026873D01*
X047477Y026756D01*
X047554Y026654D01*
X047656Y026577D01*
X047773Y026528D01*
X0479Y026511D01*
X048027Y026528D01*
X048144Y026577D01*
X048246Y026654D01*
X048323Y026756D01*
X048372Y026873D01*
X048389Y027D01*
X048372Y027127D01*
X048323Y027244D01*
X048246Y027346D01*
X048144Y027423D01*
X048027Y027472D01*
X0479Y027489D01*
D02*
G37*
G36*
X03715Y026941D02*
Y0265D01*
X037591D01*
X037581Y026579D01*
X037531Y026699D01*
X037452Y026802D01*
X037349Y026881D01*
X037229Y026931D01*
X03715Y026941D01*
D02*
G37*
G36*
X03705D02*
X036971Y026931D01*
X036851Y026881D01*
X036748Y026802D01*
X036669Y026699D01*
X036619Y026579D01*
X036609Y0265D01*
X03705D01*
Y026941D01*
D02*
G37*
G36*
X02395Y028303D02*
X023872Y028292D01*
X023799Y028262D01*
X023736Y028214D01*
X023688Y028151D01*
X023658Y028078D01*
X023647Y028D01*
X023658Y027922D01*
X023673Y027886D01*
Y026646D01*
X023638Y026601D01*
X023608Y026528D01*
X023597Y02645D01*
X023608Y026372D01*
X023638Y026299D01*
X023686Y026236D01*
X023749Y026188D01*
X023822Y026158D01*
X0239Y026147D01*
X023978Y026158D01*
X024051Y026188D01*
X024114Y026236D01*
X024162Y026299D01*
X024192Y026372D01*
X024203Y02645D01*
X024198Y026481D01*
X024218Y026528D01*
X024227Y0266D01*
Y027886D01*
X024242Y027922D01*
X024253Y028D01*
X024242Y028078D01*
X024212Y028151D01*
X024164Y028214D01*
X024101Y028262D01*
X024028Y028292D01*
X02395Y028303D01*
D02*
G37*
G36*
X037591Y0264D02*
X03715D01*
Y025959D01*
X037229Y025969D01*
X037349Y026019D01*
X037452Y026098D01*
X037531Y026201D01*
X037581Y026321D01*
X037591Y0264D01*
D02*
G37*
G36*
X03705D02*
X036609D01*
X036619Y026321D01*
X036669Y026201D01*
X036748Y026098D01*
X036851Y026019D01*
X036971Y025969D01*
X03705Y025959D01*
Y0264D01*
D02*
G37*
G36*
X047672Y024347D02*
Y023906D01*
X048113D01*
X048103Y023985D01*
X048053Y024105D01*
X047974Y024208D01*
X047871Y024287D01*
X047751Y024337D01*
X047672Y024347D01*
D02*
G37*
G36*
X042172D02*
Y023906D01*
X042613D01*
X042603Y023985D01*
X042553Y024105D01*
X042474Y024208D01*
X042371Y024287D01*
X042251Y024337D01*
X042172Y024347D01*
D02*
G37*
G36*
X036422D02*
Y023906D01*
X036863D01*
X036853Y023985D01*
X036803Y024105D01*
X036724Y024208D01*
X036621Y024287D01*
X036501Y024337D01*
X036422Y024347D01*
D02*
G37*
G36*
X047572D02*
X047493Y024337D01*
X047373Y024287D01*
X04727Y024208D01*
X04719Y024105D01*
X047141Y023985D01*
X04713Y023906D01*
X047572D01*
Y024347D01*
D02*
G37*
G36*
X042072D02*
X041993Y024337D01*
X041873Y024287D01*
X04177Y024208D01*
X04169Y024105D01*
X041641Y023985D01*
X04163Y023906D01*
X042072D01*
Y024347D01*
D02*
G37*
G36*
X036322D02*
X036243Y024337D01*
X036123Y024287D01*
X03602Y024208D01*
X03594Y024105D01*
X035891Y023985D01*
X03588Y023906D01*
X036322D01*
Y024347D01*
D02*
G37*
G36*
X048113Y023806D02*
X047672D01*
Y023365D01*
X047751Y023375D01*
X047871Y023425D01*
X047974Y023504D01*
X048053Y023607D01*
X048103Y023727D01*
X048113Y023806D01*
D02*
G37*
G36*
X042613D02*
X042172D01*
Y023365D01*
X042251Y023375D01*
X042371Y023425D01*
X042474Y023504D01*
X042553Y023607D01*
X042603Y023727D01*
X042613Y023806D01*
D02*
G37*
G36*
X036863D02*
X036422D01*
Y023365D01*
X036501Y023375D01*
X036621Y023425D01*
X036724Y023504D01*
X036803Y023607D01*
X036853Y023727D01*
X036863Y023806D01*
D02*
G37*
G36*
X047572D02*
X04713D01*
X047141Y023727D01*
X04719Y023607D01*
X04727Y023504D01*
X047373Y023425D01*
X047493Y023375D01*
X047572Y023365D01*
Y023806D01*
D02*
G37*
G36*
X042072D02*
X04163D01*
X041641Y023727D01*
X04169Y023607D01*
X04177Y023504D01*
X041873Y023425D01*
X041993Y023375D01*
X042072Y023365D01*
Y023806D01*
D02*
G37*
G36*
X036322D02*
X03588D01*
X035891Y023727D01*
X03594Y023607D01*
X03602Y023504D01*
X036123Y023425D01*
X036243Y023375D01*
X036322Y023365D01*
Y023806D01*
D02*
G37*
G36*
X04585Y024404D02*
X045708Y024386D01*
X045576Y024331D01*
X045462Y024244D01*
X045375Y02413D01*
X04532Y023998D01*
X045302Y023856D01*
X04532Y023714D01*
X045375Y023582D01*
X045462Y023468D01*
X045576Y023381D01*
X045708Y023326D01*
X04585Y023308D01*
X045992Y023326D01*
X046124Y023381D01*
X046238Y023468D01*
X046325Y023582D01*
X04638Y023714D01*
X046398Y023856D01*
X04638Y023998D01*
X046325Y02413D01*
X046238Y024244D01*
X046124Y024331D01*
X045992Y024386D01*
X04585Y024404D01*
D02*
G37*
G36*
X04035D02*
X040208Y024386D01*
X040076Y024331D01*
X039962Y024244D01*
X039875Y02413D01*
X03982Y023998D01*
X039802Y023856D01*
X03982Y023714D01*
X039875Y023582D01*
X039962Y023468D01*
X040076Y023381D01*
X040208Y023326D01*
X04035Y023308D01*
X040492Y023326D01*
X040624Y023381D01*
X040738Y023468D01*
X040825Y023582D01*
X04088Y023714D01*
X040898Y023856D01*
X04088Y023998D01*
X040825Y02413D01*
X040738Y024244D01*
X040624Y024331D01*
X040492Y024386D01*
X04035Y024404D01*
D02*
G37*
G36*
X0346D02*
X034458Y024386D01*
X034326Y024331D01*
X034212Y024244D01*
X034125Y02413D01*
X03407Y023998D01*
X034052Y023856D01*
X03407Y023714D01*
X034125Y023582D01*
X034212Y023468D01*
X034326Y023381D01*
X034458Y023326D01*
X0346Y023308D01*
X034742Y023326D01*
X034874Y023381D01*
X034988Y023468D01*
X035075Y023582D01*
X03513Y023714D01*
X035148Y023856D01*
X03513Y023998D01*
X035075Y02413D01*
X034988Y024244D01*
X034874Y024331D01*
X034742Y024386D01*
X0346Y024404D01*
D02*
G37*
G36*
X02103Y023449D02*
X020914Y023434D01*
X020805Y023389D01*
X020712Y023318D01*
X020641Y023225D01*
X020596Y023116D01*
X020581Y023D01*
X020596Y022884D01*
X020641Y022775D01*
X020712Y022682D01*
X020805Y022611D01*
X020914Y022566D01*
X02103Y022551D01*
X021146Y022566D01*
X021255Y022611D01*
X021348Y022682D01*
X021419Y022775D01*
X021464Y022884D01*
X021479Y023D01*
X021464Y023116D01*
X021419Y023225D01*
X021348Y023318D01*
X021255Y023389D01*
X021146Y023434D01*
X02103Y023449D01*
D02*
G37*
G36*
X042172Y021591D02*
Y02115D01*
X042613D01*
X042603Y021229D01*
X042553Y021349D01*
X042474Y021452D01*
X042371Y021531D01*
X042251Y021581D01*
X042172Y021591D01*
D02*
G37*
G36*
X036422D02*
Y02115D01*
X036863D01*
X036853Y021229D01*
X036803Y021349D01*
X036724Y021452D01*
X036621Y021531D01*
X036501Y021581D01*
X036422Y021591D01*
D02*
G37*
G36*
X047672D02*
Y02115D01*
X048113D01*
X048103Y021229D01*
X048053Y021349D01*
X047974Y021452D01*
X047871Y021531D01*
X047751Y021581D01*
X047672Y021591D01*
D02*
G37*
G36*
X042072D02*
X041993Y021581D01*
X041873Y021531D01*
X04177Y021452D01*
X04169Y021349D01*
X041641Y021229D01*
X04163Y02115D01*
X042072D01*
Y021591D01*
D02*
G37*
G36*
X036322D02*
X036243Y021581D01*
X036123Y021531D01*
X03602Y021452D01*
X03594Y021349D01*
X035891Y021229D01*
X03588Y02115D01*
X036322D01*
Y021591D01*
D02*
G37*
G36*
X047572D02*
X047493Y021581D01*
X047373Y021531D01*
X04727Y021452D01*
X04719Y021349D01*
X047141Y021229D01*
X04713Y02115D01*
X047572D01*
Y021591D01*
D02*
G37*
G36*
X02098Y021392D02*
X020927Y021385D01*
X020831Y021345D01*
X020748Y021282D01*
X020685Y021199D01*
X020645Y021103D01*
X020638Y02105D01*
X02098D01*
Y021392D01*
D02*
G37*
G36*
X048113Y02105D02*
X047672D01*
Y020609D01*
X047751Y020619D01*
X047871Y020669D01*
X047974Y020748D01*
X048053Y020851D01*
X048103Y020971D01*
X048113Y02105D01*
D02*
G37*
G36*
X042613D02*
X042172D01*
Y020609D01*
X042251Y020619D01*
X042371Y020669D01*
X042474Y020748D01*
X042553Y020851D01*
X042603Y020971D01*
X042613Y02105D01*
D02*
G37*
G36*
X036863D02*
X036422D01*
Y020609D01*
X036501Y020619D01*
X036621Y020669D01*
X036724Y020748D01*
X036803Y020851D01*
X036853Y020971D01*
X036863Y02105D01*
D02*
G37*
G36*
X047572D02*
X04713D01*
X047141Y020971D01*
X04719Y020851D01*
X04727Y020748D01*
X047373Y020669D01*
X047493Y020619D01*
X047572Y020609D01*
Y02105D01*
D02*
G37*
G36*
X042072D02*
X04163D01*
X041641Y020971D01*
X04169Y020851D01*
X04177Y020748D01*
X041873Y020669D01*
X041993Y020619D01*
X042072Y020609D01*
Y02105D01*
D02*
G37*
G36*
X036322D02*
X03588D01*
X035891Y020971D01*
X03594Y020851D01*
X03602Y020748D01*
X036123Y020669D01*
X036243Y020619D01*
X036322Y020609D01*
Y02105D01*
D02*
G37*
G36*
X021422Y02095D02*
X02108D01*
Y020608D01*
X021133Y020615D01*
X021229Y020655D01*
X021312Y020718D01*
X021375Y020801D01*
X021415Y020897D01*
X021422Y02095D01*
D02*
G37*
G36*
X02098D02*
X020638D01*
X020645Y020897D01*
X020685Y020801D01*
X020748Y020718D01*
X020831Y020655D01*
X020927Y020615D01*
X02098Y020608D01*
Y02095D01*
D02*
G37*
G36*
X04585Y021648D02*
X045708Y02163D01*
X045576Y021575D01*
X045462Y021488D01*
X045375Y021374D01*
X04532Y021242D01*
X045302Y0211D01*
X04532Y020958D01*
X045375Y020826D01*
X045462Y020712D01*
X045576Y020625D01*
X045708Y02057D01*
X04585Y020552D01*
X045992Y02057D01*
X046124Y020625D01*
X046238Y020712D01*
X046325Y020826D01*
X04638Y020958D01*
X046398Y0211D01*
X04638Y021242D01*
X046325Y021374D01*
X046238Y021488D01*
X046124Y021575D01*
X045992Y02163D01*
X04585Y021648D01*
D02*
G37*
G36*
X04035D02*
X040208Y02163D01*
X040076Y021575D01*
X039962Y021488D01*
X039875Y021374D01*
X03982Y021242D01*
X039802Y0211D01*
X03982Y020958D01*
X039875Y020826D01*
X039962Y020712D01*
X040076Y020625D01*
X040208Y02057D01*
X04035Y020552D01*
X040492Y02057D01*
X040624Y020625D01*
X040738Y020712D01*
X040825Y020826D01*
X04088Y020958D01*
X040898Y0211D01*
X04088Y021242D01*
X040825Y021374D01*
X040738Y021488D01*
X040624Y021575D01*
X040492Y02163D01*
X04035Y021648D01*
D02*
G37*
G36*
X0346D02*
X034458Y02163D01*
X034326Y021575D01*
X034212Y021488D01*
X034125Y021374D01*
X03407Y021242D01*
X034052Y0211D01*
X03407Y020958D01*
X034125Y020826D01*
X034212Y020712D01*
X034326Y020625D01*
X034458Y02057D01*
X0346Y020552D01*
X034742Y02057D01*
X034874Y020625D01*
X034988Y020712D01*
X035075Y020826D01*
X03513Y020958D01*
X035148Y0211D01*
X03513Y021242D01*
X035075Y021374D01*
X034988Y021488D01*
X034874Y021575D01*
X034742Y02163D01*
X0346Y021648D01*
D02*
G37*
G36*
X0203Y017354D02*
X017459D01*
X017431Y017348D01*
X0174Y017353D01*
X017322Y017342D01*
X017249Y017312D01*
X017186Y017264D01*
X017138Y017201D01*
X017108Y017128D01*
X017097Y01705D01*
X017108Y016972D01*
X017138Y016899D01*
X017186Y016836D01*
X017249Y016788D01*
X017322Y016758D01*
X0174Y016747D01*
X017478Y016758D01*
X017551Y016788D01*
X017614Y016836D01*
X017662Y016899D01*
X017682Y016946D01*
X018349D01*
X018372Y016896D01*
X018338Y016851D01*
X018308Y016778D01*
X018297Y0167D01*
X018308Y016622D01*
X018338Y016549D01*
X018386Y016486D01*
X018449Y016438D01*
X018522Y016408D01*
X0186Y016397D01*
X018678Y016408D01*
X018751Y016438D01*
X018814Y016486D01*
X018862Y016549D01*
X018892Y016622D01*
X018903Y0167D01*
X018892Y016778D01*
X018862Y016851D01*
X018828Y016896D01*
X018851Y016946D01*
X020216D01*
X02082Y016342D01*
X020793Y016298D01*
X020684Y016284D01*
X020575Y016239D01*
X020482Y016168D01*
X020411Y016075D01*
X020366Y015966D01*
X020351Y01585D01*
X020366Y015734D01*
X020411Y015625D01*
X020482Y015532D01*
X020575Y015461D01*
X020684Y015416D01*
X0208Y015401D01*
X020916Y015416D01*
X021025Y015461D01*
X021118Y015532D01*
X021189Y015625D01*
X021234Y015734D01*
X021249Y01585D01*
X021246Y015872D01*
X021292Y015904D01*
X021355Y015891D01*
Y015693D01*
X020937Y015275D01*
X020916Y015284D01*
X0208Y015299D01*
X020684Y015284D01*
X020575Y015239D01*
X020482Y015168D01*
X020411Y015075D01*
X020366Y014966D01*
X020351Y01485D01*
X020366Y014734D01*
X020411Y014625D01*
X020482Y014532D01*
X020575Y014461D01*
X020684Y014416D01*
X0208Y014401D01*
X020916Y014416D01*
X021025Y014461D01*
X021118Y014532D01*
X021189Y014625D01*
X021234Y014734D01*
X021249Y01485D01*
X021234Y014966D01*
X021225Y014987D01*
X021643Y015405D01*
X022245D01*
Y016295D01*
X021574D01*
X021555Y016299D01*
X021439D01*
X020444Y017294D01*
X020378Y017338D01*
X0203Y017354D01*
D02*
G37*
G36*
X01985Y016242D02*
Y0159D01*
X020192D01*
X020185Y015953D01*
X020145Y016049D01*
X020082Y016132D01*
X019999Y016195D01*
X019903Y016235D01*
X01985Y016242D01*
D02*
G37*
G36*
X01975D02*
X019697Y016235D01*
X019601Y016195D01*
X019518Y016132D01*
X019455Y016049D01*
X019415Y015953D01*
X019408Y0159D01*
X01975D01*
Y016242D01*
D02*
G37*
G36*
X036856Y017078D02*
X035868D01*
X035809Y017066D01*
X035791Y017059D01*
X035741Y017026D01*
X035727Y017012D01*
X035727Y017012D01*
X035727Y017012D01*
X03571Y016987D01*
X035694Y016962D01*
X035694Y016962D01*
X035694Y016962D01*
X035686Y016944D01*
X035674Y016885D01*
Y016565D01*
X035686Y016507D01*
X035694Y016488D01*
X035694Y016488D01*
X035694Y016488D01*
X03571Y016463D01*
X035727Y016438D01*
X035727Y016438D01*
X035727Y016438D01*
X035741Y016424D01*
X035741Y016424D01*
X035741Y016424D01*
X035766Y016408D01*
X035791Y016391D01*
X035791Y016391D01*
X035791Y016391D01*
X035809Y016384D01*
X035868Y016372D01*
X036343D01*
Y01589D01*
X036355Y015832D01*
X036363Y015813D01*
X036363Y015813D01*
X036363Y015813D01*
X036379Y015788D01*
X036396Y015763D01*
X036396Y015763D01*
X036396Y015763D01*
X03641Y015749D01*
X03641Y015749D01*
X03641Y015749D01*
X036434Y015733D01*
X036459Y015716D01*
X036459Y015716D01*
X036459Y015716D01*
X036478Y015709D01*
X036536Y015697D01*
X036856D01*
X036915Y015709D01*
X036933Y015716D01*
X036933Y015716D01*
X036933Y015716D01*
X036958Y015733D01*
X036983Y015749D01*
X036983Y015749D01*
X036983Y015749D01*
X036997Y015763D01*
X03703Y015813D01*
X037038Y015831D01*
X037049Y01589D01*
Y016885D01*
X037038Y016944D01*
X03703Y016962D01*
X036997Y017012D01*
X036983Y017026D01*
X036933Y017059D01*
X036915Y017066D01*
X036856Y017078D01*
D02*
G37*
G36*
X03516Y017053D02*
X03419D01*
X034132Y017041D01*
X034113Y017034D01*
X034063Y017001D01*
X034049Y016987D01*
X034049Y016987D01*
X034049Y016987D01*
X034033Y016962D01*
X034016Y016937D01*
X034016Y016937D01*
X034016Y016937D01*
X034009Y016918D01*
X033997Y01686D01*
Y01589D01*
X034009Y015832D01*
X034016Y015813D01*
X034016Y015813D01*
X034016Y015813D01*
X034033Y015788D01*
X034049Y015763D01*
X034049Y015763D01*
X034049Y015763D01*
X034063Y015749D01*
X034063Y015749D01*
X034063Y015749D01*
X034088Y015733D01*
X034113Y015716D01*
X034113Y015716D01*
X034113Y015716D01*
X034132Y015709D01*
X03419Y015697D01*
X03451D01*
X034569Y015709D01*
X034587Y015716D01*
X034587Y015716D01*
X034587Y015716D01*
X034612Y015733D01*
X034637Y015749D01*
X034637Y015749D01*
X034637Y015749D01*
X034651Y015763D01*
X034684Y015813D01*
X034691Y015831D01*
X034703Y01589D01*
Y016347D01*
X03516D01*
X035219Y016359D01*
X035237Y016366D01*
X035237Y016366D01*
X035237Y016366D01*
X035262Y016383D01*
X035287Y016399D01*
X035287Y016399D01*
X035287Y016399D01*
X035301Y016413D01*
X035334Y016463D01*
X035341Y016481D01*
X035353Y01654D01*
Y01686D01*
X035341Y016918D01*
X035334Y016937D01*
X035301Y016987D01*
X035287Y017001D01*
X035237Y017034D01*
X035219Y017041D01*
X03516Y017053D01*
D02*
G37*
G36*
X020192Y0158D02*
X01985D01*
Y015458D01*
X019903Y015465D01*
X019999Y015505D01*
X020082Y015568D01*
X020145Y015651D01*
X020185Y015747D01*
X020192Y0158D01*
D02*
G37*
G36*
X01975D02*
X019408D01*
X019415Y015747D01*
X019455Y015651D01*
X019518Y015568D01*
X019601Y015505D01*
X019697Y015465D01*
X01975Y015458D01*
Y0158D01*
D02*
G37*
G36*
X0309Y018813D02*
X030819Y018802D01*
X030744Y018771D01*
X030679Y018721D01*
X030629Y018656D01*
X030598Y018581D01*
X030587Y0185D01*
X030598Y018419D01*
X030623Y01836D01*
Y017515D01*
X030404Y017296D01*
X03036Y017239D01*
X030332Y017172D01*
X030323Y0171D01*
Y01549D01*
X030298Y015431D01*
X030287Y01535D01*
X030298Y015269D01*
X030329Y015194D01*
X030379Y015129D01*
X030444Y015079D01*
X030519Y015048D01*
X0306Y015037D01*
X030681Y015048D01*
X030756Y015079D01*
X030821Y015129D01*
X030871Y015194D01*
X030902Y015269D01*
X030913Y01535D01*
X030902Y015431D01*
X030877Y01549D01*
Y016985D01*
X031096Y017204D01*
X03114Y017261D01*
X031168Y017328D01*
X031177Y0174D01*
Y01836D01*
X031202Y018419D01*
X031213Y0185D01*
X031202Y018581D01*
X031171Y018656D01*
X031121Y018721D01*
X031056Y018771D01*
X030981Y018802D01*
X0309Y018813D01*
D02*
G37*
G36*
X01985Y015242D02*
Y0149D01*
X020192D01*
X020185Y014953D01*
X020145Y015049D01*
X020082Y015132D01*
X019999Y015195D01*
X019903Y015235D01*
X01985Y015242D01*
D02*
G37*
G36*
X01975D02*
X019697Y015235D01*
X019601Y015195D01*
X019518Y015132D01*
X019455Y015049D01*
X019415Y014953D01*
X019408Y0149D01*
X01975D01*
Y015242D01*
D02*
G37*
G36*
X020192Y0148D02*
X01985D01*
Y014458D01*
X019903Y014465D01*
X019999Y014505D01*
X020082Y014568D01*
X020145Y014651D01*
X020185Y014747D01*
X020192Y0148D01*
D02*
G37*
G36*
X01975D02*
X019408D01*
X019415Y014747D01*
X019455Y014651D01*
X019518Y014568D01*
X019601Y014505D01*
X019697Y014465D01*
X01975Y014458D01*
Y0148D01*
D02*
G37*
G36*
X0218Y015299D02*
X021684Y015284D01*
X021575Y015239D01*
X021482Y015168D01*
X021411Y015075D01*
X021366Y014966D01*
X021351Y01485D01*
X021366Y014734D01*
X021411Y014625D01*
X021482Y014532D01*
X021575Y014461D01*
X021684Y014416D01*
X0218Y014401D01*
X021916Y014416D01*
X022025Y014461D01*
X022118Y014532D01*
X022189Y014625D01*
X022234Y014734D01*
X022249Y01485D01*
X022234Y014966D01*
X022189Y015075D01*
X022118Y015168D01*
X022025Y015239D01*
X021916Y015284D01*
X0218Y015299D01*
D02*
G37*
%LPD*%
G36*
X026561Y032842D02*
Y030903D01*
X026511Y030878D01*
X026454Y030922D01*
X02635Y030965D01*
X026239Y030979D01*
X026128Y030965D01*
X026025Y030922D01*
X025968Y030878D01*
X025918Y030903D01*
Y032255D01*
X026494Y032832D01*
X026511Y032857D01*
X026561Y032842D01*
D02*
G37*
G36*
X036653Y02539D02*
X036665Y025332D01*
X03672Y02525D01*
X036726Y025245D01*
X036712Y025198D01*
X035541D01*
X035289Y02545D01*
X035308Y025496D01*
X036547D01*
X036653Y02539D01*
D02*
G37*
G36*
X019364Y035509D02*
X019458Y035437D01*
X019481Y035428D01*
Y034915D01*
X019496Y034837D01*
X019541Y034771D01*
X022496Y031816D01*
Y031744D01*
X022446Y031739D01*
X022438Y031778D01*
X022394Y031844D01*
X022394Y031844D01*
X019101Y035137D01*
Y035428D01*
X019124Y035437D01*
X019218Y035509D01*
X01926Y035563D01*
X019323D01*
X019364Y035509D01*
D02*
G37*
D12*
X02641Y033036D02*
Y037249D01*
X02635Y037309D02*
X02641Y037249D01*
X02635Y037309D02*
Y04155D01*
X0249Y026115D02*
Y032D01*
X02615Y03325D01*
X025714Y03234D02*
X02641Y033036D01*
X02455Y03225D02*
X0259Y0336D01*
X02455Y02575D02*
Y03225D01*
X0259Y0336D02*
X026D01*
X02455Y02575D02*
X02475Y02555D01*
X0278Y0266D02*
X03125D01*
X03275Y03375D02*
X0399D01*
X02765Y02865D02*
X03275Y03375D01*
X0329Y03335D02*
X0393D01*
X0279Y02835D02*
X0329Y03335D01*
X025714Y024601D02*
Y03234D01*
X026815Y0236D02*
X0277D01*
X025714Y024601D02*
X026724Y023591D01*
X02635Y025731D02*
Y026327D01*
X036887Y025444D02*
X0369D01*
X02015Y02392D02*
Y02395D01*
Y01988D02*
Y02392D01*
X0208Y01485D02*
X0218Y01585D01*
X0318Y02715D02*
X0319D01*
X03515Y0257D02*
X036631D01*
X036887Y025444D01*
X037812Y024994D02*
X037822Y025003D01*
X035456Y024994D02*
X037812D01*
X0347Y02575D02*
X035456Y024994D01*
X0276Y02575D02*
X0347D01*
X0273Y02545D02*
X032D01*
X0323Y02515D01*
X021555Y016095D02*
X0218Y01585D01*
X021355Y016095D02*
X021555D01*
X0203Y01715D02*
X021355Y016095D01*
X017459Y01715D02*
X0203D01*
X0174Y01705D02*
Y017091D01*
X017459Y01715D01*
X02905Y01815D02*
X02975Y01745D01*
X018897Y035053D02*
Y03583D01*
X02395Y0186D02*
X02995D01*
X0302Y01835D01*
X02695Y0264D02*
X0276Y02575D01*
X0268Y02595D02*
X0273Y02545D01*
X026724Y023591D02*
X026806D01*
X026815Y0236D01*
X026765Y029632D02*
Y041895D01*
X02645Y04221D02*
X026765Y041895D01*
X019685Y034915D02*
Y03583D01*
X02665Y0268D02*
X02705D01*
X03475Y0261D02*
X03515Y0257D01*
X02705Y0268D02*
X02775Y0261D01*
X03475D01*
X03125Y0266D02*
X0318Y02715D01*
X026431Y042191D02*
X02645Y04221D01*
X0263Y029167D02*
X026765Y029632D01*
X0263Y026377D02*
X02635Y026327D01*
X0263Y026377D02*
Y029167D01*
X0393Y03335D02*
X04Y03265D01*
X0399Y03375D02*
X041Y03265D01*
X02015Y01988D02*
X02103Y019D01*
X0238Y01815D02*
X02905D01*
X02225Y0197D02*
X0238Y01815D01*
X02225Y0197D02*
Y0317D01*
X018897Y035053D02*
X02225Y0317D01*
X0227Y01985D02*
X02395Y0186D01*
X0227Y01985D02*
Y0319D01*
X019685Y034915D02*
X0227Y0319D01*
D62*
X02005Y040229D02*
Y041229D01*
D64*
X0232Y02385D02*
Y02745D01*
Y036079D01*
X0163Y04398D02*
X01905Y041229D01*
X0163Y04398D02*
Y04435D01*
X01905Y040229D02*
Y041229D01*
X01465Y046D02*
X0163Y04435D01*
X01465Y04755D02*
X0147Y0476D01*
X01465Y046D02*
Y04755D01*
X0231Y047D02*
Y048032D01*
X02365Y048582D01*
Y0486D01*
X02405Y023D02*
X0286D01*
X028619D01*
X0238Y02325D02*
X02405Y023D01*
X045056Y030844D02*
X0469Y029D01*
X043Y03205D02*
Y03265D01*
Y03205D02*
X044206Y030844D01*
X045056D01*
X042Y03265D02*
X043D01*
X0232Y02385D02*
X0238Y02325D01*
X01905Y040229D02*
X0232Y036079D01*
X02395Y0266D02*
Y028D01*
X0218Y017D02*
Y02123D01*
X02103Y022D02*
X0218Y02123D01*
X028619Y023D02*
X029169Y02355D01*
X0305D01*
X0309Y02315D01*
Y0174D02*
Y0185D01*
X0306Y0171D02*
X0309Y0174D01*
X0306Y01535D02*
Y0171D01*
D66*
X015Y04221D02*
D03*
X0126Y0422D02*
D03*
D67*
X01381Y04023D02*
D03*
D68*
X019685Y027956D02*
D03*
X018897D02*
D03*
X01811D02*
D03*
X017323D02*
D03*
X016535D02*
D03*
X015748D02*
D03*
X01496D02*
D03*
X014173D02*
D03*
X013386D02*
D03*
X019685Y028744D02*
D03*
X018897D02*
D03*
X01811D02*
D03*
X017323D02*
D03*
X016535D02*
D03*
X015748D02*
D03*
X01496D02*
D03*
X014173D02*
D03*
X013386D02*
D03*
Y036618D02*
D03*
X014173D02*
D03*
X01496D02*
D03*
X015748D02*
D03*
X016535D02*
D03*
X017323D02*
D03*
X01811D02*
D03*
X018897D02*
D03*
X019685D02*
D03*
X013386Y03583D02*
D03*
X014173D02*
D03*
X01496D02*
D03*
X015748D02*
D03*
X016535D02*
D03*
X017323D02*
D03*
X01811D02*
D03*
X018897D02*
D03*
X019685D02*
D03*
D69*
X02103Y023D02*
D03*
Y022D02*
D03*
Y021D02*
D03*
Y02D02*
D03*
Y019D02*
D03*
X0198Y01485D02*
D03*
Y01585D02*
D03*
X0208Y01485D02*
D03*
Y01585D02*
D03*
X0218Y01485D02*
D03*
X025017Y046686D02*
D03*
Y045899D02*
D03*
X02423D02*
D03*
X025804D02*
D03*
X02423Y046686D02*
D03*
X025804D02*
D03*
X026592D02*
D03*
Y045899D02*
D03*
X027379D02*
D03*
Y046686D02*
D03*
X02105Y041229D02*
D03*
Y040229D02*
D03*
X02005Y041229D02*
D03*
Y040229D02*
D03*
X01905Y041229D02*
D03*
X02785Y04205D02*
D03*
X044Y03265D02*
D03*
X043D02*
D03*
X042D02*
D03*
X041D02*
D03*
X04D02*
D03*
X039D02*
D03*
X038D02*
D03*
D70*
X02103Y018D02*
D03*
X027855Y03905D02*
D03*
D71*
X02975Y045174D02*
D03*
Y048501D02*
D03*
X035328Y029206D02*
D03*
X0371Y02645D02*
D03*
X035328D02*
D03*
X0371Y029206D02*
D03*
X04585Y023856D02*
D03*
X047622Y0211D02*
D03*
X04585D02*
D03*
X047622Y023856D02*
D03*
X0346D02*
D03*
X036372Y0211D02*
D03*
X0346D02*
D03*
X036372Y023856D02*
D03*
X04035D02*
D03*
X042122Y0211D02*
D03*
X04035D02*
D03*
X042122Y023856D02*
D03*
D72*
X0436Y043812D02*
D03*
X03415Y03655D02*
D03*
D73*
X0436Y035812D02*
D03*
X03415Y04455D02*
D03*
D74*
X0218Y01585D02*
D03*
X01905Y040229D02*
D03*
X037Y03265D02*
D03*
D75*
X04735Y0153D02*
D03*
Y04455D02*
D03*
X01155Y0153D02*
D03*
X03385Y03205D02*
D03*
X0471D02*
D03*
Y04795D02*
D03*
X03385D02*
D03*
X01155D02*
D03*
D76*
X0479Y027D02*
D03*
X0469Y029D02*
D03*
X0459D02*
D03*
X0479D02*
D03*
X0469Y027D02*
D03*
X0459D02*
D03*
D77*
X028161Y03055D02*
D03*
X026239D02*
D03*
D78*
X0232Y02745D02*
D03*
X02615Y03325D02*
D03*
X0277Y023615D02*
D03*
X0247Y025565D02*
D03*
X02485Y026115D02*
D03*
X0278Y0266D02*
D03*
X0279Y02835D02*
D03*
X02765Y02865D02*
D03*
X037822Y025003D02*
D03*
X0323Y02515D02*
D03*
X0369Y02543D02*
D03*
X0319Y02715D02*
D03*
X02015Y02392D02*
D03*
X0269Y026415D02*
D03*
X02675Y025965D02*
D03*
X02635Y04155D02*
D03*
X02645Y04221D02*
D03*
X0266Y026815D02*
D03*
X0263Y025747D02*
D03*
X026Y0336D02*
D03*
D79*
X01079Y04217D02*
D03*
D80*
X02355Y0387D02*
D03*
X02435D02*
D03*
X02355Y038D02*
D03*
X02435D02*
D03*
X0399Y02835D02*
D03*
X0407D02*
D03*
X0399Y02765D02*
D03*
X0407D02*
D03*
X04065Y0179D02*
D03*
X04145D02*
D03*
X04065Y0172D02*
D03*
X04145D02*
D03*
X0274Y016178D02*
D03*
X0282D02*
D03*
X0274Y015479D02*
D03*
X0282D02*
D03*
X01735Y02165D02*
D03*
X01655D02*
D03*
X01735Y02235D02*
D03*
X01655D02*
D03*
X0147Y0476D02*
D03*
X0163Y04435D02*
D03*
X0231Y047D02*
D03*
X02365Y0486D02*
D03*
D81*
X0186Y0167D02*
D03*
X0174Y01705D02*
D03*
X02975Y01745D02*
D03*
X0302Y01835D02*
D03*
X02395Y028D02*
D03*
X0239Y02645D02*
D03*
D82*
X0286Y023D02*
D03*
X0238Y02325D02*
D03*
X0218Y017D02*
D03*
X0309Y02315D02*
D03*
Y0185D02*
D03*
X0306Y01535D02*
D03*
M02*
