G04*
G04 #@! TF.GenerationSoftware,Altium Limited,Altium Designer,19.0.15 (446)*
G04*
G04 Layer_Color=32896*
%FSTAX24Y24*%
%MOIN*%
G70*
G01*
G75*
%ADD12C,0.0100*%
%ADD15C,0.0079*%
%ADD17C,0.0070*%
D12*
X0289Y047094D02*
Y0467D01*
X028703D01*
X028638Y046766D01*
Y047028D01*
X028703Y047094D01*
X0289D01*
X028244Y0467D02*
X028506D01*
X028244Y046962D01*
Y047028D01*
X02831Y047094D01*
X028441D01*
X028506Y047028D01*
X04016Y046526D02*
Y046132D01*
X039963D01*
X039898Y046198D01*
Y046264D01*
X039963Y046329D01*
X04016D01*
X039963D01*
X039898Y046395D01*
Y04646D01*
X039963Y046526D01*
X04016D01*
X039766D02*
X039504D01*
X039635D01*
Y046132D01*
X03911D02*
X039373D01*
X03911Y046395D01*
Y04646D01*
X039176Y046526D01*
X039307D01*
X039373Y04646D01*
X0371Y040244D02*
Y03985D01*
X036903D01*
X036838Y039916D01*
Y039981D01*
X036903Y040047D01*
X0371D01*
X036903D01*
X036838Y040112D01*
Y040178D01*
X036903Y040244D01*
X0371D01*
X036706D02*
X036444D01*
X036575D01*
Y03985D01*
X036313D02*
X036182D01*
X036247D01*
Y040244D01*
X036313Y040178D01*
D15*
X029154Y04778D02*
X030339D01*
X029154Y045873D02*
Y04778D01*
Y045873D02*
X030339D01*
Y04778D01*
D17*
X045161Y036089D02*
G03*
X04203Y036092I-001561J004274D01*
G01*
X032589Y044274D02*
G03*
X03572Y044271I001561J-004274D01*
G01*
X04236Y035682D02*
X04297D01*
X04236Y035152D02*
Y035682D01*
Y035152D02*
X04481D01*
Y035672D01*
X04419D02*
X04481D01*
X04515Y034812D02*
Y036076D01*
X04205Y034812D02*
X04515D01*
X04205D02*
Y036092D01*
X03478Y04468D02*
X03539D01*
Y04521D01*
X03294D02*
X03539D01*
X03294Y04469D02*
Y04521D01*
Y04469D02*
X03356D01*
X0326Y044287D02*
Y04555D01*
X0357D01*
Y044271D02*
Y04555D01*
M02*
