M48
;Layer_Color=9474304
;FILE_FORMAT=2:4
INCH,LZ
;TYPE=PLATED
T1F00S00C0.0120
T2F00S00C0.0200
T3F00S00C0.0276
T4F00S00C0.0280
T5F00S00C0.0315
T6F00S00C0.0354
T7F00S00C0.0394
T8F00S00C0.0450
T10F00S00C0.0945
T11F00S00C0.1181
%
T01
X0323Y02515
X0319Y02715
X0369Y02543
X037822Y025003
X0277Y023615
X0278Y0266
X0269Y026415
X02675Y025965
X0263Y025747
X0266Y026815
X02485Y026115
X0247Y025565
X0232Y02745
X0279Y02835
X02765Y02865
X02015Y02392
X02615Y03325
X026Y0336
X02635Y04155
X02645Y04221
T02
X0306Y01535
X02975Y01745
X0302Y01835
X0309Y0185
Y02315
X0286Y023
X0238Y02325
X0239Y02645
X02395Y028
X0218Y017
X0186Y0167
X0174Y01705
T03
X026239Y03055
X028161
T04
X0274Y015479
X0282
X04065Y0172
Y0179
X04145
Y0172
X0407Y02765
Y02835
X0399
Y02765
X0282Y016178
X0274
X01735Y02165
Y02235
X01655
Y02165
X0163Y04435
X02355Y0387
Y038
X02435
Y0387
X0231Y047
X02365Y0486
X0147Y0476
T05
X015748Y027956
X016535
X017323
X01811
X018897
X019685
Y028744
X018897
X01811
X017323
X016535
X015748
X01496
X014173
Y027956
X01496
X013386
Y028744
Y03583
Y036618
X014173
X01496
Y03583
X014173
X015748
Y036618
X016535
Y03583
X017323
Y036618
X01811
Y03583
X018897
Y036618
X019685
Y03583
X027855Y03905
X02785Y04205
X027379Y045899
X026592
X025804
X025017
Y046686
X02423
Y045899
X025804Y046686
X026592
X027379
T06
X0198Y01485
X0208
X0218
Y01585
X0208
X0198
X02103Y018
Y019
Y02
Y021
Y022
Y023
X02105Y040229
Y041229
X02005
Y040229
X01905
Y041229
X037Y03265
X038
X039
X04
X041
X042
X043
X044
T07
X047622Y0211
Y023856
X0479Y027
X0469
Y029
X0479
X0459
Y027
X04585Y023856
Y0211
X042122
X04035
Y023856
X042122
X036372
X0346
Y0211
X036372
X0371Y02645
X035328
Y029206
X0371
X02975Y045174
Y048501
T08
X03415Y03655
Y04455
X0436Y043812
Y035812
T10
X01079Y04217
T11
X01155Y0153
X04735
X03385Y03205
X0471
X04735Y04455
X0471Y04795
X03385
X01155
M30
