G04*
G04 #@! TF.GenerationSoftware,Altium Limited,Altium Designer,19.0.15 (446)*
G04*
G04 Layer_Color=8388736*
%FSTAX24Y24*%
%MOIN*%
G70*
G01*
G75*
%ADD34R,0.0513X0.0630*%
%ADD35R,0.0630X0.0513*%
%ADD36R,0.0630X0.0474*%
%ADD37R,0.1379X0.0611*%
%ADD38R,0.0454X0.0611*%
%ADD39R,0.0580X0.0630*%
%ADD40R,0.0474X0.0630*%
%ADD41O,0.0769X0.0198*%
%ADD42O,0.0198X0.0769*%
%ADD43R,0.0118X0.0236*%
%ADD44R,0.1080X0.1680*%
%ADD45R,0.1680X0.1080*%
%ADD46C,0.0680*%
%ADD47C,0.0671*%
%ADD48R,0.0671X0.0671*%
%ADD49C,0.0867*%
%ADD50C,0.1080*%
%ADD51R,0.1080X0.1080*%
%ADD52R,0.0671X0.0671*%
%ADD53P,0.1791X8X22.5*%
%ADD54C,0.0749*%
%ADD55C,0.0631*%
%ADD56C,0.0280*%
%ADD57C,0.1025*%
%ADD58C,0.0580*%
%ADD59C,0.0380*%
%ADD60C,0.0400*%
G36*
X035766Y015492D02*
X035768Y015491D01*
X03577Y015489D01*
X035885Y015375D01*
X035886Y015373D01*
X035887Y015371D01*
X035887Y015368D01*
Y015093D01*
X035887Y01509D01*
X035886Y015088D01*
X035885Y015086D01*
X035883Y015084D01*
X03588Y015083D01*
X035878Y015083D01*
X035206D01*
X035204Y015083D01*
X035201Y015084D01*
X035199Y015086D01*
X035198Y015088D01*
X035197Y01509D01*
X035196Y015093D01*
Y015476D01*
X035197Y015479D01*
X035198Y015481D01*
X035199Y015483D01*
X035205Y015489D01*
X035207Y015491D01*
X03521Y015492D01*
X035212Y015492D01*
X035763D01*
X035766Y015492D01*
D02*
G37*
D34*
X025356Y02865D02*
D03*
X026144D02*
D03*
X013006Y04526D02*
D03*
X013794D02*
D03*
X013006Y046393D02*
D03*
X013794D02*
D03*
X028006Y0223D02*
D03*
X028794D02*
D03*
X02605Y0324D02*
D03*
X025263D02*
D03*
X028356D02*
D03*
X029144D02*
D03*
D35*
X03815Y015687D02*
D03*
Y0149D02*
D03*
X0338Y02639D02*
D03*
Y027178D02*
D03*
X04465Y02104D02*
D03*
Y021828D02*
D03*
X033459Y02104D02*
D03*
Y021828D02*
D03*
X03905Y02104D02*
D03*
Y021828D02*
D03*
X0195Y046944D02*
D03*
Y046156D02*
D03*
X02065D02*
D03*
Y046944D02*
D03*
X01835Y046156D02*
D03*
Y046944D02*
D03*
X0225Y046156D02*
D03*
Y046944D02*
D03*
X0302Y026794D02*
D03*
Y027582D02*
D03*
X0241Y024944D02*
D03*
Y024156D02*
D03*
D36*
X03145Y01485D02*
D03*
Y01575D02*
D03*
X0328Y01485D02*
D03*
Y01575D02*
D03*
X03255Y026344D02*
D03*
Y027244D02*
D03*
X04355Y020994D02*
D03*
Y021894D02*
D03*
X03235Y020994D02*
D03*
Y021894D02*
D03*
X0379Y020994D02*
D03*
Y021894D02*
D03*
D37*
X01595Y04773D02*
D03*
D38*
X016852Y04527D02*
D03*
X01595D02*
D03*
X015048D02*
D03*
D39*
X018654Y044714D02*
D03*
X019554D02*
D03*
D40*
X02135Y044695D02*
D03*
X02045D02*
D03*
X0283Y0369D02*
D03*
X0274D02*
D03*
D41*
X028759Y026987D02*
D03*
Y02679D02*
D03*
Y026593D02*
D03*
Y026396D02*
D03*
Y0262D02*
D03*
Y026003D02*
D03*
Y025806D02*
D03*
Y025609D02*
D03*
Y025412D02*
D03*
Y025215D02*
D03*
Y025018D02*
D03*
Y024822D02*
D03*
X02555D02*
D03*
Y025018D02*
D03*
Y025215D02*
D03*
Y025412D02*
D03*
Y025609D02*
D03*
Y025806D02*
D03*
Y026003D02*
D03*
Y0262D02*
D03*
Y026396D02*
D03*
Y026593D02*
D03*
Y02679D02*
D03*
Y026987D02*
D03*
D42*
X028237Y0243D02*
D03*
X028041D02*
D03*
X027844D02*
D03*
X027647D02*
D03*
X02745D02*
D03*
X027253D02*
D03*
X027056D02*
D03*
X026859D02*
D03*
X026663D02*
D03*
X026466D02*
D03*
X026269D02*
D03*
X026072D02*
D03*
Y027509D02*
D03*
X026269D02*
D03*
X026466D02*
D03*
X026663D02*
D03*
X026859D02*
D03*
X027056D02*
D03*
X027253D02*
D03*
X02745D02*
D03*
X027647D02*
D03*
X027844D02*
D03*
X028041D02*
D03*
X028237D02*
D03*
D43*
X03585Y01575D02*
D03*
X035653D02*
D03*
X035456D02*
D03*
X035259D02*
D03*
Y014813D02*
D03*
X035456D02*
D03*
X035653D02*
D03*
X03585D02*
D03*
D44*
X015Y04221D02*
D03*
X0126Y0422D02*
D03*
D45*
X01381Y04023D02*
D03*
D46*
X019685Y027956D02*
D03*
X018897D02*
D03*
X01811D02*
D03*
X017323D02*
D03*
X016535D02*
D03*
X015748D02*
D03*
X01496D02*
D03*
X014173D02*
D03*
X013386D02*
D03*
X019685Y028744D02*
D03*
X018897D02*
D03*
X01811D02*
D03*
X017323D02*
D03*
X016535D02*
D03*
X015748D02*
D03*
X01496D02*
D03*
X014173D02*
D03*
X013386D02*
D03*
Y036618D02*
D03*
X014173D02*
D03*
X01496D02*
D03*
X015748D02*
D03*
X016535D02*
D03*
X017323D02*
D03*
X01811D02*
D03*
X018897D02*
D03*
X019685D02*
D03*
X013386Y03583D02*
D03*
X014173D02*
D03*
X01496D02*
D03*
X015748D02*
D03*
X016535D02*
D03*
X017323D02*
D03*
X01811D02*
D03*
X018897D02*
D03*
X019685D02*
D03*
D47*
X02103Y023D02*
D03*
Y022D02*
D03*
Y021D02*
D03*
Y02D02*
D03*
Y019D02*
D03*
X0198Y01485D02*
D03*
Y01585D02*
D03*
X0208Y01485D02*
D03*
Y01585D02*
D03*
X0218Y01485D02*
D03*
X025017Y046686D02*
D03*
Y045899D02*
D03*
X02423D02*
D03*
X025804D02*
D03*
X02423Y046686D02*
D03*
X025804D02*
D03*
X026592D02*
D03*
Y045899D02*
D03*
X027379D02*
D03*
Y046686D02*
D03*
X02105Y041229D02*
D03*
Y040229D02*
D03*
X02005Y041229D02*
D03*
Y040229D02*
D03*
X01905Y041229D02*
D03*
X02785Y04205D02*
D03*
X044Y03265D02*
D03*
X043D02*
D03*
X042D02*
D03*
X041D02*
D03*
X04D02*
D03*
X039D02*
D03*
X038D02*
D03*
D48*
X02103Y018D02*
D03*
X027855Y03905D02*
D03*
D49*
X02975Y045174D02*
D03*
Y048501D02*
D03*
X035328Y029206D02*
D03*
X0371Y02645D02*
D03*
X035328D02*
D03*
X0371Y029206D02*
D03*
X04585Y023856D02*
D03*
X047622Y0211D02*
D03*
X04585D02*
D03*
X047622Y023856D02*
D03*
X0346D02*
D03*
X036372Y0211D02*
D03*
X0346D02*
D03*
X036372Y023856D02*
D03*
X04035D02*
D03*
X042122Y0211D02*
D03*
X04035D02*
D03*
X042122Y023856D02*
D03*
D50*
X0436Y043812D02*
D03*
X03415Y03655D02*
D03*
D51*
X0436Y035812D02*
D03*
X03415Y04455D02*
D03*
D52*
X0218Y01585D02*
D03*
X01905Y040229D02*
D03*
X037Y03265D02*
D03*
D53*
X04735Y0153D02*
D03*
Y04455D02*
D03*
X01155Y0153D02*
D03*
X03385Y03205D02*
D03*
X0471D02*
D03*
Y04795D02*
D03*
X03385D02*
D03*
X01155D02*
D03*
D54*
X0479Y027D02*
D03*
X0469Y029D02*
D03*
X0459D02*
D03*
X0479D02*
D03*
X0469Y027D02*
D03*
X0459D02*
D03*
D55*
X028161Y03055D02*
D03*
X026239D02*
D03*
D56*
X0232Y02745D02*
D03*
X02615Y03325D02*
D03*
X0277Y023615D02*
D03*
X0247Y025565D02*
D03*
X02485Y026115D02*
D03*
X0278Y0266D02*
D03*
X0279Y02835D02*
D03*
X02765Y02865D02*
D03*
X037822Y025003D02*
D03*
X0323Y02515D02*
D03*
X0369Y02543D02*
D03*
X0319Y02715D02*
D03*
X02015Y02392D02*
D03*
X0269Y026415D02*
D03*
X02675Y025965D02*
D03*
X02635Y04155D02*
D03*
X02645Y04221D02*
D03*
X0266Y026815D02*
D03*
X0263Y025747D02*
D03*
X026Y0336D02*
D03*
D57*
X01079Y04217D02*
D03*
D58*
X02355Y0387D02*
D03*
X02435D02*
D03*
X02355Y038D02*
D03*
X02435D02*
D03*
X0399Y02835D02*
D03*
X0407D02*
D03*
X0399Y02765D02*
D03*
X0407D02*
D03*
X04065Y0179D02*
D03*
X04145D02*
D03*
X04065Y0172D02*
D03*
X04145D02*
D03*
X0274Y016178D02*
D03*
X0282D02*
D03*
X0274Y015479D02*
D03*
X0282D02*
D03*
X01735Y02165D02*
D03*
X01655D02*
D03*
X01735Y02235D02*
D03*
X01655D02*
D03*
X0147Y0476D02*
D03*
X0163Y04435D02*
D03*
X0231Y047D02*
D03*
X02365Y0486D02*
D03*
D59*
X0186Y0167D02*
D03*
X0174Y01705D02*
D03*
X02975Y01745D02*
D03*
X0302Y01835D02*
D03*
X02395Y028D02*
D03*
X0239Y02645D02*
D03*
D60*
X0286Y023D02*
D03*
X0238Y02325D02*
D03*
X0218Y017D02*
D03*
X0309Y02315D02*
D03*
Y0185D02*
D03*
X0306Y01535D02*
D03*
M02*
