G04*
G04 #@! TF.GenerationSoftware,Altium Limited,Altium Designer,19.0.15 (446)*
G04*
G04 Layer_Color=32896*
%FSTAX24Y24*%
%MOIN*%
G70*
G01*
G75*
%ADD20C,0.0039*%
D20*
X029767Y046797D02*
X030161D01*
X029373D02*
X029767D01*
Y046404D02*
Y046797D01*
Y047191D01*
X025665Y046153D02*
X025804Y046293D01*
X025665Y046432D02*
X025804Y046293D01*
X025944Y046432D01*
X025804Y046293D02*
X025944Y046153D01*
X025608Y046686D02*
X025804D01*
Y046883D01*
Y046686D02*
X026001D01*
X025804Y046489D02*
Y046686D01*
X025608Y045899D02*
X025804D01*
Y046096D01*
Y045899D02*
X026001D01*
X025804Y045702D02*
Y045899D01*
X026395Y046686D02*
X026592D01*
Y046883D01*
Y046686D02*
X026789D01*
X026592Y046489D02*
Y046686D01*
X026395Y045899D02*
X026592D01*
Y046096D01*
Y045899D02*
X026789D01*
X026592Y045702D02*
Y045899D01*
X027182Y046686D02*
X027379D01*
Y046883D01*
Y046686D02*
X027576D01*
X027379Y046489D02*
Y046686D01*
X027182Y045899D02*
X027379D01*
Y046096D01*
Y045899D02*
X027576D01*
X027379Y045702D02*
Y045899D01*
X02482Y046686D02*
X025017D01*
Y046883D01*
Y046686D02*
X025214D01*
X025017Y046489D02*
Y046686D01*
X02482Y045899D02*
X025017D01*
Y046096D01*
Y045899D02*
X025214D01*
X025017Y045702D02*
Y045899D01*
X024033Y046686D02*
X02423D01*
Y046883D01*
Y046686D02*
X024426D01*
X02423Y046489D02*
Y046686D01*
X024033Y045899D02*
X02423D01*
Y046096D01*
Y045899D02*
X024426D01*
X02423Y045702D02*
Y045899D01*
X027003Y03055D02*
X0272D01*
Y030747D01*
Y03055D02*
X027397D01*
X0272Y030353D02*
Y03055D01*
X027964D02*
X028161D01*
Y030747D01*
Y03055D02*
X028358D01*
X028161Y030353D02*
Y03055D01*
X026043D02*
X026239D01*
Y030747D01*
Y03055D02*
X026436D01*
X026239Y030353D02*
Y03055D01*
M02*
