G04*
G04 #@! TF.GenerationSoftware,Altium Limited,Altium Designer,19.0.15 (446)*
G04*
G04 Layer_Color=8421504*
%FSTAX24Y24*%
%MOIN*%
G70*
G01*
G75*
%ADD24R,0.0433X0.0550*%
%ADD25R,0.0550X0.0433*%
%ADD26R,0.0550X0.0394*%
%ADD27R,0.1299X0.0531*%
%ADD28R,0.0374X0.0531*%
%ADD29R,0.0500X0.0550*%
%ADD30R,0.0394X0.0550*%
%ADD31O,0.0689X0.0118*%
%ADD32O,0.0118X0.0689*%
%ADD33R,0.0098X0.0217*%
D24*
X025356Y02865D02*
D03*
X026144D02*
D03*
X013006Y04526D02*
D03*
X013794D02*
D03*
X013006Y046393D02*
D03*
X013794D02*
D03*
X028006Y0223D02*
D03*
X028794D02*
D03*
X02605Y0324D02*
D03*
X025263D02*
D03*
X028356D02*
D03*
X029144D02*
D03*
D25*
X03815Y015687D02*
D03*
Y0149D02*
D03*
X0338Y02639D02*
D03*
Y027178D02*
D03*
X04465Y02104D02*
D03*
Y021828D02*
D03*
X033459Y02104D02*
D03*
Y021828D02*
D03*
X03905Y02104D02*
D03*
Y021828D02*
D03*
X0195Y046944D02*
D03*
Y046156D02*
D03*
X02065D02*
D03*
Y046944D02*
D03*
X01835Y046156D02*
D03*
Y046944D02*
D03*
X0225Y046156D02*
D03*
Y046944D02*
D03*
X0302Y026794D02*
D03*
Y027582D02*
D03*
X0241Y024944D02*
D03*
Y024156D02*
D03*
D26*
X03145Y01485D02*
D03*
Y01575D02*
D03*
X0328Y01485D02*
D03*
Y01575D02*
D03*
X03255Y026344D02*
D03*
Y027244D02*
D03*
X04355Y020994D02*
D03*
Y021894D02*
D03*
X03235Y020994D02*
D03*
Y021894D02*
D03*
X0379Y020994D02*
D03*
Y021894D02*
D03*
D27*
X01595Y04773D02*
D03*
D28*
X016852Y04527D02*
D03*
X01595D02*
D03*
X015048D02*
D03*
D29*
X018654Y044714D02*
D03*
X019554D02*
D03*
D30*
X02135Y044695D02*
D03*
X02045D02*
D03*
X0283Y0369D02*
D03*
X0274D02*
D03*
D31*
X028759Y026987D02*
D03*
Y02679D02*
D03*
Y026593D02*
D03*
Y026396D02*
D03*
Y0262D02*
D03*
Y026003D02*
D03*
Y025806D02*
D03*
Y025609D02*
D03*
Y025412D02*
D03*
Y025215D02*
D03*
Y025018D02*
D03*
Y024822D02*
D03*
X02555D02*
D03*
Y025018D02*
D03*
Y025215D02*
D03*
Y025412D02*
D03*
Y025609D02*
D03*
Y025806D02*
D03*
Y026003D02*
D03*
Y0262D02*
D03*
Y026396D02*
D03*
Y026593D02*
D03*
Y02679D02*
D03*
Y026987D02*
D03*
D32*
X028237Y0243D02*
D03*
X028041D02*
D03*
X027844D02*
D03*
X027647D02*
D03*
X02745D02*
D03*
X027253D02*
D03*
X027056D02*
D03*
X026859D02*
D03*
X026663D02*
D03*
X026466D02*
D03*
X026269D02*
D03*
X026072D02*
D03*
Y027509D02*
D03*
X026269D02*
D03*
X026466D02*
D03*
X026663D02*
D03*
X026859D02*
D03*
X027056D02*
D03*
X027253D02*
D03*
X02745D02*
D03*
X027647D02*
D03*
X027844D02*
D03*
X028041D02*
D03*
X028237D02*
D03*
D33*
X03585Y01575D02*
D03*
X035653D02*
D03*
X035456D02*
D03*
X035259D02*
D03*
Y014813D02*
D03*
X035456D02*
D03*
X035653D02*
D03*
X03585D02*
D03*
M02*
