G04*
G04 #@! TF.GenerationSoftware,Altium Limited,Altium Designer,19.0.15 (446)*
G04*
G04 Layer_Color=32768*
%FSTAX24Y24*%
%MOIN*%
G70*
G01*
G75*
%ADD20C,0.0039*%
G36*
X02578Y028732D02*
X025784Y028731D01*
X025788Y02873D01*
X025792Y028729D01*
X025797Y028728D01*
X025801Y028726D01*
X025802Y028725D01*
X025803Y028724D01*
X025805Y028723D01*
X025808Y028721D01*
X025811Y028718D01*
X025813Y028715D01*
X025816Y028712D01*
X025818Y028707D01*
X025819Y028707D01*
X025819Y028705D01*
X02582Y028703D01*
X025821Y028699D01*
X025822Y028694D01*
X025823Y028689D01*
X025823Y028682D01*
X025823Y028675D01*
Y028583D01*
X025785D01*
Y02865D01*
Y02865D01*
Y028651D01*
Y028653D01*
Y028655D01*
Y028657D01*
Y02866D01*
X025784Y028666D01*
X025784Y028673D01*
X025784Y028679D01*
X025784Y028681D01*
X025783Y028684D01*
X025783Y028686D01*
X025783Y028687D01*
Y028688D01*
X025782Y028689D01*
X025782Y02869D01*
X025781Y028691D01*
X02578Y028693D01*
X025779Y028695D01*
X025777Y028697D01*
X025775Y028698D01*
X025775Y028699D01*
X025774Y028699D01*
X025773Y0287D01*
X025771Y0287D01*
X025769Y028701D01*
X025766Y028702D01*
X025764Y028702D01*
X025761Y028702D01*
X025759D01*
X025757Y028702D01*
X025755Y028702D01*
X025752Y028701D01*
X025749Y0287D01*
X025746Y028699D01*
X025743Y028697D01*
X025743Y028697D01*
X025742Y028696D01*
X02574Y028695D01*
X025739Y028693D01*
X025737Y028691D01*
X025735Y028689D01*
X025733Y028687D01*
X025732Y028684D01*
Y028683D01*
X025732Y028682D01*
Y028681D01*
X025731Y028679D01*
X025731Y028678D01*
X025731Y028676D01*
X02573Y028673D01*
X02573Y028671D01*
X02573Y028667D01*
Y028664D01*
X025729Y028659D01*
X025729Y028655D01*
Y02865D01*
Y028644D01*
Y028583D01*
X02569D01*
Y028729D01*
X025726D01*
Y028707D01*
X025727Y028707D01*
X025728Y028709D01*
X025729Y028711D01*
X025732Y028714D01*
X025735Y028717D01*
X025739Y02872D01*
X025743Y028723D01*
X025748Y028726D01*
X025748Y028726D01*
X02575Y028726D01*
X025752Y028728D01*
X025756Y028729D01*
X02576Y02873D01*
X025765Y028731D01*
X02577Y028732D01*
X025775Y028732D01*
X025777D01*
X02578Y028732D01*
D02*
G37*
G36*
X026058Y02869D02*
X026019D01*
Y028729D01*
X026058D01*
Y02869D01*
D02*
G37*
G36*
X02565Y028527D02*
X025512D01*
Y028561D01*
X02561D01*
Y028609D01*
X025526D01*
Y028643D01*
X02561D01*
Y028729D01*
X02565D01*
Y028527D01*
D02*
G37*
G36*
X02616Y028732D02*
X026162D01*
X026165Y028732D01*
X026167Y028731D01*
X026171Y028731D01*
X026174Y02873D01*
X026178Y028728D01*
X026182Y028727D01*
X026186Y028725D01*
X02619Y028723D01*
X026194Y028721D01*
X026197Y028717D01*
X026201Y028714D01*
X026205Y02871D01*
X026205Y02871D01*
X026206Y028709D01*
X026206Y028707D01*
X026207Y028706D01*
X026209Y028703D01*
X02621Y0287D01*
X026212Y028696D01*
X026213Y028691D01*
X026215Y028686D01*
X026217Y02868D01*
X026218Y028674D01*
X02622Y028666D01*
X026221Y028658D01*
X026222Y028649D01*
X026222Y02864D01*
X026222Y028629D01*
Y028629D01*
Y028629D01*
Y028628D01*
Y028627D01*
Y028624D01*
X026222Y02862D01*
X026222Y028615D01*
X026221Y02861D01*
X026221Y028604D01*
X02622Y028598D01*
X026219Y028591D01*
X026218Y028584D01*
X026216Y028577D01*
X026214Y02857D01*
X026212Y028564D01*
X026209Y028558D01*
X026206Y028552D01*
X026203Y028547D01*
X026203Y028547D01*
X026202Y028546D01*
X026201Y028545D01*
X0262Y028544D01*
X026198Y028542D01*
X026196Y02854D01*
X026194Y028539D01*
X026191Y028537D01*
X026188Y028535D01*
X026185Y028533D01*
X026181Y028531D01*
X026177Y028529D01*
X026172Y028528D01*
X026167Y028527D01*
X026162Y028526D01*
X026157Y028526D01*
X026154D01*
X026152Y028526D01*
X02615Y028527D01*
X026147Y028527D01*
X026144Y028528D01*
X026141Y028529D01*
X026137Y02853D01*
X026133Y028531D01*
X02613Y028533D01*
X026126Y028535D01*
X026122Y028538D01*
X026118Y02854D01*
X026115Y028543D01*
X026112Y028547D01*
X026111Y028547D01*
X026111Y028548D01*
X02611Y02855D01*
X026108Y028552D01*
X026107Y028555D01*
X026105Y028558D01*
X026103Y028562D01*
X026102Y028567D01*
X0261Y028572D01*
X026098Y028578D01*
X026096Y028585D01*
X026095Y028593D01*
X026094Y028601D01*
X026093Y028609D01*
X026092Y028619D01*
X026092Y02863D01*
Y02863D01*
Y02863D01*
Y028631D01*
Y028632D01*
Y028635D01*
X026092Y028639D01*
X026092Y028643D01*
X026093Y028649D01*
X026094Y028655D01*
X026094Y028661D01*
X026095Y028668D01*
X026097Y028675D01*
X026098Y028682D01*
X0261Y028688D01*
X026102Y028695D01*
X026105Y028701D01*
X026108Y028707D01*
X026112Y028712D01*
X026112Y028712D01*
X026112Y028713D01*
X026113Y028714D01*
X026114Y028715D01*
X026116Y028717D01*
X026118Y028718D01*
X026121Y02872D01*
X026123Y028722D01*
X026127Y028724D01*
X02613Y028726D01*
X026134Y028728D01*
X026138Y028729D01*
X026142Y02873D01*
X026147Y028732D01*
X026152Y028732D01*
X026157Y028733D01*
X026158D01*
X02616Y028732D01*
D02*
G37*
G36*
X025928Y028583D02*
X025928Y028583D01*
X025929Y028584D01*
X02593Y028585D01*
X025931Y028586D01*
X025933Y028588D01*
X025936Y02859D01*
X025939Y028592D01*
X025942Y028594D01*
X025945Y028596D01*
X025949Y028599D01*
X025953Y028601D01*
X025958Y028604D01*
X025967Y028608D01*
X025977Y028612D01*
Y028577D01*
X025977D01*
X025977Y028577D01*
X025976Y028577D01*
X025975Y028576D01*
X025972Y028575D01*
X025968Y028573D01*
X025963Y028571D01*
X025957Y028568D01*
X025951Y028563D01*
X025945Y028559D01*
X025945Y028559D01*
X025944Y028558D01*
X025943Y028557D01*
X025942Y028556D01*
X025939Y028553D01*
X025935Y028549D01*
X025931Y028545D01*
X025927Y028539D01*
X025923Y028533D01*
X02592Y028526D01*
X025889D01*
Y028729D01*
X025928D01*
Y028583D01*
D02*
G37*
G36*
X038207Y015766D02*
X038213Y015765D01*
X03822Y015765D01*
X038227Y015764D01*
X038235Y015763D01*
X038244Y015762D01*
X038252Y01576D01*
X038261Y015758D01*
X038269Y015756D01*
X038277Y015753D01*
X038285Y01575D01*
X038292Y015746D01*
X038298Y015742D01*
X038299Y015741D01*
X038299Y015741D01*
X038301Y01574D01*
X038302Y015738D01*
X038305Y015736D01*
X038307Y015733D01*
X038309Y01573D01*
X038312Y015727D01*
X038314Y015723D01*
X038316Y015719D01*
X038318Y015714D01*
X038321Y015709D01*
X038322Y015704D01*
X038324Y015697D01*
X038324Y015691D01*
X038325Y015685D01*
Y015681D01*
X038324Y015678D01*
X038324Y015675D01*
X038323Y015672D01*
X038322Y015668D01*
X038321Y015664D01*
X03832Y015659D01*
X038318Y015655D01*
X038316Y01565D01*
X038314Y015645D01*
X03831Y015641D01*
X038307Y015636D01*
X038303Y015631D01*
X038298Y015627D01*
X038298Y015627D01*
X038297Y015626D01*
X038295Y015625D01*
X038293Y015623D01*
X038289Y015622D01*
X038285Y015619D01*
X03828Y015617D01*
X038274Y015615D01*
X038267Y015613D01*
X038259Y01561D01*
X038251Y015609D01*
X038242Y015607D01*
X038231Y015605D01*
X038221Y015604D01*
X038208Y015603D01*
X038195Y015603D01*
X038195D01*
X038195D01*
X038194D01*
X038192D01*
X038188D01*
X038184Y015603D01*
X038178Y015603D01*
X038171Y015604D01*
X038164Y015605D01*
X038156Y015606D01*
X038147Y015607D01*
X038139Y015609D01*
X03813Y015611D01*
X038122Y015613D01*
X038113Y015616D01*
X038106Y015619D01*
X038099Y015623D01*
X038092Y015627D01*
X038092Y015628D01*
X038091Y015629D01*
X03809Y01563D01*
X038088Y015631D01*
X038087Y015633D01*
X038084Y015636D01*
X038082Y015639D01*
X03808Y015642D01*
X038077Y015646D01*
X038075Y01565D01*
X038072Y015655D01*
X038071Y01566D01*
X038069Y015666D01*
X038068Y015672D01*
X038067Y015678D01*
X038067Y015685D01*
Y015686D01*
X038067Y015688D01*
Y015691D01*
X038067Y015694D01*
X038068Y015697D01*
X038069Y015701D01*
X03807Y015706D01*
X038072Y01571D01*
X038073Y015715D01*
X038076Y01572D01*
X038079Y015725D01*
X038081Y01573D01*
X038085Y015735D01*
X038089Y01574D01*
X038095Y015744D01*
X038095Y015744D01*
X038096Y015745D01*
X038098Y015746D01*
X0381Y015747D01*
X038103Y015749D01*
X038107Y015751D01*
X038112Y015753D01*
X038118Y015755D01*
X038124Y015757D01*
X038132Y015759D01*
X03814Y015761D01*
X038149Y015762D01*
X038159Y015764D01*
X038171Y015765D01*
X038183Y015766D01*
X038196Y015766D01*
X038196D01*
X038196D01*
X038198D01*
X038199D01*
X038203D01*
X038207Y015766D01*
D02*
G37*
G36*
X03812Y015512D02*
X038071D01*
Y01556D01*
X03812D01*
Y015512D01*
D02*
G37*
G36*
X038261Y015459D02*
X038261Y015459D01*
X038262Y015458D01*
X038262Y015456D01*
X038264Y015453D01*
X038266Y015448D01*
X038269Y015441D01*
X038273Y015435D01*
X038278Y015427D01*
X038284Y015419D01*
X038284Y015419D01*
X038285Y015418D01*
X038286Y015417D01*
X038287Y015415D01*
X038291Y015411D01*
X038295Y015407D01*
X038301Y015402D01*
X038309Y015397D01*
X038316Y015392D01*
X038325Y015388D01*
Y015349D01*
X038071D01*
Y015397D01*
X038254D01*
X038253Y015398D01*
X038253Y015398D01*
X038251Y0154D01*
X03825Y015402D01*
X038247Y015405D01*
X038245Y015408D01*
X038243Y015411D01*
X03824Y015415D01*
X038237Y01542D01*
X038234Y015424D01*
X038231Y015429D01*
X038228Y015435D01*
X038222Y015447D01*
X038217Y01546D01*
X038261D01*
Y015459D01*
D02*
G37*
G36*
X038254Y015219D02*
X03817D01*
X03817D01*
X038168D01*
X038166D01*
X038164D01*
X038161D01*
X038158D01*
X03815Y015218D01*
X038142Y015218D01*
X038134Y015218D01*
X038131Y015217D01*
X038127Y015217D01*
X038125Y015216D01*
X038123Y015216D01*
X038123D01*
X038121Y015216D01*
X03812Y015215D01*
X038118Y015214D01*
X038116Y015213D01*
X038113Y015211D01*
X038111Y015209D01*
X038109Y015207D01*
X038109Y015206D01*
X038108Y015205D01*
X038108Y015204D01*
X038107Y015202D01*
X038106Y015199D01*
X038105Y015196D01*
X038105Y015192D01*
X038104Y015188D01*
Y015186D01*
X038105Y015184D01*
X038105Y015181D01*
X038106Y015178D01*
X038107Y015174D01*
X038109Y01517D01*
X038111Y015166D01*
X038111Y015166D01*
X038112Y015165D01*
X038113Y015163D01*
X038116Y015161D01*
X038118Y015159D01*
X038121Y015156D01*
X038124Y015154D01*
X038128Y015153D01*
X038128D01*
X03813Y015152D01*
X038131D01*
X038133Y015152D01*
X038135Y015151D01*
X038138Y015151D01*
X038141Y015151D01*
X038144Y01515D01*
X038148Y01515D01*
X038153D01*
X038158Y01515D01*
X038164Y015149D01*
X03817D01*
X038177D01*
X038254D01*
Y015101D01*
X038071D01*
Y015146D01*
X038099D01*
X038098Y015146D01*
X038096Y015147D01*
X038093Y01515D01*
X03809Y015153D01*
X038086Y015156D01*
X038083Y015161D01*
X038079Y015166D01*
X038075Y015172D01*
X038075Y015173D01*
X038074Y015175D01*
X038073Y015178D01*
X038071Y015183D01*
X03807Y015188D01*
X038068Y015194D01*
X038068Y0152D01*
X038067Y015206D01*
Y01521D01*
X038068Y015213D01*
X038068Y015217D01*
X038069Y015223D01*
X038071Y015228D01*
X038073Y015234D01*
X038075Y015239D01*
X038076Y01524D01*
X038077Y015242D01*
X038079Y015245D01*
X038081Y015247D01*
X038084Y015251D01*
X038088Y015254D01*
X038093Y015258D01*
X038098Y015261D01*
X038099Y015261D01*
X0381Y015262D01*
X038104Y015263D01*
X038108Y015264D01*
X038114Y015265D01*
X038121Y015266D01*
X038129Y015267D01*
X038138Y015267D01*
X038254D01*
Y015219D01*
D02*
G37*
G36*
X038323Y014878D02*
X038281D01*
Y015D01*
X038221D01*
Y014894D01*
X038178D01*
Y015D01*
X038071D01*
Y015051D01*
X038323D01*
Y014878D01*
D02*
G37*
G36*
X03156Y015634D02*
X031478Y015588D01*
X031502Y015566D01*
X03156D01*
Y015518D01*
X031308D01*
Y015566D01*
X031442D01*
X031377Y015623D01*
Y015682D01*
X031444Y015619D01*
X03156Y015686D01*
Y015634D01*
D02*
G37*
G36*
X031448Y015476D02*
X031453Y015476D01*
X03146Y015475D01*
X031468Y015474D01*
X031476Y015474D01*
X031484Y015472D01*
X031493Y01547D01*
X031501Y015469D01*
X031509Y015466D01*
X031518Y015463D01*
X031525Y01546D01*
X031533Y015456D01*
X031539Y015452D01*
X031539Y015451D01*
X03154Y015451D01*
X031541Y01545D01*
X031543Y015448D01*
X031545Y015446D01*
X031547Y015443D01*
X031549Y01544D01*
X031552Y015437D01*
X031554Y015433D01*
X031557Y015429D01*
X031559Y015424D01*
X031561Y015419D01*
X031562Y015414D01*
X031564Y015407D01*
X031564Y015401D01*
X031565Y015395D01*
Y015393D01*
X031564Y015391D01*
Y015388D01*
X031564Y015386D01*
X031563Y015382D01*
X031563Y015378D01*
X031561Y015374D01*
X03156Y015369D01*
X031558Y015364D01*
X031556Y015359D01*
X031553Y015354D01*
X03155Y015349D01*
X031546Y015344D01*
X031542Y01534D01*
X031537Y015335D01*
X031536Y015335D01*
X031535Y015334D01*
X031533Y015333D01*
X031531Y015332D01*
X031528Y01533D01*
X031524Y015328D01*
X031519Y015326D01*
X031513Y015324D01*
X031507Y015322D01*
X0315Y01532D01*
X031491Y015318D01*
X031482Y015317D01*
X031472Y015315D01*
X031461Y015314D01*
X031449Y015313D01*
X031436Y015313D01*
X031435D01*
X031435D01*
X031434D01*
X031432D01*
X031429D01*
X031424Y015313D01*
X031418Y015314D01*
X031411Y015315D01*
X031404Y015315D01*
X031396Y015316D01*
X031387Y015317D01*
X031379Y015319D01*
X03137Y015321D01*
X031362Y015323D01*
X031354Y015326D01*
X031346Y015329D01*
X031339Y015333D01*
X031333Y015338D01*
X031332Y015338D01*
X031332Y015339D01*
X03133Y01534D01*
X031329Y015342D01*
X031327Y015343D01*
X031324Y015346D01*
X031322Y015349D01*
X03132Y015352D01*
X031317Y015356D01*
X031315Y01536D01*
X031313Y015365D01*
X031311Y01537D01*
X031309Y015376D01*
X031308Y015382D01*
X031307Y015388D01*
X031307Y015395D01*
Y015398D01*
X031307Y015401D01*
X031307Y015404D01*
X031308Y015407D01*
X031309Y015411D01*
X03131Y015415D01*
X031311Y01542D01*
X031313Y015424D01*
X031315Y015429D01*
X031318Y015434D01*
X031321Y015439D01*
X031324Y015443D01*
X031328Y015448D01*
X031333Y015452D01*
X031333Y015452D01*
X031334Y015453D01*
X031336Y015454D01*
X031339Y015456D01*
X031342Y015458D01*
X031347Y01546D01*
X031351Y015462D01*
X031358Y015464D01*
X031364Y015466D01*
X031372Y015469D01*
X03138Y015471D01*
X03139Y015473D01*
X0314Y015474D01*
X031411Y015475D01*
X031423Y015476D01*
X031436Y015477D01*
X031436D01*
X031437D01*
X031438D01*
X031439D01*
X031443D01*
X031448Y015476D01*
D02*
G37*
G36*
X03156Y015192D02*
X031378D01*
X031378Y015192D01*
X031379Y015191D01*
X03138Y01519D01*
X031382Y015188D01*
X031384Y015185D01*
X031386Y015182D01*
X031389Y015178D01*
X031391Y015174D01*
X031394Y01517D01*
X031397Y015165D01*
X031401Y01516D01*
X031403Y015155D01*
X031409Y015143D01*
X031414Y01513D01*
X03137D01*
Y01513D01*
X03137Y015131D01*
X03137Y015132D01*
X031369Y015133D01*
X031367Y015137D01*
X031365Y015142D01*
X031362Y015148D01*
X031358Y015155D01*
X031353Y015163D01*
X031347Y015171D01*
X031347Y015171D01*
X031347Y015172D01*
X031346Y015173D01*
X031344Y015174D01*
X031341Y015178D01*
X031336Y015183D01*
X03133Y015188D01*
X031323Y015193D01*
X031315Y015198D01*
X031307Y015201D01*
Y015241D01*
X03156D01*
Y015192D01*
D02*
G37*
G36*
X03291Y015634D02*
X032828Y015588D01*
X032852Y015566D01*
X03291D01*
Y015518D01*
X032658D01*
Y015566D01*
X032792D01*
X032727Y015623D01*
Y015682D01*
X032794Y015619D01*
X03291Y015686D01*
Y015634D01*
D02*
G37*
G36*
X032798Y015476D02*
X032803Y015476D01*
X03281Y015475D01*
X032818Y015474D01*
X032826Y015474D01*
X032834Y015472D01*
X032843Y01547D01*
X032851Y015469D01*
X032859Y015466D01*
X032868Y015463D01*
X032875Y01546D01*
X032883Y015456D01*
X032889Y015452D01*
X032889Y015451D01*
X03289Y015451D01*
X032891Y01545D01*
X032893Y015448D01*
X032895Y015446D01*
X032897Y015443D01*
X032899Y01544D01*
X032902Y015437D01*
X032904Y015433D01*
X032907Y015429D01*
X032909Y015424D01*
X032911Y015419D01*
X032912Y015414D01*
X032914Y015407D01*
X032914Y015401D01*
X032915Y015395D01*
Y015393D01*
X032914Y015391D01*
Y015388D01*
X032914Y015386D01*
X032913Y015382D01*
X032913Y015378D01*
X032911Y015374D01*
X03291Y015369D01*
X032908Y015364D01*
X032906Y015359D01*
X032903Y015354D01*
X0329Y015349D01*
X032896Y015344D01*
X032892Y01534D01*
X032887Y015335D01*
X032886Y015335D01*
X032885Y015334D01*
X032883Y015333D01*
X032881Y015332D01*
X032878Y01533D01*
X032874Y015328D01*
X032869Y015326D01*
X032863Y015324D01*
X032857Y015322D01*
X03285Y01532D01*
X032841Y015318D01*
X032832Y015317D01*
X032822Y015315D01*
X032811Y015314D01*
X032799Y015313D01*
X032786Y015313D01*
X032785D01*
X032785D01*
X032784D01*
X032782D01*
X032779D01*
X032774Y015313D01*
X032768Y015314D01*
X032761Y015315D01*
X032754Y015315D01*
X032746Y015316D01*
X032737Y015317D01*
X032729Y015319D01*
X03272Y015321D01*
X032712Y015323D01*
X032704Y015326D01*
X032696Y015329D01*
X032689Y015333D01*
X032683Y015338D01*
X032682Y015338D01*
X032682Y015339D01*
X03268Y01534D01*
X032679Y015342D01*
X032677Y015343D01*
X032674Y015346D01*
X032672Y015349D01*
X03267Y015352D01*
X032667Y015356D01*
X032665Y01536D01*
X032663Y015365D01*
X032661Y01537D01*
X032659Y015376D01*
X032658Y015382D01*
X032657Y015388D01*
X032657Y015395D01*
Y015398D01*
X032657Y015401D01*
X032657Y015404D01*
X032658Y015407D01*
X032659Y015411D01*
X03266Y015415D01*
X032661Y01542D01*
X032663Y015424D01*
X032665Y015429D01*
X032668Y015434D01*
X032671Y015439D01*
X032674Y015443D01*
X032678Y015448D01*
X032683Y015452D01*
X032683Y015452D01*
X032684Y015453D01*
X032686Y015454D01*
X032689Y015456D01*
X032692Y015458D01*
X032697Y01546D01*
X032701Y015462D01*
X032708Y015464D01*
X032714Y015466D01*
X032722Y015469D01*
X03273Y015471D01*
X03274Y015473D01*
X03275Y015474D01*
X032761Y015475D01*
X032773Y015476D01*
X032786Y015477D01*
X032786D01*
X032787D01*
X032788D01*
X032789D01*
X032793D01*
X032798Y015476D01*
D02*
G37*
G36*
X03291Y015192D02*
X032728D01*
X032728Y015192D01*
X032729Y015191D01*
X03273Y01519D01*
X032732Y015188D01*
X032734Y015185D01*
X032736Y015182D01*
X032739Y015178D01*
X032741Y015174D01*
X032744Y01517D01*
X032747Y015165D01*
X032751Y01516D01*
X032753Y015155D01*
X032759Y015143D01*
X032764Y01513D01*
X03272D01*
Y01513D01*
X03272Y015131D01*
X03272Y015132D01*
X032719Y015133D01*
X032717Y015137D01*
X032715Y015142D01*
X032712Y015148D01*
X032708Y015155D01*
X032703Y015163D01*
X032697Y015171D01*
X032697Y015171D01*
X032697Y015172D01*
X032696Y015173D01*
X032694Y015174D01*
X032691Y015178D01*
X032686Y015183D01*
X03268Y015188D01*
X032673Y015193D01*
X032665Y015198D01*
X032657Y015201D01*
Y015241D01*
X03291D01*
Y015192D01*
D02*
G37*
G36*
X033669Y027078D02*
X033729D01*
Y027183D01*
X033772D01*
Y027078D01*
X033879D01*
Y027027D01*
X033627D01*
Y0272D01*
X033669D01*
Y027078D01*
D02*
G37*
G36*
X033879Y026932D02*
X033851D01*
X033852Y026932D01*
X033854Y02693D01*
X033857Y026928D01*
X03386Y026925D01*
X033864Y026921D01*
X033867Y026917D01*
X033871Y026911D01*
X033875Y026906D01*
X033875Y026905D01*
X033876Y026903D01*
X033877Y026899D01*
X033879Y026895D01*
X03388Y02689D01*
X033882Y026884D01*
X033882Y026878D01*
X033883Y026871D01*
Y026868D01*
X033882Y026865D01*
X033882Y02686D01*
X033881Y026855D01*
X033879Y02685D01*
X033877Y026844D01*
X033875Y026838D01*
X033874Y026838D01*
X033873Y026836D01*
X033871Y026833D01*
X033869Y02683D01*
X033866Y026827D01*
X033862Y026823D01*
X033857Y02682D01*
X033852Y026817D01*
X033851Y026817D01*
X03385Y026816D01*
X033846Y026815D01*
X033842Y026814D01*
X033836Y026813D01*
X033829Y026812D01*
X033821Y026811D01*
X033812Y026811D01*
X033696D01*
Y026859D01*
X03378D01*
X03378D01*
X033782D01*
X033784D01*
X033786D01*
X033789D01*
X033792D01*
X0338Y026859D01*
X033808Y02686D01*
X033816Y02686D01*
X033819Y02686D01*
X033823Y026861D01*
X033825Y026861D01*
X033827Y026862D01*
X033827D01*
X033829Y026862D01*
X03383Y026863D01*
X033832Y026864D01*
X033834Y026865D01*
X033837Y026867D01*
X033839Y026868D01*
X033841Y026871D01*
X033841Y026871D01*
X033842Y026872D01*
X033842Y026874D01*
X033843Y026876D01*
X033844Y026879D01*
X033845Y026882D01*
X033845Y026885D01*
X033846Y026889D01*
Y026891D01*
X033845Y026894D01*
X033845Y026897D01*
X033844Y0269D01*
X033843Y026904D01*
X033841Y026908D01*
X033839Y026911D01*
X033839Y026912D01*
X033838Y026913D01*
X033837Y026915D01*
X033834Y026917D01*
X033832Y026919D01*
X033829Y026921D01*
X033826Y026923D01*
X033822Y026925D01*
X033822D01*
X03382Y026926D01*
X033819D01*
X033817Y026926D01*
X033815Y026926D01*
X033812Y026927D01*
X033809Y026927D01*
X033806Y026927D01*
X033802Y026928D01*
X033797D01*
X033792Y026928D01*
X033786Y026929D01*
X03378D01*
X033773D01*
X033696D01*
Y026977D01*
X033879D01*
Y026932D01*
D02*
G37*
G36*
Y02668D02*
X033696D01*
X033697Y02668D01*
X033697Y026679D01*
X033699Y026678D01*
X0337Y026676D01*
X033703Y026673D01*
X033705Y02667D01*
X033707Y026666D01*
X03371Y026662D01*
X033713Y026658D01*
X033716Y026653D01*
X033719Y026648D01*
X033722Y026643D01*
X033728Y026631D01*
X033733Y026618D01*
X033689D01*
Y026618D01*
X033689Y026619D01*
X033688Y02662D01*
X033688Y026621D01*
X033686Y026625D01*
X033684Y02663D01*
X033681Y026636D01*
X033677Y026643D01*
X033672Y026651D01*
X033666Y026659D01*
X033666Y026659D01*
X033665Y02666D01*
X033664Y026661D01*
X033663Y026662D01*
X033659Y026666D01*
X033655Y026671D01*
X033649Y026676D01*
X033641Y026681D01*
X033634Y026686D01*
X033625Y026689D01*
Y026729D01*
X033879D01*
Y02668D01*
D02*
G37*
G36*
Y026518D02*
X03383D01*
Y026566D01*
X033879D01*
Y026518D01*
D02*
G37*
G36*
X033766Y026475D02*
X033772Y026474D01*
X033779Y026474D01*
X033786Y026473D01*
X033794Y026472D01*
X033803Y026471D01*
X033811Y026469D01*
X03382Y026467D01*
X033828Y026464D01*
X033837Y026462D01*
X033844Y026458D01*
X033851Y026455D01*
X033858Y02645D01*
X033858Y02645D01*
X033859Y026449D01*
X03386Y026448D01*
X033862Y026447D01*
X033863Y026444D01*
X033866Y026442D01*
X033868Y026439D01*
X03387Y026435D01*
X033873Y026431D01*
X033875Y026427D01*
X033878Y026423D01*
X033879Y026418D01*
X033881Y026412D01*
X033882Y026406D01*
X033883Y0264D01*
X033883Y026393D01*
Y026392D01*
X033883Y026389D01*
Y026387D01*
X033883Y026384D01*
X033882Y02638D01*
X033881Y026376D01*
X03388Y026372D01*
X033878Y026367D01*
X033877Y026363D01*
X033874Y026357D01*
X033871Y026353D01*
X033869Y026348D01*
X033865Y026343D01*
X033861Y026338D01*
X033855Y026334D01*
X033855Y026333D01*
X033854Y026333D01*
X033852Y026332D01*
X03385Y02633D01*
X033847Y026329D01*
X033843Y026327D01*
X033838Y026325D01*
X033832Y026323D01*
X033826Y026321D01*
X033818Y026318D01*
X03381Y026317D01*
X033801Y026315D01*
X033791Y026314D01*
X033779Y026313D01*
X033767Y026312D01*
X033754Y026312D01*
X033754D01*
X033754D01*
X033752D01*
X033751D01*
X033747D01*
X033743Y026312D01*
X033737Y026312D01*
X03373Y026313D01*
X033723Y026314D01*
X033715Y026314D01*
X033706Y026316D01*
X033698Y026317D01*
X033689Y02632D01*
X033681Y026322D01*
X033673Y026325D01*
X033665Y026328D01*
X033658Y026332D01*
X033652Y026336D01*
X033651Y026336D01*
X033651Y026337D01*
X033649Y026338D01*
X033648Y02634D01*
X033645Y026342D01*
X033643Y026344D01*
X033641Y026348D01*
X033639Y026351D01*
X033636Y026355D01*
X033634Y026359D01*
X033632Y026364D01*
X033629Y026369D01*
X033628Y026374D01*
X033626Y02638D01*
X033626Y026387D01*
X033625Y026393D01*
Y026397D01*
X033626Y026399D01*
X033626Y026402D01*
X033627Y026406D01*
X033628Y026409D01*
X033629Y026414D01*
X03363Y026419D01*
X033632Y026423D01*
X033634Y026428D01*
X033636Y026432D01*
X03364Y026437D01*
X033643Y026442D01*
X033647Y026446D01*
X033652Y02645D01*
X033652Y026451D01*
X033653Y026451D01*
X033655Y026452D01*
X033657Y026454D01*
X033661Y026456D01*
X033665Y026458D01*
X03367Y02646D01*
X033676Y026463D01*
X033683Y026465D01*
X033691Y026467D01*
X033699Y026469D01*
X033708Y026471D01*
X033719Y026473D01*
X03373Y026474D01*
X033742Y026475D01*
X033755Y026475D01*
X033755D01*
X033755D01*
X033756D01*
X033758D01*
X033762D01*
X033766Y026475D01*
D02*
G37*
G36*
X03266Y027128D02*
X032578Y027082D01*
X032602Y02706D01*
X03266D01*
Y027012D01*
X032408D01*
Y02706D01*
X032542D01*
X032477Y027116D01*
Y027176D01*
X032544Y027113D01*
X03266Y02718D01*
Y027128D01*
D02*
G37*
G36*
X032548Y02697D02*
X032553Y02697D01*
X03256Y026969D01*
X032568Y026968D01*
X032576Y026967D01*
X032584Y026966D01*
X032593Y026964D01*
X032601Y026962D01*
X032609Y02696D01*
X032618Y026957D01*
X032625Y026954D01*
X032633Y02695D01*
X032639Y026946D01*
X032639Y026945D01*
X03264Y026945D01*
X032641Y026943D01*
X032643Y026942D01*
X032645Y02694D01*
X032647Y026937D01*
X032649Y026934D01*
X032652Y026931D01*
X032654Y026927D01*
X032657Y026923D01*
X032659Y026918D01*
X032661Y026913D01*
X032662Y026907D01*
X032664Y026901D01*
X032664Y026895D01*
X032665Y026888D01*
Y026887D01*
X032664Y026885D01*
Y026882D01*
X032664Y026879D01*
X032663Y026876D01*
X032663Y026872D01*
X032661Y026867D01*
X03266Y026863D01*
X032658Y026858D01*
X032656Y026853D01*
X032653Y026848D01*
X03265Y026843D01*
X032646Y026838D01*
X032642Y026834D01*
X032637Y026829D01*
X032636Y026829D01*
X032635Y026828D01*
X032633Y026827D01*
X032631Y026826D01*
X032628Y026824D01*
X032624Y026822D01*
X032619Y02682D01*
X032613Y026818D01*
X032607Y026816D01*
X0326Y026814D01*
X032591Y026812D01*
X032582Y026811D01*
X032572Y026809D01*
X032561Y026808D01*
X032549Y026807D01*
X032536Y026807D01*
X032535D01*
X032535D01*
X032534D01*
X032532D01*
X032529D01*
X032524Y026807D01*
X032518Y026808D01*
X032511Y026808D01*
X032504Y026809D01*
X032496Y02681D01*
X032487Y026811D01*
X032479Y026813D01*
X03247Y026815D01*
X032462Y026817D01*
X032454Y02682D01*
X032446Y026823D01*
X032439Y026827D01*
X032433Y026831D01*
X032432Y026832D01*
X032432Y026832D01*
X03243Y026834D01*
X032429Y026835D01*
X032427Y026837D01*
X032424Y02684D01*
X032422Y026843D01*
X03242Y026846D01*
X032417Y02685D01*
X032415Y026854D01*
X032413Y026859D01*
X032411Y026864D01*
X032409Y02687D01*
X032408Y026876D01*
X032407Y026882D01*
X032407Y026888D01*
Y026892D01*
X032407Y026895D01*
X032407Y026898D01*
X032408Y026901D01*
X032409Y026905D01*
X03241Y026909D01*
X032411Y026914D01*
X032413Y026918D01*
X032415Y026923D01*
X032418Y026928D01*
X032421Y026933D01*
X032424Y026937D01*
X032428Y026942D01*
X032433Y026946D01*
X032433Y026946D01*
X032434Y026947D01*
X032436Y026948D01*
X032439Y02695D01*
X032442Y026951D01*
X032447Y026954D01*
X032451Y026956D01*
X032458Y026958D01*
X032464Y02696D01*
X032472Y026963D01*
X03248Y026965D01*
X03249Y026966D01*
X0325Y026968D01*
X032511Y026969D01*
X032523Y02697D01*
X032536Y02697D01*
X032536D01*
X032537D01*
X032538D01*
X032539D01*
X032543D01*
X032548Y02697D01*
D02*
G37*
G36*
X03266Y026686D02*
X032478D01*
X032478Y026686D01*
X032479Y026685D01*
X03248Y026684D01*
X032482Y026681D01*
X032484Y026679D01*
X032486Y026676D01*
X032489Y026672D01*
X032491Y026668D01*
X032494Y026664D01*
X032497Y026659D01*
X032501Y026654D01*
X032503Y026649D01*
X032509Y026637D01*
X032514Y026624D01*
X03247D01*
Y026624D01*
X03247Y026625D01*
X03247Y026626D01*
X032469Y026627D01*
X032467Y026631D01*
X032465Y026636D01*
X032462Y026642D01*
X032458Y026649D01*
X032453Y026657D01*
X032447Y026665D01*
X032447Y026665D01*
X032447Y026666D01*
X032446Y026667D01*
X032444Y026668D01*
X032441Y026672D01*
X032436Y026677D01*
X03243Y026682D01*
X032423Y026687D01*
X032415Y026692D01*
X032407Y026695D01*
Y026735D01*
X03266D01*
Y026686D01*
D02*
G37*
G36*
X044519Y021728D02*
X044579D01*
Y021833D01*
X044622D01*
Y021728D01*
X044729D01*
Y021677D01*
X044477D01*
Y02185D01*
X044519D01*
Y021728D01*
D02*
G37*
G36*
X044729Y021582D02*
X044701D01*
X044702Y021582D01*
X044704Y02158D01*
X044707Y021578D01*
X04471Y021575D01*
X044714Y021571D01*
X044717Y021567D01*
X044721Y021561D01*
X044725Y021556D01*
X044725Y021555D01*
X044726Y021553D01*
X044727Y021549D01*
X044729Y021545D01*
X04473Y02154D01*
X044732Y021534D01*
X044732Y021528D01*
X044733Y021521D01*
Y021518D01*
X044732Y021515D01*
X044732Y02151D01*
X044731Y021505D01*
X044729Y0215D01*
X044727Y021494D01*
X044725Y021488D01*
X044724Y021488D01*
X044723Y021486D01*
X044721Y021483D01*
X044719Y02148D01*
X044716Y021477D01*
X044712Y021473D01*
X044707Y02147D01*
X044702Y021467D01*
X044701Y021467D01*
X0447Y021466D01*
X044696Y021465D01*
X044692Y021464D01*
X044686Y021463D01*
X044679Y021462D01*
X044671Y021461D01*
X044662Y021461D01*
X044546D01*
Y021509D01*
X04463D01*
X04463D01*
X044632D01*
X044634D01*
X044636D01*
X044639D01*
X044642D01*
X04465Y021509D01*
X044658Y02151D01*
X044666Y02151D01*
X044669Y02151D01*
X044673Y021511D01*
X044675Y021511D01*
X044677Y021512D01*
X044677D01*
X044679Y021512D01*
X04468Y021513D01*
X044682Y021514D01*
X044684Y021515D01*
X044687Y021517D01*
X044689Y021518D01*
X044691Y021521D01*
X044691Y021521D01*
X044692Y021523D01*
X044692Y021524D01*
X044693Y021526D01*
X044694Y021529D01*
X044695Y021532D01*
X044695Y021535D01*
X044696Y021539D01*
Y021541D01*
X044695Y021544D01*
X044695Y021547D01*
X044694Y02155D01*
X044693Y021554D01*
X044691Y021558D01*
X044689Y021561D01*
X044689Y021562D01*
X044688Y021563D01*
X044687Y021565D01*
X044684Y021567D01*
X044682Y021569D01*
X044679Y021571D01*
X044676Y021573D01*
X044672Y021575D01*
X044672D01*
X04467Y021576D01*
X044669D01*
X044667Y021576D01*
X044665Y021576D01*
X044662Y021577D01*
X044659Y021577D01*
X044656Y021577D01*
X044652Y021578D01*
X044647D01*
X044642Y021578D01*
X044636Y021579D01*
X04463D01*
X044623D01*
X044546D01*
Y021627D01*
X044729D01*
Y021582D01*
D02*
G37*
G36*
Y02133D02*
X044546D01*
X044547Y02133D01*
X044547Y021329D01*
X044549Y021328D01*
X04455Y021326D01*
X044553Y021323D01*
X044555Y02132D01*
X044557Y021316D01*
X04456Y021312D01*
X044563Y021308D01*
X044566Y021303D01*
X044569Y021298D01*
X044572Y021293D01*
X044578Y021281D01*
X044583Y021268D01*
X044539D01*
Y021268D01*
X044539Y021269D01*
X044538Y02127D01*
X044538Y021271D01*
X044536Y021275D01*
X044534Y02128D01*
X044531Y021286D01*
X044527Y021293D01*
X044522Y021301D01*
X044516Y021309D01*
X044516Y021309D01*
X044515Y02131D01*
X044514Y021311D01*
X044513Y021312D01*
X044509Y021316D01*
X044505Y021321D01*
X044499Y021326D01*
X044491Y021331D01*
X044484Y021336D01*
X044475Y021339D01*
Y021379D01*
X044729D01*
Y02133D01*
D02*
G37*
G36*
Y021168D02*
X04468D01*
Y021216D01*
X044729D01*
Y021168D01*
D02*
G37*
G36*
X044616Y021125D02*
X044622Y021124D01*
X044629Y021124D01*
X044636Y021123D01*
X044644Y021122D01*
X044653Y021121D01*
X044661Y021119D01*
X04467Y021117D01*
X044678Y021114D01*
X044687Y021112D01*
X044694Y021108D01*
X044701Y021105D01*
X044708Y0211D01*
X044708Y0211D01*
X044709Y021099D01*
X04471Y021098D01*
X044712Y021097D01*
X044713Y021094D01*
X044716Y021092D01*
X044718Y021089D01*
X04472Y021085D01*
X044723Y021081D01*
X044725Y021077D01*
X044728Y021073D01*
X044729Y021068D01*
X044731Y021062D01*
X044732Y021056D01*
X044733Y02105D01*
X044733Y021043D01*
Y021042D01*
X044733Y021039D01*
Y021037D01*
X044733Y021034D01*
X044732Y02103D01*
X044731Y021026D01*
X04473Y021022D01*
X044728Y021017D01*
X044727Y021013D01*
X044724Y021007D01*
X044721Y021003D01*
X044719Y020998D01*
X044715Y020993D01*
X044711Y020988D01*
X044705Y020984D01*
X044705Y020983D01*
X044704Y020983D01*
X044702Y020982D01*
X0447Y020981D01*
X044697Y020979D01*
X044693Y020977D01*
X044688Y020975D01*
X044682Y020973D01*
X044676Y020971D01*
X044668Y020968D01*
X04466Y020967D01*
X044651Y020965D01*
X044641Y020964D01*
X044629Y020963D01*
X044617Y020962D01*
X044604Y020962D01*
X044604D01*
X044604D01*
X044602D01*
X044601D01*
X044597D01*
X044593Y020962D01*
X044587Y020962D01*
X04458Y020963D01*
X044573Y020964D01*
X044565Y020964D01*
X044556Y020966D01*
X044548Y020967D01*
X044539Y02097D01*
X044531Y020972D01*
X044523Y020975D01*
X044515Y020978D01*
X044508Y020982D01*
X044502Y020986D01*
X044501Y020986D01*
X044501Y020987D01*
X044499Y020988D01*
X044498Y02099D01*
X044495Y020992D01*
X044493Y020994D01*
X044491Y020998D01*
X044489Y021001D01*
X044486Y021005D01*
X044484Y021009D01*
X044482Y021014D01*
X044479Y021019D01*
X044478Y021024D01*
X044476Y02103D01*
X044476Y021037D01*
X044475Y021043D01*
Y021047D01*
X044476Y021049D01*
X044476Y021052D01*
X044477Y021056D01*
X044478Y021059D01*
X044479Y021064D01*
X04448Y021069D01*
X044482Y021073D01*
X044484Y021078D01*
X044486Y021082D01*
X04449Y021087D01*
X044493Y021092D01*
X044497Y021096D01*
X044502Y0211D01*
X044502Y021101D01*
X044503Y021101D01*
X044505Y021102D01*
X044507Y021104D01*
X044511Y021106D01*
X044515Y021108D01*
X04452Y02111D01*
X044526Y021113D01*
X044533Y021115D01*
X044541Y021117D01*
X044549Y021119D01*
X044558Y021121D01*
X044569Y021123D01*
X04458Y021124D01*
X044592Y021125D01*
X044605Y021125D01*
X044605D01*
X044605D01*
X044606D01*
X044608D01*
X044612D01*
X044616Y021125D01*
D02*
G37*
G36*
X033328Y021728D02*
X033388D01*
Y021833D01*
X033431D01*
Y021728D01*
X033538D01*
Y021677D01*
X033286D01*
Y02185D01*
X033328D01*
Y021728D01*
D02*
G37*
G36*
X033538Y021582D02*
X03351D01*
X033511Y021582D01*
X033513Y02158D01*
X033516Y021578D01*
X033519Y021575D01*
X033523Y021571D01*
X033526Y021567D01*
X03353Y021561D01*
X033534Y021556D01*
X033534Y021555D01*
X033535Y021553D01*
X033536Y021549D01*
X033538Y021545D01*
X033539Y02154D01*
X033541Y021534D01*
X033541Y021528D01*
X033542Y021521D01*
Y021518D01*
X033541Y021515D01*
X033541Y02151D01*
X03354Y021505D01*
X033538Y0215D01*
X033536Y021494D01*
X033534Y021488D01*
X033533Y021488D01*
X033532Y021486D01*
X03353Y021483D01*
X033528Y02148D01*
X033525Y021477D01*
X033521Y021473D01*
X033516Y02147D01*
X033511Y021467D01*
X03351Y021467D01*
X033509Y021466D01*
X033505Y021465D01*
X033501Y021464D01*
X033495Y021463D01*
X033488Y021462D01*
X03348Y021461D01*
X033471Y021461D01*
X033355D01*
Y021509D01*
X033439D01*
X033439D01*
X033441D01*
X033443D01*
X033445D01*
X033448D01*
X033451D01*
X033459Y021509D01*
X033468Y02151D01*
X033475Y02151D01*
X033478Y02151D01*
X033482Y021511D01*
X033484Y021511D01*
X033486Y021512D01*
X033486D01*
X033488Y021512D01*
X033489Y021513D01*
X033491Y021514D01*
X033493Y021515D01*
X033496Y021517D01*
X033498Y021518D01*
X0335Y021521D01*
X0335Y021521D01*
X033501Y021523D01*
X033501Y021524D01*
X033502Y021526D01*
X033503Y021529D01*
X033504Y021532D01*
X033504Y021535D01*
X033505Y021539D01*
Y021541D01*
X033504Y021544D01*
X033504Y021547D01*
X033503Y02155D01*
X033502Y021554D01*
X0335Y021558D01*
X033498Y021561D01*
X033498Y021562D01*
X033497Y021563D01*
X033496Y021565D01*
X033493Y021567D01*
X033491Y021569D01*
X033488Y021571D01*
X033485Y021573D01*
X033481Y021575D01*
X033481D01*
X033479Y021576D01*
X033478D01*
X033476Y021576D01*
X033474Y021576D01*
X033472Y021577D01*
X033468Y021577D01*
X033465Y021577D01*
X033461Y021578D01*
X033456D01*
X033451Y021578D01*
X033445Y021579D01*
X033439D01*
X033432D01*
X033355D01*
Y021627D01*
X033538D01*
Y021582D01*
D02*
G37*
G36*
Y02133D02*
X033355D01*
X033356Y02133D01*
X033356Y021329D01*
X033358Y021328D01*
X033359Y021326D01*
X033362Y021323D01*
X033364Y02132D01*
X033366Y021316D01*
X033369Y021312D01*
X033372Y021308D01*
X033375Y021303D01*
X033378Y021298D01*
X033381Y021293D01*
X033387Y021281D01*
X033392Y021268D01*
X033348D01*
Y021268D01*
X033348Y021269D01*
X033347Y02127D01*
X033347Y021271D01*
X033345Y021275D01*
X033343Y02128D01*
X03334Y021286D01*
X033336Y021293D01*
X033331Y021301D01*
X033325Y021309D01*
X033325Y021309D01*
X033324Y02131D01*
X033323Y021311D01*
X033322Y021312D01*
X033318Y021316D01*
X033314Y021321D01*
X033308Y021326D01*
X0333Y021331D01*
X033293Y021336D01*
X033284Y021339D01*
Y021379D01*
X033538D01*
Y02133D01*
D02*
G37*
G36*
Y021168D02*
X033489D01*
Y021216D01*
X033538D01*
Y021168D01*
D02*
G37*
G36*
X033425Y021125D02*
X033431Y021124D01*
X033438Y021124D01*
X033445Y021123D01*
X033453Y021122D01*
X033462Y021121D01*
X03347Y021119D01*
X033479Y021117D01*
X033487Y021114D01*
X033496Y021112D01*
X033503Y021108D01*
X03351Y021105D01*
X033517Y0211D01*
X033517Y0211D01*
X033518Y021099D01*
X033519Y021098D01*
X033521Y021097D01*
X033522Y021094D01*
X033525Y021092D01*
X033527Y021089D01*
X033529Y021085D01*
X033532Y021081D01*
X033534Y021077D01*
X033537Y021073D01*
X033538Y021068D01*
X03354Y021062D01*
X033541Y021056D01*
X033542Y02105D01*
X033542Y021043D01*
Y021042D01*
X033542Y021039D01*
Y021037D01*
X033542Y021034D01*
X033541Y02103D01*
X03354Y021026D01*
X033539Y021022D01*
X033537Y021017D01*
X033536Y021013D01*
X033533Y021007D01*
X03353Y021003D01*
X033528Y020998D01*
X033524Y020993D01*
X03352Y020988D01*
X033514Y020984D01*
X033514Y020983D01*
X033513Y020983D01*
X033511Y020982D01*
X033509Y020981D01*
X033506Y020979D01*
X033502Y020977D01*
X033497Y020975D01*
X033491Y020973D01*
X033485Y020971D01*
X033477Y020968D01*
X033469Y020967D01*
X03346Y020965D01*
X03345Y020964D01*
X033438Y020963D01*
X033426Y020962D01*
X033413Y020962D01*
X033413D01*
X033413D01*
X033411D01*
X03341D01*
X033406D01*
X033402Y020962D01*
X033396Y020962D01*
X033389Y020963D01*
X033382Y020964D01*
X033374Y020964D01*
X033365Y020966D01*
X033357Y020967D01*
X033348Y02097D01*
X03334Y020972D01*
X033332Y020975D01*
X033324Y020978D01*
X033317Y020982D01*
X033311Y020986D01*
X03331Y020986D01*
X03331Y020987D01*
X033308Y020988D01*
X033307Y02099D01*
X033304Y020992D01*
X033302Y020994D01*
X0333Y020998D01*
X033298Y021001D01*
X033295Y021005D01*
X033293Y021009D01*
X033291Y021014D01*
X033288Y021019D01*
X033287Y021024D01*
X033286Y02103D01*
X033285Y021037D01*
X033284Y021043D01*
Y021047D01*
X033285Y021049D01*
X033285Y021052D01*
X033286Y021056D01*
X033287Y021059D01*
X033288Y021064D01*
X033289Y021069D01*
X033291Y021073D01*
X033293Y021078D01*
X033295Y021082D01*
X033299Y021087D01*
X033302Y021092D01*
X033306Y021096D01*
X033311Y0211D01*
X033311Y021101D01*
X033312Y021101D01*
X033314Y021102D01*
X033316Y021104D01*
X03332Y021106D01*
X033324Y021108D01*
X033329Y02111D01*
X033335Y021113D01*
X033342Y021115D01*
X03335Y021117D01*
X033358Y021119D01*
X033367Y021121D01*
X033378Y021123D01*
X033389Y021124D01*
X033401Y021125D01*
X033414Y021125D01*
X033414D01*
X033414D01*
X033415D01*
X033417D01*
X033421D01*
X033425Y021125D01*
D02*
G37*
G36*
X038919Y021728D02*
X038979D01*
Y021833D01*
X039022D01*
Y021728D01*
X039129D01*
Y021677D01*
X038877D01*
Y02185D01*
X038919D01*
Y021728D01*
D02*
G37*
G36*
X039129Y021582D02*
X039101D01*
X039102Y021582D01*
X039104Y02158D01*
X039107Y021578D01*
X03911Y021575D01*
X039114Y021571D01*
X039117Y021567D01*
X039121Y021561D01*
X039125Y021556D01*
X039125Y021555D01*
X039126Y021553D01*
X039127Y021549D01*
X039129Y021545D01*
X03913Y02154D01*
X039132Y021534D01*
X039132Y021528D01*
X039133Y021521D01*
Y021518D01*
X039132Y021515D01*
X039132Y02151D01*
X039131Y021505D01*
X039129Y0215D01*
X039127Y021494D01*
X039125Y021488D01*
X039124Y021488D01*
X039123Y021486D01*
X039121Y021483D01*
X039119Y02148D01*
X039116Y021477D01*
X039112Y021473D01*
X039107Y02147D01*
X039102Y021467D01*
X039101Y021467D01*
X0391Y021466D01*
X039096Y021465D01*
X039092Y021464D01*
X039086Y021463D01*
X039079Y021462D01*
X039071Y021461D01*
X039062Y021461D01*
X038946D01*
Y021509D01*
X03903D01*
X03903D01*
X039032D01*
X039034D01*
X039036D01*
X039039D01*
X039042D01*
X03905Y021509D01*
X039058Y02151D01*
X039066Y02151D01*
X039069Y02151D01*
X039073Y021511D01*
X039075Y021511D01*
X039077Y021512D01*
X039077D01*
X039079Y021512D01*
X03908Y021513D01*
X039082Y021514D01*
X039084Y021515D01*
X039087Y021517D01*
X039089Y021518D01*
X039091Y021521D01*
X039091Y021521D01*
X039092Y021523D01*
X039092Y021524D01*
X039093Y021526D01*
X039094Y021529D01*
X039095Y021532D01*
X039095Y021535D01*
X039096Y021539D01*
Y021541D01*
X039095Y021544D01*
X039095Y021547D01*
X039094Y02155D01*
X039093Y021554D01*
X039091Y021558D01*
X039089Y021561D01*
X039089Y021562D01*
X039088Y021563D01*
X039087Y021565D01*
X039084Y021567D01*
X039082Y021569D01*
X039079Y021571D01*
X039076Y021573D01*
X039072Y021575D01*
X039072D01*
X03907Y021576D01*
X039069D01*
X039067Y021576D01*
X039065Y021576D01*
X039062Y021577D01*
X039059Y021577D01*
X039056Y021577D01*
X039052Y021578D01*
X039047D01*
X039042Y021578D01*
X039036Y021579D01*
X03903D01*
X039023D01*
X038946D01*
Y021627D01*
X039129D01*
Y021582D01*
D02*
G37*
G36*
Y02133D02*
X038946D01*
X038947Y02133D01*
X038947Y021329D01*
X038949Y021328D01*
X03895Y021326D01*
X038953Y021323D01*
X038955Y02132D01*
X038957Y021316D01*
X03896Y021312D01*
X038963Y021308D01*
X038966Y021303D01*
X038969Y021298D01*
X038972Y021293D01*
X038978Y021281D01*
X038983Y021268D01*
X038939D01*
Y021268D01*
X038939Y021269D01*
X038938Y02127D01*
X038938Y021271D01*
X038936Y021275D01*
X038934Y02128D01*
X038931Y021286D01*
X038927Y021293D01*
X038922Y021301D01*
X038916Y021309D01*
X038916Y021309D01*
X038915Y02131D01*
X038914Y021311D01*
X038913Y021312D01*
X038909Y021316D01*
X038905Y021321D01*
X038899Y021326D01*
X038891Y021331D01*
X038884Y021336D01*
X038875Y021339D01*
Y021379D01*
X039129D01*
Y02133D01*
D02*
G37*
G36*
Y021168D02*
X03908D01*
Y021216D01*
X039129D01*
Y021168D01*
D02*
G37*
G36*
X039016Y021125D02*
X039022Y021124D01*
X039029Y021124D01*
X039036Y021123D01*
X039044Y021122D01*
X039053Y021121D01*
X039061Y021119D01*
X03907Y021117D01*
X039078Y021114D01*
X039087Y021112D01*
X039094Y021108D01*
X039101Y021105D01*
X039108Y0211D01*
X039108Y0211D01*
X039109Y021099D01*
X03911Y021098D01*
X039112Y021097D01*
X039113Y021094D01*
X039116Y021092D01*
X039118Y021089D01*
X03912Y021085D01*
X039123Y021081D01*
X039125Y021077D01*
X039128Y021073D01*
X039129Y021068D01*
X039131Y021062D01*
X039132Y021056D01*
X039133Y02105D01*
X039133Y021043D01*
Y021042D01*
X039133Y021039D01*
Y021037D01*
X039133Y021034D01*
X039132Y02103D01*
X039131Y021026D01*
X03913Y021022D01*
X039128Y021017D01*
X039127Y021013D01*
X039124Y021007D01*
X039121Y021003D01*
X039119Y020998D01*
X039115Y020993D01*
X039111Y020988D01*
X039105Y020984D01*
X039105Y020983D01*
X039104Y020983D01*
X039102Y020982D01*
X0391Y020981D01*
X039097Y020979D01*
X039093Y020977D01*
X039088Y020975D01*
X039082Y020973D01*
X039076Y020971D01*
X039068Y020968D01*
X03906Y020967D01*
X039051Y020965D01*
X039041Y020964D01*
X039029Y020963D01*
X039017Y020962D01*
X039004Y020962D01*
X039004D01*
X039004D01*
X039002D01*
X039001D01*
X038997D01*
X038993Y020962D01*
X038987Y020962D01*
X03898Y020963D01*
X038973Y020964D01*
X038965Y020964D01*
X038956Y020966D01*
X038948Y020967D01*
X038939Y02097D01*
X038931Y020972D01*
X038923Y020975D01*
X038915Y020978D01*
X038908Y020982D01*
X038902Y020986D01*
X038901Y020986D01*
X038901Y020987D01*
X038899Y020988D01*
X038898Y02099D01*
X038895Y020992D01*
X038893Y020994D01*
X038891Y020998D01*
X038888Y021001D01*
X038886Y021005D01*
X038884Y021009D01*
X038882Y021014D01*
X038879Y021019D01*
X038878Y021024D01*
X038876Y02103D01*
X038876Y021037D01*
X038875Y021043D01*
Y021047D01*
X038876Y021049D01*
X038876Y021052D01*
X038877Y021056D01*
X038878Y021059D01*
X038879Y021064D01*
X03888Y021069D01*
X038882Y021073D01*
X038884Y021078D01*
X038886Y021082D01*
X03889Y021087D01*
X038893Y021092D01*
X038897Y021096D01*
X038902Y0211D01*
X038902Y021101D01*
X038903Y021101D01*
X038905Y021102D01*
X038907Y021104D01*
X038911Y021106D01*
X038915Y021108D01*
X03892Y02111D01*
X038926Y021113D01*
X038933Y021115D01*
X038941Y021117D01*
X038949Y021119D01*
X038958Y021121D01*
X038969Y021123D01*
X038979Y021124D01*
X038992Y021125D01*
X039005Y021125D01*
X039005D01*
X039005D01*
X039006D01*
X039008D01*
X039012D01*
X039016Y021125D01*
D02*
G37*
G36*
X04366Y021778D02*
X043578Y021732D01*
X043602Y02171D01*
X04366D01*
Y021662D01*
X043408D01*
Y02171D01*
X043542D01*
X043477Y021766D01*
Y021826D01*
X043544Y021763D01*
X04366Y02183D01*
Y021778D01*
D02*
G37*
G36*
X043548Y02162D02*
X043553Y02162D01*
X04356Y021619D01*
X043568Y021618D01*
X043576Y021617D01*
X043584Y021616D01*
X043593Y021614D01*
X043601Y021612D01*
X043609Y02161D01*
X043618Y021607D01*
X043625Y021604D01*
X043633Y0216D01*
X043639Y021596D01*
X043639Y021595D01*
X04364Y021595D01*
X043641Y021593D01*
X043643Y021592D01*
X043645Y02159D01*
X043647Y021587D01*
X043649Y021584D01*
X043652Y021581D01*
X043654Y021577D01*
X043657Y021573D01*
X043659Y021568D01*
X043661Y021563D01*
X043662Y021557D01*
X043664Y021551D01*
X043664Y021545D01*
X043665Y021539D01*
Y021537D01*
X043664Y021535D01*
Y021532D01*
X043664Y021529D01*
X043663Y021526D01*
X043663Y021522D01*
X043661Y021517D01*
X04366Y021513D01*
X043658Y021508D01*
X043656Y021503D01*
X043653Y021498D01*
X04365Y021493D01*
X043646Y021488D01*
X043642Y021484D01*
X043637Y021479D01*
X043636Y021479D01*
X043635Y021478D01*
X043633Y021477D01*
X043631Y021476D01*
X043628Y021474D01*
X043624Y021472D01*
X043619Y02147D01*
X043613Y021468D01*
X043607Y021466D01*
X0436Y021464D01*
X043591Y021462D01*
X043582Y021461D01*
X043572Y021459D01*
X043561Y021458D01*
X043549Y021457D01*
X043536Y021457D01*
X043535D01*
X043535D01*
X043534D01*
X043532D01*
X043529D01*
X043524Y021457D01*
X043518Y021458D01*
X043511Y021458D01*
X043504Y021459D01*
X043496Y02146D01*
X043487Y021461D01*
X043479Y021463D01*
X04347Y021465D01*
X043462Y021467D01*
X043454Y02147D01*
X043446Y021473D01*
X043439Y021477D01*
X043433Y021481D01*
X043432Y021482D01*
X043432Y021482D01*
X04343Y021484D01*
X043429Y021485D01*
X043427Y021487D01*
X043424Y02149D01*
X043422Y021493D01*
X04342Y021496D01*
X043417Y0215D01*
X043415Y021504D01*
X043413Y021509D01*
X043411Y021514D01*
X043409Y02152D01*
X043408Y021526D01*
X043407Y021532D01*
X043407Y021539D01*
Y021542D01*
X043407Y021545D01*
X043407Y021548D01*
X043408Y021551D01*
X043409Y021555D01*
X04341Y021559D01*
X043411Y021564D01*
X043413Y021568D01*
X043415Y021573D01*
X043418Y021578D01*
X043421Y021583D01*
X043424Y021587D01*
X043428Y021592D01*
X043433Y021596D01*
X043433Y021596D01*
X043434Y021597D01*
X043436Y021598D01*
X043439Y0216D01*
X043442Y021601D01*
X043447Y021604D01*
X043451Y021606D01*
X043458Y021608D01*
X043464Y02161D01*
X043472Y021613D01*
X04348Y021615D01*
X04349Y021616D01*
X0435Y021618D01*
X043511Y021619D01*
X043523Y02162D01*
X043536Y02162D01*
X043536D01*
X043537D01*
X043538D01*
X043539D01*
X043543D01*
X043548Y02162D01*
D02*
G37*
G36*
X04366Y021336D02*
X043478D01*
X043478Y021336D01*
X043479Y021335D01*
X04348Y021334D01*
X043482Y021331D01*
X043484Y021329D01*
X043486Y021326D01*
X043489Y021322D01*
X043491Y021318D01*
X043494Y021314D01*
X043497Y021309D01*
X043501Y021304D01*
X043503Y021299D01*
X043509Y021287D01*
X043514Y021274D01*
X04347D01*
Y021274D01*
X04347Y021275D01*
X04347Y021276D01*
X043469Y021277D01*
X043467Y021281D01*
X043465Y021286D01*
X043462Y021292D01*
X043458Y021299D01*
X043453Y021307D01*
X043447Y021315D01*
X043447Y021315D01*
X043447Y021316D01*
X043446Y021317D01*
X043444Y021318D01*
X043441Y021322D01*
X043436Y021327D01*
X04343Y021332D01*
X043423Y021337D01*
X043415Y021342D01*
X043407Y021345D01*
Y021385D01*
X04366D01*
Y021336D01*
D02*
G37*
G36*
X03246Y021778D02*
X032378Y021732D01*
X032402Y02171D01*
X03246D01*
Y021662D01*
X032208D01*
Y02171D01*
X032342D01*
X032277Y021766D01*
Y021826D01*
X032344Y021763D01*
X03246Y02183D01*
Y021778D01*
D02*
G37*
G36*
X032348Y02162D02*
X032353Y02162D01*
X03236Y021619D01*
X032368Y021618D01*
X032376Y021617D01*
X032384Y021616D01*
X032393Y021614D01*
X032401Y021612D01*
X032409Y02161D01*
X032418Y021607D01*
X032425Y021604D01*
X032433Y0216D01*
X032439Y021596D01*
X032439Y021595D01*
X03244Y021595D01*
X032441Y021593D01*
X032443Y021592D01*
X032445Y02159D01*
X032447Y021587D01*
X032449Y021584D01*
X032452Y021581D01*
X032454Y021577D01*
X032457Y021573D01*
X032459Y021568D01*
X032461Y021563D01*
X032462Y021557D01*
X032464Y021551D01*
X032464Y021545D01*
X032465Y021539D01*
Y021537D01*
X032464Y021535D01*
Y021532D01*
X032464Y021529D01*
X032463Y021526D01*
X032463Y021522D01*
X032461Y021517D01*
X03246Y021513D01*
X032458Y021508D01*
X032456Y021503D01*
X032453Y021498D01*
X03245Y021493D01*
X032446Y021488D01*
X032442Y021484D01*
X032437Y021479D01*
X032436Y021479D01*
X032435Y021478D01*
X032433Y021477D01*
X032431Y021476D01*
X032428Y021474D01*
X032424Y021472D01*
X032419Y02147D01*
X032413Y021468D01*
X032407Y021466D01*
X0324Y021464D01*
X032391Y021462D01*
X032382Y021461D01*
X032372Y021459D01*
X032361Y021458D01*
X032349Y021457D01*
X032336Y021457D01*
X032335D01*
X032335D01*
X032334D01*
X032332D01*
X032329D01*
X032324Y021457D01*
X032318Y021458D01*
X032311Y021458D01*
X032304Y021459D01*
X032296Y02146D01*
X032287Y021461D01*
X032279Y021463D01*
X03227Y021465D01*
X032262Y021467D01*
X032254Y02147D01*
X032246Y021473D01*
X032239Y021477D01*
X032233Y021481D01*
X032232Y021482D01*
X032232Y021482D01*
X03223Y021484D01*
X032229Y021485D01*
X032227Y021487D01*
X032224Y02149D01*
X032222Y021493D01*
X03222Y021496D01*
X032217Y0215D01*
X032215Y021504D01*
X032213Y021509D01*
X032211Y021514D01*
X032209Y02152D01*
X032208Y021526D01*
X032207Y021532D01*
X032207Y021539D01*
Y021542D01*
X032207Y021545D01*
X032207Y021548D01*
X032208Y021551D01*
X032209Y021555D01*
X03221Y021559D01*
X032211Y021564D01*
X032213Y021568D01*
X032215Y021573D01*
X032218Y021578D01*
X032221Y021583D01*
X032224Y021587D01*
X032228Y021592D01*
X032233Y021596D01*
X032233Y021596D01*
X032234Y021597D01*
X032236Y021598D01*
X032239Y0216D01*
X032242Y021601D01*
X032247Y021604D01*
X032251Y021606D01*
X032258Y021608D01*
X032264Y02161D01*
X032272Y021613D01*
X03228Y021615D01*
X03229Y021616D01*
X0323Y021618D01*
X032311Y021619D01*
X032323Y02162D01*
X032336Y02162D01*
X032336D01*
X032337D01*
X032338D01*
X032339D01*
X032343D01*
X032348Y02162D01*
D02*
G37*
G36*
X03246Y021336D02*
X032278D01*
X032278Y021336D01*
X032279Y021335D01*
X03228Y021334D01*
X032282Y021331D01*
X032284Y021329D01*
X032286Y021326D01*
X032289Y021322D01*
X032291Y021318D01*
X032294Y021314D01*
X032297Y021309D01*
X032301Y021304D01*
X032303Y021299D01*
X032309Y021287D01*
X032314Y021274D01*
X03227D01*
Y021274D01*
X03227Y021275D01*
X03227Y021276D01*
X032269Y021277D01*
X032267Y021281D01*
X032265Y021286D01*
X032262Y021292D01*
X032258Y021299D01*
X032253Y021307D01*
X032247Y021315D01*
X032247Y021315D01*
X032247Y021316D01*
X032246Y021317D01*
X032244Y021318D01*
X032241Y021322D01*
X032236Y021327D01*
X03223Y021332D01*
X032223Y021337D01*
X032215Y021342D01*
X032207Y021345D01*
Y021385D01*
X03246D01*
Y021336D01*
D02*
G37*
G36*
X03801Y021778D02*
X037928Y021732D01*
X037952Y02171D01*
X03801D01*
Y021662D01*
X037758D01*
Y02171D01*
X037892D01*
X037827Y021766D01*
Y021826D01*
X037894Y021763D01*
X03801Y02183D01*
Y021778D01*
D02*
G37*
G36*
X037898Y02162D02*
X037903Y02162D01*
X03791Y021619D01*
X037918Y021618D01*
X037926Y021617D01*
X037934Y021616D01*
X037943Y021614D01*
X037951Y021612D01*
X037959Y02161D01*
X037968Y021607D01*
X037975Y021604D01*
X037983Y0216D01*
X037989Y021596D01*
X037989Y021595D01*
X03799Y021595D01*
X037991Y021593D01*
X037993Y021592D01*
X037995Y02159D01*
X037997Y021587D01*
X037999Y021584D01*
X038002Y021581D01*
X038004Y021577D01*
X038007Y021573D01*
X038009Y021568D01*
X038011Y021563D01*
X038012Y021557D01*
X038014Y021551D01*
X038014Y021545D01*
X038015Y021539D01*
Y021537D01*
X038014Y021535D01*
Y021532D01*
X038014Y021529D01*
X038013Y021526D01*
X038013Y021522D01*
X038011Y021517D01*
X03801Y021513D01*
X038008Y021508D01*
X038006Y021503D01*
X038003Y021498D01*
X038Y021493D01*
X037996Y021488D01*
X037992Y021484D01*
X037987Y021479D01*
X037986Y021479D01*
X037985Y021478D01*
X037983Y021477D01*
X037981Y021476D01*
X037978Y021474D01*
X037974Y021472D01*
X037969Y02147D01*
X037963Y021468D01*
X037957Y021466D01*
X03795Y021464D01*
X037941Y021462D01*
X037932Y021461D01*
X037922Y021459D01*
X037911Y021458D01*
X037899Y021457D01*
X037886Y021457D01*
X037885D01*
X037885D01*
X037884D01*
X037882D01*
X037879D01*
X037874Y021457D01*
X037868Y021458D01*
X037861Y021458D01*
X037854Y021459D01*
X037846Y02146D01*
X037837Y021461D01*
X037829Y021463D01*
X03782Y021465D01*
X037812Y021467D01*
X037804Y02147D01*
X037796Y021473D01*
X037789Y021477D01*
X037783Y021481D01*
X037782Y021482D01*
X037782Y021482D01*
X03778Y021484D01*
X037779Y021485D01*
X037777Y021487D01*
X037774Y02149D01*
X037772Y021493D01*
X03777Y021496D01*
X037767Y0215D01*
X037765Y021504D01*
X037763Y021509D01*
X037761Y021514D01*
X037759Y02152D01*
X037758Y021526D01*
X037757Y021532D01*
X037757Y021539D01*
Y021542D01*
X037757Y021545D01*
X037757Y021548D01*
X037758Y021551D01*
X037759Y021555D01*
X03776Y021559D01*
X037761Y021564D01*
X037763Y021568D01*
X037765Y021573D01*
X037768Y021578D01*
X037771Y021583D01*
X037774Y021587D01*
X037778Y021592D01*
X037783Y021596D01*
X037783Y021596D01*
X037784Y021597D01*
X037786Y021598D01*
X037789Y0216D01*
X037792Y021601D01*
X037797Y021604D01*
X037801Y021606D01*
X037808Y021608D01*
X037814Y02161D01*
X037822Y021613D01*
X03783Y021615D01*
X03784Y021616D01*
X03785Y021618D01*
X037861Y021619D01*
X037873Y02162D01*
X037886Y02162D01*
X037886D01*
X037887D01*
X037888D01*
X037889D01*
X037893D01*
X037898Y02162D01*
D02*
G37*
G36*
X03801Y021336D02*
X037828D01*
X037828Y021336D01*
X037829Y021335D01*
X03783Y021334D01*
X037832Y021331D01*
X037834Y021329D01*
X037836Y021326D01*
X037839Y021322D01*
X037841Y021318D01*
X037844Y021314D01*
X037847Y021309D01*
X037851Y021304D01*
X037853Y021299D01*
X037859Y021287D01*
X037864Y021274D01*
X03782D01*
Y021274D01*
X03782Y021275D01*
X03782Y021276D01*
X037819Y021277D01*
X037817Y021281D01*
X037815Y021286D01*
X037812Y021292D01*
X037808Y021299D01*
X037803Y021307D01*
X037797Y021315D01*
X037797Y021315D01*
X037797Y021316D01*
X037796Y021317D01*
X037794Y021318D01*
X037791Y021322D01*
X037786Y021327D01*
X03778Y021332D01*
X037773Y021337D01*
X037765Y021342D01*
X037757Y021345D01*
Y021385D01*
X03801D01*
Y021336D01*
D02*
G37*
G36*
X019611Y047022D02*
X019611Y047022D01*
X019612Y047021D01*
X019612Y047019D01*
X019614Y047016D01*
X019616Y04701D01*
X019619Y047004D01*
X019623Y046997D01*
X019628Y04699D01*
X019634Y046982D01*
X019634Y046981D01*
X019635Y046981D01*
X019636Y046979D01*
X019637Y046978D01*
X019641Y046974D01*
X019645Y04697D01*
X019651Y046965D01*
X019659Y046959D01*
X019666Y046955D01*
X019675Y046951D01*
Y046912D01*
X019421D01*
Y04696D01*
X019604D01*
X019603Y046961D01*
X019603Y046961D01*
X019601Y046963D01*
X0196Y046965D01*
X019597Y046967D01*
X019595Y04697D01*
X019593Y046974D01*
X01959Y046978D01*
X019587Y046982D01*
X019584Y046987D01*
X019581Y046992D01*
X019578Y046998D01*
X019572Y047009D01*
X019567Y047022D01*
X019611D01*
Y047022D01*
D02*
G37*
G36*
X019604Y046781D02*
X01952D01*
X01952D01*
X019518D01*
X019516D01*
X019514D01*
X019511D01*
X019508D01*
X0195Y046781D01*
X019492Y046781D01*
X019484Y04678D01*
X019481Y04678D01*
X019477Y04678D01*
X019475Y046779D01*
X019473Y046779D01*
X019473D01*
X019471Y046779D01*
X01947Y046778D01*
X019468Y046777D01*
X019466Y046776D01*
X019463Y046774D01*
X019461Y046772D01*
X019459Y046769D01*
X019459Y046769D01*
X019458Y046768D01*
X019458Y046767D01*
X019457Y046764D01*
X019456Y046762D01*
X019455Y046759D01*
X019455Y046755D01*
X019454Y046751D01*
Y046749D01*
X019455Y046747D01*
X019455Y046744D01*
X019456Y04674D01*
X019457Y046737D01*
X019459Y046733D01*
X019461Y046729D01*
X019461Y046729D01*
X019462Y046728D01*
X019463Y046726D01*
X019466Y046724D01*
X019468Y046721D01*
X019471Y046719D01*
X019474Y046717D01*
X019478Y046716D01*
X019478D01*
X01948Y046715D01*
X019481D01*
X019483Y046715D01*
X019485Y046714D01*
X019488Y046714D01*
X019491Y046713D01*
X019494Y046713D01*
X019498Y046713D01*
X019503D01*
X019508Y046712D01*
X019514Y046712D01*
X01952D01*
X019527D01*
X019604D01*
Y046664D01*
X019421D01*
Y046708D01*
X019449D01*
X019448Y046709D01*
X019446Y04671D01*
X019443Y046712D01*
X01944Y046716D01*
X019436Y046719D01*
X019433Y046724D01*
X019429Y046729D01*
X019425Y046735D01*
X019425Y046736D01*
X019424Y046738D01*
X019423Y046741D01*
X019421Y046745D01*
X01942Y046751D01*
X019418Y046756D01*
X019418Y046763D01*
X019417Y046769D01*
Y046772D01*
X019418Y046776D01*
X019418Y04678D01*
X019419Y046785D01*
X019421Y046791D01*
X019423Y046797D01*
X019425Y046802D01*
X019426Y046803D01*
X019427Y046804D01*
X019429Y046807D01*
X019431Y04681D01*
X019434Y046814D01*
X019438Y046817D01*
X019443Y04682D01*
X019448Y046823D01*
X019449Y046824D01*
X01945Y046824D01*
X019454Y046826D01*
X019458Y046827D01*
X019464Y046828D01*
X019471Y046829D01*
X019479Y04683D01*
X019488Y04683D01*
X019604D01*
Y046781D01*
D02*
G37*
G36*
X019673Y04644D02*
X019631D01*
Y046562D01*
X019571D01*
Y046457D01*
X019528D01*
Y046562D01*
X019421D01*
Y046613D01*
X019673D01*
Y04644D01*
D02*
G37*
G36*
X020519Y046844D02*
X020579D01*
Y046949D01*
X020622D01*
Y046844D01*
X020729D01*
Y046793D01*
X020477D01*
Y046966D01*
X020519D01*
Y046844D01*
D02*
G37*
G36*
X020729Y046698D02*
X020701D01*
X020702Y046698D01*
X020704Y046696D01*
X020707Y046694D01*
X02071Y046691D01*
X020714Y046687D01*
X020717Y046683D01*
X020721Y046677D01*
X020725Y046672D01*
X020725Y046671D01*
X020726Y046669D01*
X020727Y046665D01*
X020729Y046661D01*
X02073Y046656D01*
X020732Y04665D01*
X020732Y046644D01*
X020733Y046637D01*
Y046634D01*
X020732Y046631D01*
X020732Y046626D01*
X020731Y046621D01*
X020729Y046616D01*
X020727Y04661D01*
X020725Y046604D01*
X020724Y046604D01*
X020723Y046602D01*
X020721Y046599D01*
X020719Y046596D01*
X020716Y046593D01*
X020712Y046589D01*
X020707Y046586D01*
X020702Y046583D01*
X020701Y046583D01*
X0207Y046582D01*
X020696Y046581D01*
X020692Y04658D01*
X020686Y046579D01*
X020679Y046578D01*
X020671Y046577D01*
X020662Y046577D01*
X020546D01*
Y046625D01*
X02063D01*
X02063D01*
X020632D01*
X020634D01*
X020636D01*
X020639D01*
X020642D01*
X02065Y046625D01*
X020658Y046626D01*
X020666Y046626D01*
X020669Y046626D01*
X020673Y046627D01*
X020675Y046627D01*
X020677Y046628D01*
X020677D01*
X020679Y046628D01*
X02068Y046629D01*
X020682Y04663D01*
X020684Y046631D01*
X020687Y046633D01*
X020689Y046634D01*
X020691Y046637D01*
X020691Y046637D01*
X020692Y046638D01*
X020692Y04664D01*
X020693Y046642D01*
X020694Y046645D01*
X020695Y046648D01*
X020695Y046651D01*
X020696Y046655D01*
Y046657D01*
X020695Y04666D01*
X020695Y046663D01*
X020694Y046666D01*
X020693Y04667D01*
X020691Y046674D01*
X020689Y046677D01*
X020689Y046678D01*
X020688Y046679D01*
X020687Y046681D01*
X020684Y046683D01*
X020682Y046685D01*
X020679Y046687D01*
X020676Y046689D01*
X020672Y046691D01*
X020672D01*
X02067Y046692D01*
X020669D01*
X020667Y046692D01*
X020665Y046692D01*
X020662Y046693D01*
X020659Y046693D01*
X020656Y046693D01*
X020652Y046694D01*
X020647D01*
X020642Y046694D01*
X020636Y046695D01*
X02063D01*
X020623D01*
X020546D01*
Y046743D01*
X020729D01*
Y046698D01*
D02*
G37*
G36*
Y046446D02*
X020546D01*
X020547Y046446D01*
X020547Y046445D01*
X020549Y046444D01*
X02055Y046442D01*
X020553Y046439D01*
X020555Y046436D01*
X020557Y046432D01*
X02056Y046428D01*
X020563Y046424D01*
X020566Y046419D01*
X020569Y046414D01*
X020572Y046409D01*
X020578Y046397D01*
X020583Y046384D01*
X020539D01*
Y046384D01*
X020539Y046385D01*
X020538Y046386D01*
X020538Y046387D01*
X020536Y046391D01*
X020534Y046396D01*
X020531Y046402D01*
X020527Y046409D01*
X020522Y046417D01*
X020516Y046425D01*
X020516Y046425D01*
X020515Y046426D01*
X020514Y046427D01*
X020513Y046428D01*
X020509Y046432D01*
X020505Y046437D01*
X020499Y046442D01*
X020491Y046447D01*
X020484Y046452D01*
X020475Y046455D01*
Y046495D01*
X020729D01*
Y046446D01*
D02*
G37*
G36*
Y046284D02*
X02068D01*
Y046332D01*
X020729D01*
Y046284D01*
D02*
G37*
G36*
X020616Y046241D02*
X020622Y04624D01*
X020629Y04624D01*
X020636Y046239D01*
X020644Y046238D01*
X020653Y046237D01*
X020661Y046235D01*
X02067Y046233D01*
X020678Y04623D01*
X020687Y046228D01*
X020694Y046224D01*
X020701Y046221D01*
X020708Y046216D01*
X020708Y046216D01*
X020709Y046215D01*
X02071Y046214D01*
X020712Y046213D01*
X020713Y04621D01*
X020716Y046208D01*
X020718Y046205D01*
X02072Y046201D01*
X020723Y046197D01*
X020725Y046193D01*
X020728Y046189D01*
X020729Y046183D01*
X020731Y046178D01*
X020732Y046172D01*
X020733Y046166D01*
X020733Y046159D01*
Y046158D01*
X020733Y046155D01*
Y046153D01*
X020733Y04615D01*
X020732Y046146D01*
X020731Y046142D01*
X02073Y046138D01*
X020728Y046133D01*
X020727Y046129D01*
X020724Y046123D01*
X020721Y046119D01*
X020719Y046114D01*
X020715Y046109D01*
X020711Y046104D01*
X020705Y0461D01*
X020705Y046099D01*
X020704Y046099D01*
X020702Y046098D01*
X0207Y046096D01*
X020697Y046095D01*
X020693Y046093D01*
X020688Y046091D01*
X020682Y046089D01*
X020676Y046087D01*
X020668Y046084D01*
X02066Y046083D01*
X020651Y046081D01*
X020641Y04608D01*
X020629Y046079D01*
X020617Y046078D01*
X020604Y046078D01*
X020604D01*
X020604D01*
X020602D01*
X020601D01*
X020597D01*
X020593Y046078D01*
X020587Y046078D01*
X02058Y046079D01*
X020573Y04608D01*
X020565Y04608D01*
X020556Y046082D01*
X020548Y046083D01*
X020539Y046086D01*
X020531Y046088D01*
X020523Y046091D01*
X020515Y046094D01*
X020508Y046098D01*
X020502Y046102D01*
X020501Y046102D01*
X020501Y046103D01*
X020499Y046104D01*
X020498Y046106D01*
X020495Y046108D01*
X020493Y04611D01*
X020491Y046114D01*
X020489Y046117D01*
X020486Y046121D01*
X020484Y046125D01*
X020482Y04613D01*
X020479Y046135D01*
X020478Y04614D01*
X020476Y046146D01*
X020476Y046153D01*
X020475Y046159D01*
Y046163D01*
X020476Y046165D01*
X020476Y046168D01*
X020477Y046172D01*
X020478Y046175D01*
X020479Y04618D01*
X02048Y046185D01*
X020482Y046189D01*
X020484Y046194D01*
X020486Y046198D01*
X02049Y046203D01*
X020493Y046208D01*
X020497Y046212D01*
X020502Y046216D01*
X020502Y046217D01*
X020503Y046217D01*
X020505Y046218D01*
X020507Y04622D01*
X020511Y046222D01*
X020515Y046224D01*
X02052Y046226D01*
X020526Y046229D01*
X020533Y046231D01*
X020541Y046233D01*
X020549Y046235D01*
X020558Y046237D01*
X020569Y046239D01*
X02058Y04624D01*
X020592Y046241D01*
X020605Y046241D01*
X020605D01*
X020605D01*
X020606D01*
X020608D01*
X020612D01*
X020616Y046241D01*
D02*
G37*
G36*
X013482Y045181D02*
X013438D01*
Y045208D01*
X013437Y045208D01*
X013436Y045206D01*
X013434Y045203D01*
X01343Y0452D01*
X013427Y045196D01*
X013422Y045192D01*
X013417Y045188D01*
X013411Y045185D01*
X01341Y045185D01*
X013408Y045184D01*
X013405Y045183D01*
X0134Y045181D01*
X013395Y04518D01*
X013389Y045178D01*
X013383Y045177D01*
X013377Y045177D01*
X013373D01*
X01337Y045177D01*
X013366Y045178D01*
X01336Y045179D01*
X013355Y04518D01*
X013349Y045183D01*
X013344Y045185D01*
X013343Y045185D01*
X013341Y045187D01*
X013339Y045188D01*
X013336Y045191D01*
X013332Y045194D01*
X013329Y045198D01*
X013325Y045203D01*
X013322Y045208D01*
X013322Y045208D01*
X013321Y04521D01*
X01332Y045213D01*
X013319Y045218D01*
X013318Y045224D01*
X013317Y045231D01*
X013316Y045239D01*
X013316Y045248D01*
Y045364D01*
X013364D01*
Y04528D01*
Y045279D01*
Y045278D01*
Y045276D01*
Y045274D01*
Y045271D01*
Y045267D01*
X013365Y04526D01*
X013365Y045251D01*
X013365Y045244D01*
X013366Y04524D01*
X013366Y045237D01*
X013367Y045235D01*
X013367Y045233D01*
Y045232D01*
X013367Y045231D01*
X013368Y04523D01*
X013369Y045228D01*
X01337Y045226D01*
X013372Y045223D01*
X013374Y045221D01*
X013376Y045219D01*
X013377Y045219D01*
X013378Y045218D01*
X013379Y045217D01*
X013381Y045217D01*
X013384Y045216D01*
X013387Y045215D01*
X013391Y045215D01*
X013395Y045214D01*
X013397D01*
X013399Y045215D01*
X013402Y045215D01*
X013405Y045216D01*
X013409Y045217D01*
X013413Y045219D01*
X013417Y045221D01*
X013417Y045221D01*
X013418Y045222D01*
X01342Y045223D01*
X013422Y045226D01*
X013424Y045228D01*
X013427Y045231D01*
X013429Y045234D01*
X01343Y045238D01*
Y045238D01*
X013431Y04524D01*
Y045241D01*
X013431Y045243D01*
X013432Y045245D01*
X013432Y045247D01*
X013432Y045251D01*
X013433Y045254D01*
X013433Y045258D01*
Y045263D01*
X013434Y045268D01*
X013434Y045274D01*
Y04528D01*
Y045287D01*
Y045364D01*
X013482D01*
Y045181D01*
D02*
G37*
G36*
X013705Y04539D02*
X013583D01*
Y045331D01*
X013689D01*
Y045288D01*
X013583D01*
Y045181D01*
X013533D01*
Y045433D01*
X013705D01*
Y04539D01*
D02*
G37*
G36*
X013038Y045181D02*
X01299D01*
Y045363D01*
X012989Y045363D01*
X012989Y045362D01*
X012987Y045361D01*
X012985Y045359D01*
X012983Y045357D01*
X01298Y045355D01*
X012976Y045353D01*
X012972Y04535D01*
X012968Y045347D01*
X012963Y045344D01*
X012958Y045341D01*
X012952Y045338D01*
X012941Y045332D01*
X012928Y045327D01*
Y045371D01*
X012928D01*
X012928Y045371D01*
X012929Y045371D01*
X012931Y045372D01*
X012934Y045374D01*
X01294Y045376D01*
X012946Y045379D01*
X012953Y045383D01*
X01296Y045388D01*
X012968Y045394D01*
X012969Y045394D01*
X012969Y045394D01*
X012971Y045395D01*
X012972Y045397D01*
X012976Y045401D01*
X01298Y045405D01*
X012985Y045411D01*
X012991Y045418D01*
X012995Y045426D01*
X012999Y045434D01*
X013038D01*
Y045181D01*
D02*
G37*
G36*
X013198Y045434D02*
X013201Y045434D01*
X013205Y045433D01*
X013209Y045432D01*
X013213Y045431D01*
X013218Y04543D01*
X013222Y045428D01*
X013227Y045426D01*
X013232Y045424D01*
X013236Y04542D01*
X013241Y045417D01*
X013245Y045413D01*
X013249Y045408D01*
X01325Y045408D01*
X01325Y045407D01*
X013252Y045405D01*
X013253Y045402D01*
X013255Y045399D01*
X013257Y045394D01*
X01326Y04539D01*
X013262Y045383D01*
X013264Y045377D01*
X013266Y045369D01*
X013268Y045361D01*
X01327Y045351D01*
X013272Y045341D01*
X013273Y04533D01*
X013274Y045318D01*
X013274Y045305D01*
Y045305D01*
Y045304D01*
Y045303D01*
Y045302D01*
Y045298D01*
X013274Y045294D01*
X013273Y045288D01*
X013273Y045281D01*
X013272Y045274D01*
X013271Y045266D01*
X01327Y045257D01*
X013268Y045248D01*
X013266Y04524D01*
X013264Y045232D01*
X013261Y045223D01*
X013257Y045216D01*
X013254Y045208D01*
X013249Y045202D01*
X013249Y045202D01*
X013248Y045201D01*
X013247Y0452D01*
X013246Y045198D01*
X013244Y045196D01*
X013241Y045194D01*
X013238Y045192D01*
X013234Y045189D01*
X01323Y045187D01*
X013226Y045184D01*
X013222Y045182D01*
X013217Y04518D01*
X013211Y045179D01*
X013205Y045177D01*
X013199Y045177D01*
X013192Y045176D01*
X013191D01*
X013189Y045177D01*
X013186D01*
X013183Y045177D01*
X013179Y045178D01*
X013175Y045179D01*
X013171Y04518D01*
X013166Y045181D01*
X013162Y045183D01*
X013157Y045185D01*
X013152Y045188D01*
X013147Y045191D01*
X013142Y045195D01*
X013137Y045199D01*
X013133Y045204D01*
X013132Y045205D01*
X013132Y045206D01*
X013131Y045208D01*
X01313Y04521D01*
X013128Y045213D01*
X013126Y045217D01*
X013124Y045222D01*
X013122Y045228D01*
X01312Y045234D01*
X013118Y045242D01*
X013116Y04525D01*
X013114Y045259D01*
X013113Y045269D01*
X013112Y04528D01*
X013111Y045292D01*
X013111Y045306D01*
Y045306D01*
Y045306D01*
Y045307D01*
Y045309D01*
Y045313D01*
X013111Y045317D01*
X013111Y045323D01*
X013112Y04533D01*
X013113Y045337D01*
X013114Y045345D01*
X013115Y045354D01*
X013116Y045362D01*
X013119Y045371D01*
X013121Y045379D01*
X013124Y045387D01*
X013127Y045395D01*
X013131Y045402D01*
X013135Y045408D01*
X013135Y045409D01*
X013136Y045409D01*
X013137Y045411D01*
X013139Y045412D01*
X013141Y045414D01*
X013143Y045417D01*
X013147Y045419D01*
X01315Y045421D01*
X013154Y045424D01*
X013158Y045426D01*
X013163Y045428D01*
X013168Y04543D01*
X013173Y045432D01*
X013179Y045433D01*
X013186Y045434D01*
X013192Y045434D01*
X013196D01*
X013198Y045434D01*
D02*
G37*
G36*
X018219Y046733D02*
X018279D01*
Y046839D01*
X018322D01*
Y046733D01*
X018429D01*
Y046683D01*
X018177D01*
Y046855D01*
X018219D01*
Y046733D01*
D02*
G37*
G36*
X018429Y046588D02*
X018401D01*
X018402Y046587D01*
X018404Y046586D01*
X018407Y046584D01*
X01841Y04658D01*
X018414Y046577D01*
X018417Y046572D01*
X018421Y046567D01*
X018425Y046561D01*
X018425Y04656D01*
X018426Y046558D01*
X018427Y046555D01*
X018429Y04655D01*
X01843Y046545D01*
X018432Y046539D01*
X018432Y046533D01*
X018433Y046527D01*
Y046523D01*
X018432Y04652D01*
X018432Y046516D01*
X018431Y04651D01*
X018429Y046505D01*
X018427Y046499D01*
X018425Y046494D01*
X018424Y046493D01*
X018423Y046491D01*
X018421Y046489D01*
X018419Y046486D01*
X018416Y046482D01*
X018412Y046479D01*
X018407Y046475D01*
X018402Y046473D01*
X018401Y046472D01*
X0184Y046471D01*
X018396Y04647D01*
X018392Y046469D01*
X018386Y046468D01*
X018379Y046467D01*
X018371Y046466D01*
X018362Y046466D01*
X018246D01*
Y046514D01*
X01833D01*
X01833D01*
X018332D01*
X018334D01*
X018336D01*
X018339D01*
X018342D01*
X01835Y046515D01*
X018358Y046515D01*
X018366Y046515D01*
X018369Y046516D01*
X018373Y046516D01*
X018375Y046517D01*
X018377Y046517D01*
X018377D01*
X018379Y046517D01*
X01838Y046518D01*
X018382Y046519D01*
X018384Y04652D01*
X018387Y046522D01*
X018389Y046524D01*
X018391Y046526D01*
X018391Y046527D01*
X018392Y046528D01*
X018392Y046529D01*
X018393Y046531D01*
X018394Y046534D01*
X018395Y046537D01*
X018395Y046541D01*
X018396Y046545D01*
Y046547D01*
X018395Y046549D01*
X018395Y046552D01*
X018394Y046555D01*
X018393Y046559D01*
X018391Y046563D01*
X018389Y046567D01*
X018389Y046567D01*
X018388Y046568D01*
X018387Y04657D01*
X018384Y046572D01*
X018382Y046574D01*
X018379Y046577D01*
X018376Y046579D01*
X018372Y04658D01*
X018372D01*
X01837Y046581D01*
X018369D01*
X018367Y046581D01*
X018365Y046582D01*
X018362Y046582D01*
X018359Y046582D01*
X018356Y046583D01*
X018352Y046583D01*
X018347D01*
X018342Y046584D01*
X018336Y046584D01*
X01833D01*
X018323D01*
X018246D01*
Y046632D01*
X018429D01*
Y046588D01*
D02*
G37*
G36*
X018316Y046424D02*
X018322Y046423D01*
X018329Y046423D01*
X018336Y046422D01*
X018344Y046421D01*
X018353Y04642D01*
X018361Y046418D01*
X01837Y046416D01*
X018378Y046414D01*
X018387Y046411D01*
X018394Y046407D01*
X018401Y046404D01*
X018408Y046399D01*
X018408Y046399D01*
X018409Y046398D01*
X01841Y046397D01*
X018412Y046396D01*
X018413Y046394D01*
X018416Y046391D01*
X018418Y046388D01*
X01842Y046384D01*
X018423Y04638D01*
X018425Y046376D01*
X018428Y046372D01*
X018429Y046367D01*
X018431Y046361D01*
X018432Y046355D01*
X018433Y046349D01*
X018433Y046342D01*
Y046341D01*
X018433Y046339D01*
Y046336D01*
X018433Y046333D01*
X018432Y046329D01*
X018431Y046325D01*
X01843Y046321D01*
X018428Y046316D01*
X018427Y046312D01*
X018424Y046307D01*
X018421Y046302D01*
X018419Y046297D01*
X018415Y046292D01*
X018411Y046287D01*
X018405Y046283D01*
X018405Y046282D01*
X018404Y046282D01*
X018402Y046281D01*
X0184Y04628D01*
X018397Y046278D01*
X018393Y046276D01*
X018388Y046274D01*
X018382Y046272D01*
X018376Y04627D01*
X018368Y046268D01*
X01836Y046266D01*
X018351Y046264D01*
X018341Y046263D01*
X018329Y046262D01*
X018317Y046261D01*
X018304Y046261D01*
X018304D01*
X018304D01*
X018302D01*
X018301D01*
X018297D01*
X018293Y046261D01*
X018287Y046261D01*
X01828Y046262D01*
X018273Y046263D01*
X018265Y046264D01*
X018256Y046265D01*
X018248Y046266D01*
X018239Y046269D01*
X018231Y046271D01*
X018223Y046274D01*
X018215Y046277D01*
X018208Y046281D01*
X018202Y046285D01*
X018201Y046285D01*
X018201Y046286D01*
X018199Y046287D01*
X018198Y046289D01*
X018195Y046291D01*
X018193Y046293D01*
X018191Y046297D01*
X018189Y0463D01*
X018186Y046304D01*
X018184Y046308D01*
X018182Y046313D01*
X018179Y046318D01*
X018178Y046323D01*
X018176Y046329D01*
X018176Y046336D01*
X018175Y046342D01*
Y046346D01*
X018176Y046348D01*
X018176Y046351D01*
X018177Y046355D01*
X018178Y046359D01*
X018179Y046363D01*
X01818Y046368D01*
X018182Y046372D01*
X018184Y046377D01*
X018186Y046382D01*
X01819Y046386D01*
X018193Y046391D01*
X018197Y046395D01*
X018202Y046399D01*
X018202Y0464D01*
X018203Y0464D01*
X018205Y046402D01*
X018207Y046403D01*
X018211Y046405D01*
X018215Y046407D01*
X01822Y04641D01*
X018226Y046412D01*
X018233Y046414D01*
X018241Y046416D01*
X018249Y046418D01*
X018258Y04642D01*
X018269Y046422D01*
X01828Y046423D01*
X018292Y046424D01*
X018305Y046424D01*
X018305D01*
X018305D01*
X018306D01*
X018308D01*
X018312D01*
X018316Y046424D01*
D02*
G37*
G36*
X018429Y04614D02*
X018246D01*
X018247Y046139D01*
X018247Y046139D01*
X018249Y046137D01*
X01825Y046135D01*
X018253Y046133D01*
X018255Y04613D01*
X018257Y046126D01*
X01826Y046122D01*
X018263Y046118D01*
X018266Y046113D01*
X018269Y046108D01*
X018272Y046102D01*
X018278Y046091D01*
X018283Y046078D01*
X018239D01*
Y046078D01*
X018239Y046078D01*
X018238Y046079D01*
X018238Y046081D01*
X018236Y046084D01*
X018234Y04609D01*
X018231Y046096D01*
X018227Y046103D01*
X018222Y04611D01*
X018216Y046118D01*
X018216Y046119D01*
X018215Y046119D01*
X018214Y046121D01*
X018213Y046122D01*
X018209Y046126D01*
X018205Y04613D01*
X018199Y046135D01*
X018191Y046141D01*
X018184Y046145D01*
X018175Y046149D01*
Y046188D01*
X018429D01*
Y04614D01*
D02*
G37*
G36*
X013593Y046314D02*
X013548D01*
Y046341D01*
X013548Y04634D01*
X013546Y046339D01*
X013544Y046336D01*
X013541Y046333D01*
X013537Y046329D01*
X013533Y046325D01*
X013527Y046321D01*
X013522Y046318D01*
X013521Y046317D01*
X013519Y046317D01*
X013515Y046315D01*
X013511Y046314D01*
X013506Y046312D01*
X0135Y046311D01*
X013494Y04631D01*
X013487Y04631D01*
X013484D01*
X013481Y04631D01*
X013476Y046311D01*
X013471Y046312D01*
X013466Y046313D01*
X01346Y046315D01*
X013454Y046318D01*
X013454Y046318D01*
X013452Y046319D01*
X013449Y046321D01*
X013446Y046324D01*
X013443Y046327D01*
X013439Y046331D01*
X013436Y046335D01*
X013433Y04634D01*
X013433Y046341D01*
X013432Y046343D01*
X013431Y046346D01*
X01343Y046351D01*
X013429Y046357D01*
X013428Y046364D01*
X013427Y046372D01*
X013427Y046381D01*
Y046497D01*
X013475D01*
Y046412D01*
Y046412D01*
Y046411D01*
Y046409D01*
Y046406D01*
Y046403D01*
Y0464D01*
X013475Y046392D01*
X013476Y046384D01*
X013476Y046376D01*
X013476Y046373D01*
X013477Y04637D01*
X013477Y046367D01*
X013478Y046365D01*
Y046365D01*
X013478Y046364D01*
X013479Y046363D01*
X01348Y04636D01*
X013481Y046358D01*
X013483Y046356D01*
X013484Y046354D01*
X013487Y046352D01*
X013487Y046351D01*
X013488Y046351D01*
X01349Y04635D01*
X013492Y046349D01*
X013495Y046348D01*
X013498Y046348D01*
X013501Y046347D01*
X013505Y046347D01*
X013507D01*
X01351Y046347D01*
X013513Y046348D01*
X013516Y046348D01*
X01352Y04635D01*
X013524Y046351D01*
X013527Y046353D01*
X013528Y046354D01*
X013529Y046355D01*
X013531Y046356D01*
X013533Y046358D01*
X013535Y046361D01*
X013537Y046363D01*
X013539Y046367D01*
X013541Y04637D01*
Y046371D01*
X013542Y046372D01*
Y046374D01*
X013542Y046376D01*
X013542Y046377D01*
X013543Y04638D01*
X013543Y046383D01*
X013543Y046387D01*
X013544Y046391D01*
Y046395D01*
X013544Y0464D01*
X013545Y046406D01*
Y046412D01*
Y046419D01*
Y046497D01*
X013593D01*
Y046314D01*
D02*
G37*
G36*
X013816Y046523D02*
X013694D01*
Y046463D01*
X013799D01*
Y046421D01*
X013694D01*
Y046314D01*
X013643D01*
Y046566D01*
X013816D01*
Y046523D01*
D02*
G37*
G36*
X013345Y046314D02*
X013296D01*
Y046496D01*
X013296Y046496D01*
X013295Y046495D01*
X013294Y046494D01*
X013292Y046492D01*
X013289Y04649D01*
X013286Y046488D01*
X013282Y046485D01*
X013278Y046482D01*
X013274Y046479D01*
X013269Y046476D01*
X013264Y046473D01*
X013259Y04647D01*
X013247Y046465D01*
X013234Y04646D01*
Y046503D01*
X013234D01*
X013235Y046504D01*
X013236Y046504D01*
X013237Y046505D01*
X013241Y046506D01*
X013246Y046509D01*
X013252Y046511D01*
X013259Y046515D01*
X013267Y046521D01*
X013275Y046526D01*
X013275Y046527D01*
X013276Y046527D01*
X013277Y046528D01*
X013278Y04653D01*
X013282Y046533D01*
X013287Y046538D01*
X013292Y046544D01*
X013297Y046551D01*
X013302Y046559D01*
X013305Y046567D01*
X013345D01*
Y046314D01*
D02*
G37*
G36*
X013182D02*
X013134D01*
Y046362D01*
X013182D01*
Y046314D01*
D02*
G37*
G36*
X013015Y046567D02*
X013018Y046566D01*
X013022Y046566D01*
X013025Y046565D01*
X01303Y046564D01*
X013035Y046562D01*
X013039Y046561D01*
X013044Y046559D01*
X013048Y046556D01*
X013053Y046553D01*
X013058Y04655D01*
X013062Y046546D01*
X013066Y046541D01*
X013067Y046541D01*
X013067Y046539D01*
X013068Y046538D01*
X01307Y046535D01*
X013072Y046531D01*
X013074Y046527D01*
X013076Y046522D01*
X013079Y046516D01*
X013081Y04651D01*
X013083Y046502D01*
X013085Y046494D01*
X013087Y046484D01*
X013089Y046474D01*
X01309Y046463D01*
X013091Y046451D01*
X013091Y046438D01*
Y046438D01*
Y046437D01*
Y046436D01*
Y046435D01*
Y046431D01*
X013091Y046426D01*
X01309Y04642D01*
X01309Y046414D01*
X013089Y046406D01*
X013088Y046398D01*
X013087Y04639D01*
X013085Y046381D01*
X013083Y046373D01*
X01308Y046364D01*
X013078Y046356D01*
X013074Y046348D01*
X013071Y046341D01*
X013066Y046335D01*
X013066Y046335D01*
X013065Y046334D01*
X013064Y046332D01*
X013063Y046331D01*
X01306Y046329D01*
X013058Y046327D01*
X013055Y046324D01*
X013051Y046322D01*
X013047Y04632D01*
X013043Y046317D01*
X013039Y046315D01*
X013033Y046313D01*
X013028Y046312D01*
X013022Y04631D01*
X013016Y046309D01*
X013009Y046309D01*
X013008D01*
X013005Y046309D01*
X013003D01*
X013Y04631D01*
X012996Y046311D01*
X012992Y046311D01*
X012988Y046313D01*
X012983Y046314D01*
X012979Y046316D01*
X012973Y046318D01*
X012969Y046321D01*
X012964Y046324D01*
X012959Y046328D01*
X012954Y046332D01*
X01295Y046337D01*
X012949Y046337D01*
X012949Y046339D01*
X012948Y04634D01*
X012946Y046343D01*
X012945Y046346D01*
X012943Y04635D01*
X012941Y046355D01*
X012939Y04636D01*
X012937Y046367D01*
X012934Y046374D01*
X012933Y046383D01*
X012931Y046392D01*
X01293Y046402D01*
X012929Y046413D01*
X012928Y046425D01*
X012928Y046438D01*
Y046439D01*
Y046439D01*
Y04644D01*
Y046442D01*
Y046445D01*
X012928Y04645D01*
X012928Y046456D01*
X012929Y046463D01*
X01293Y04647D01*
X01293Y046478D01*
X012932Y046486D01*
X012933Y046495D01*
X012936Y046503D01*
X012938Y046512D01*
X012941Y04652D01*
X012944Y046527D01*
X012948Y046535D01*
X012952Y046541D01*
X012952Y046541D01*
X012953Y046542D01*
X012954Y046543D01*
X012956Y046545D01*
X012958Y046547D01*
X01296Y046549D01*
X012964Y046551D01*
X012967Y046554D01*
X012971Y046557D01*
X012975Y046559D01*
X01298Y046561D01*
X012985Y046563D01*
X01299Y046565D01*
X012996Y046566D01*
X013003Y046567D01*
X013009Y046567D01*
X013013D01*
X013015Y046567D01*
D02*
G37*
G36*
X020878Y044553D02*
X02083D01*
Y044687D01*
X020773Y044623D01*
X020714D01*
X020777Y04469D01*
X02071Y044805D01*
X020762D01*
X020808Y044723D01*
X02083Y044747D01*
Y044805D01*
X020878D01*
Y044553D01*
D02*
G37*
G36*
X021008Y044623D02*
X021008Y044623D01*
X021009Y044624D01*
X02101Y044625D01*
X021012Y044627D01*
X021015Y044629D01*
X021018Y044631D01*
X021022Y044634D01*
X021026Y044637D01*
X02103Y04464D01*
X021035Y044643D01*
X02104Y044646D01*
X021045Y044649D01*
X021057Y044654D01*
X02107Y044659D01*
Y044616D01*
X02107D01*
X021069Y044615D01*
X021068Y044615D01*
X021067Y044615D01*
X021063Y044613D01*
X021058Y044611D01*
X021052Y044608D01*
X021045Y044604D01*
X021037Y044599D01*
X021029Y044593D01*
X021029Y044592D01*
X021028Y044592D01*
X021027Y044591D01*
X021026Y04459D01*
X021022Y044586D01*
X021017Y044581D01*
X021012Y044575D01*
X021007Y044568D01*
X021002Y04456D01*
X020999Y044552D01*
X020959D01*
Y044805D01*
X021008D01*
Y044623D01*
D02*
G37*
G36*
X028593Y022221D02*
X028548D01*
Y022249D01*
X028548Y022248D01*
X028546Y022246D01*
X028544Y022243D01*
X028541Y02224D01*
X028537Y022236D01*
X028533Y022233D01*
X028527Y022229D01*
X028522Y022225D01*
X028521Y022225D01*
X028519Y022224D01*
X028515Y022223D01*
X028511Y022221D01*
X028506Y02222D01*
X0285Y022218D01*
X028494Y022218D01*
X028487Y022217D01*
X028484D01*
X028481Y022218D01*
X028476Y022218D01*
X028471Y022219D01*
X028466Y022221D01*
X02846Y022223D01*
X028454Y022225D01*
X028454Y022226D01*
X028452Y022227D01*
X028449Y022229D01*
X028446Y022231D01*
X028443Y022234D01*
X028439Y022238D01*
X028436Y022243D01*
X028433Y022248D01*
X028433Y022249D01*
X028432Y02225D01*
X028431Y022254D01*
X02843Y022258D01*
X028429Y022264D01*
X028428Y022271D01*
X028427Y022279D01*
X028427Y022288D01*
Y022404D01*
X028475D01*
Y02232D01*
Y02232D01*
Y022318D01*
Y022316D01*
Y022314D01*
Y022311D01*
Y022308D01*
X028475Y0223D01*
X028476Y022292D01*
X028476Y022284D01*
X028476Y022281D01*
X028477Y022277D01*
X028477Y022275D01*
X028478Y022273D01*
Y022273D01*
X028478Y022271D01*
X028479Y02227D01*
X02848Y022268D01*
X028481Y022266D01*
X028483Y022263D01*
X028484Y022261D01*
X028487Y022259D01*
X028487Y022259D01*
X028488Y022258D01*
X02849Y022258D01*
X028492Y022257D01*
X028495Y022256D01*
X028498Y022255D01*
X028501Y022255D01*
X028505Y022254D01*
X028507D01*
X02851Y022255D01*
X028513Y022255D01*
X028516Y022256D01*
X02852Y022257D01*
X028524Y022259D01*
X028527Y022261D01*
X028528Y022261D01*
X028529Y022262D01*
X028531Y022263D01*
X028533Y022266D01*
X028535Y022268D01*
X028537Y022271D01*
X028539Y022274D01*
X028541Y022278D01*
Y022278D01*
X028542Y02228D01*
Y022281D01*
X028542Y022283D01*
X028542Y022285D01*
X028543Y022288D01*
X028543Y022291D01*
X028543Y022294D01*
X028544Y022298D01*
Y022303D01*
X028544Y022308D01*
X028545Y022314D01*
Y02232D01*
Y022327D01*
Y022404D01*
X028593D01*
Y022221D01*
D02*
G37*
G36*
X028816Y022431D02*
X028694D01*
Y022371D01*
X028799D01*
Y022328D01*
X028694D01*
Y022221D01*
X028643D01*
Y022473D01*
X028816D01*
Y022431D01*
D02*
G37*
G36*
X028345Y022221D02*
X028296D01*
Y022404D01*
X028296Y022403D01*
X028295Y022403D01*
X028294Y022401D01*
X028292Y0224D01*
X028289Y022397D01*
X028286Y022395D01*
X028282Y022393D01*
X028278Y02239D01*
X028274Y022387D01*
X028269Y022384D01*
X028264Y022381D01*
X028259Y022378D01*
X028247Y022372D01*
X028234Y022367D01*
Y022411D01*
X028234D01*
X028235Y022411D01*
X028236Y022412D01*
X028237Y022412D01*
X028241Y022414D01*
X028246Y022416D01*
X028252Y022419D01*
X028259Y022423D01*
X028267Y022428D01*
X028275Y022434D01*
X028275Y022434D01*
X028276Y022435D01*
X028277Y022436D01*
X028278Y022437D01*
X028282Y022441D01*
X028287Y022445D01*
X028292Y022451D01*
X028297Y022459D01*
X028302Y022466D01*
X028305Y022475D01*
X028345D01*
Y022221D01*
D02*
G37*
G36*
X028182D02*
X028134D01*
Y02227D01*
X028182D01*
Y022221D01*
D02*
G37*
G36*
X028015Y022474D02*
X028018Y022474D01*
X028022Y022473D01*
X028025Y022472D01*
X02803Y022471D01*
X028035Y02247D01*
X028039Y022468D01*
X028044Y022466D01*
X028048Y022464D01*
X028053Y02246D01*
X028058Y022457D01*
X028062Y022453D01*
X028066Y022448D01*
X028067Y022448D01*
X028067Y022447D01*
X028068Y022445D01*
X02807Y022443D01*
X028072Y022439D01*
X028074Y022435D01*
X028076Y02243D01*
X028079Y022424D01*
X028081Y022417D01*
X028083Y022409D01*
X028085Y022401D01*
X028087Y022392D01*
X028089Y022381D01*
X02809Y022371D01*
X028091Y022358D01*
X028091Y022345D01*
Y022345D01*
Y022345D01*
Y022344D01*
Y022342D01*
Y022338D01*
X028091Y022334D01*
X02809Y022328D01*
X02809Y022321D01*
X028089Y022314D01*
X028088Y022306D01*
X028087Y022297D01*
X028085Y022289D01*
X028083Y02228D01*
X02808Y022272D01*
X028078Y022263D01*
X028074Y022256D01*
X028071Y022249D01*
X028066Y022242D01*
X028066Y022242D01*
X028065Y022241D01*
X028064Y02224D01*
X028063Y022238D01*
X02806Y022237D01*
X028058Y022234D01*
X028055Y022232D01*
X028051Y02223D01*
X028047Y022227D01*
X028043Y022225D01*
X028039Y022222D01*
X028033Y022221D01*
X028028Y022219D01*
X028022Y022218D01*
X028016Y022217D01*
X028009Y022217D01*
X028008D01*
X028005Y022217D01*
X028003D01*
X028Y022217D01*
X027996Y022218D01*
X027992Y022219D01*
X027988Y02222D01*
X027983Y022222D01*
X027979Y022223D01*
X027973Y022226D01*
X027969Y022229D01*
X027964Y022231D01*
X027959Y022235D01*
X027954Y022239D01*
X02795Y022245D01*
X027949Y022245D01*
X027949Y022246D01*
X027948Y022248D01*
X027946Y02225D01*
X027945Y022253D01*
X027943Y022257D01*
X027941Y022262D01*
X027939Y022268D01*
X027937Y022274D01*
X027934Y022282D01*
X027933Y02229D01*
X027931Y022299D01*
X02793Y022309D01*
X027929Y022321D01*
X027928Y022333D01*
X027928Y022346D01*
Y022346D01*
Y022346D01*
Y022348D01*
Y022349D01*
Y022353D01*
X027928Y022357D01*
X027928Y022363D01*
X027929Y02237D01*
X02793Y022377D01*
X02793Y022385D01*
X027932Y022394D01*
X027933Y022402D01*
X027936Y022411D01*
X027938Y022419D01*
X027941Y022427D01*
X027944Y022435D01*
X027948Y022442D01*
X027952Y022448D01*
X027952Y022449D01*
X027953Y022449D01*
X027954Y022451D01*
X027956Y022452D01*
X027958Y022455D01*
X02796Y022457D01*
X027964Y022459D01*
X027967Y022462D01*
X027971Y022464D01*
X027975Y022466D01*
X02798Y022468D01*
X027985Y022471D01*
X02799Y022472D01*
X027996Y022474D01*
X028003Y022474D01*
X028009Y022475D01*
X028013D01*
X028015Y022474D01*
D02*
G37*
G36*
X022369Y046844D02*
X022429D01*
Y046949D01*
X022472D01*
Y046844D01*
X022579D01*
Y046793D01*
X022327D01*
Y046966D01*
X022369D01*
Y046844D01*
D02*
G37*
G36*
X022579Y046698D02*
X022551D01*
X022552Y046698D01*
X022554Y046696D01*
X022557Y046694D01*
X02256Y046691D01*
X022564Y046687D01*
X022567Y046683D01*
X022571Y046677D01*
X022575Y046672D01*
X022575Y046671D01*
X022576Y046669D01*
X022577Y046665D01*
X022579Y046661D01*
X02258Y046656D01*
X022582Y04665D01*
X022582Y046644D01*
X022583Y046637D01*
Y046634D01*
X022582Y046631D01*
X022582Y046626D01*
X022581Y046621D01*
X022579Y046616D01*
X022577Y04661D01*
X022575Y046604D01*
X022574Y046604D01*
X022573Y046602D01*
X022571Y046599D01*
X022569Y046596D01*
X022566Y046593D01*
X022562Y046589D01*
X022557Y046586D01*
X022552Y046583D01*
X022551Y046583D01*
X02255Y046582D01*
X022546Y046581D01*
X022542Y04658D01*
X022536Y046579D01*
X022529Y046578D01*
X022521Y046577D01*
X022512Y046577D01*
X022396D01*
Y046625D01*
X02248D01*
X02248D01*
X022482D01*
X022484D01*
X022486D01*
X022489D01*
X022492D01*
X0225Y046625D01*
X022508Y046626D01*
X022516Y046626D01*
X022519Y046626D01*
X022523Y046627D01*
X022525Y046627D01*
X022527Y046628D01*
X022527D01*
X022529Y046628D01*
X02253Y046629D01*
X022532Y04663D01*
X022534Y046631D01*
X022537Y046633D01*
X022539Y046634D01*
X022541Y046637D01*
X022541Y046637D01*
X022542Y046638D01*
X022542Y04664D01*
X022543Y046642D01*
X022544Y046645D01*
X022545Y046648D01*
X022545Y046651D01*
X022546Y046655D01*
Y046657D01*
X022545Y04666D01*
X022545Y046663D01*
X022544Y046666D01*
X022543Y04667D01*
X022541Y046674D01*
X022539Y046677D01*
X022539Y046678D01*
X022538Y046679D01*
X022537Y046681D01*
X022534Y046683D01*
X022532Y046685D01*
X022529Y046687D01*
X022526Y046689D01*
X022522Y046691D01*
X022522D01*
X02252Y046692D01*
X022519D01*
X022517Y046692D01*
X022515Y046692D01*
X022512Y046693D01*
X022509Y046693D01*
X022506Y046693D01*
X022502Y046694D01*
X022497D01*
X022492Y046694D01*
X022486Y046695D01*
X02248D01*
X022473D01*
X022396D01*
Y046743D01*
X022579D01*
Y046698D01*
D02*
G37*
G36*
Y046446D02*
X022396D01*
X022397Y046446D01*
X022397Y046445D01*
X022399Y046444D01*
X0224Y046442D01*
X022403Y046439D01*
X022405Y046436D01*
X022407Y046432D01*
X02241Y046428D01*
X022413Y046424D01*
X022416Y046419D01*
X022419Y046414D01*
X022422Y046409D01*
X022428Y046397D01*
X022433Y046384D01*
X022389D01*
Y046384D01*
X022389Y046385D01*
X022388Y046386D01*
X022388Y046387D01*
X022386Y046391D01*
X022384Y046396D01*
X022381Y046402D01*
X022377Y046409D01*
X022372Y046417D01*
X022366Y046425D01*
X022366Y046425D01*
X022365Y046426D01*
X022364Y046427D01*
X022363Y046428D01*
X022359Y046432D01*
X022355Y046437D01*
X022349Y046442D01*
X022341Y046447D01*
X022334Y046452D01*
X022325Y046455D01*
Y046495D01*
X022579D01*
Y046446D01*
D02*
G37*
G36*
Y046284D02*
X02253D01*
Y046332D01*
X022579D01*
Y046284D01*
D02*
G37*
G36*
X022466Y046241D02*
X022472Y04624D01*
X022479Y04624D01*
X022486Y046239D01*
X022494Y046238D01*
X022503Y046237D01*
X022511Y046235D01*
X02252Y046233D01*
X022528Y04623D01*
X022537Y046228D01*
X022544Y046224D01*
X022551Y046221D01*
X022558Y046216D01*
X022558Y046216D01*
X022559Y046215D01*
X02256Y046214D01*
X022562Y046213D01*
X022563Y04621D01*
X022566Y046208D01*
X022568Y046205D01*
X02257Y046201D01*
X022573Y046197D01*
X022575Y046193D01*
X022578Y046189D01*
X022579Y046183D01*
X022581Y046178D01*
X022582Y046172D01*
X022583Y046166D01*
X022583Y046159D01*
Y046158D01*
X022583Y046155D01*
Y046153D01*
X022583Y04615D01*
X022582Y046146D01*
X022581Y046142D01*
X02258Y046138D01*
X022578Y046133D01*
X022577Y046129D01*
X022574Y046123D01*
X022571Y046119D01*
X022569Y046114D01*
X022565Y046109D01*
X022561Y046104D01*
X022555Y0461D01*
X022555Y046099D01*
X022554Y046099D01*
X022552Y046098D01*
X02255Y046096D01*
X022547Y046095D01*
X022543Y046093D01*
X022538Y046091D01*
X022532Y046089D01*
X022526Y046087D01*
X022518Y046084D01*
X02251Y046083D01*
X022501Y046081D01*
X022491Y04608D01*
X022479Y046079D01*
X022467Y046078D01*
X022454Y046078D01*
X022454D01*
X022454D01*
X022452D01*
X022451D01*
X022447D01*
X022443Y046078D01*
X022437Y046078D01*
X02243Y046079D01*
X022423Y04608D01*
X022415Y04608D01*
X022406Y046082D01*
X022398Y046083D01*
X022389Y046086D01*
X022381Y046088D01*
X022373Y046091D01*
X022365Y046094D01*
X022358Y046098D01*
X022352Y046102D01*
X022351Y046102D01*
X022351Y046103D01*
X022349Y046104D01*
X022348Y046106D01*
X022345Y046108D01*
X022343Y04611D01*
X022341Y046114D01*
X022339Y046117D01*
X022336Y046121D01*
X022334Y046125D01*
X022332Y04613D01*
X022329Y046135D01*
X022328Y04614D01*
X022326Y046146D01*
X022326Y046153D01*
X022325Y046159D01*
Y046163D01*
X022326Y046165D01*
X022326Y046168D01*
X022327Y046172D01*
X022328Y046175D01*
X022329Y04618D01*
X02233Y046185D01*
X022332Y046189D01*
X022334Y046194D01*
X022336Y046198D01*
X02234Y046203D01*
X022343Y046208D01*
X022347Y046212D01*
X022352Y046216D01*
X022352Y046217D01*
X022353Y046217D01*
X022355Y046218D01*
X022357Y04622D01*
X022361Y046222D01*
X022365Y046224D01*
X02237Y046226D01*
X022376Y046229D01*
X022383Y046231D01*
X022391Y046233D01*
X022399Y046235D01*
X022408Y046237D01*
X022419Y046239D01*
X022429Y04624D01*
X022442Y046241D01*
X022455Y046241D01*
X022455D01*
X022455D01*
X022456D01*
X022458D01*
X022462D01*
X022466Y046241D01*
D02*
G37*
G36*
X027828Y036758D02*
X02778D01*
Y036892D01*
X027723Y036827D01*
X027664D01*
X027727Y036894D01*
X02766Y03701D01*
X027712D01*
X027758Y036928D01*
X02778Y036952D01*
Y03701D01*
X027828D01*
Y036758D01*
D02*
G37*
G36*
X027958Y036828D02*
X027958Y036828D01*
X027959Y036829D01*
X02796Y03683D01*
X027962Y036832D01*
X027965Y036834D01*
X027968Y036836D01*
X027972Y036839D01*
X027976Y036841D01*
X02798Y036844D01*
X027985Y036847D01*
X02799Y036851D01*
X027995Y036853D01*
X028007Y036859D01*
X02802Y036864D01*
Y03682D01*
X02802D01*
X028019Y03682D01*
X028018Y03682D01*
X028017Y036819D01*
X028013Y036817D01*
X028008Y036815D01*
X028002Y036812D01*
X027995Y036808D01*
X027987Y036803D01*
X027979Y036797D01*
X027979Y036797D01*
X027978Y036797D01*
X027977Y036796D01*
X027976Y036794D01*
X027972Y036791D01*
X027967Y036786D01*
X027962Y03678D01*
X027957Y036773D01*
X027952Y036765D01*
X027949Y036757D01*
X027909D01*
Y03701D01*
X027958D01*
Y036828D01*
D02*
G37*
G36*
X030069Y027482D02*
X030129D01*
Y027588D01*
X030172D01*
Y027482D01*
X030279D01*
Y027431D01*
X030027D01*
Y027604D01*
X030069D01*
Y027482D01*
D02*
G37*
G36*
X030279Y027336D02*
X030251D01*
X030252Y027336D01*
X030254Y027335D01*
X030257Y027332D01*
X03026Y027329D01*
X030264Y027325D01*
X030267Y027321D01*
X030271Y027316D01*
X030275Y02731D01*
X030275Y027309D01*
X030276Y027307D01*
X030277Y027304D01*
X030279Y027299D01*
X03028Y027294D01*
X030282Y027288D01*
X030282Y027282D01*
X030283Y027276D01*
Y027272D01*
X030282Y027269D01*
X030282Y027265D01*
X030281Y027259D01*
X030279Y027254D01*
X030277Y027248D01*
X030275Y027242D01*
X030274Y027242D01*
X030273Y02724D01*
X030271Y027237D01*
X030269Y027234D01*
X030266Y027231D01*
X030262Y027228D01*
X030257Y027224D01*
X030252Y027221D01*
X030251Y027221D01*
X03025Y02722D01*
X030246Y027219D01*
X030242Y027218D01*
X030236Y027217D01*
X030229Y027216D01*
X030221Y027215D01*
X030212Y027215D01*
X030096D01*
Y027263D01*
X03018D01*
X03018D01*
X030182D01*
X030184D01*
X030186D01*
X030189D01*
X030192D01*
X0302Y027264D01*
X030208Y027264D01*
X030216Y027264D01*
X030219Y027265D01*
X030223Y027265D01*
X030225Y027265D01*
X030227Y027266D01*
X030227D01*
X030229Y027266D01*
X03023Y027267D01*
X030232Y027268D01*
X030234Y027269D01*
X030237Y027271D01*
X030239Y027273D01*
X030241Y027275D01*
X030241Y027276D01*
X030242Y027277D01*
X030242Y027278D01*
X030243Y02728D01*
X030244Y027283D01*
X030245Y027286D01*
X030245Y027289D01*
X030246Y027293D01*
Y027296D01*
X030245Y027298D01*
X030245Y027301D01*
X030244Y027304D01*
X030243Y027308D01*
X030241Y027312D01*
X030239Y027316D01*
X030239Y027316D01*
X030238Y027317D01*
X030237Y027319D01*
X030234Y027321D01*
X030232Y027323D01*
X030229Y027325D01*
X030226Y027328D01*
X030222Y027329D01*
X030222D01*
X03022Y02733D01*
X030219D01*
X030217Y02733D01*
X030215Y027331D01*
X030212Y027331D01*
X030209Y027331D01*
X030206Y027332D01*
X030202Y027332D01*
X030197D01*
X030192Y027332D01*
X030186Y027333D01*
X03018D01*
X030173D01*
X030096D01*
Y027381D01*
X030279D01*
Y027336D01*
D02*
G37*
G36*
Y027084D02*
X030096D01*
X030097Y027084D01*
X030097Y027083D01*
X030099Y027082D01*
X0301Y02708D01*
X030103Y027077D01*
X030105Y027074D01*
X030107Y027071D01*
X03011Y027067D01*
X030113Y027062D01*
X030116Y027058D01*
X030119Y027052D01*
X030122Y027047D01*
X030128Y027035D01*
X030133Y027022D01*
X030089D01*
Y027023D01*
X030089Y027023D01*
X030088Y027024D01*
X030088Y027026D01*
X030086Y027029D01*
X030084Y027034D01*
X030081Y02704D01*
X030077Y027047D01*
X030072Y027055D01*
X030066Y027063D01*
X030066Y027063D01*
X030065Y027064D01*
X030064Y027065D01*
X030063Y027067D01*
X030059Y027071D01*
X030055Y027075D01*
X030049Y02708D01*
X030041Y027085D01*
X030034Y02709D01*
X030025Y027094D01*
Y027133D01*
X030279D01*
Y027084D01*
D02*
G37*
G36*
Y026922D02*
X03023D01*
Y02697D01*
X030279D01*
Y026922D01*
D02*
G37*
G36*
X030166Y026879D02*
X030172Y026878D01*
X030179Y026878D01*
X030186Y026877D01*
X030194Y026876D01*
X030203Y026875D01*
X030211Y026873D01*
X03022Y026871D01*
X030228Y026869D01*
X030237Y026866D01*
X030244Y026862D01*
X030251Y026859D01*
X030258Y026854D01*
X030258Y026854D01*
X030259Y026853D01*
X03026Y026852D01*
X030262Y026851D01*
X030263Y026849D01*
X030266Y026846D01*
X030268Y026843D01*
X03027Y02684D01*
X030273Y026835D01*
X030275Y026832D01*
X030278Y026827D01*
X030279Y026822D01*
X030281Y026816D01*
X030282Y02681D01*
X030283Y026804D01*
X030283Y026797D01*
Y026796D01*
X030283Y026794D01*
Y026791D01*
X030283Y026788D01*
X030282Y026785D01*
X030281Y026781D01*
X03028Y026776D01*
X030278Y026771D01*
X030277Y026767D01*
X030274Y026762D01*
X030271Y026757D01*
X030269Y026752D01*
X030265Y026747D01*
X030261Y026742D01*
X030255Y026738D01*
X030255Y026738D01*
X030254Y026737D01*
X030252Y026736D01*
X03025Y026735D01*
X030247Y026733D01*
X030243Y026731D01*
X030238Y026729D01*
X030232Y026727D01*
X030226Y026725D01*
X030218Y026723D01*
X03021Y026721D01*
X030201Y026719D01*
X030191Y026718D01*
X030179Y026717D01*
X030167Y026716D01*
X030154Y026716D01*
X030154D01*
X030154D01*
X030152D01*
X030151D01*
X030147D01*
X030143Y026716D01*
X030137Y026716D01*
X03013Y026717D01*
X030123Y026718D01*
X030115Y026719D01*
X030106Y02672D01*
X030098Y026722D01*
X030089Y026724D01*
X030081Y026726D01*
X030073Y026729D01*
X030065Y026732D01*
X030058Y026736D01*
X030052Y02674D01*
X030051Y026741D01*
X030051Y026741D01*
X030049Y026742D01*
X030048Y026744D01*
X030045Y026746D01*
X030043Y026749D01*
X030041Y026752D01*
X030038Y026755D01*
X030036Y026759D01*
X030034Y026763D01*
X030032Y026768D01*
X030029Y026773D01*
X030028Y026778D01*
X030026Y026785D01*
X030026Y026791D01*
X030025Y026797D01*
Y026801D01*
X030026Y026803D01*
X030026Y026806D01*
X030027Y02681D01*
X030028Y026814D01*
X030029Y026818D01*
X03003Y026823D01*
X030032Y026827D01*
X030034Y026832D01*
X030036Y026837D01*
X03004Y026841D01*
X030043Y026846D01*
X030047Y02685D01*
X030052Y026854D01*
X030052Y026855D01*
X030053Y026856D01*
X030055Y026857D01*
X030057Y026858D01*
X030061Y02686D01*
X030065Y026862D01*
X03007Y026865D01*
X030076Y026867D01*
X030083Y026869D01*
X030091Y026872D01*
X030099Y026873D01*
X030108Y026875D01*
X030119Y026877D01*
X030129Y026878D01*
X030142Y026879D01*
X030155Y026879D01*
X030155D01*
X030155D01*
X030156D01*
X030158D01*
X030162D01*
X030166Y026879D01*
D02*
G37*
G36*
X025722Y032296D02*
X025677D01*
Y032323D01*
X025676Y032322D01*
X025675Y032321D01*
X025673Y032318D01*
X02567Y032315D01*
X025667Y032311D01*
X025663Y032308D01*
X025658Y032304D01*
X025653Y032301D01*
X025652Y0323D01*
X02565Y032299D01*
X025647Y032298D01*
X025643Y032296D01*
X025638Y032295D01*
X025633Y032293D01*
X025626Y032292D01*
X02562Y032292D01*
X025617D01*
X025614Y032292D01*
X025612Y032293D01*
X025609Y032293D01*
X025605Y032294D01*
X025601Y032295D01*
X025597Y032296D01*
X025593Y032298D01*
X025588Y0323D01*
X025584Y032303D01*
X025579Y032305D01*
X025575Y032309D01*
X02557Y032313D01*
X025566Y032317D01*
X025566Y032317D01*
X025565Y032318D01*
X025564Y03232D01*
X025562Y032322D01*
X025561Y032324D01*
X025559Y032327D01*
X025557Y032331D01*
X025555Y032335D01*
X025553Y03234D01*
X025551Y032345D01*
X025549Y032351D01*
X025547Y032357D01*
X025546Y032364D01*
X025545Y032371D01*
X025544Y032379D01*
X025544Y032387D01*
Y032387D01*
Y032388D01*
Y032391D01*
X025544Y032394D01*
X025545Y032398D01*
X025545Y032402D01*
X025546Y032407D01*
X025547Y032412D01*
X025549Y032424D01*
X025551Y03243D01*
X025553Y032436D01*
X025556Y032442D01*
X025559Y032447D01*
X025562Y032453D01*
X025566Y032458D01*
X025567Y032458D01*
X025567Y032459D01*
X025569Y03246D01*
X02557Y032462D01*
X025573Y032463D01*
X025575Y032466D01*
X025578Y032468D01*
X025581Y03247D01*
X025585Y032473D01*
X025589Y032475D01*
X025598Y032479D01*
X025603Y032481D01*
X025609Y032482D01*
X025614Y032482D01*
X02562Y032483D01*
X025623D01*
X025626Y032482D01*
X025629Y032482D01*
X025634Y032481D01*
X025638Y03248D01*
X025643Y032479D01*
X025648Y032477D01*
X025648Y032477D01*
X02565Y032476D01*
X025652Y032474D01*
X025656Y032472D01*
X02566Y032469D01*
X025664Y032466D01*
X025668Y032461D01*
X025673Y032456D01*
Y032549D01*
X025722D01*
Y032296D01*
D02*
G37*
G36*
X025505Y032227D02*
X025332D01*
Y032269D01*
X025454D01*
Y032329D01*
X025349D01*
Y032372D01*
X025454D01*
Y032479D01*
X025505D01*
Y032227D01*
D02*
G37*
G36*
X026129Y032478D02*
Y032478D01*
X026128Y032476D01*
X026128Y032474D01*
X026128Y032472D01*
X026127Y03247D01*
X026126Y032463D01*
X026124Y032456D01*
X026121Y032448D01*
X026117Y032439D01*
X026112Y032431D01*
Y03243D01*
X026112Y03243D01*
X026111Y032428D01*
X026109Y032427D01*
X026108Y032424D01*
X026106Y032422D01*
X026103Y032418D01*
X0261Y032415D01*
X026097Y03241D01*
X026093Y032406D01*
X026089Y032401D01*
X026084Y032395D01*
X026078Y03239D01*
X026072Y032384D01*
X026065Y032377D01*
X026058Y03237D01*
X026058Y03237D01*
X026057Y032369D01*
X026055Y032367D01*
X026053Y032365D01*
X02605Y032363D01*
X026047Y03236D01*
X026041Y032354D01*
X026034Y032347D01*
X026028Y03234D01*
X026025Y032337D01*
X026022Y032334D01*
X02602Y032331D01*
X026018Y032329D01*
X026018Y032328D01*
X026017Y032326D01*
X026015Y032323D01*
X026013Y032319D01*
X026011Y032315D01*
X026009Y03231D01*
X026008Y032305D01*
X026008Y032299D01*
Y032299D01*
Y032299D01*
Y032297D01*
X026008Y032293D01*
X026009Y03229D01*
X02601Y032286D01*
X026012Y032282D01*
X026014Y032278D01*
X026017Y032274D01*
X026017Y032274D01*
X026018Y032273D01*
X02602Y032271D01*
X026023Y03227D01*
X026026Y032268D01*
X02603Y032267D01*
X026035Y032266D01*
X026041Y032265D01*
X026043D01*
X026046Y032266D01*
X026049Y032267D01*
X026053Y032268D01*
X026057Y032269D01*
X026061Y032272D01*
X026065Y032275D01*
X026065Y032275D01*
X026067Y032276D01*
X026068Y032279D01*
X026069Y032282D01*
X026071Y032286D01*
X026073Y032291D01*
X026074Y032297D01*
X026075Y032305D01*
X026123Y0323D01*
Y0323D01*
X026123Y032298D01*
Y032296D01*
X026122Y032293D01*
X026121Y03229D01*
X02612Y032287D01*
X026119Y032283D01*
X026118Y032278D01*
X026115Y032269D01*
X02611Y032259D01*
X026107Y032255D01*
X026104Y03225D01*
X0261Y032247D01*
X026096Y032243D01*
X026096Y032243D01*
X026095Y032242D01*
X026094Y032241D01*
X026092Y03224D01*
X02609Y032239D01*
X026087Y032237D01*
X026084Y032236D01*
X026081Y032234D01*
X026077Y032232D01*
X026072Y032231D01*
X026063Y032228D01*
X026052Y032226D01*
X026046Y032226D01*
X02604Y032225D01*
X026036D01*
X026033Y032226D01*
X02603Y032226D01*
X026026Y032226D01*
X026022Y032227D01*
X026018Y032228D01*
X026009Y03223D01*
X025999Y032234D01*
X025994Y032236D01*
X02599Y032239D01*
X025985Y032242D01*
X025981Y032246D01*
X025981Y032246D01*
X02598Y032247D01*
X025979Y032248D01*
X025978Y032249D01*
X025976Y032251D01*
X025974Y032254D01*
X025972Y032256D01*
X02597Y03226D01*
X025966Y032267D01*
X025963Y032275D01*
X025961Y03228D01*
X025961Y032285D01*
X02596Y032291D01*
X025959Y032296D01*
Y032297D01*
Y032299D01*
X02596Y032302D01*
X02596Y032306D01*
X025961Y032311D01*
X025962Y032317D01*
X025963Y032323D01*
X025966Y032328D01*
X025966Y032329D01*
X025967Y032331D01*
X025968Y032334D01*
X02597Y032338D01*
X025973Y032343D01*
X025976Y032348D01*
X02598Y032354D01*
X025985Y03236D01*
X025985Y032361D01*
X025987Y032363D01*
X025989Y032365D01*
X025992Y032369D01*
X025997Y032373D01*
X026002Y032379D01*
X026009Y032385D01*
X026017Y032393D01*
X026017Y032393D01*
X026018Y032394D01*
X026019Y032395D01*
X02602Y032396D01*
X026024Y0324D01*
X026029Y032404D01*
X026034Y032409D01*
X026038Y032414D01*
X026043Y032418D01*
X026044Y032419D01*
X026046Y032421D01*
X026046Y032421D01*
X026047Y032422D01*
X026048Y032423D01*
X026049Y032425D01*
X026053Y032429D01*
X026056Y032434D01*
X025959D01*
Y032479D01*
X026129D01*
Y032478D01*
D02*
G37*
G36*
X025933D02*
Y032478D01*
X025933Y032476D01*
X025932Y032474D01*
X025932Y032472D01*
X025931Y03247D01*
X02593Y032463D01*
X025928Y032456D01*
X025925Y032448D01*
X025921Y032439D01*
X025917Y032431D01*
Y03243D01*
X025916Y03243D01*
X025915Y032428D01*
X025914Y032427D01*
X025912Y032424D01*
X02591Y032422D01*
X025907Y032418D01*
X025905Y032415D01*
X025901Y03241D01*
X025897Y032406D01*
X025893Y032401D01*
X025888Y032395D01*
X025882Y03239D01*
X025876Y032384D01*
X02587Y032377D01*
X025862Y03237D01*
X025862Y03237D01*
X025861Y032369D01*
X025859Y032367D01*
X025857Y032365D01*
X025854Y032363D01*
X025851Y03236D01*
X025845Y032354D01*
X025838Y032347D01*
X025832Y03234D01*
X025829Y032337D01*
X025826Y032334D01*
X025824Y032331D01*
X025822Y032329D01*
X025822Y032328D01*
X025821Y032326D01*
X025819Y032323D01*
X025817Y032319D01*
X025815Y032315D01*
X025814Y03231D01*
X025812Y032305D01*
X025812Y032299D01*
Y032299D01*
Y032299D01*
Y032297D01*
X025812Y032293D01*
X025813Y03229D01*
X025814Y032286D01*
X025816Y032282D01*
X025818Y032278D01*
X025821Y032274D01*
X025821Y032274D01*
X025822Y032273D01*
X025824Y032271D01*
X025827Y03227D01*
X025831Y032268D01*
X025835Y032267D01*
X025839Y032266D01*
X025845Y032265D01*
X025847D01*
X02585Y032266D01*
X025854Y032267D01*
X025858Y032268D01*
X025862Y032269D01*
X025866Y032272D01*
X025869Y032275D01*
X02587Y032275D01*
X025871Y032276D01*
X025872Y032279D01*
X025874Y032282D01*
X025875Y032286D01*
X025877Y032291D01*
X025878Y032297D01*
X025879Y032305D01*
X025927Y0323D01*
Y0323D01*
X025927Y032298D01*
Y032296D01*
X025926Y032293D01*
X025926Y03229D01*
X025925Y032287D01*
X025923Y032283D01*
X025922Y032278D01*
X025919Y032269D01*
X025914Y032259D01*
X025911Y032255D01*
X025908Y03225D01*
X025905Y032247D01*
X025901Y032243D01*
X0259Y032243D01*
X025899Y032242D01*
X025898Y032241D01*
X025897Y03224D01*
X025894Y032239D01*
X025891Y032237D01*
X025889Y032236D01*
X025885Y032234D01*
X025881Y032232D01*
X025876Y032231D01*
X025867Y032228D01*
X025856Y032226D01*
X02585Y032226D01*
X025844Y032225D01*
X02584D01*
X025838Y032226D01*
X025834Y032226D01*
X025831Y032226D01*
X025827Y032227D01*
X025822Y032228D01*
X025813Y03223D01*
X025803Y032234D01*
X025798Y032236D01*
X025794Y032239D01*
X025789Y032242D01*
X025785Y032246D01*
X025785Y032246D01*
X025784Y032247D01*
X025783Y032248D01*
X025782Y032249D01*
X02578Y032251D01*
X025778Y032254D01*
X025776Y032256D01*
X025774Y03226D01*
X025771Y032267D01*
X025767Y032275D01*
X025765Y03228D01*
X025765Y032285D01*
X025764Y032291D01*
X025764Y032296D01*
Y032297D01*
Y032299D01*
X025764Y032302D01*
X025764Y032306D01*
X025765Y032311D01*
X025766Y032317D01*
X025768Y032323D01*
X02577Y032328D01*
X02577Y032329D01*
X025771Y032331D01*
X025772Y032334D01*
X025775Y032338D01*
X025777Y032343D01*
X02578Y032348D01*
X025784Y032354D01*
X025789Y03236D01*
X025789Y032361D01*
X025791Y032363D01*
X025793Y032365D01*
X025796Y032369D01*
X025801Y032373D01*
X025806Y032379D01*
X025813Y032385D01*
X025821Y032393D01*
X025821Y032393D01*
X025822Y032394D01*
X025823Y032395D01*
X025824Y032396D01*
X025828Y0324D01*
X025833Y032404D01*
X025838Y032409D01*
X025843Y032414D01*
X025847Y032418D01*
X025848Y032419D01*
X02585Y032421D01*
X02585Y032421D01*
X025851Y032422D01*
X025852Y032423D01*
X025854Y032425D01*
X025857Y032429D01*
X02586Y032434D01*
X025764D01*
Y032479D01*
X025933D01*
Y032478D01*
D02*
G37*
G36*
X028792Y032508D02*
X028794Y032507D01*
X028798Y032507D01*
X028801Y032506D01*
X028805Y032505D01*
X028809Y032504D01*
X028813Y032502D01*
X028818Y0325D01*
X028822Y032497D01*
X028827Y032495D01*
X028832Y032491D01*
X028836Y032487D01*
X02884Y032483D01*
X028841Y032483D01*
X028841Y032482D01*
X028842Y03248D01*
X028844Y032478D01*
X028845Y032476D01*
X028847Y032473D01*
X028849Y032469D01*
X028852Y032465D01*
X028853Y03246D01*
X028856Y032455D01*
X028857Y032449D01*
X028859Y032443D01*
X02886Y032436D01*
X028861Y032429D01*
X028862Y032421D01*
X028863Y032413D01*
Y032413D01*
Y032412D01*
Y032409D01*
X028862Y032406D01*
X028862Y032402D01*
X028861Y032398D01*
X028861Y032393D01*
X02886Y032388D01*
X028857Y032376D01*
X028855Y03237D01*
X028853Y032364D01*
X028851Y032358D01*
X028847Y032353D01*
X028844Y032347D01*
X02884Y032342D01*
X02884Y032342D01*
X028839Y032341D01*
X028838Y03234D01*
X028836Y032338D01*
X028834Y032337D01*
X028831Y032334D01*
X028828Y032332D01*
X028825Y03233D01*
X028821Y032327D01*
X028817Y032325D01*
X028808Y032321D01*
X028803Y032319D01*
X028797Y032318D01*
X028792Y032318D01*
X028786Y032317D01*
X028784D01*
X028781Y032318D01*
X028777Y032318D01*
X028773Y032319D01*
X028768Y03232D01*
X028763Y032321D01*
X028758Y032323D01*
X028758Y032323D01*
X028756Y032324D01*
X028754Y032326D01*
X028751Y032328D01*
X028747Y032331D01*
X028743Y032334D01*
X028738Y032339D01*
X028733Y032344D01*
Y032251D01*
X028685D01*
Y032504D01*
X02873D01*
Y032477D01*
X02873Y032478D01*
X028731Y032479D01*
X028733Y032482D01*
X028736Y032485D01*
X028739Y032489D01*
X028743Y032492D01*
X028748Y032496D01*
X028753Y032499D01*
X028754Y0325D01*
X028756Y032501D01*
X028759Y032502D01*
X028763Y032504D01*
X028768Y032505D01*
X028774Y032507D01*
X02878Y032508D01*
X028786Y032508D01*
X028789D01*
X028792Y032508D01*
D02*
G37*
G36*
X029074Y032531D02*
X028952D01*
Y032471D01*
X029058D01*
Y032428D01*
X028952D01*
Y032321D01*
X028901D01*
Y032573D01*
X029074D01*
Y032531D01*
D02*
G37*
G36*
X028569Y032574D02*
X028572Y032574D01*
X028576Y032574D01*
X02858Y032573D01*
X028584Y032572D01*
X028594Y03257D01*
X028603Y032566D01*
X028608Y032564D01*
X028612Y032561D01*
X028617Y032558D01*
X028621Y032554D01*
X028622Y032554D01*
X028622Y032553D01*
X028623Y032552D01*
X028624Y032551D01*
X028626Y032549D01*
X028628Y032546D01*
X02863Y032544D01*
X028632Y03254D01*
X028636Y032533D01*
X028639Y032525D01*
X028641Y03252D01*
X028642Y032515D01*
X028642Y032509D01*
X028643Y032504D01*
Y032503D01*
Y032501D01*
X028642Y032498D01*
X028642Y032494D01*
X028641Y032489D01*
X02864Y032483D01*
X028639Y032477D01*
X028636Y032472D01*
X028636Y032471D01*
X028635Y032469D01*
X028634Y032466D01*
X028632Y032462D01*
X028629Y032457D01*
X028626Y032452D01*
X028622Y032446D01*
X028617Y03244D01*
X028617Y032439D01*
X028615Y032437D01*
X028613Y032435D01*
X02861Y032431D01*
X028606Y032427D01*
X0286Y032421D01*
X028594Y032415D01*
X028586Y032407D01*
X028585Y032407D01*
X028584Y032406D01*
X028583Y032405D01*
X028582Y032404D01*
X028578Y0324D01*
X028573Y032396D01*
X028568Y032391D01*
X028564Y032386D01*
X028559Y032382D01*
X028558Y032381D01*
X028556Y032379D01*
X028556Y032379D01*
X028555Y032378D01*
X028554Y032377D01*
X028553Y032375D01*
X028549Y032371D01*
X028547Y032366D01*
X028643D01*
Y032321D01*
X028473D01*
Y032322D01*
Y032322D01*
X028474Y032324D01*
X028474Y032326D01*
X028474Y032328D01*
X028475Y03233D01*
X028476Y032337D01*
X028478Y032344D01*
X028481Y032352D01*
X028485Y032361D01*
X02849Y032369D01*
Y03237D01*
X028491Y03237D01*
X028491Y032372D01*
X028493Y032373D01*
X028494Y032376D01*
X028496Y032378D01*
X028499Y032382D01*
X028502Y032385D01*
X028505Y03239D01*
X028509Y032394D01*
X028513Y032399D01*
X028519Y032405D01*
X028524Y03241D01*
X02853Y032416D01*
X028537Y032423D01*
X028544Y03243D01*
X028544Y03243D01*
X028545Y032431D01*
X028547Y032433D01*
X028549Y032435D01*
X028552Y032437D01*
X028555Y03244D01*
X028561Y032446D01*
X028568Y032453D01*
X028575Y03246D01*
X028577Y032463D01*
X02858Y032466D01*
X028583Y032469D01*
X028584Y032471D01*
X028584Y032472D01*
X028586Y032474D01*
X028587Y032477D01*
X028589Y032481D01*
X028591Y032485D01*
X028593Y03249D01*
X028594Y032495D01*
X028594Y032501D01*
Y032501D01*
Y032501D01*
Y032503D01*
X028594Y032507D01*
X028593Y03251D01*
X028592Y032514D01*
X028591Y032518D01*
X028588Y032522D01*
X028586Y032526D01*
X028585Y032526D01*
X028584Y032527D01*
X028582Y032529D01*
X028579Y03253D01*
X028576Y032532D01*
X028572Y032533D01*
X028567Y032534D01*
X028561Y032535D01*
X028559D01*
X028556Y032534D01*
X028553Y032533D01*
X028549Y032532D01*
X028545Y032531D01*
X028541Y032528D01*
X028537Y032525D01*
X028537Y032525D01*
X028536Y032524D01*
X028534Y032521D01*
X028533Y032518D01*
X028531Y032514D01*
X028529Y032509D01*
X028528Y032503D01*
X028527Y032495D01*
X028479Y0325D01*
Y0325D01*
X02848Y032502D01*
Y032504D01*
X02848Y032507D01*
X028481Y03251D01*
X028482Y032513D01*
X028483Y032517D01*
X028484Y032522D01*
X028488Y032531D01*
X028492Y032541D01*
X028495Y032545D01*
X028498Y03255D01*
X028502Y032553D01*
X028506Y032557D01*
X028506Y032557D01*
X028507Y032558D01*
X028508Y032559D01*
X02851Y03256D01*
X028512Y032561D01*
X028515Y032563D01*
X028518Y032564D01*
X028521Y032566D01*
X028525Y032568D01*
X02853Y032569D01*
X028539Y032572D01*
X028551Y032574D01*
X028556Y032574D01*
X028563Y032575D01*
X028566D01*
X028569Y032574D01*
D02*
G37*
G36*
X028373D02*
X028376Y032574D01*
X02838Y032574D01*
X028384Y032573D01*
X028388Y032572D01*
X028398Y03257D01*
X028407Y032566D01*
X028412Y032564D01*
X028417Y032561D01*
X028421Y032558D01*
X028425Y032554D01*
X028426Y032554D01*
X028426Y032553D01*
X028427Y032552D01*
X028429Y032551D01*
X02843Y032549D01*
X028432Y032546D01*
X028434Y032544D01*
X028436Y03254D01*
X02844Y032533D01*
X028444Y032525D01*
X028445Y03252D01*
X028446Y032515D01*
X028446Y032509D01*
X028447Y032504D01*
Y032503D01*
Y032501D01*
X028446Y032498D01*
X028446Y032494D01*
X028445Y032489D01*
X028444Y032483D01*
X028443Y032477D01*
X028441Y032472D01*
X02844Y032471D01*
X02844Y032469D01*
X028438Y032466D01*
X028436Y032462D01*
X028433Y032457D01*
X02843Y032452D01*
X028426Y032446D01*
X028421Y03244D01*
X028421Y032439D01*
X02842Y032437D01*
X028417Y032435D01*
X028414Y032431D01*
X02841Y032427D01*
X028404Y032421D01*
X028398Y032415D01*
X02839Y032407D01*
X028389Y032407D01*
X028389Y032406D01*
X028387Y032405D01*
X028386Y032404D01*
X028382Y0324D01*
X028377Y032396D01*
X028373Y032391D01*
X028368Y032386D01*
X028363Y032382D01*
X028362Y032381D01*
X028361Y032379D01*
X02836Y032379D01*
X028359Y032378D01*
X028358Y032377D01*
X028357Y032375D01*
X028354Y032371D01*
X028351Y032366D01*
X028447D01*
Y032321D01*
X028278D01*
Y032322D01*
Y032322D01*
X028278Y032324D01*
X028278Y032326D01*
X028279Y032328D01*
X028279Y03233D01*
X02828Y032337D01*
X028283Y032344D01*
X028286Y032352D01*
X028289Y032361D01*
X028294Y032369D01*
Y03237D01*
X028295Y03237D01*
X028295Y032372D01*
X028297Y032373D01*
X028298Y032376D01*
X0283Y032378D01*
X028303Y032382D01*
X028306Y032385D01*
X028309Y03239D01*
X028313Y032394D01*
X028318Y032399D01*
X028323Y032405D01*
X028328Y03241D01*
X028334Y032416D01*
X028341Y032423D01*
X028348Y03243D01*
X028349Y03243D01*
X02835Y032431D01*
X028351Y032433D01*
X028353Y032435D01*
X028356Y032437D01*
X028359Y03244D01*
X028366Y032446D01*
X028372Y032453D01*
X028379Y03246D01*
X028382Y032463D01*
X028385Y032466D01*
X028387Y032469D01*
X028388Y032471D01*
X028389Y032472D01*
X02839Y032474D01*
X028391Y032477D01*
X028393Y032481D01*
X028395Y032485D01*
X028397Y03249D01*
X028398Y032495D01*
X028398Y032501D01*
Y032501D01*
Y032501D01*
Y032503D01*
X028398Y032507D01*
X028397Y03251D01*
X028396Y032514D01*
X028395Y032518D01*
X028393Y032522D01*
X02839Y032526D01*
X028389Y032526D01*
X028388Y032527D01*
X028386Y032529D01*
X028383Y03253D01*
X02838Y032532D01*
X028376Y032533D01*
X028371Y032534D01*
X028366Y032535D01*
X028363D01*
X02836Y032534D01*
X028357Y032533D01*
X028353Y032532D01*
X028349Y032531D01*
X028345Y032528D01*
X028341Y032525D01*
X028341Y032525D01*
X02834Y032524D01*
X028338Y032521D01*
X028337Y032518D01*
X028335Y032514D01*
X028334Y032509D01*
X028332Y032503D01*
X028331Y032495D01*
X028283Y0325D01*
Y0325D01*
X028284Y032502D01*
Y032504D01*
X028284Y032507D01*
X028285Y03251D01*
X028286Y032513D01*
X028287Y032517D01*
X028288Y032522D01*
X028292Y032531D01*
X028296Y032541D01*
X028299Y032545D01*
X028302Y03255D01*
X028306Y032553D01*
X02831Y032557D01*
X02831Y032557D01*
X028311Y032558D01*
X028312Y032559D01*
X028314Y03256D01*
X028316Y032561D01*
X028319Y032563D01*
X028322Y032564D01*
X028326Y032566D01*
X02833Y032568D01*
X028334Y032569D01*
X028343Y032572D01*
X028355Y032574D01*
X028361Y032574D01*
X028367Y032575D01*
X02837D01*
X028373Y032574D01*
D02*
G37*
G36*
X024157Y025022D02*
X024163Y025022D01*
X02417Y025021D01*
X024177Y02502D01*
X024185Y02502D01*
X024194Y025018D01*
X024202Y025017D01*
X024211Y025014D01*
X024219Y025012D01*
X024227Y025009D01*
X024235Y025006D01*
X024242Y025002D01*
X024248Y024998D01*
X024249Y024998D01*
X024249Y024997D01*
X024251Y024996D01*
X024252Y024994D01*
X024255Y024992D01*
X024257Y02499D01*
X024259Y024986D01*
X024262Y024983D01*
X024264Y024979D01*
X024266Y024975D01*
X024268Y02497D01*
X024271Y024965D01*
X024272Y02496D01*
X024274Y024954D01*
X024274Y024947D01*
X024275Y024941D01*
Y024937D01*
X024274Y024935D01*
X024274Y024932D01*
X024273Y024928D01*
X024272Y024925D01*
X024271Y02492D01*
X02427Y024915D01*
X024268Y024911D01*
X024266Y024906D01*
X024264Y024902D01*
X02426Y024897D01*
X024257Y024892D01*
X024253Y024888D01*
X024248Y024884D01*
X024248Y024883D01*
X024247Y024883D01*
X024245Y024882D01*
X024243Y02488D01*
X024239Y024878D01*
X024235Y024876D01*
X02423Y024874D01*
X024224Y024871D01*
X024217Y024869D01*
X024209Y024867D01*
X024201Y024865D01*
X024192Y024863D01*
X024181Y024861D01*
X02417Y02486D01*
X024158Y024859D01*
X024145Y024859D01*
X024145D01*
X024145D01*
X024144D01*
X024142D01*
X024138D01*
X024134Y024859D01*
X024128Y02486D01*
X024121Y02486D01*
X024114Y024861D01*
X024106Y024862D01*
X024097Y024863D01*
X024089Y024865D01*
X02408Y024867D01*
X024072Y02487D01*
X024063Y024872D01*
X024056Y024876D01*
X024049Y024879D01*
X024042Y024884D01*
X024042Y024884D01*
X024041Y024885D01*
X02404Y024886D01*
X024038Y024887D01*
X024037Y02489D01*
X024034Y024892D01*
X024032Y024895D01*
X02403Y024899D01*
X024027Y024903D01*
X024025Y024907D01*
X024022Y024911D01*
X024021Y024917D01*
X024019Y024922D01*
X024018Y024928D01*
X024017Y024934D01*
X024017Y024941D01*
Y024942D01*
X024017Y024945D01*
Y024947D01*
X024017Y02495D01*
X024018Y024954D01*
X024019Y024958D01*
X02402Y024962D01*
X024022Y024967D01*
X024023Y024971D01*
X024026Y024977D01*
X024029Y024981D01*
X024031Y024986D01*
X024035Y024991D01*
X024039Y024996D01*
X024045Y025D01*
X024045Y025001D01*
X024046Y025001D01*
X024048Y025002D01*
X02405Y025004D01*
X024053Y025005D01*
X024057Y025007D01*
X024062Y025009D01*
X024068Y025011D01*
X024074Y025013D01*
X024082Y025016D01*
X02409Y025017D01*
X024099Y025019D01*
X024109Y02502D01*
X024121Y025021D01*
X024133Y025022D01*
X024146Y025022D01*
X024146D01*
X024146D01*
X024148D01*
X024149D01*
X024153D01*
X024157Y025022D01*
D02*
G37*
G36*
X02407Y024768D02*
X024021D01*
Y024816D01*
X02407D01*
Y024768D01*
D02*
G37*
G36*
X024211Y024716D02*
X024211Y024715D01*
X024212Y024714D01*
X024212Y024713D01*
X024214Y024709D01*
X024216Y024704D01*
X024219Y024698D01*
X024223Y024691D01*
X024228Y024683D01*
X024234Y024675D01*
X024234Y024675D01*
X024235Y024674D01*
X024236Y024673D01*
X024237Y024672D01*
X024241Y024668D01*
X024245Y024663D01*
X024251Y024658D01*
X024259Y024653D01*
X024266Y024648D01*
X024275Y024645D01*
Y024605D01*
X024021D01*
Y024654D01*
X024204D01*
X024203Y024654D01*
X024203Y024655D01*
X024201Y024656D01*
X0242Y024658D01*
X024197Y024661D01*
X024195Y024664D01*
X024193Y024668D01*
X02419Y024672D01*
X024187Y024676D01*
X024184Y024681D01*
X024181Y024686D01*
X024178Y024691D01*
X024172Y024703D01*
X024167Y024716D01*
X024211D01*
Y024716D01*
D02*
G37*
G36*
X024204Y024475D02*
X02412D01*
X02412D01*
X024118D01*
X024116D01*
X024114D01*
X024111D01*
X024108D01*
X0241Y024475D01*
X024092Y024474D01*
X024084Y024474D01*
X024081Y024474D01*
X024077Y024473D01*
X024075Y024473D01*
X024073Y024472D01*
X024073D01*
X024071Y024472D01*
X02407Y024471D01*
X024068Y02447D01*
X024066Y024469D01*
X024063Y024467D01*
X024061Y024466D01*
X024059Y024463D01*
X024059Y024463D01*
X024058Y024462D01*
X024058Y02446D01*
X024057Y024458D01*
X024056Y024455D01*
X024055Y024452D01*
X024055Y024449D01*
X024054Y024445D01*
Y024443D01*
X024055Y02444D01*
X024055Y024437D01*
X024056Y024434D01*
X024057Y02443D01*
X024059Y024426D01*
X024061Y024423D01*
X024061Y024422D01*
X024062Y024421D01*
X024063Y024419D01*
X024066Y024417D01*
X024068Y024415D01*
X024071Y024413D01*
X024074Y024411D01*
X024078Y024409D01*
X024078D01*
X02408Y024408D01*
X024081D01*
X024083Y024408D01*
X024085Y024408D01*
X024088Y024407D01*
X024091Y024407D01*
X024094Y024407D01*
X024098Y024406D01*
X024103D01*
X024108Y024406D01*
X024114Y024405D01*
X02412D01*
X024127D01*
X024204D01*
Y024357D01*
X024021D01*
Y024402D01*
X024049D01*
X024048Y024402D01*
X024046Y024404D01*
X024043Y024406D01*
X02404Y024409D01*
X024036Y024413D01*
X024033Y024417D01*
X024029Y024423D01*
X024025Y024428D01*
X024025Y024429D01*
X024024Y024431D01*
X024023Y024435D01*
X024021Y024439D01*
X02402Y024444D01*
X024018Y02445D01*
X024018Y024456D01*
X024017Y024463D01*
Y024466D01*
X024018Y024469D01*
X024018Y024474D01*
X024019Y024479D01*
X024021Y024484D01*
X024023Y02449D01*
X024025Y024496D01*
X024026Y024496D01*
X024027Y024498D01*
X024029Y024501D01*
X024031Y024504D01*
X024034Y024507D01*
X024038Y024511D01*
X024043Y024514D01*
X024048Y024517D01*
X024049Y024517D01*
X02405Y024518D01*
X024054Y024519D01*
X024058Y02452D01*
X024064Y024521D01*
X024071Y024522D01*
X024079Y024523D01*
X024088Y024523D01*
X024204D01*
Y024475D01*
D02*
G37*
G36*
X024273Y024134D02*
X024231D01*
Y024256D01*
X024171D01*
Y024151D01*
X024128D01*
Y024256D01*
X024021D01*
Y024307D01*
X024273D01*
Y024134D01*
D02*
G37*
%LPC*%
G36*
X026157Y028701D02*
X026156D01*
X026155Y0287D01*
X026153Y0287D01*
X026151Y028699D01*
X026149Y028699D01*
X026147Y028698D01*
X026145Y028696D01*
X026145Y028696D01*
X026144Y028695D01*
X026143Y028694D01*
X026142Y028692D01*
X026141Y02869D01*
X026139Y028687D01*
X026138Y028684D01*
X026137Y02868D01*
Y02868D01*
X026136Y02868D01*
Y028678D01*
X026136Y028677D01*
X026136Y028675D01*
X026135Y028673D01*
X026135Y028671D01*
X026135Y028668D01*
X026134Y028665D01*
X026134Y028661D01*
X026133Y028657D01*
X026133Y028653D01*
X026133Y028648D01*
Y028642D01*
X026133Y028636D01*
Y02863D01*
Y028629D01*
Y028628D01*
Y028626D01*
Y028624D01*
Y028621D01*
X026133Y028618D01*
Y028614D01*
X026133Y02861D01*
X026133Y028602D01*
X026134Y028594D01*
X026135Y02859D01*
X026135Y028586D01*
X026136Y028583D01*
X026136Y028581D01*
Y02858D01*
X026137Y02858D01*
X026137Y028579D01*
X026138Y028576D01*
X026139Y028573D01*
X02614Y02857D01*
X026142Y028568D01*
X026143Y028565D01*
X026145Y028563D01*
X026145Y028563D01*
X026146Y028562D01*
X026147Y028561D01*
X026149Y028561D01*
X02615Y02856D01*
X026152Y028559D01*
X026155Y028559D01*
X026157Y028558D01*
X026158D01*
X02616Y028559D01*
X026161Y028559D01*
X026163Y028559D01*
X026165Y02856D01*
X026168Y028561D01*
X02617Y028563D01*
X02617Y028563D01*
X026171Y028564D01*
X026172Y028565D01*
X026173Y028566D01*
X026174Y028569D01*
X026175Y028571D01*
X026177Y028575D01*
X026178Y028579D01*
Y028579D01*
X026178Y028579D01*
Y028581D01*
X026179Y028582D01*
X026179Y028584D01*
X026179Y028586D01*
X026179Y028588D01*
X02618Y028591D01*
X02618Y028594D01*
X026181Y028598D01*
X026181Y028602D01*
X026181Y028607D01*
X026181Y028612D01*
Y028617D01*
X026182Y028623D01*
Y02863D01*
Y02863D01*
Y028631D01*
Y028633D01*
Y028635D01*
Y028638D01*
X026181Y028641D01*
Y028645D01*
X026181Y028649D01*
X026181Y028657D01*
X02618Y028665D01*
X02618Y028669D01*
X026179Y028673D01*
X026179Y028676D01*
X026178Y028679D01*
X026178Y028679D01*
X026178Y028681D01*
X026177Y028683D01*
X026176Y028686D01*
X026174Y028689D01*
X026173Y028691D01*
X026171Y028694D01*
X026169Y028696D01*
X026169Y028696D01*
X026169Y028697D01*
X026167Y028698D01*
X026166Y028698D01*
X026164Y028699D01*
X026162Y0287D01*
X02616Y0287D01*
X026157Y028701D01*
D02*
G37*
G36*
X038203Y015715D02*
X038195D01*
X038195D01*
X038194D01*
X038191D01*
X038188D01*
X038184D01*
X03818Y015715D01*
X038176D01*
X038171Y015714D01*
X038161Y015714D01*
X038151Y015713D01*
X038146Y015713D01*
X038142Y015712D01*
X038138Y015712D01*
X038134Y015711D01*
X038133Y01571D01*
X038131Y01571D01*
X038128Y015709D01*
X038125Y015708D01*
X038121Y015706D01*
X038118Y015704D01*
X038115Y015702D01*
X038112Y0157D01*
X038112Y0157D01*
X038111Y015699D01*
X03811Y015697D01*
X038109Y015696D01*
X038108Y015693D01*
X038107Y015691D01*
X038107Y015688D01*
X038107Y015685D01*
Y015683D01*
X038107Y015681D01*
X038107Y01568D01*
X038108Y015677D01*
X038109Y015674D01*
X03811Y015672D01*
X038112Y015669D01*
X038112Y015669D01*
X038113Y015668D01*
X038115Y015667D01*
X038117Y015665D01*
X038119Y015664D01*
X038123Y015662D01*
X038127Y01566D01*
X038132Y015659D01*
X038132D01*
X038133Y015658D01*
X038134D01*
X038136Y015658D01*
X038138Y015658D01*
X03814Y015657D01*
X038143Y015657D01*
X038147Y015656D01*
X038151Y015656D01*
X038156Y015655D01*
X038161Y015655D01*
X038167Y015654D01*
X038173Y015654D01*
X03818D01*
X038187Y015654D01*
X038195D01*
X038196D01*
X038197D01*
X0382D01*
X038203D01*
X038206D01*
X03821Y015654D01*
X038215D01*
X03822Y015654D01*
X03823Y015655D01*
X03824Y015655D01*
X038245Y015656D01*
X038249Y015657D01*
X038253Y015658D01*
X038257Y015658D01*
X038257D01*
X038257Y015659D01*
X038259Y015659D01*
X038262Y01566D01*
X038266Y015661D01*
X038269Y015663D01*
X038273Y015665D01*
X038276Y015667D01*
X038279Y015669D01*
X038279Y01567D01*
X03828Y01567D01*
X038281Y015672D01*
X038282Y015674D01*
X038283Y015676D01*
X038284Y015678D01*
X038284Y015681D01*
X038285Y015685D01*
Y015686D01*
X038284Y015688D01*
X038284Y01569D01*
X038283Y015692D01*
X038282Y015695D01*
X038281Y015698D01*
X038279Y0157D01*
X038278Y015701D01*
X038278Y015701D01*
X038276Y015702D01*
X038274Y015704D01*
X038271Y015706D01*
X038268Y015707D01*
X038264Y015709D01*
X038259Y01571D01*
X038258D01*
X038258Y015711D01*
X038257D01*
X038255Y015711D01*
X038253Y015712D01*
X03825Y015712D01*
X038247Y015712D01*
X038244Y015713D01*
X038239Y015713D01*
X038235Y015714D01*
X03823Y015714D01*
X038224Y015714D01*
X038218Y015715D01*
X038211D01*
X038203Y015715D01*
D02*
G37*
G36*
X031444Y015426D02*
X031436D01*
X031436D01*
X031434D01*
X031432D01*
X031429D01*
X031425D01*
X031421Y015425D01*
X031416D01*
X031411Y015425D01*
X031401Y015424D01*
X031391Y015424D01*
X031387Y015423D01*
X031382Y015422D01*
X031378Y015422D01*
X031375Y015421D01*
X031374D01*
X031374Y01542D01*
X031372Y01542D01*
X031369Y015419D01*
X031366Y015418D01*
X031362Y015416D01*
X031358Y015414D01*
X031355Y015412D01*
X031353Y01541D01*
X031352Y01541D01*
X031351Y015409D01*
X031351Y015407D01*
X03135Y015406D01*
X031349Y015403D01*
X031347Y015401D01*
X031347Y015398D01*
X031347Y015395D01*
Y015393D01*
X031347Y015391D01*
X031347Y01539D01*
X031348Y015387D01*
X031349Y015384D01*
X031351Y015382D01*
X031353Y015379D01*
X031353Y015379D01*
X031354Y015378D01*
X031355Y015377D01*
X031357Y015375D01*
X03136Y015374D01*
X031363Y015372D01*
X031367Y01537D01*
X031373Y015369D01*
X031373D01*
X031373Y015368D01*
X031375D01*
X031376Y015368D01*
X031378Y015368D01*
X031381Y015367D01*
X031384Y015367D01*
X031387Y015367D01*
X031392Y015366D01*
X031396Y015366D01*
X031402Y015365D01*
X031407Y015365D01*
X031414Y015364D01*
X03142D01*
X031428Y015364D01*
X031436D01*
X031436D01*
X031438D01*
X03144D01*
X031443D01*
X031447D01*
X031451Y015364D01*
X031456D01*
X03146Y015365D01*
X03147Y015365D01*
X031481Y015366D01*
X031485Y015366D01*
X03149Y015367D01*
X031494Y015368D01*
X031497Y015368D01*
X031498Y015369D01*
X0315Y015369D01*
X031503Y01537D01*
X031506Y015371D01*
X03151Y015373D01*
X031513Y015375D01*
X031517Y015377D01*
X031519Y015379D01*
X03152Y01538D01*
X03152Y01538D01*
X031521Y015382D01*
X031522Y015384D01*
X031523Y015386D01*
X031524Y015388D01*
X031524Y015391D01*
X031525Y015395D01*
Y015396D01*
X031524Y015398D01*
X031524Y0154D01*
X031523Y015402D01*
X031523Y015405D01*
X031521Y015407D01*
X031519Y01541D01*
X031519Y01541D01*
X031518Y015411D01*
X031517Y015412D01*
X031514Y015414D01*
X031512Y015415D01*
X031508Y015417D01*
X031504Y015419D01*
X031499Y01542D01*
X031499D01*
X031498Y015421D01*
X031497D01*
X031496Y015421D01*
X031493Y015422D01*
X031491Y015422D01*
X031488Y015423D01*
X031484Y015423D01*
X03148Y015423D01*
X031476Y015424D01*
X03147Y015424D01*
X031465Y015425D01*
X031458Y015425D01*
X031452D01*
X031444Y015426D01*
D02*
G37*
G36*
X032794D02*
X032786D01*
X032786D01*
X032784D01*
X032782D01*
X032779D01*
X032775D01*
X032771Y015425D01*
X032766D01*
X032761Y015425D01*
X032751Y015424D01*
X032741Y015424D01*
X032737Y015423D01*
X032732Y015422D01*
X032728Y015422D01*
X032725Y015421D01*
X032724D01*
X032724Y01542D01*
X032722Y01542D01*
X032719Y015419D01*
X032716Y015418D01*
X032712Y015416D01*
X032708Y015414D01*
X032705Y015412D01*
X032703Y01541D01*
X032702Y01541D01*
X032701Y015409D01*
X032701Y015407D01*
X0327Y015406D01*
X032699Y015403D01*
X032697Y015401D01*
X032697Y015398D01*
X032697Y015395D01*
Y015393D01*
X032697Y015391D01*
X032697Y01539D01*
X032698Y015387D01*
X032699Y015384D01*
X032701Y015382D01*
X032703Y015379D01*
X032703Y015379D01*
X032704Y015378D01*
X032705Y015377D01*
X032707Y015375D01*
X03271Y015374D01*
X032713Y015372D01*
X032717Y01537D01*
X032723Y015369D01*
X032723D01*
X032723Y015368D01*
X032725D01*
X032726Y015368D01*
X032728Y015368D01*
X032731Y015367D01*
X032734Y015367D01*
X032737Y015367D01*
X032742Y015366D01*
X032746Y015366D01*
X032752Y015365D01*
X032757Y015365D01*
X032764Y015364D01*
X03277D01*
X032778Y015364D01*
X032786D01*
X032786D01*
X032788D01*
X03279D01*
X032793D01*
X032797D01*
X032801Y015364D01*
X032806D01*
X03281Y015365D01*
X03282Y015365D01*
X032831Y015366D01*
X032835Y015366D01*
X03284Y015367D01*
X032844Y015368D01*
X032847Y015368D01*
X032848Y015369D01*
X03285Y015369D01*
X032853Y01537D01*
X032856Y015371D01*
X03286Y015373D01*
X032863Y015375D01*
X032867Y015377D01*
X032869Y015379D01*
X03287Y01538D01*
X03287Y01538D01*
X032871Y015382D01*
X032872Y015384D01*
X032873Y015386D01*
X032874Y015388D01*
X032874Y015391D01*
X032875Y015395D01*
Y015396D01*
X032874Y015398D01*
X032874Y0154D01*
X032873Y015402D01*
X032873Y015405D01*
X032871Y015407D01*
X032869Y01541D01*
X032869Y01541D01*
X032868Y015411D01*
X032867Y015412D01*
X032864Y015414D01*
X032862Y015415D01*
X032858Y015417D01*
X032854Y015419D01*
X032849Y01542D01*
X032849D01*
X032848Y015421D01*
X032847D01*
X032846Y015421D01*
X032843Y015422D01*
X032841Y015422D01*
X032838Y015423D01*
X032834Y015423D01*
X03283Y015423D01*
X032826Y015424D01*
X03282Y015424D01*
X032815Y015425D01*
X032808Y015425D01*
X032802D01*
X032794Y015426D01*
D02*
G37*
G36*
X033763Y026424D02*
X033755D01*
X033754D01*
X033753D01*
X03375D01*
X033747D01*
X033744D01*
X03374Y026424D01*
X033735D01*
X03373Y026423D01*
X03372Y026423D01*
X03371Y026422D01*
X033705Y026421D01*
X033701Y026421D01*
X033697Y02642D01*
X033693Y026419D01*
X033693D01*
X033693Y026419D01*
X033691Y026419D01*
X033688Y026418D01*
X033684Y026416D01*
X033681Y026415D01*
X033677Y026413D01*
X033674Y026411D01*
X033671Y026408D01*
X033671Y026408D01*
X03367Y026407D01*
X033669Y026406D01*
X033668Y026404D01*
X033667Y026402D01*
X033666Y026399D01*
X033666Y026396D01*
X033665Y026393D01*
Y026392D01*
X033666Y02639D01*
X033666Y026388D01*
X033667Y026385D01*
X033668Y026383D01*
X033669Y02638D01*
X033671Y026377D01*
X033672Y026377D01*
X033672Y026376D01*
X033674Y026375D01*
X033676Y026374D01*
X033679Y026372D01*
X033682Y026371D01*
X033686Y026369D01*
X033691Y026367D01*
X033692D01*
X033692Y026367D01*
X033693D01*
X033695Y026367D01*
X033697Y026366D01*
X0337Y026366D01*
X033703Y026365D01*
X033706Y026365D01*
X033711Y026364D01*
X033715Y026364D01*
X03372Y026364D01*
X033726Y026363D01*
X033732Y026363D01*
X033739D01*
X033747Y026363D01*
X033755D01*
X033755D01*
X033756D01*
X033759D01*
X033762D01*
X033766D01*
X03377Y026363D01*
X033774D01*
X033779Y026363D01*
X033789Y026364D01*
X033799Y026364D01*
X033804Y026365D01*
X033808Y026365D01*
X033812Y026366D01*
X033816Y026367D01*
X033817Y026367D01*
X033819Y026368D01*
X033822Y026369D01*
X033825Y02637D01*
X033829Y026372D01*
X033832Y026373D01*
X033835Y026376D01*
X033838Y026378D01*
X033838Y026378D01*
X033839Y026379D01*
X03384Y02638D01*
X033841Y026382D01*
X033842Y026384D01*
X033843Y026387D01*
X033843Y02639D01*
X033843Y026393D01*
Y026395D01*
X033843Y026396D01*
X033843Y026398D01*
X033842Y026401D01*
X033841Y026403D01*
X03384Y026406D01*
X033838Y026408D01*
X033838Y026409D01*
X033837Y026409D01*
X033835Y026411D01*
X033833Y026412D01*
X033831Y026414D01*
X033827Y026416D01*
X033823Y026418D01*
X033818Y026419D01*
X033818D01*
X033817Y026419D01*
X033816D01*
X033814Y02642D01*
X033812Y02642D01*
X03381Y02642D01*
X033807Y026421D01*
X033803Y026421D01*
X033799Y026422D01*
X033794Y026423D01*
X033789Y026423D01*
X033783Y026423D01*
X033777Y026424D01*
X03377D01*
X033763Y026424D01*
D02*
G37*
G36*
X032544Y026919D02*
X032536D01*
X032536D01*
X032534D01*
X032532D01*
X032529D01*
X032525D01*
X032521Y026919D01*
X032516D01*
X032511Y026919D01*
X032501Y026918D01*
X032491Y026918D01*
X032487Y026917D01*
X032482Y026916D01*
X032478Y026915D01*
X032475Y026915D01*
X032474D01*
X032474Y026914D01*
X032472Y026914D01*
X032469Y026913D01*
X032466Y026912D01*
X032462Y02691D01*
X032458Y026908D01*
X032455Y026906D01*
X032453Y026904D01*
X032452Y026903D01*
X032451Y026903D01*
X032451Y026901D01*
X03245Y026899D01*
X032449Y026897D01*
X032447Y026895D01*
X032447Y026892D01*
X032447Y026888D01*
Y026887D01*
X032447Y026885D01*
X032447Y026883D01*
X032448Y026881D01*
X032449Y026878D01*
X032451Y026875D01*
X032453Y026873D01*
X032453Y026872D01*
X032454Y026872D01*
X032455Y026871D01*
X032457Y026869D01*
X03246Y026867D01*
X032463Y026866D01*
X032467Y026864D01*
X032473Y026863D01*
X032473D01*
X032473Y026862D01*
X032475D01*
X032476Y026862D01*
X032478Y026862D01*
X032481Y026861D01*
X032484Y026861D01*
X032487Y02686D01*
X032492Y02686D01*
X032496Y026859D01*
X032502Y026859D01*
X032507Y026859D01*
X032514Y026858D01*
X03252D01*
X032528Y026858D01*
X032536D01*
X032536D01*
X032538D01*
X03254D01*
X032543D01*
X032547D01*
X032551Y026858D01*
X032556D01*
X03256Y026859D01*
X03257Y026859D01*
X032581Y02686D01*
X032585Y02686D01*
X03259Y026861D01*
X032594Y026862D01*
X032597Y026862D01*
X032598Y026863D01*
X0326Y026863D01*
X032603Y026864D01*
X032606Y026865D01*
X03261Y026867D01*
X032613Y026869D01*
X032617Y026871D01*
X032619Y026873D01*
X03262Y026874D01*
X03262Y026874D01*
X032621Y026876D01*
X032622Y026878D01*
X032623Y02688D01*
X032624Y026882D01*
X032624Y026885D01*
X032625Y026888D01*
Y02689D01*
X032624Y026892D01*
X032624Y026894D01*
X032623Y026896D01*
X032623Y026899D01*
X032621Y026901D01*
X032619Y026904D01*
X032619Y026904D01*
X032618Y026905D01*
X032617Y026906D01*
X032615Y026908D01*
X032612Y026909D01*
X032608Y026911D01*
X032604Y026913D01*
X032599Y026914D01*
X032599D01*
X032598Y026915D01*
X032597D01*
X032596Y026915D01*
X032593Y026915D01*
X032591Y026916D01*
X032588Y026917D01*
X032584Y026917D01*
X03258Y026917D01*
X032576Y026918D01*
X03257Y026918D01*
X032565Y026919D01*
X032558Y026919D01*
X032552D01*
X032544Y026919D01*
D02*
G37*
G36*
X044613Y021074D02*
X044605D01*
X044604D01*
X044603D01*
X0446D01*
X044597D01*
X044594D01*
X04459Y021074D01*
X044585D01*
X04458Y021073D01*
X04457Y021073D01*
X04456Y021072D01*
X044555Y021072D01*
X044551Y021071D01*
X044547Y02107D01*
X044543Y021069D01*
X044543D01*
X044543Y021069D01*
X044541Y021069D01*
X044538Y021068D01*
X044534Y021066D01*
X044531Y021065D01*
X044527Y021063D01*
X044524Y021061D01*
X044521Y021058D01*
X044521Y021058D01*
X04452Y021057D01*
X044519Y021056D01*
X044518Y021054D01*
X044517Y021052D01*
X044516Y021049D01*
X044516Y021046D01*
X044515Y021043D01*
Y021042D01*
X044516Y02104D01*
X044516Y021038D01*
X044517Y021035D01*
X044518Y021033D01*
X044519Y02103D01*
X044521Y021027D01*
X044522Y021027D01*
X044522Y021026D01*
X044524Y021025D01*
X044526Y021024D01*
X044529Y021022D01*
X044532Y021021D01*
X044536Y021019D01*
X044541Y021017D01*
X044542D01*
X044542Y021017D01*
X044543D01*
X044545Y021017D01*
X044547Y021016D01*
X04455Y021016D01*
X044553Y021015D01*
X044556Y021015D01*
X044561Y021014D01*
X044565Y021014D01*
X04457Y021014D01*
X044576Y021013D01*
X044582Y021013D01*
X044589D01*
X044597Y021013D01*
X044605D01*
X044605D01*
X044606D01*
X044609D01*
X044612D01*
X044616D01*
X04462Y021013D01*
X044624D01*
X044629Y021013D01*
X044639Y021014D01*
X044649Y021014D01*
X044654Y021015D01*
X044658Y021015D01*
X044662Y021016D01*
X044666Y021017D01*
X044667Y021017D01*
X044669Y021018D01*
X044672Y021019D01*
X044675Y02102D01*
X044679Y021022D01*
X044682Y021023D01*
X044685Y021026D01*
X044688Y021028D01*
X044688Y021028D01*
X044689Y021029D01*
X04469Y02103D01*
X044691Y021032D01*
X044692Y021034D01*
X044693Y021037D01*
X044693Y02104D01*
X044693Y021043D01*
Y021045D01*
X044693Y021046D01*
X044693Y021048D01*
X044692Y021051D01*
X044691Y021053D01*
X04469Y021056D01*
X044688Y021058D01*
X044688Y021059D01*
X044687Y021059D01*
X044685Y021061D01*
X044683Y021062D01*
X044681Y021064D01*
X044677Y021066D01*
X044673Y021068D01*
X044668Y021069D01*
X044668D01*
X044667Y021069D01*
X044666D01*
X044664Y02107D01*
X044662Y02107D01*
X04466Y02107D01*
X044657Y021071D01*
X044653Y021072D01*
X044649Y021072D01*
X044644Y021073D01*
X044639Y021073D01*
X044633Y021073D01*
X044627Y021074D01*
X04462D01*
X044613Y021074D01*
D02*
G37*
G36*
X033422D02*
X033414D01*
X033413D01*
X033412D01*
X033409D01*
X033406D01*
X033403D01*
X033399Y021074D01*
X033394D01*
X033389Y021073D01*
X033379Y021073D01*
X033369Y021072D01*
X033364Y021072D01*
X03336Y021071D01*
X033356Y02107D01*
X033352Y021069D01*
X033352D01*
X033352Y021069D01*
X03335Y021069D01*
X033347Y021068D01*
X033343Y021066D01*
X03334Y021065D01*
X033336Y021063D01*
X033333Y021061D01*
X03333Y021058D01*
X03333Y021058D01*
X033329Y021057D01*
X033328Y021056D01*
X033327Y021054D01*
X033326Y021052D01*
X033325Y021049D01*
X033325Y021046D01*
X033324Y021043D01*
Y021042D01*
X033325Y02104D01*
X033325Y021038D01*
X033326Y021035D01*
X033327Y021033D01*
X033328Y02103D01*
X03333Y021027D01*
X033331Y021027D01*
X033331Y021026D01*
X033333Y021025D01*
X033335Y021024D01*
X033338Y021022D01*
X033341Y021021D01*
X033345Y021019D01*
X03335Y021017D01*
X033351D01*
X033351Y021017D01*
X033352D01*
X033354Y021017D01*
X033356Y021016D01*
X033359Y021016D01*
X033362Y021015D01*
X033365Y021015D01*
X03337Y021014D01*
X033374Y021014D01*
X033379Y021014D01*
X033385Y021013D01*
X033391Y021013D01*
X033398D01*
X033406Y021013D01*
X033414D01*
X033414D01*
X033415D01*
X033418D01*
X033421D01*
X033425D01*
X033429Y021013D01*
X033433D01*
X033438Y021013D01*
X033448Y021014D01*
X033458Y021014D01*
X033463Y021015D01*
X033468Y021015D01*
X033472Y021016D01*
X033475Y021017D01*
X033476Y021017D01*
X033478Y021018D01*
X033481Y021019D01*
X033484Y02102D01*
X033488Y021022D01*
X033491Y021023D01*
X033494Y021026D01*
X033497Y021028D01*
X033497Y021028D01*
X033498Y021029D01*
X033499Y02103D01*
X0335Y021032D01*
X033501Y021034D01*
X033502Y021037D01*
X033502Y02104D01*
X033502Y021043D01*
Y021045D01*
X033502Y021046D01*
X033502Y021048D01*
X033501Y021051D01*
X0335Y021053D01*
X033499Y021056D01*
X033497Y021058D01*
X033497Y021059D01*
X033496Y021059D01*
X033494Y021061D01*
X033492Y021062D01*
X03349Y021064D01*
X033486Y021066D01*
X033482Y021068D01*
X033477Y021069D01*
X033477D01*
X033476Y021069D01*
X033475D01*
X033473Y02107D01*
X033471Y02107D01*
X033469Y02107D01*
X033466Y021071D01*
X033462Y021072D01*
X033458Y021072D01*
X033453Y021073D01*
X033448Y021073D01*
X033442Y021073D01*
X033436Y021074D01*
X033429D01*
X033422Y021074D01*
D02*
G37*
G36*
X039013D02*
X039005D01*
X039004D01*
X039003D01*
X039D01*
X038997D01*
X038994D01*
X03899Y021074D01*
X038985D01*
X03898Y021073D01*
X03897Y021073D01*
X03896Y021072D01*
X038955Y021072D01*
X038951Y021071D01*
X038947Y02107D01*
X038943Y021069D01*
X038943D01*
X038943Y021069D01*
X038941Y021069D01*
X038938Y021068D01*
X038934Y021066D01*
X038931Y021065D01*
X038927Y021063D01*
X038924Y021061D01*
X038921Y021058D01*
X038921Y021058D01*
X03892Y021057D01*
X038919Y021056D01*
X038918Y021054D01*
X038917Y021052D01*
X038916Y021049D01*
X038916Y021046D01*
X038915Y021043D01*
Y021042D01*
X038916Y02104D01*
X038916Y021038D01*
X038917Y021035D01*
X038918Y021033D01*
X038919Y02103D01*
X038921Y021027D01*
X038922Y021027D01*
X038922Y021026D01*
X038924Y021025D01*
X038926Y021024D01*
X038929Y021022D01*
X038932Y021021D01*
X038936Y021019D01*
X038941Y021017D01*
X038942D01*
X038942Y021017D01*
X038943D01*
X038945Y021017D01*
X038947Y021016D01*
X03895Y021016D01*
X038953Y021015D01*
X038956Y021015D01*
X038961Y021014D01*
X038965Y021014D01*
X03897Y021014D01*
X038976Y021013D01*
X038982Y021013D01*
X038989D01*
X038997Y021013D01*
X039005D01*
X039005D01*
X039006D01*
X039009D01*
X039012D01*
X039016D01*
X03902Y021013D01*
X039024D01*
X039029Y021013D01*
X039039Y021014D01*
X039049Y021014D01*
X039054Y021015D01*
X039058Y021015D01*
X039062Y021016D01*
X039066Y021017D01*
X039067Y021017D01*
X039069Y021018D01*
X039072Y021019D01*
X039075Y02102D01*
X039079Y021022D01*
X039082Y021023D01*
X039085Y021026D01*
X039088Y021028D01*
X039088Y021028D01*
X039089Y021029D01*
X03909Y02103D01*
X039091Y021032D01*
X039092Y021034D01*
X039093Y021037D01*
X039093Y02104D01*
X039093Y021043D01*
Y021045D01*
X039093Y021046D01*
X039093Y021048D01*
X039092Y021051D01*
X039091Y021053D01*
X03909Y021056D01*
X039088Y021058D01*
X039088Y021059D01*
X039087Y021059D01*
X039085Y021061D01*
X039083Y021062D01*
X039081Y021064D01*
X039077Y021066D01*
X039073Y021068D01*
X039068Y021069D01*
X039068D01*
X039067Y021069D01*
X039066D01*
X039064Y02107D01*
X039062Y02107D01*
X03906Y02107D01*
X039057Y021071D01*
X039053Y021072D01*
X039049Y021072D01*
X039044Y021073D01*
X039039Y021073D01*
X039033Y021073D01*
X039027Y021074D01*
X03902D01*
X039013Y021074D01*
D02*
G37*
G36*
X043544Y021569D02*
X043536D01*
X043536D01*
X043534D01*
X043532D01*
X043529D01*
X043525D01*
X043521Y021569D01*
X043516D01*
X043511Y021569D01*
X043501Y021568D01*
X043491Y021568D01*
X043487Y021567D01*
X043482Y021566D01*
X043478Y021565D01*
X043475Y021565D01*
X043474D01*
X043474Y021564D01*
X043472Y021564D01*
X043469Y021563D01*
X043466Y021562D01*
X043462Y02156D01*
X043458Y021558D01*
X043455Y021556D01*
X043453Y021554D01*
X043452Y021553D01*
X043451Y021553D01*
X043451Y021551D01*
X04345Y021549D01*
X043449Y021547D01*
X043447Y021545D01*
X043447Y021542D01*
X043447Y021539D01*
Y021537D01*
X043447Y021535D01*
X043447Y021533D01*
X043448Y021531D01*
X043449Y021528D01*
X043451Y021525D01*
X043453Y021523D01*
X043453Y021522D01*
X043454Y021522D01*
X043455Y021521D01*
X043457Y021519D01*
X04346Y021517D01*
X043463Y021516D01*
X043467Y021514D01*
X043473Y021513D01*
X043473D01*
X043473Y021512D01*
X043475D01*
X043476Y021512D01*
X043478Y021512D01*
X043481Y021511D01*
X043484Y021511D01*
X043487Y02151D01*
X043492Y02151D01*
X043496Y021509D01*
X043502Y021509D01*
X043507Y021509D01*
X043514Y021508D01*
X04352D01*
X043528Y021508D01*
X043536D01*
X043536D01*
X043538D01*
X04354D01*
X043543D01*
X043547D01*
X043551Y021508D01*
X043556D01*
X04356Y021509D01*
X04357Y021509D01*
X043581Y02151D01*
X043585Y02151D01*
X04359Y021511D01*
X043594Y021512D01*
X043597Y021512D01*
X043598Y021513D01*
X0436Y021513D01*
X043603Y021514D01*
X043606Y021515D01*
X04361Y021517D01*
X043613Y021519D01*
X043617Y021521D01*
X043619Y021523D01*
X04362Y021524D01*
X04362Y021524D01*
X043621Y021526D01*
X043622Y021528D01*
X043623Y02153D01*
X043624Y021532D01*
X043624Y021535D01*
X043625Y021539D01*
Y02154D01*
X043624Y021542D01*
X043624Y021544D01*
X043623Y021546D01*
X043623Y021549D01*
X043621Y021551D01*
X043619Y021554D01*
X043619Y021554D01*
X043618Y021555D01*
X043617Y021556D01*
X043615Y021558D01*
X043612Y021559D01*
X043608Y021561D01*
X043604Y021563D01*
X043599Y021564D01*
X043599D01*
X043598Y021565D01*
X043597D01*
X043596Y021565D01*
X043593Y021565D01*
X043591Y021566D01*
X043588Y021567D01*
X043584Y021567D01*
X04358Y021567D01*
X043576Y021568D01*
X04357Y021568D01*
X043565Y021569D01*
X043558Y021569D01*
X043552D01*
X043544Y021569D01*
D02*
G37*
G36*
X032344D02*
X032336D01*
X032336D01*
X032334D01*
X032332D01*
X032329D01*
X032325D01*
X032321Y021569D01*
X032316D01*
X032311Y021569D01*
X032301Y021568D01*
X032291Y021568D01*
X032287Y021567D01*
X032282Y021566D01*
X032278Y021565D01*
X032275Y021565D01*
X032274D01*
X032274Y021564D01*
X032272Y021564D01*
X032269Y021563D01*
X032266Y021562D01*
X032262Y02156D01*
X032258Y021558D01*
X032255Y021556D01*
X032253Y021554D01*
X032252Y021553D01*
X032251Y021553D01*
X032251Y021551D01*
X03225Y021549D01*
X032249Y021547D01*
X032247Y021545D01*
X032247Y021542D01*
X032247Y021539D01*
Y021537D01*
X032247Y021535D01*
X032247Y021533D01*
X032248Y021531D01*
X032249Y021528D01*
X032251Y021525D01*
X032253Y021523D01*
X032253Y021522D01*
X032254Y021522D01*
X032255Y021521D01*
X032257Y021519D01*
X03226Y021517D01*
X032263Y021516D01*
X032267Y021514D01*
X032273Y021513D01*
X032273D01*
X032273Y021512D01*
X032275D01*
X032276Y021512D01*
X032278Y021512D01*
X032281Y021511D01*
X032284Y021511D01*
X032287Y02151D01*
X032292Y02151D01*
X032296Y021509D01*
X032302Y021509D01*
X032307Y021509D01*
X032314Y021508D01*
X03232D01*
X032328Y021508D01*
X032336D01*
X032336D01*
X032338D01*
X03234D01*
X032343D01*
X032347D01*
X032351Y021508D01*
X032356D01*
X03236Y021509D01*
X03237Y021509D01*
X032381Y02151D01*
X032385Y02151D01*
X03239Y021511D01*
X032394Y021512D01*
X032397Y021512D01*
X032398Y021513D01*
X0324Y021513D01*
X032403Y021514D01*
X032406Y021515D01*
X03241Y021517D01*
X032413Y021519D01*
X032417Y021521D01*
X032419Y021523D01*
X03242Y021524D01*
X03242Y021524D01*
X032421Y021526D01*
X032422Y021528D01*
X032423Y02153D01*
X032424Y021532D01*
X032424Y021535D01*
X032425Y021539D01*
Y02154D01*
X032424Y021542D01*
X032424Y021544D01*
X032423Y021546D01*
X032423Y021549D01*
X032421Y021551D01*
X032419Y021554D01*
X032419Y021554D01*
X032418Y021555D01*
X032417Y021556D01*
X032415Y021558D01*
X032412Y021559D01*
X032408Y021561D01*
X032404Y021563D01*
X032399Y021564D01*
X032399D01*
X032398Y021565D01*
X032397D01*
X032396Y021565D01*
X032393Y021565D01*
X032391Y021566D01*
X032388Y021567D01*
X032384Y021567D01*
X03238Y021567D01*
X032376Y021568D01*
X03237Y021568D01*
X032365Y021569D01*
X032358Y021569D01*
X032352D01*
X032344Y021569D01*
D02*
G37*
G36*
X037894D02*
X037886D01*
X037886D01*
X037884D01*
X037882D01*
X037879D01*
X037875D01*
X037871Y021569D01*
X037866D01*
X037861Y021569D01*
X037851Y021568D01*
X037841Y021568D01*
X037837Y021567D01*
X037832Y021566D01*
X037828Y021565D01*
X037825Y021565D01*
X037824D01*
X037824Y021564D01*
X037822Y021564D01*
X037819Y021563D01*
X037816Y021562D01*
X037812Y02156D01*
X037808Y021558D01*
X037805Y021556D01*
X037803Y021554D01*
X037802Y021553D01*
X037801Y021553D01*
X037801Y021551D01*
X0378Y021549D01*
X037799Y021547D01*
X037797Y021545D01*
X037797Y021542D01*
X037797Y021539D01*
Y021537D01*
X037797Y021535D01*
X037797Y021533D01*
X037798Y021531D01*
X037799Y021528D01*
X037801Y021525D01*
X037803Y021523D01*
X037803Y021522D01*
X037804Y021522D01*
X037805Y021521D01*
X037807Y021519D01*
X03781Y021517D01*
X037813Y021516D01*
X037817Y021514D01*
X037823Y021513D01*
X037823D01*
X037823Y021512D01*
X037825D01*
X037826Y021512D01*
X037828Y021512D01*
X037831Y021511D01*
X037834Y021511D01*
X037837Y02151D01*
X037842Y02151D01*
X037846Y021509D01*
X037852Y021509D01*
X037857Y021509D01*
X037864Y021508D01*
X03787D01*
X037878Y021508D01*
X037886D01*
X037886D01*
X037888D01*
X03789D01*
X037893D01*
X037897D01*
X037901Y021508D01*
X037906D01*
X03791Y021509D01*
X03792Y021509D01*
X037931Y02151D01*
X037935Y02151D01*
X03794Y021511D01*
X037944Y021512D01*
X037947Y021512D01*
X037948Y021513D01*
X03795Y021513D01*
X037953Y021514D01*
X037956Y021515D01*
X03796Y021517D01*
X037963Y021519D01*
X037967Y021521D01*
X037969Y021523D01*
X03797Y021524D01*
X03797Y021524D01*
X037971Y021526D01*
X037972Y021528D01*
X037973Y02153D01*
X037974Y021532D01*
X037974Y021535D01*
X037975Y021539D01*
Y02154D01*
X037974Y021542D01*
X037974Y021544D01*
X037973Y021546D01*
X037973Y021549D01*
X037971Y021551D01*
X037969Y021554D01*
X037969Y021554D01*
X037968Y021555D01*
X037967Y021556D01*
X037964Y021558D01*
X037962Y021559D01*
X037958Y021561D01*
X037954Y021563D01*
X037949Y021564D01*
X037949D01*
X037948Y021565D01*
X037947D01*
X037946Y021565D01*
X037943Y021565D01*
X037941Y021566D01*
X037938Y021567D01*
X037934Y021567D01*
X03793Y021567D01*
X037926Y021568D01*
X03792Y021568D01*
X037915Y021569D01*
X037908Y021569D01*
X037902D01*
X037894Y021569D01*
D02*
G37*
G36*
X020613Y04619D02*
X020605D01*
X020604D01*
X020603D01*
X0206D01*
X020597D01*
X020594D01*
X02059Y04619D01*
X020585D01*
X02058Y046189D01*
X02057Y046189D01*
X02056Y046188D01*
X020555Y046187D01*
X020551Y046187D01*
X020547Y046186D01*
X020543Y046185D01*
X020543D01*
X020543Y046185D01*
X020541Y046185D01*
X020538Y046183D01*
X020534Y046182D01*
X020531Y046181D01*
X020527Y046179D01*
X020524Y046177D01*
X020521Y046174D01*
X020521Y046174D01*
X02052Y046173D01*
X020519Y046172D01*
X020518Y04617D01*
X020517Y046168D01*
X020516Y046165D01*
X020516Y046162D01*
X020515Y046159D01*
Y046158D01*
X020516Y046156D01*
X020516Y046154D01*
X020517Y046151D01*
X020518Y046149D01*
X020519Y046146D01*
X020521Y046143D01*
X020522Y046143D01*
X020522Y046142D01*
X020524Y046141D01*
X020526Y04614D01*
X020529Y046138D01*
X020532Y046137D01*
X020536Y046135D01*
X020541Y046133D01*
X020542D01*
X020542Y046133D01*
X020543D01*
X020545Y046133D01*
X020547Y046132D01*
X02055Y046132D01*
X020553Y046131D01*
X020556Y046131D01*
X020561Y04613D01*
X020565Y04613D01*
X02057Y04613D01*
X020576Y046129D01*
X020582Y046129D01*
X020589D01*
X020597Y046129D01*
X020605D01*
X020605D01*
X020606D01*
X020609D01*
X020612D01*
X020616D01*
X02062Y046129D01*
X020624D01*
X020629Y046129D01*
X020639Y04613D01*
X020649Y04613D01*
X020654Y046131D01*
X020658Y046131D01*
X020662Y046132D01*
X020666Y046133D01*
X020667Y046133D01*
X020669Y046134D01*
X020672Y046135D01*
X020675Y046136D01*
X020679Y046138D01*
X020682Y046139D01*
X020685Y046142D01*
X020688Y046144D01*
X020688Y046144D01*
X020689Y046145D01*
X02069Y046146D01*
X020691Y046148D01*
X020692Y04615D01*
X020693Y046153D01*
X020693Y046156D01*
X020693Y046159D01*
Y046161D01*
X020693Y046162D01*
X020693Y046164D01*
X020692Y046167D01*
X020691Y046169D01*
X02069Y046172D01*
X020688Y046174D01*
X020688Y046175D01*
X020687Y046175D01*
X020685Y046177D01*
X020683Y046178D01*
X020681Y04618D01*
X020677Y046182D01*
X020673Y046183D01*
X020668Y046185D01*
X020668D01*
X020667Y046185D01*
X020666D01*
X020664Y046186D01*
X020662Y046186D01*
X02066Y046186D01*
X020657Y046187D01*
X020653Y046187D01*
X020649Y046188D01*
X020644Y046189D01*
X020639Y046189D01*
X020633Y046189D01*
X020627Y04619D01*
X02062D01*
X020613Y04619D01*
D02*
G37*
G36*
X013192Y045394D02*
X013191D01*
X013189Y045394D01*
X013187Y045394D01*
X013185Y045393D01*
X013182Y045392D01*
X013179Y04539D01*
X013177Y045389D01*
X013176Y045388D01*
X013175Y045387D01*
X013174Y045386D01*
X013173Y045384D01*
X013171Y045381D01*
X01317Y045378D01*
X013168Y045374D01*
X013166Y045369D01*
Y045368D01*
X013166Y045368D01*
Y045366D01*
X013166Y045365D01*
X013165Y045363D01*
X013165Y04536D01*
X013165Y045357D01*
X013164Y045354D01*
X013163Y045349D01*
X013163Y045345D01*
X013163Y045339D01*
X013162Y045334D01*
X013162Y045327D01*
Y045321D01*
X013162Y045313D01*
Y045305D01*
Y045305D01*
Y045303D01*
Y045301D01*
Y045298D01*
Y045294D01*
X013162Y04529D01*
Y045286D01*
X013162Y045281D01*
X013163Y045271D01*
X013163Y04526D01*
X013164Y045256D01*
X013165Y045251D01*
X013165Y045247D01*
X013166Y045244D01*
X013166Y045243D01*
X013167Y045241D01*
X013168Y045238D01*
X013169Y045235D01*
X013171Y045231D01*
X013173Y045228D01*
X013175Y045224D01*
X013177Y045222D01*
X013177Y045222D01*
X013178Y045221D01*
X013179Y04522D01*
X013181Y045219D01*
X013183Y045218D01*
X013186Y045217D01*
X013189Y045217D01*
X013192Y045216D01*
X013194D01*
X013195Y045217D01*
X013197Y045217D01*
X0132Y045218D01*
X013202Y045219D01*
X013205Y04522D01*
X013207Y045222D01*
X013208Y045222D01*
X013209Y045223D01*
X01321Y045224D01*
X013211Y045227D01*
X013213Y045229D01*
X013215Y045233D01*
X013217Y045237D01*
X013218Y045242D01*
Y045242D01*
X013218Y045243D01*
Y045244D01*
X013219Y045246D01*
X013219Y045248D01*
X013219Y04525D01*
X01322Y045253D01*
X013221Y045257D01*
X013221Y045261D01*
X013222Y045266D01*
X013222Y045271D01*
X013222Y045276D01*
X013223Y045283D01*
Y04529D01*
X013223Y045297D01*
Y045305D01*
Y045306D01*
Y045307D01*
Y04531D01*
Y045313D01*
Y045316D01*
X013223Y04532D01*
Y045325D01*
X013222Y04533D01*
X013222Y04534D01*
X013221Y04535D01*
X013221Y045354D01*
X01322Y045359D01*
X013219Y045363D01*
X013218Y045366D01*
Y045367D01*
X013218Y045367D01*
X013218Y045369D01*
X013217Y045372D01*
X013215Y045375D01*
X013214Y045379D01*
X013212Y045383D01*
X01321Y045386D01*
X013207Y045389D01*
X013207Y045389D01*
X013206Y04539D01*
X013205Y04539D01*
X013203Y045392D01*
X013201Y045393D01*
X013198Y045394D01*
X013195Y045394D01*
X013192Y045394D01*
D02*
G37*
G36*
X018313Y046373D02*
X018305D01*
X018304D01*
X018303D01*
X0183D01*
X018297D01*
X018294D01*
X01829Y046373D01*
X018285D01*
X01828Y046372D01*
X01827Y046372D01*
X01826Y046371D01*
X018255Y046371D01*
X018251Y04637D01*
X018247Y046369D01*
X018243Y046368D01*
X018243D01*
X018243Y046368D01*
X018241Y046368D01*
X018238Y046367D01*
X018234Y046365D01*
X018231Y046364D01*
X018227Y046362D01*
X018224Y04636D01*
X018221Y046357D01*
X018221Y046357D01*
X01822Y046356D01*
X018219Y046355D01*
X018218Y046353D01*
X018217Y046351D01*
X018216Y046348D01*
X018216Y046345D01*
X018215Y046342D01*
Y046341D01*
X018216Y046339D01*
X018216Y046337D01*
X018217Y046335D01*
X018218Y046332D01*
X018219Y046329D01*
X018221Y046327D01*
X018222Y046326D01*
X018222Y046325D01*
X018224Y046324D01*
X018226Y046323D01*
X018229Y046321D01*
X018232Y04632D01*
X018236Y046318D01*
X018241Y046316D01*
X018242D01*
X018242Y046316D01*
X018243D01*
X018245Y046316D01*
X018247Y046315D01*
X01825Y046315D01*
X018253Y046315D01*
X018256Y046314D01*
X018261Y046313D01*
X018265Y046313D01*
X01827Y046313D01*
X018276Y046312D01*
X018282Y046312D01*
X018289D01*
X018297Y046312D01*
X018305D01*
X018305D01*
X018306D01*
X018309D01*
X018312D01*
X018316D01*
X01832Y046312D01*
X018324D01*
X018329Y046312D01*
X018339Y046313D01*
X018349Y046313D01*
X018354Y046314D01*
X018358Y046315D01*
X018362Y046315D01*
X018366Y046316D01*
X018367Y046316D01*
X018369Y046317D01*
X018372Y046318D01*
X018375Y046319D01*
X018379Y046321D01*
X018382Y046323D01*
X018385Y046325D01*
X018388Y046327D01*
X018388Y046327D01*
X018389Y046328D01*
X01839Y046329D01*
X018391Y046331D01*
X018392Y046333D01*
X018393Y046336D01*
X018393Y046339D01*
X018393Y046342D01*
Y046344D01*
X018393Y046345D01*
X018393Y046347D01*
X018392Y04635D01*
X018391Y046352D01*
X01839Y046355D01*
X018388Y046357D01*
X018388Y046358D01*
X018387Y046359D01*
X018385Y04636D01*
X018383Y046361D01*
X018381Y046363D01*
X018377Y046365D01*
X018373Y046367D01*
X018368Y046368D01*
X018368D01*
X018367Y046368D01*
X018366D01*
X018364Y046369D01*
X018362Y046369D01*
X01836Y046369D01*
X018357Y04637D01*
X018353Y046371D01*
X018349Y046371D01*
X018344Y046372D01*
X018339Y046372D01*
X018333Y046372D01*
X018327Y046373D01*
X01832D01*
X018313Y046373D01*
D02*
G37*
G36*
X013009Y046527D02*
X013008D01*
X013006Y046527D01*
X013004Y046526D01*
X013001Y046526D01*
X012999Y046525D01*
X012996Y046523D01*
X012993Y046521D01*
X012993Y046521D01*
X012992Y04652D01*
X012991Y046519D01*
X01299Y046517D01*
X012988Y046514D01*
X012987Y046511D01*
X012985Y046506D01*
X012983Y046501D01*
Y046501D01*
X012983Y046501D01*
Y046499D01*
X012983Y046498D01*
X012982Y046495D01*
X012982Y046493D01*
X012981Y04649D01*
X012981Y046486D01*
X01298Y046482D01*
X01298Y046478D01*
X01298Y046472D01*
X012979Y046467D01*
X012979Y04646D01*
Y046454D01*
X012979Y046446D01*
Y046438D01*
Y046438D01*
Y046436D01*
Y046434D01*
Y046431D01*
Y046427D01*
X012979Y046423D01*
Y046418D01*
X012979Y046414D01*
X01298Y046403D01*
X01298Y046393D01*
X012981Y046388D01*
X012981Y046384D01*
X012982Y04638D01*
X012983Y046376D01*
X012983Y046376D01*
X012984Y046374D01*
X012985Y046371D01*
X012986Y046368D01*
X012988Y046364D01*
X012989Y04636D01*
X012992Y046357D01*
X012994Y046355D01*
X012994Y046354D01*
X012995Y046354D01*
X012996Y046353D01*
X012998Y046352D01*
X013Y046351D01*
X013003Y04635D01*
X013006Y046349D01*
X013009Y046349D01*
X013011D01*
X013012Y046349D01*
X013014Y04635D01*
X013017Y046351D01*
X013019Y046351D01*
X013022Y046353D01*
X013024Y046355D01*
X013025Y046355D01*
X013025Y046356D01*
X013027Y046357D01*
X013028Y046359D01*
X01303Y046362D01*
X013032Y046365D01*
X013033Y046369D01*
X013035Y046375D01*
Y046375D01*
X013035Y046375D01*
Y046377D01*
X013036Y046378D01*
X013036Y04638D01*
X013036Y046383D01*
X013037Y046386D01*
X013037Y046389D01*
X013038Y046393D01*
X013039Y046398D01*
X013039Y046403D01*
X013039Y046409D01*
X01304Y046415D01*
Y046422D01*
X01304Y04643D01*
Y046438D01*
Y046438D01*
Y04644D01*
Y046442D01*
Y046445D01*
Y046449D01*
X01304Y046453D01*
Y046458D01*
X013039Y046462D01*
X013039Y046472D01*
X013038Y046482D01*
X013037Y046487D01*
X013037Y046492D01*
X013036Y046496D01*
X013035Y046499D01*
Y046499D01*
X013035Y0465D01*
X013035Y046502D01*
X013033Y046505D01*
X013032Y046508D01*
X013031Y046512D01*
X013029Y046515D01*
X013027Y046519D01*
X013024Y046521D01*
X013024Y046522D01*
X013023Y046522D01*
X013022Y046523D01*
X01302Y046524D01*
X013018Y046525D01*
X013015Y046526D01*
X013012Y046527D01*
X013009Y046527D01*
D02*
G37*
G36*
X028009Y022435D02*
X028008D01*
X028006Y022434D01*
X028004Y022434D01*
X028001Y022433D01*
X027999Y022432D01*
X027996Y022431D01*
X027993Y022429D01*
X027993Y022428D01*
X027992Y022428D01*
X027991Y022426D01*
X02799Y022424D01*
X027988Y022421D01*
X027987Y022418D01*
X027985Y022414D01*
X027983Y022409D01*
Y022408D01*
X027983Y022408D01*
Y022407D01*
X027983Y022405D01*
X027982Y022403D01*
X027982Y0224D01*
X027981Y022397D01*
X027981Y022394D01*
X02798Y022389D01*
X02798Y022385D01*
X02798Y02238D01*
X027979Y022374D01*
X027979Y022368D01*
Y022361D01*
X027979Y022353D01*
Y022345D01*
Y022345D01*
Y022344D01*
Y022341D01*
Y022338D01*
Y022334D01*
X027979Y02233D01*
Y022326D01*
X027979Y022321D01*
X02798Y022311D01*
X02798Y022301D01*
X027981Y022296D01*
X027981Y022292D01*
X027982Y022288D01*
X027983Y022284D01*
X027983Y022283D01*
X027984Y022281D01*
X027985Y022278D01*
X027986Y022275D01*
X027988Y022271D01*
X027989Y022268D01*
X027992Y022265D01*
X027994Y022262D01*
X027994Y022262D01*
X027995Y022261D01*
X027996Y02226D01*
X027998Y022259D01*
X028Y022258D01*
X028003Y022257D01*
X028006Y022257D01*
X028009Y022257D01*
X028011D01*
X028012Y022257D01*
X028014Y022257D01*
X028017Y022258D01*
X028019Y022259D01*
X028022Y02226D01*
X028024Y022262D01*
X028025Y022262D01*
X028025Y022263D01*
X028027Y022265D01*
X028028Y022267D01*
X02803Y022269D01*
X028032Y022273D01*
X028033Y022277D01*
X028035Y022282D01*
Y022282D01*
X028035Y022283D01*
Y022284D01*
X028036Y022286D01*
X028036Y022288D01*
X028036Y02229D01*
X028037Y022293D01*
X028037Y022297D01*
X028038Y022301D01*
X028039Y022306D01*
X028039Y022311D01*
X028039Y022317D01*
X02804Y022323D01*
Y02233D01*
X02804Y022337D01*
Y022345D01*
Y022346D01*
Y022347D01*
Y02235D01*
Y022353D01*
Y022356D01*
X02804Y02236D01*
Y022365D01*
X028039Y02237D01*
X028039Y02238D01*
X028038Y02239D01*
X028037Y022395D01*
X028037Y022399D01*
X028036Y022403D01*
X028035Y022407D01*
Y022407D01*
X028035Y022407D01*
X028035Y022409D01*
X028033Y022412D01*
X028032Y022416D01*
X028031Y022419D01*
X028029Y022423D01*
X028027Y022426D01*
X028024Y022429D01*
X028024Y022429D01*
X028023Y02243D01*
X028022Y022431D01*
X02802Y022432D01*
X028018Y022433D01*
X028015Y022434D01*
X028012Y022434D01*
X028009Y022435D01*
D02*
G37*
G36*
X022463Y04619D02*
X022455D01*
X022454D01*
X022453D01*
X02245D01*
X022447D01*
X022444D01*
X02244Y04619D01*
X022435D01*
X02243Y046189D01*
X02242Y046189D01*
X02241Y046188D01*
X022405Y046187D01*
X022401Y046187D01*
X022397Y046186D01*
X022393Y046185D01*
X022393D01*
X022393Y046185D01*
X022391Y046185D01*
X022388Y046183D01*
X022384Y046182D01*
X022381Y046181D01*
X022377Y046179D01*
X022374Y046177D01*
X022371Y046174D01*
X022371Y046174D01*
X02237Y046173D01*
X022369Y046172D01*
X022368Y04617D01*
X022367Y046168D01*
X022366Y046165D01*
X022366Y046162D01*
X022365Y046159D01*
Y046158D01*
X022366Y046156D01*
X022366Y046154D01*
X022367Y046151D01*
X022368Y046149D01*
X022369Y046146D01*
X022371Y046143D01*
X022372Y046143D01*
X022372Y046142D01*
X022374Y046141D01*
X022376Y04614D01*
X022379Y046138D01*
X022382Y046137D01*
X022386Y046135D01*
X022391Y046133D01*
X022392D01*
X022392Y046133D01*
X022393D01*
X022395Y046133D01*
X022397Y046132D01*
X0224Y046132D01*
X022403Y046131D01*
X022406Y046131D01*
X022411Y04613D01*
X022415Y04613D01*
X02242Y04613D01*
X022426Y046129D01*
X022432Y046129D01*
X022439D01*
X022447Y046129D01*
X022455D01*
X022455D01*
X022456D01*
X022459D01*
X022462D01*
X022466D01*
X02247Y046129D01*
X022474D01*
X022479Y046129D01*
X022489Y04613D01*
X022499Y04613D01*
X022504Y046131D01*
X022508Y046131D01*
X022512Y046132D01*
X022516Y046133D01*
X022517Y046133D01*
X022519Y046134D01*
X022522Y046135D01*
X022525Y046136D01*
X022529Y046138D01*
X022532Y046139D01*
X022535Y046142D01*
X022538Y046144D01*
X022538Y046144D01*
X022539Y046145D01*
X02254Y046146D01*
X022541Y046148D01*
X022542Y04615D01*
X022543Y046153D01*
X022543Y046156D01*
X022543Y046159D01*
Y046161D01*
X022543Y046162D01*
X022543Y046164D01*
X022542Y046167D01*
X022541Y046169D01*
X02254Y046172D01*
X022538Y046174D01*
X022538Y046175D01*
X022537Y046175D01*
X022535Y046177D01*
X022533Y046178D01*
X022531Y04618D01*
X022527Y046182D01*
X022523Y046183D01*
X022518Y046185D01*
X022518D01*
X022517Y046185D01*
X022516D01*
X022514Y046186D01*
X022512Y046186D01*
X02251Y046186D01*
X022507Y046187D01*
X022503Y046187D01*
X022499Y046188D01*
X022494Y046189D01*
X022489Y046189D01*
X022483Y046189D01*
X022477Y04619D01*
X02247D01*
X022463Y04619D01*
D02*
G37*
G36*
X030163Y026828D02*
X030155D01*
X030154D01*
X030153D01*
X03015D01*
X030147D01*
X030144D01*
X03014Y026828D01*
X030135D01*
X03013Y026827D01*
X03012Y026827D01*
X03011Y026826D01*
X030105Y026826D01*
X030101Y026825D01*
X030097Y026824D01*
X030093Y026823D01*
X030093D01*
X030093Y026823D01*
X030091Y026823D01*
X030088Y026822D01*
X030084Y026821D01*
X030081Y026819D01*
X030077Y026817D01*
X030074Y026815D01*
X030071Y026813D01*
X030071Y026812D01*
X03007Y026811D01*
X030069Y02681D01*
X030068Y026808D01*
X030067Y026806D01*
X030066Y026803D01*
X030066Y026801D01*
X030065Y026797D01*
Y026796D01*
X030066Y026794D01*
X030066Y026792D01*
X030067Y02679D01*
X030068Y026787D01*
X030069Y026784D01*
X030071Y026782D01*
X030072Y026781D01*
X030072Y026781D01*
X030074Y026779D01*
X030076Y026778D01*
X030079Y026776D01*
X030082Y026775D01*
X030086Y026773D01*
X030091Y026771D01*
X030092D01*
X030092Y026771D01*
X030093D01*
X030095Y026771D01*
X030097Y02677D01*
X0301Y02677D01*
X030103Y02677D01*
X030106Y026769D01*
X030111Y026769D01*
X030115Y026768D01*
X03012Y026768D01*
X030126Y026767D01*
X030132Y026767D01*
X030139D01*
X030147Y026767D01*
X030155D01*
X030155D01*
X030156D01*
X030159D01*
X030162D01*
X030166D01*
X03017Y026767D01*
X030174D01*
X030179Y026767D01*
X030189Y026768D01*
X030199Y026769D01*
X030204Y026769D01*
X030208Y02677D01*
X030212Y02677D01*
X030216Y026771D01*
X030217Y026771D01*
X030219Y026772D01*
X030222Y026773D01*
X030225Y026774D01*
X030229Y026776D01*
X030232Y026778D01*
X030235Y02678D01*
X030238Y026782D01*
X030238Y026782D01*
X030239Y026783D01*
X03024Y026785D01*
X030241Y026786D01*
X030242Y026789D01*
X030243Y026791D01*
X030243Y026794D01*
X030243Y026797D01*
Y026799D01*
X030243Y026801D01*
X030243Y026802D01*
X030242Y026805D01*
X030241Y026807D01*
X03024Y02681D01*
X030238Y026813D01*
X030238Y026813D01*
X030237Y026814D01*
X030235Y026815D01*
X030233Y026817D01*
X030231Y026818D01*
X030227Y02682D01*
X030223Y026822D01*
X030218Y026823D01*
X030218D01*
X030217Y026823D01*
X030216D01*
X030214Y026824D01*
X030212Y026824D01*
X03021Y026825D01*
X030207Y026825D01*
X030203Y026826D01*
X030199Y026826D01*
X030194Y026827D01*
X030189Y026827D01*
X030183Y026827D01*
X030177Y026828D01*
X03017D01*
X030163Y026828D01*
D02*
G37*
G36*
X025633Y032445D02*
X025632D01*
X02563Y032444D01*
X025627Y032444D01*
X025623Y032443D01*
X025618Y032441D01*
X025614Y032439D01*
X025609Y032435D01*
X025605Y032431D01*
X025604Y03243D01*
X025603Y032429D01*
X025601Y032425D01*
X025599Y03242D01*
X025598Y032418D01*
X025597Y032414D01*
X025596Y032411D01*
X025595Y032407D01*
X025594Y032402D01*
X025594Y032398D01*
X025593Y032392D01*
Y032387D01*
Y032387D01*
Y032386D01*
Y032384D01*
Y032382D01*
X025594Y03238D01*
X025594Y032377D01*
X025595Y032371D01*
X025596Y032364D01*
X025598Y032357D01*
X025601Y03235D01*
X025605Y032344D01*
X025605Y032344D01*
X025607Y032342D01*
X02561Y03234D01*
X025613Y032337D01*
X025617Y032335D01*
X025622Y032332D01*
X025627Y032331D01*
X025633Y03233D01*
X025634D01*
X025636Y032331D01*
X02564Y032331D01*
X025644Y032332D01*
X025648Y032334D01*
X025653Y032336D01*
X025658Y032339D01*
X025663Y032344D01*
X025663Y032345D01*
X025665Y032347D01*
X025666Y03235D01*
X025668Y032354D01*
X02567Y03236D01*
X025672Y032367D01*
X025674Y032375D01*
X025674Y032384D01*
Y032385D01*
Y032386D01*
Y032387D01*
X025674Y03239D01*
Y032392D01*
X025673Y032395D01*
X025673Y032402D01*
X025671Y032409D01*
X025669Y032417D01*
X025666Y032424D01*
X025664Y032427D01*
X025662Y03243D01*
X025661Y032431D01*
X02566Y032432D01*
X025657Y032435D01*
X025654Y032437D01*
X02565Y03244D01*
X025645Y032442D01*
X025639Y032444D01*
X025633Y032445D01*
D02*
G37*
G36*
X028773Y03247D02*
X028772D01*
X02877Y032469D01*
X028767Y032469D01*
X028763Y032468D01*
X028758Y032466D01*
X028753Y032464D01*
X028748Y032461D01*
X028743Y032456D01*
X028743Y032455D01*
X028742Y032453D01*
X02874Y03245D01*
X028738Y032446D01*
X028736Y03244D01*
X028734Y032433D01*
X028733Y032425D01*
X028732Y032416D01*
Y032415D01*
Y032414D01*
Y032413D01*
X028733Y03241D01*
Y032408D01*
X028733Y032405D01*
X028734Y032398D01*
X028735Y032391D01*
X028737Y032383D01*
X02874Y032376D01*
X028742Y032373D01*
X028744Y03237D01*
X028745Y032369D01*
X028746Y032368D01*
X028749Y032365D01*
X028753Y032363D01*
X028757Y03236D01*
X028762Y032358D01*
X028767Y032356D01*
X028774Y032355D01*
X028774D01*
X028777Y032356D01*
X02878Y032356D01*
X028784Y032357D01*
X028788Y032359D01*
X028793Y032361D01*
X028797Y032365D01*
X028802Y032369D01*
X028802Y03237D01*
X028804Y032371D01*
X028805Y032375D01*
X028808Y03238D01*
X028808Y032382D01*
X028809Y032386D01*
X02881Y032389D01*
X028811Y032393D01*
X028812Y032398D01*
X028813Y032402D01*
X028813Y032408D01*
Y032413D01*
Y032413D01*
Y032414D01*
Y032416D01*
Y032418D01*
X028813Y03242D01*
X028812Y032423D01*
X028812Y032429D01*
X02881Y032436D01*
X028808Y032443D01*
X028805Y03245D01*
X028801Y032456D01*
X028801Y032456D01*
X028799Y032458D01*
X028797Y03246D01*
X028793Y032463D01*
X028789Y032465D01*
X028785Y032468D01*
X028779Y032469D01*
X028773Y03247D01*
D02*
G37*
G36*
X024153Y024971D02*
X024145D01*
X024145D01*
X024144D01*
X024141D01*
X024138D01*
X024134D01*
X02413Y024971D01*
X024126D01*
X024121Y024971D01*
X024111Y02497D01*
X024101Y02497D01*
X024096Y024969D01*
X024092Y024969D01*
X024088Y024968D01*
X024084Y024967D01*
X024083Y024967D01*
X024081Y024966D01*
X024078Y024965D01*
X024075Y024964D01*
X024071Y024962D01*
X024068Y024961D01*
X024065Y024958D01*
X024062Y024956D01*
X024062Y024956D01*
X024061Y024955D01*
X02406Y024954D01*
X024059Y024952D01*
X024058Y02495D01*
X024057Y024947D01*
X024057Y024944D01*
X024057Y024941D01*
Y024939D01*
X024057Y024938D01*
X024057Y024936D01*
X024058Y024933D01*
X024059Y024931D01*
X02406Y024928D01*
X024062Y024926D01*
X024062Y024925D01*
X024063Y024925D01*
X024065Y024923D01*
X024067Y024922D01*
X024069Y02492D01*
X024073Y024918D01*
X024077Y024917D01*
X024082Y024915D01*
X024082D01*
X024083Y024915D01*
X024084D01*
X024086Y024914D01*
X024088Y024914D01*
X02409Y024914D01*
X024093Y024913D01*
X024097Y024913D01*
X024101Y024912D01*
X024106Y024911D01*
X024111Y024911D01*
X024117Y024911D01*
X024123Y02491D01*
X02413D01*
X024137Y02491D01*
X024145D01*
X024146D01*
X024147D01*
X02415D01*
X024153D01*
X024156D01*
X02416Y02491D01*
X024165D01*
X02417Y024911D01*
X02418Y024911D01*
X02419Y024912D01*
X024195Y024913D01*
X024199Y024913D01*
X024203Y024914D01*
X024207Y024915D01*
X024207D01*
X024207Y024915D01*
X024209Y024915D01*
X024212Y024917D01*
X024216Y024918D01*
X024219Y024919D01*
X024223Y024921D01*
X024226Y024923D01*
X024229Y024926D01*
X024229Y024926D01*
X02423Y024927D01*
X024231Y024928D01*
X024232Y02493D01*
X024233Y024932D01*
X024234Y024935D01*
X024234Y024938D01*
X024235Y024941D01*
Y024942D01*
X024234Y024944D01*
X024234Y024946D01*
X024233Y024949D01*
X024232Y024951D01*
X024231Y024954D01*
X024229Y024957D01*
X024228Y024957D01*
X024228Y024958D01*
X024226Y024959D01*
X024224Y02496D01*
X024221Y024962D01*
X024218Y024963D01*
X024214Y024965D01*
X024209Y024967D01*
X024208D01*
X024208Y024967D01*
X024207D01*
X024205Y024967D01*
X024203Y024968D01*
X0242Y024968D01*
X024197Y024969D01*
X024194Y024969D01*
X024189Y02497D01*
X024185Y02497D01*
X02418Y02497D01*
X024174Y024971D01*
X024168Y024971D01*
X024161D01*
X024153Y024971D01*
D02*
G37*
%LPD*%
D20*
X026459Y028296D02*
Y029004D01*
X025593Y028296D02*
X026459D01*
X025593Y029004D02*
X026459D01*
X025041Y028296D02*
X025593D01*
X025041Y029004D02*
X025593D01*
X025041Y028296D02*
Y029004D01*
X037796Y014585D02*
X038504D01*
X037796D02*
Y015136D01*
X038504Y014585D02*
Y015136D01*
X037796D02*
Y016002D01*
X038504Y015136D02*
Y016002D01*
X037796D02*
X038504D01*
X031096Y014591D02*
X031804D01*
X031096D02*
Y015457D01*
X031804Y014591D02*
Y015457D01*
X031096D02*
Y016009D01*
X031804Y015457D02*
Y016009D01*
X031096D02*
X031804D01*
X032446Y014591D02*
X033154D01*
X032446D02*
Y015457D01*
X033154Y014591D02*
Y015457D01*
X032446D02*
Y016009D01*
X033154Y015457D02*
Y016009D01*
X032446D02*
X033154D01*
X033446Y027493D02*
X034154D01*
Y026941D02*
Y027493D01*
X033446Y026941D02*
Y027493D01*
X034154Y026075D02*
Y026941D01*
X033446Y026075D02*
Y026941D01*
Y026075D02*
X034154D01*
X032196Y026085D02*
X032904D01*
X032196D02*
Y026951D01*
X032904Y026085D02*
Y026951D01*
X032196D02*
Y027503D01*
X032904Y026951D02*
Y027503D01*
X032196D02*
X032904D01*
X044296Y022143D02*
X045004D01*
Y021591D02*
Y022143D01*
X044296Y021591D02*
Y022143D01*
X045004Y020725D02*
Y021591D01*
X044296Y020725D02*
Y021591D01*
Y020725D02*
X045004D01*
X033105Y022143D02*
X033813D01*
Y021591D02*
Y022143D01*
X033105Y021591D02*
Y022143D01*
X033813Y020725D02*
Y021591D01*
X033105Y020725D02*
Y021591D01*
Y020725D02*
X033813D01*
X038696Y022143D02*
X039404D01*
Y021591D02*
Y022143D01*
X038696Y021591D02*
Y022143D01*
X039404Y020725D02*
Y021591D01*
X038696Y020725D02*
Y021591D01*
Y020725D02*
X039404D01*
X043196Y020735D02*
X043904D01*
X043196D02*
Y021601D01*
X043904Y020735D02*
Y021601D01*
X043196D02*
Y022153D01*
X043904Y021601D02*
Y022153D01*
X043196D02*
X043904D01*
X031996Y020735D02*
X032704D01*
X031996D02*
Y021601D01*
X032704Y020735D02*
Y021601D01*
X031996D02*
Y022153D01*
X032704Y021601D02*
Y022153D01*
X031996D02*
X032704D01*
X037546Y020735D02*
X038254D01*
X037546D02*
Y021601D01*
X038254Y020735D02*
Y021601D01*
X037546D02*
Y022153D01*
X038254Y021601D02*
Y022153D01*
X037546D02*
X038254D01*
X019146Y045841D02*
X019854D01*
X019146D02*
Y046393D01*
X019854Y045841D02*
Y046393D01*
X019146D02*
Y047259D01*
X019854Y046393D02*
Y047259D01*
X019146D02*
X019854D01*
X020296D02*
X021004D01*
Y046707D02*
Y047259D01*
X020296Y046707D02*
Y047259D01*
X021004Y045841D02*
Y046707D01*
X020296Y045841D02*
Y046707D01*
Y045841D02*
X021004D01*
X014109Y044906D02*
Y045614D01*
X013557Y044906D02*
X014109D01*
X013557Y045614D02*
X014109D01*
X012691Y044906D02*
X013557D01*
X012691Y045614D02*
X013557D01*
X012691Y044906D02*
Y045614D01*
X017996Y047259D02*
X018704D01*
Y046707D02*
Y047259D01*
X017996Y046707D02*
Y047259D01*
X018704Y045841D02*
Y046707D01*
X017996Y045841D02*
Y046707D01*
Y045841D02*
X018704D01*
X014109Y046038D02*
Y046747D01*
X013557Y046038D02*
X014109D01*
X013557Y046747D02*
X014109D01*
X012691Y046038D02*
X013557D01*
X012691Y046747D02*
X013557D01*
X012691Y046038D02*
Y046747D01*
X015753Y0465D02*
X016147D01*
X01595Y046303D02*
Y046697D01*
X017369Y044906D02*
Y048094D01*
X014531Y044906D02*
Y048094D01*
X017369D01*
X014531Y044906D02*
X017369D01*
X021609Y044341D02*
Y04505D01*
X020743Y044341D02*
X021609D01*
X020743Y04505D02*
X021609D01*
X020191Y044341D02*
X020743D01*
X020191Y04505D02*
X020743D01*
X020191Y044341D02*
Y04505D01*
X029109Y021946D02*
Y022654D01*
X028557Y021946D02*
X029109D01*
X028557Y022654D02*
X029109D01*
X027691Y021946D02*
X028557D01*
X027691Y022654D02*
X028557D01*
X027691Y021946D02*
Y022654D01*
X022146Y047259D02*
X022854D01*
Y046707D02*
Y047259D01*
X022146Y046707D02*
Y047259D01*
X022854Y045841D02*
Y046707D01*
X022146Y045841D02*
Y046707D01*
Y045841D02*
X022854D01*
X028559Y036546D02*
Y037254D01*
X027693Y036546D02*
X028559D01*
X027693Y037254D02*
X028559D01*
X027141Y036546D02*
X027693D01*
X027141Y037254D02*
X027693D01*
X027141Y036546D02*
Y037254D01*
X029846Y027897D02*
X030554D01*
Y027346D02*
Y027897D01*
X029846Y027346D02*
Y027897D01*
X030554Y02648D02*
Y027346D01*
X029846Y02648D02*
Y027346D01*
Y02648D02*
X030554D01*
X026958Y025904D02*
X027352D01*
X027155Y025707D02*
Y026101D01*
X024948Y032046D02*
Y032754D01*
X025499D01*
X024948Y032046D02*
X025499D01*
Y032754D02*
X026365D01*
X025499Y032046D02*
X026365D01*
Y032754D01*
X029459Y032046D02*
Y032754D01*
X028907Y032046D02*
X029459D01*
X028907Y032754D02*
X029459D01*
X028041Y032046D02*
X028907D01*
X028041Y032754D02*
X028907D01*
X028041Y032046D02*
Y032754D01*
X023746Y023841D02*
X024454D01*
X023746D02*
Y024393D01*
X024454Y023841D02*
Y024393D01*
X023746D02*
Y025259D01*
X024454Y024393D02*
Y025259D01*
X023746D02*
X024454D01*
M02*
